<svg xmlns="http://www.w3.org/2000/svg" fill="none" viewBox="0 0 768 388" height="388" width="768">
<g clip-path="url(#clip0_7078_19674)">
<g opacity="0.4">
<rect fill="url(#paint0_linear_7078_19674)" transform="matrix(-0.707107 0.707107 0.707107 0.707107 726.188 193.55)" height="228.837" width="50.2864" opacity="0.3"></rect>
<rect fill="url(#paint1_linear_7078_19674)" transform="matrix(-0.707107 0.707107 0.707107 0.707107 706.131 285.477)" height="228.837" width="61.5376" opacity="0.3"></rect>
<rect fill="url(#paint2_linear_7078_19674)" transform="matrix(-0.707107 0.707107 0.707107 0.707107 653.821 298.101)" height="228.837" width="41.2403" opacity="0.3"></rect>
</g>
<mask height="221" width="223" y="107" x="425" maskUnits="userSpaceOnUse" style="mask-type:alpha" id="mask0_7078_19674">
<path fill="#D9D9D9" d="M425 107H647.358V327.291H425V107Z"></path>
</mask>
<g mask="url(#mask0_7078_19674)">
<path fill="#5E6673" d="M500.935 375.493L523.507 280.229L541.759 284.553L519.188 379.818L500.935 375.493Z" clip-rule="evenodd" fill-rule="evenodd"></path>
<path fill="#5E6673" d="M549.48 283.28L568.068 380.205L549.646 383.738L531.058 286.813L549.48 283.28Z" clip-rule="evenodd" fill-rule="evenodd"></path>
<path fill="#F0B90B" d="M550.657 272.571V289.181H521.362V272.571C521.362 264.481 527.92 257.923 536.009 257.923C544.099 257.923 550.657 264.481 550.657 272.571Z"></path>
<path fill="#B97030" d="M530.072 265.58C530.072 269.836 533.523 273.286 537.779 273.286L578.841 273.286C589.957 273.286 597.322 261.756 592.647 251.671L581.883 228.447L583.794 222.86C584.607 220.483 584.497 217.888 583.488 215.587L582.49 213.315C582.332 212.954 581.838 212.908 581.617 213.234L571.368 228.325L570.885 225.821C570.622 224.462 569.308 223.573 567.949 223.835C566.59 224.097 565.7 225.412 565.963 226.771L567.244 233.41C567.309 233.748 567.44 234.057 567.62 234.327L578.533 257.873L537.779 257.873C533.523 257.873 530.072 261.323 530.072 265.58Z" clip-rule="evenodd" fill-rule="evenodd" opacity="0.9"></path>
</g>
<path fill="#B97030" d="M496.17 213.412L502.165 230.645L503.281 228.348C503.886 227.103 505.386 226.585 506.631 227.19C507.876 227.795 508.394 229.295 507.789 230.54L505.236 235.792L495.002 257.873H537.078C541.334 257.873 544.784 261.323 544.784 265.58C544.784 269.836 541.334 273.287 537.078 273.287H494.694C483.578 273.287 476.213 261.756 480.888 251.671L491.946 227.813L491.96 227.82L491.576 222.146C491.406 219.64 492.183 217.161 493.753 215.2L495.305 213.263C495.552 212.956 496.04 213.04 496.17 213.412Z" clip-rule="evenodd" fill-rule="evenodd" opacity="0.9"></path>
<path fill="#F0B90B" d="M530.072 265.58C530.072 269.836 533.523 273.287 537.779 273.287L564.123 273.287L564.123 257.873L537.779 257.873C533.523 257.873 530.072 261.324 530.072 265.58Z" clip-rule="evenodd" fill-rule="evenodd"></path>
<path fill="#F0B90B" d="M544.784 265.58C544.784 269.836 541.334 273.287 537.077 273.287H508.274L508.274 257.873H537.077C541.334 257.873 544.784 261.324 544.784 265.58Z" clip-rule="evenodd" fill-rule="evenodd"></path>
<path fill="#B97030" d="M536.179 230.815C541.773 230.815 546.308 235.354 546.308 240.954C546.308 246.554 541.773 251.094 536.179 251.094C530.584 251.094 526.049 246.554 526.049 240.954C526.049 235.355 530.584 230.815 536.179 230.815Z" opacity="0.9"></path>
<path fill="#F0B90B" d="M545.268 236.987C545.366 236.889 545.394 236.74 545.335 236.615C543.711 233.185 540.22 230.812 536.176 230.812C532.131 230.813 528.639 233.187 527.016 236.619C526.957 236.745 526.985 236.893 527.083 236.992L528.074 237.983C528.205 238.114 528.418 238.114 528.549 237.983L530.693 235.839C530.824 235.708 531.036 235.708 531.167 235.839L533.312 237.983C533.443 238.114 533.655 238.114 533.786 237.983L535.934 235.835C536.065 235.704 536.277 235.704 536.408 235.835L538.556 237.983C538.687 238.114 538.899 238.114 539.03 237.983L541.177 235.836C541.308 235.705 541.52 235.705 541.651 235.836L543.798 237.983C543.929 238.114 544.141 238.114 544.272 237.983L545.268 236.987Z" clip-rule="evenodd" fill-rule="evenodd"></path>
<path fill="url(#paint3_linear_7078_19674)" d="M536.475 129.34C523.929 129.34 513.759 139.511 513.759 152.057C513.759 164.603 523.929 174.773 536.475 174.773C549.021 174.773 559.192 164.603 559.192 152.057C559.192 139.511 549.021 129.34 536.475 129.34ZM536.483 161.266L545.693 152.056L536.483 142.847L527.274 152.056L536.483 161.266Z" clip-rule="evenodd" fill-rule="evenodd"></path>
<path fill="#F8D33A" d="M536.475 136.08C527.651 136.08 520.498 143.233 520.498 152.057C520.498 160.881 527.651 168.034 536.475 168.034C545.299 168.034 552.452 160.881 552.452 152.057C552.452 143.233 545.299 136.08 536.475 136.08ZM536.475 129.34C523.929 129.34 513.759 139.511 513.759 152.057C513.759 164.603 523.929 174.773 536.475 174.773C549.021 174.773 559.192 164.603 559.192 152.057C559.192 139.511 549.021 129.34 536.475 129.34Z" clip-rule="evenodd" fill-rule="evenodd"></path>
<path fill="url(#paint4_linear_7078_19674)" d="M513.76 147.957C513.76 147.957 513.76 147.957 513.76 147.957C513.76 160.503 523.93 170.674 536.476 170.674C548.944 170.674 559.066 160.63 559.192 148.192V201.589H513.758V147.957H513.76Z" clip-rule="evenodd" fill-rule="evenodd" opacity="0.4"></path>
<path fill="#848D9A" d="M533.167 222.32H504.914V201.11H533.167V222.32ZM540.628 222.32H568.036V201.11H540.628V222.32ZM568.036 193.639H540.628V180.858H533.167V193.639H504.914V180.857H568.036V193.639Z" clip-rule="evenodd" fill-rule="evenodd"></path>
<path fill="#CACED3" d="M466.212 175.898L476.102 166.008L479.462 162.648L489.352 152.758L486.438 149.844L480.045 156.238L480.035 147.363L473.035 147.355L473.044 156.23L466.638 149.823L463.277 153.184L469.684 159.591L460.809 159.581L460.816 166.582L469.691 166.591L463.298 172.984L466.212 175.898Z"></path>
<path fill="#848D9A" d="M499.4 142.658L454.278 187.78L463.152 196.654L483.311 176.495L474.439 167.622L481.076 160.986L489.948 169.858L508.274 151.532L499.4 142.658Z" clip-rule="evenodd" fill-rule="evenodd"></path>
<rect fill="#929AA5" transform="rotate(-45 474.439 167.623)" height="12.5489" width="9.38606" y="167.623" x="474.439" opacity="0.4"></rect>
<path fill="#929AA5" d="M533.167 180.857V193.639H504.914V201.11H533.167V222.321H540.628V201.11H568.037V193.639H540.628V180.857H533.167Z" opacity="0.4"></path>
<path fill="white" d="M491.168 195.824L495.008 191.983L498.849 195.824L495.008 199.665L491.168 195.824Z" opacity="0.3"></path>
<path fill="#F0B90B" d="M573.94 175.457L577.252 172.146L580.563 175.457L577.252 178.769L573.94 175.457Z" opacity="0.8"></path>
<path fill="#CACED3" d="M585.021 185.89L582.664 188.247L580.307 185.89L582.664 183.533L585.021 185.89Z" opacity="0.3"></path>
</g>
<defs>
<linearGradient gradientUnits="userSpaceOnUse" y2="228.837" x2="25.1432" y1="0" x1="25.1432" id="paint0_linear_7078_19674">
<stop stop-color="#F8D33A"></stop>
<stop stop-opacity="0" stop-color="#FCEA9C" offset="1"></stop>
</linearGradient>
<linearGradient gradientUnits="userSpaceOnUse" y2="228.837" x2="30.7688" y1="0" x1="30.7688" id="paint1_linear_7078_19674">
<stop stop-color="#F8D33A"></stop>
<stop stop-opacity="0" stop-color="#FCEA9C" offset="1"></stop>
</linearGradient>
<linearGradient gradientUnits="userSpaceOnUse" y2="228.837" x2="20.6201" y1="0" x1="20.6201" id="paint2_linear_7078_19674">
<stop stop-color="#F8D33A"></stop>
<stop stop-opacity="0" stop-color="#FCEA9C" offset="1"></stop>
</linearGradient>
<linearGradient gradientUnits="userSpaceOnUse" y2="129.34" x2="536.475" y1="174.773" x1="536.475" id="paint3_linear_7078_19674">
<stop stop-color="#F0B90B"></stop>
<stop stop-color="#F8D33A" offset="1"></stop>
</linearGradient>
<linearGradient gradientUnits="userSpaceOnUse" y2="201.589" x2="536.475" y1="147.957" x1="536.475" id="paint4_linear_7078_19674">
<stop stop-color="#F8D33A"></stop>
<stop stop-opacity="0" stop-color="#F8D33A" offset="1"></stop>
</linearGradient>
<clipPath id="clip0_7078_19674">
<rect fill="white" height="388" width="768"></rect>
</clipPath>
</defs>
</svg>
