<?xml version="1.0" encoding="UTF-8" standalone="no"?>
<!DOCTYPE svg PUBLIC "-//W3C//DTD SVG 1.1//EN" "http://www.w3.org/Graphics/SVG/1.1/DTD/svg11.dtd">
<svg width="100%" height="100%" viewBox="0 0 400 400" version="1.1" xmlns="http://www.w3.org/2000/svg" xmlns:xlink="http://www.w3.org/1999/xlink" xml:space="preserve" xmlns:serif="http://www.serif.com/" style="fill-rule:evenodd;clip-rule:evenodd;stroke-linejoin:round;stroke-miterlimit:2;">
    <g id="svgg">
        <path id="path0" d="M186.328,0.242C142.037,4.017 98.929,21.583 70.464,47.457C70.225,47.674 68.906,48.812 67.534,49.987C62.624,54.189 50.868,66.179 47.337,70.587C46.625,71.477 45.601,72.702 45.062,73.309C44.523,73.917 42.094,77.051 39.664,80.273C0.572,132.114 -10.575,201.355 10.186,263.397C34.26,335.34 96.991,387.642 171.875,398.204C191.175,400.926 216.975,400.452 235.518,397.035C344.014,377.039 415.554,274.845 397.242,166.016C381.253,71 298.798,0.917 202.148,0.197C194.414,0.139 187.295,0.159 186.328,0.242M219.531,46.858C320.242,60.474 380.526,163.072 343.288,257.482L341.338,262.425L336.196,261.072C323.319,257.684 307.471,252.653 296.387,248.435L291.016,246.391L291.016,206.269L292.09,206.688C302.638,210.795 329.456,218.825 330.089,218.066C330.223,217.905 332.678,207.842 335.545,195.703C338.411,183.564 340.835,173.327 340.931,172.954C341.026,172.581 340.865,172.198 340.572,172.103C340.279,172.009 337.337,171.207 334.035,170.321C287.696,157.893 249.535,137.189 207.815,101.839C199.659,94.929 200.071,95.126 197.852,97.085C197.207,97.654 195.911,98.763 194.971,99.548C194.032,100.334 192.889,101.301 192.432,101.697C191.975,102.094 190.828,103.06 189.884,103.846C188.939,104.631 187.972,105.449 187.735,105.664C186.872,106.448 180.234,111.956 178.327,113.472C146.58,138.706 109.66,157.799 71.094,168.927C67.119,170.074 62.848,171.236 61.603,171.51C60.358,171.784 59.261,172.135 59.164,172.29C58.981,172.587 69.64,217.818 69.972,218.149C70.499,218.676 91.474,212.563 102.452,208.682L108.984,206.373L108.984,246.427L104.785,248.055C94.797,251.93 75.637,258.018 63.663,261.121L58.62,262.427L56.279,256.455C43.857,224.776 42.299,188.321 51.988,156.089C67.827,103.4 110.253,63.038 163.486,50.012C171.324,48.095 178.03,47.049 189.648,45.934C194.384,45.479 213.765,46.079 219.531,46.858M216.406,167.936C224.875,173.61 230.64,177.195 238.793,181.858L245.117,185.475L245.218,205.042C245.274,215.804 245.177,224.609 245.001,224.609C243.485,224.609 222.299,211.075 208.611,201.362L200.063,195.296L198.234,196.574C197.227,197.277 195.92,198.203 195.327,198.633C194.735,199.063 193.742,199.761 193.121,200.185C192.5,200.608 190.146,202.284 187.891,203.909C184.476,206.367 175.089,212.658 169.531,216.212C168.118,217.116 161.41,221.093 157.129,223.565L154.688,224.975L154.688,185.591L158.691,183.35C169.729,177.172 184.496,167.692 194.863,160.127L200.077,156.323L204.823,159.839C207.434,161.773 212.646,165.417 216.406,167.936M206.4,255.036C236.652,273.933 276.28,291.46 311.229,301.401C313.43,302.027 315.232,302.64 315.233,302.763C315.234,302.957 304.21,314.001 302.394,315.625C246.888,365.275 162.151,367.334 103.516,320.456C98.94,316.798 84.766,303.42 84.766,302.759C84.766,302.63 86.304,302.108 88.184,301.601C121.713,292.542 165.946,272.751 197.266,252.793C200.253,250.889 199.441,250.69 206.4,255.036" style="fill:rgb(236,188,60);"/>
    </g>
</svg>
