<svg width="1000" height="1000" viewBox="0 0 1000 1000" fill="none" xmlns="http://www.w3.org/2000/svg">
<circle cx="500" cy="500" r="500" fill="black"/>
<path d="M294.483 502.278L488.533 743.981C490.091 745.888 492.063 747.414 494.298 748.443C496.533 749.473 498.973 749.978 501.432 749.922H610.085C612.785 750.208 615.509 749.702 617.928 748.467C620.347 747.232 622.356 745.321 623.712 742.964C625.067 740.608 625.712 737.909 625.566 735.193C625.42 732.478 624.49 729.863 622.89 727.667L442.21 502.278C437.785 496.791 435.482 489.891 435.724 482.841C435.966 475.792 438.737 469.066 443.528 463.896L619.501 273.118C621.352 270.986 622.514 268.342 622.833 265.534C623.152 262.726 622.612 259.888 621.286 257.394C619.959 254.9 617.908 252.869 615.404 251.568C612.9 250.267 610.06 249.757 607.26 250.108H500.773C498.485 250.074 496.215 250.517 494.108 251.41C492 252.303 490.102 253.626 488.533 255.294L295.801 463.802C291.021 468.996 288.259 475.735 288.017 482.795C287.775 489.855 290.07 496.768 294.483 502.278V502.278Z" fill="white"/>
</svg>
