<svg width="136" height="68" viewBox="0 0 136 68" fill="none" xmlns="http://www.w3.org/2000/svg">
<path fill-rule="evenodd" clip-rule="evenodd" d="M115.914 21.0014L115.913 21.0054C115.764 21.4674 115.628 21.8908 115.271 22.1892C115.001 22.4149 114.681 22.4923 114.325 22.4498C113.964 22.4064 113.619 22.3148 113.275 22.2006C113.038 22.1222 112.79 22.0712 112.544 22.0287C112.215 21.9711 112.003 22.0759 111.88 22.3762C111.813 22.5405 111.718 22.5849 111.559 22.5735C111.46 22.5665 111.36 22.566 111.262 22.5655C111.216 22.5652 111.17 22.565 111.126 22.5641C111.12 22.5455 111.114 22.5305 111.108 22.5181L111.108 22.5179C111.1 22.4977 111.094 22.4842 111.097 22.4725C111.179 22.0835 111.322 21.7209 111.603 21.431C111.93 21.0921 112.346 20.9854 112.806 21.0212C113.059 21.0407 113.292 21.1301 113.525 21.2198L113.571 21.2375C113.797 21.3234 114.031 21.3933 114.266 21.4452C114.393 21.4726 114.533 21.4622 114.663 21.4433C114.853 21.4159 114.994 21.3168 115.057 21.1194C115.072 21.0722 115.134 21.009 115.177 21.0071C115.35 20.9987 115.523 20.9996 115.712 21.0007L115.712 21.0007C115.777 21.001 115.844 21.0014 115.913 21.0014H115.914ZM43.1514 26.5564H42.3432C42.2525 26.5564 42.2318 26.4922 42.211 26.4186C42.1232 26.1079 42.0051 25.8086 41.8229 25.5405C41.33 24.8134 40.6521 24.3781 39.7768 24.2497C39.0724 24.1468 38.4001 24.2535 37.7524 24.533C36.9573 24.8767 36.456 25.5055 36.1085 26.2694C35.8394 26.8595 35.7025 27.4837 35.6685 28.1323C35.6232 28.9982 35.7459 29.8319 36.0934 30.6307C36.3502 31.2209 36.7515 31.6977 37.2614 32.082C37.6646 32.3861 38.131 32.557 38.6277 32.6221C39.1508 32.691 39.6758 32.7137 40.1922 32.5522C41.0232 32.2926 41.5916 31.7412 41.9759 30.9782C42.1647 30.6034 42.2799 30.2077 42.3451 29.7942C42.3762 29.5949 42.3866 29.5883 42.583 29.5855C42.7314 29.583 42.8795 29.5838 43.0367 29.5846H43.0368H43.0369H43.0369H43.037H43.0371H43.0372H43.0373H43.0373H43.0374H43.0375H43.0376H43.0377H43.0377H43.0378H43.0379C43.1203 29.5851 43.2052 29.5855 43.294 29.5855C43.2907 29.6331 43.2889 29.6771 43.2873 29.7186C43.284 29.7972 43.2812 29.8669 43.2695 29.9349C43.0778 31.0443 42.6264 32.0084 41.7143 32.7194C41.2318 33.0961 40.6823 33.3142 40.0855 33.4171C39.3717 33.5408 38.6579 33.5135 37.9611 33.3142C36.5891 32.9214 35.6732 32.0206 35.1369 30.7195C34.9263 30.2096 34.8262 29.6733 34.7573 29.1257C34.6459 28.2447 34.7413 27.3855 35.0075 26.5508C35.4353 25.2119 36.2586 24.2072 37.607 23.6983C38.0781 23.5208 38.571 23.432 39.0818 23.4282C39.6758 23.4226 40.2593 23.4622 40.8192 23.6756C42.1128 24.1666 42.9135 25.074 43.1665 26.4431C43.1689 26.4567 43.1665 26.4709 43.1623 26.4957L43.1623 26.4958L43.1623 26.4958C43.1597 26.5108 43.1565 26.5297 43.1533 26.5546L43.1514 26.5564ZM44.1976 28.5758C44.1957 27.4928 44.3723 26.609 44.7906 25.7828C45.2608 24.8537 45.9624 24.1597 46.933 23.7575C47.4212 23.5554 47.932 23.4336 48.4664 23.4336L48.5144 23.4336C49.0317 23.4335 49.5463 23.4333 50.0546 23.5771C51.0404 23.8557 51.8232 24.408 52.4001 25.2484C52.7995 25.831 53.0469 26.4778 53.1866 27.1699C53.3056 27.7572 53.3207 28.3445 53.2886 28.9422C53.2499 29.6504 53.0875 30.3198 52.7919 30.9572C52.1678 32.3017 51.1329 33.1487 49.6637 33.4055C48.4145 33.6236 47.2182 33.4537 46.154 32.7115C45.274 32.0978 44.7368 31.2395 44.4393 30.2235C44.2666 29.6343 44.1835 29.0309 44.1986 28.5749L44.1976 28.5758ZM45.1598 28.4729C45.1031 29.0885 45.2268 29.7165 45.4459 30.3255C45.6923 31.0119 46.0861 31.603 46.6771 32.0392C47.5657 32.6945 48.575 32.7833 49.6222 32.584C50.3587 32.4443 50.9649 32.06 51.4237 31.4651C52.0224 30.689 52.3113 29.7995 52.3566 28.827C52.3916 28.0782 52.3359 27.3398 52.0771 26.6279C51.843 25.9839 51.5153 25.3985 50.9686 24.9661C50.1094 24.2853 49.1227 24.0955 48.0595 24.2796C46.9217 24.477 46.1201 25.1323 45.6272 26.1596C45.2835 26.8762 45.1107 27.6363 45.1588 28.4729H45.1598ZM90.4006 26.4562C90.4226 26.4534 90.4464 26.4504 90.4729 26.4477L90.471 26.4468C90.4732 26.4238 90.4763 26.4032 90.4791 26.3843L90.4791 26.3842L90.4792 26.384C90.4849 26.3456 90.4896 26.3144 90.4833 26.2853C90.4652 26.1996 90.4493 26.113 90.4333 26.0263L90.4332 26.0259C90.3924 25.8046 90.3515 25.5828 90.2756 25.3732C90.0008 24.6112 89.4333 24.1193 88.6987 23.8171C87.7989 23.4479 86.8603 23.3554 85.9019 23.5017C85.3628 23.5848 84.8463 23.7539 84.3836 24.0503C83.4394 24.6556 82.9985 25.511 83.1099 26.6356C83.1845 27.3929 83.5735 27.95 84.2137 28.3465C84.6386 28.61 85.1041 28.778 85.5809 28.9112C85.9066 29.0022 86.2336 29.0869 86.5605 29.1714L86.5608 29.1715C86.8338 29.2421 87.1068 29.3127 87.3787 29.3871C87.7592 29.4909 88.1246 29.6354 88.4362 29.8866C89.0604 30.3889 88.8574 31.2104 88.3824 31.522C88.2276 31.6239 88.0519 31.7061 87.8754 31.7627C87.4977 31.8845 87.1068 31.8949 86.7111 31.876C86.3703 31.859 86.037 31.8203 85.7273 31.6711C85.2061 31.4209 84.8727 31.0225 84.7764 30.4418C84.7644 30.3714 84.749 30.3015 84.7341 30.2343L84.7341 30.2341L84.734 30.234L84.734 30.234C84.7268 30.2011 84.7197 30.169 84.7132 30.1377C84.3308 30.0858 82.9295 30.1037 82.753 30.1642C82.7556 30.1952 82.7581 30.2266 82.7606 30.2582L82.7607 30.2598C82.7671 30.3413 82.7737 30.4243 82.7832 30.5069C82.8814 31.3463 83.2383 32.045 83.9106 32.5748C84.2666 32.8552 84.6669 33.0506 85.0946 33.1932C85.7905 33.4255 86.5081 33.4718 87.2352 33.4416C87.7167 33.4217 88.1888 33.3471 88.6449 33.1923C89.8516 32.7825 90.6514 32.0101 90.7977 30.6967C90.8799 29.9545 90.6854 29.2823 90.1698 28.7223C89.7062 28.22 89.1076 27.9509 88.4636 27.7725C88.1918 27.6972 87.9184 27.6268 87.645 27.5564L87.6446 27.5563C87.3178 27.4722 86.9911 27.3881 86.6668 27.2956C86.29 27.188 85.9142 27.07 85.5554 26.9151C85.1494 26.7395 84.9993 26.3807 85.088 25.9454C85.1787 25.4969 85.4685 25.2334 85.8878 25.106C86.4052 24.9492 86.9255 24.971 87.4439 25.1192C88.0217 25.2844 88.3597 25.6687 88.4844 26.2485L88.4856 26.2539C88.5307 26.461 88.5315 26.4647 88.7346 26.4647C89.1234 26.4661 89.5128 26.4659 89.9018 26.4658L90.2907 26.4657C90.3256 26.4657 90.3601 26.4613 90.4006 26.4562ZM8.07831 23.6177L8.07837 23.6177C8.13062 23.6202 8.18286 23.6228 8.23511 23.6228C8.66166 23.6236 9.08822 23.623 9.51475 23.6224C10.5573 23.6209 11.5998 23.6194 12.6418 23.6388C13.282 23.6501 13.8995 23.8125 14.4386 24.1921C14.9155 24.5283 15.1695 24.9919 15.2563 25.5622C15.3092 25.9087 15.3083 26.2496 15.2148 26.5857C15.0193 27.2863 14.5803 27.7792 13.908 28.0625L13.908 28.0625C13.8796 28.0748 13.8513 28.087 13.8258 28.104C13.8186 28.1089 13.8148 28.1184 13.8083 28.1348C13.8046 28.144 13.8002 28.1553 13.7937 28.1692C13.8101 28.1766 13.8262 28.1847 13.8422 28.1928L13.8422 28.1928C13.8771 28.2103 13.9117 28.2278 13.9486 28.2381C14.8201 28.4789 15.3602 29.0445 15.5981 29.9075C15.6002 29.9146 15.6029 29.9218 15.6055 29.929C15.6113 29.9445 15.617 29.96 15.617 29.9755C15.6159 30.0973 15.6193 30.22 15.6227 30.3427C15.6305 30.6211 15.6384 30.8996 15.5925 31.169C15.4329 32.1009 14.8465 32.6939 13.9675 33.013C13.4755 33.1915 12.9628 33.2765 12.4444 33.2821C11.4462 33.2939 10.4479 33.293 9.44928 33.292H9.44919H9.44911H9.44902H9.44894H9.44886H9.44877H9.44869H9.4486H9.44852H9.44843H9.44835H9.44827H9.44818H9.4481H9.44801H9.44793H9.44784H9.44776H9.44767H9.44759H9.44751H9.44742H9.44734H9.44725H9.44717H9.44708H9.447C9.08715 33.2917 8.72726 33.2913 8.3673 33.2916C8.31407 33.2916 8.26083 33.2875 8.20378 33.283L8.20374 33.283C8.17883 33.2811 8.1532 33.2791 8.12653 33.2774V32.9554C8.07743 33.0357 8.03871 33.0999 8 33.1641V23.6143C8.0261 23.6152 8.05221 23.6165 8.07831 23.6177ZM10.9667 32.471V32.4663C11.1081 32.4663 11.2496 32.4672 11.3911 32.4682H11.3912H11.3913H11.3914H11.3915H11.3916H11.3917H11.3918H11.3919H11.392H11.3921H11.3922H11.3923H11.3924H11.3925H11.3926H11.3927H11.3928H11.3929H11.393H11.3931H11.3932H11.3933H11.3934H11.3935H11.3936H11.3937H11.3938C11.7305 32.4703 12.0674 32.4725 12.4038 32.4625C12.6767 32.455 12.9534 32.4314 13.2196 32.3738C13.807 32.2463 14.28 31.9517 14.5444 31.3852C14.6804 31.0934 14.7096 30.7856 14.7087 30.4693C14.7059 29.7517 14.3102 29.1719 13.6398 28.9028C13.1885 28.7215 12.7154 28.6507 12.2358 28.646C11.4387 28.6383 10.6422 28.6419 9.84533 28.6456H9.84524L9.31341 28.6479C9.05186 28.6479 9.0292 28.6715 9.0292 28.9283C9.02826 30.017 9.02826 31.1057 9.0292 32.1953C9.0292 32.4512 9.04997 32.4701 9.31719 32.471C9.68358 32.4723 10.0504 32.4719 10.4171 32.4715H10.4172H10.4173H10.4174H10.4175H10.4176H10.4177H10.4178H10.4179H10.418H10.4181H10.4182H10.4183H10.4184H10.4185H10.4186H10.4187H10.4188H10.4189H10.419H10.4192H10.4193H10.4194H10.4195H10.4196H10.4197H10.4198H10.4199C10.6022 32.4713 10.7845 32.471 10.9667 32.471ZM10.76 27.8557V27.8746C10.9359 27.8692 11.1118 27.8645 11.2878 27.8597L11.2878 27.8597L11.2879 27.8597L11.288 27.8597L11.2881 27.8597L11.2882 27.8597L11.2883 27.8597L11.2884 27.8597L11.2885 27.8597L11.2886 27.8597L11.2887 27.8597L11.2888 27.8597L11.2889 27.8597L11.289 27.8597L11.2891 27.8597L11.2892 27.8597L11.2893 27.8597L11.2894 27.8597L11.2895 27.8597L11.2896 27.8597L11.2897 27.8597L11.2898 27.8597L11.2899 27.8597L11.29 27.8597L11.2901 27.8596L11.2902 27.8596L11.2903 27.8596L11.2904 27.8596H11.2904H11.2904H11.2904H11.2904H11.2904H11.2904H11.2905H11.2905H11.2905H11.2905H11.2905H11.2905H11.2905H11.2906H11.2906H11.2906H11.2906H11.2906H11.2906H11.2906H11.2907H11.2907H11.2907H11.2907H11.2907H11.2907H11.2907C11.7332 27.8477 12.1754 27.8357 12.6172 27.8141C12.9657 27.7972 13.298 27.7008 13.5992 27.5196C13.9797 27.2901 14.2404 26.9672 14.3168 26.5215C14.3442 26.361 14.3433 26.1929 14.3357 26.0296C14.3064 25.4158 14.0213 24.9607 13.468 24.6793C13.0582 24.4707 12.6125 24.4187 12.165 24.414C11.3735 24.4054 10.5826 24.4091 9.79131 24.4128H9.7913H9.7913H9.79129H9.79129H9.79128H9.79127H9.79127H9.79126H9.79125H9.79125H9.79124H9.79123H9.79123H9.79122H9.79121H9.79121H9.7912H9.7912H9.79119H9.79118H9.79118H9.79117H9.79116H9.79116H9.79115H9.79114H9.79109L9.29075 24.415C9.05658 24.415 9.0292 24.4433 9.0292 24.6699C9.02731 25.6406 9.02731 26.6122 9.0292 27.5828C9.0292 27.8283 9.05564 27.8538 9.29925 27.8548C9.62402 27.8566 9.94838 27.856 10.2729 27.8554C10.4352 27.8551 10.5975 27.8548 10.76 27.8548V27.8557ZM103.48 47.0873C103.638 47.026 103.795 47.0345 103.953 47.0873H103.48ZM111.877 47.0872C112.035 47.0277 112.192 47.0249 112.35 47.0872H111.877ZM124.992 47.0875C125.149 47.0214 125.306 47.0205 125.464 47.0875H124.992ZM111.389 27.3661V27.365C111.39 27.1914 111.391 27.0179 111.391 26.8444L111.392 26.8472L111.47 26.8245C111.489 26.8519 111.508 26.8791 111.527 26.9063C111.565 26.9606 111.603 27.015 111.638 27.071L111.99 27.6369C113.113 29.4378 114.235 31.2389 115.352 33.0432C115.441 33.1867 115.537 33.25 115.708 33.2462C116.033 33.2399 116.358 33.2411 116.682 33.2424H116.683C116.845 33.243 117.007 33.2437 117.17 33.2434C117.205 33.2433 117.237 33.2436 117.265 33.2438L117.265 33.2438C117.388 33.245 117.454 33.2456 117.489 33.2131C117.53 33.1755 117.53 33.0937 117.53 32.9173V32.9172L117.53 32.8883V25.8813L117.53 25.4871C117.53 24.9597 117.53 24.4329 117.528 23.906C117.527 23.6907 117.513 23.6765 117.302 23.6746C116.815 23.6708 116.328 23.6708 115.84 23.6727C115.795 23.6734 115.75 23.681 115.7 23.6893L115.7 23.6893C115.677 23.6933 115.652 23.6974 115.626 23.7011C115.618 25.8416 115.611 27.9595 115.602 30.1321C115.571 30.1066 115.546 30.087 115.524 30.0705C115.485 30.0412 115.46 30.0219 115.442 29.9971C115.377 29.9084 115.319 29.8149 115.262 29.7214L114.91 29.1565C113.804 27.381 112.699 25.6059 111.597 23.8285C111.525 23.7124 111.445 23.668 111.313 23.669C110.998 23.6717 110.684 23.6719 110.37 23.6721C110.134 23.6723 109.898 23.6725 109.662 23.6737C109.617 23.6737 109.572 23.681 109.521 23.6892C109.496 23.6932 109.47 23.6974 109.442 23.7011V24.0013V32.8421C109.442 32.8628 109.442 32.8836 109.442 32.9045C109.441 32.9464 109.441 32.9884 109.442 33.03C109.447 33.2292 109.454 33.2386 109.66 33.2396C110.155 33.2424 110.651 33.2424 111.146 33.2405C111.186 33.2405 111.226 33.2337 111.276 33.2253C111.301 33.2211 111.328 33.2165 111.358 33.2122V32.1462L111.359 31.9685C111.359 31.6746 111.36 31.3808 111.364 31.0877C111.366 30.922 111.37 30.7561 111.374 30.5902C111.378 30.4034 111.383 30.2167 111.385 30.0302C111.387 29.7613 111.387 29.4919 111.387 29.2224V29.2204L111.386 28.949C111.387 28.5959 111.387 28.2437 111.387 27.8906C111.388 27.7155 111.389 27.5407 111.389 27.3661ZM76.7024 29.0979C76.6983 29.1392 76.6936 29.1776 76.6892 29.2141V29.2142V29.2143V29.2143C76.6802 29.2878 76.6722 29.3534 76.6722 29.419C76.6694 30.0223 76.6703 30.6266 76.6722 31.23C76.6722 31.5114 76.6845 31.5236 76.964 31.5246C77.7502 31.5252 78.5364 31.525 79.3226 31.5248L80.502 31.5246C80.6099 31.5246 80.7178 31.5244 80.8256 31.5243H80.8257H80.8258H80.8259H80.826H80.826H80.8261H80.8262H80.8263H80.8264H80.8265H80.8266H80.8267H80.8268H80.8269H80.827H80.8271H80.8271H80.8272H80.8273H80.8274H80.8275H80.8276H80.8277C81.0965 31.5239 81.365 31.5235 81.6341 31.5255C81.8484 31.5274 81.8626 31.5416 81.8645 31.7521C81.8673 32.16 81.8664 32.5679 81.8645 32.9749C81.8645 33.2374 81.8597 33.2412 81.6039 33.2412C81.2485 33.2418 80.8931 33.2416 80.5374 33.2414H80.5372H80.537H80.5368H80.5366H80.5364H80.5362H80.536H80.5358H80.5356H80.5353H80.5351H80.5349L79.9996 33.2412H74.9528C74.9347 33.2412 74.9166 33.2413 74.8986 33.2415C74.8537 33.2419 74.8091 33.2422 74.7639 33.2402C74.6025 33.2317 74.5902 33.2194 74.5826 33.0637C74.5807 33.0322 74.5814 33.0008 74.582 32.9697V32.9693L74.5825 32.9393L74.5826 32.923V23.9623V23.8679C74.5855 23.6366 74.5874 23.6318 74.8225 23.6318H81.5208C81.7606 23.6318 81.7691 23.6422 81.771 23.8877C81.7729 24.2871 81.7719 24.6875 81.771 25.0869C81.771 25.3881 81.7691 25.389 81.4736 25.39H77.3936C77.3537 25.39 77.3138 25.3898 77.2739 25.3897C77.1407 25.3892 77.0074 25.3887 76.8752 25.3938C76.709 25.4004 76.6769 25.4277 76.675 25.5873C76.6703 26.152 76.6703 26.7166 76.675 27.2803C76.676 27.4597 76.7034 27.4824 76.8837 27.4861L77.1246 27.4908L77.1247 27.4908L77.1248 27.4908L77.1249 27.4908L77.125 27.4908L77.1251 27.4908L77.1252 27.4908L77.1252 27.4908L77.1253 27.4908L77.1254 27.4908L77.1255 27.4908L77.1256 27.4908L77.1257 27.4908L77.1258 27.4908L77.1259 27.4908L77.126 27.4908L77.1261 27.4908L77.1262 27.4908L77.1263 27.4908L77.1263 27.4908L77.1264 27.4908L77.1265 27.4908L77.1266 27.4908L77.1267 27.4908C77.6897 27.5016 78.2527 27.5125 78.8165 27.5182C79.3434 27.523 79.8703 27.522 80.3971 27.5182C80.525 27.5173 80.6526 27.5108 80.7803 27.5043C80.8958 27.4985 81.0113 27.4927 81.127 27.4909C81.3291 27.488 81.3423 27.5041 81.3442 27.7033C81.347 28.0952 81.347 28.487 81.3442 28.8789C81.3423 29.0894 81.3338 29.096 81.11 29.097C80.6493 29.0976 80.1889 29.0974 79.7284 29.0972H79.7283H79.7283H79.7282H79.7281H79.728H79.7279H79.7278H79.7277H79.7276H79.7275H79.7274H79.7273H79.7272H79.7272H79.7271H79.727H79.7269H79.7268H79.7267H79.7266L79.0346 29.097H76.9828H76.7062L76.7024 29.0979ZM127.814 33.2232C127.783 33.2264 127.756 33.2296 127.732 33.2325C127.676 33.239 127.634 33.244 127.592 33.244C127.027 33.2449 126.46 33.2459 125.894 33.244C125.684 33.244 125.683 33.2403 125.616 33.0444L125.614 33.0381L125.612 33.0323C125.421 32.4706 125.23 31.9088 125.037 31.348C124.949 31.093 124.947 31.0921 124.69 31.0921C123.653 31.0902 122.615 31.0893 121.577 31.0893C121.318 31.0893 121.293 31.1129 121.209 31.3584C121.088 31.7096 120.966 32.0602 120.843 32.4107L120.843 32.4111L120.843 32.4117L120.842 32.4124L120.842 32.413L120.842 32.4136L120.842 32.414L120.842 32.4145L120.842 32.4149L120.841 32.4154L120.841 32.4158L120.841 32.4163L120.841 32.4167L120.841 32.4172L120.841 32.4176L120.84 32.4181L120.84 32.4185L120.84 32.419L120.84 32.4194L120.84 32.4199L120.84 32.4203L120.839 32.4209C120.767 32.6285 120.694 32.8361 120.622 33.0438C120.58 33.1618 120.531 33.2477 120.376 33.2459C119.984 33.2408 119.59 33.2417 119.197 33.2425H119.197H119.197H119.197H119.197H119.197H119.197C119 33.2429 118.804 33.2433 118.608 33.243C118.583 33.243 118.559 33.2376 118.53 33.2312L118.503 33.2254L118.482 33.2213C118.488 33.1986 118.493 33.1771 118.497 33.1565C118.505 33.12 118.512 33.0866 118.524 33.0551C119.534 30.3971 120.544 27.7392 121.556 25.0802L121.792 24.4585L122.023 23.8499L122.024 23.848C122.105 23.6327 122.106 23.6309 122.346 23.6309H123.997C124.232 23.6309 124.234 23.6327 124.318 23.8575L124.354 23.955L124.356 23.9614C124.926 25.4819 125.496 27.0024 126.065 28.5238C126.62 30.0053 127.176 31.4877 127.73 32.9692C127.748 33.0188 127.765 33.0689 127.786 33.1306L127.817 33.2213L127.814 33.2232ZM123.118 25.9942C122.913 26.5702 122.712 27.1336 122.513 27.6944L122.493 27.7508L122.483 27.7774C122.275 28.3619 122.068 28.944 121.857 29.5351C122.718 29.6059 123.539 29.6191 124.398 29.5341L124.194 28.9389L124.19 28.926C123.867 27.982 123.551 27.0572 123.233 26.133C123.226 26.1132 123.21 26.0962 123.183 26.0667C123.166 26.0485 123.145 26.0256 123.118 25.9942ZM108.454 33.2296C108.469 33.2281 108.485 33.2266 108.502 33.2252L108.503 33.2261C108.495 33.1971 108.487 33.17 108.48 33.1444L108.48 33.1441C108.464 33.085 108.45 33.0338 108.432 32.9844C108.307 32.6464 108.182 32.3084 108.055 31.9713L107.066 29.3296L106.078 26.6893L105.837 26.0469L105.836 26.0446L105.835 26.0425L105.834 26.0408L105.834 26.0392L105.833 26.0379L105.833 26.0367L105.833 26.0357C105.559 25.3077 105.285 24.5797 105.016 23.85C104.959 23.6971 104.883 23.6262 104.708 23.63C104.329 23.6371 103.951 23.6359 103.572 23.6346L103.572 23.6346C103.393 23.6341 103.213 23.6335 103.034 23.6338C102.813 23.6338 102.81 23.6357 102.728 23.8481C102.485 24.476 102.244 25.1049 102.004 25.7347L99.409 32.5671C99.3487 32.7272 99.29 32.8878 99.2285 33.0564L99.1692 33.2186C99.1954 33.2225 99.2186 33.2267 99.2398 33.2305C99.2807 33.2379 99.3144 33.2441 99.3486 33.2441C99.5639 33.2448 99.779 33.2447 99.9941 33.2446C100.353 33.2445 100.711 33.2443 101.07 33.2479C101.211 33.2488 101.28 33.1988 101.325 33.0647C101.478 32.6061 101.637 32.1492 101.796 31.6922L101.929 31.3103C102.001 31.1007 102.008 31.0913 102.228 31.0913C103.281 31.0894 104.334 31.0894 105.388 31.0913C105.644 31.0922 105.662 31.1101 105.741 31.3452L105.848 31.6626L105.849 31.6647C106.001 32.1146 106.153 32.5648 106.307 33.0137C106.385 33.2384 106.393 33.2431 106.627 33.2431C107.176 33.2441 107.727 33.2441 108.277 33.2431C108.322 33.2431 108.367 33.2385 108.419 33.2331L108.454 33.2296ZM102.566 29.5372C103.431 29.6079 104.241 29.6145 105.05 29.5399C105.053 29.3548 103.964 26.1596 103.849 26.0095C103.84 26.0219 103.83 26.0336 103.82 26.0452C103.799 26.0696 103.779 26.0933 103.769 26.1209C103.473 26.9573 103.179 27.7947 102.879 28.6475L102.566 29.5372ZM94.2498 29.8043C94.2464 29.8494 94.2425 29.8911 94.2387 29.9305C94.2319 30.0016 94.2259 30.0653 94.2252 30.1291C94.2242 30.6541 94.2243 31.1795 94.2245 31.7047V31.7144C94.2246 32.1107 94.2247 32.5071 94.2243 32.9032C94.2243 32.9299 94.2238 32.9568 94.2233 32.9837C94.2226 33.0196 94.2219 33.0555 94.2224 33.0911C94.2243 33.2016 94.1658 33.2432 94.0609 33.2432C93.4718 33.2422 92.8826 33.2422 92.2924 33.2432C92.1697 33.2432 92.1234 33.1837 92.13 33.0675C92.1319 33.031 92.1313 32.9945 92.1306 32.958C92.1303 32.9398 92.13 32.9215 92.13 32.9032V23.97L92.1298 23.9041C92.1291 23.7719 92.1287 23.7036 92.1627 23.6685C92.1988 23.6311 92.274 23.6313 92.4294 23.6319L92.4567 23.6319C92.8661 23.6322 93.2755 23.632 93.6849 23.6317C94.572 23.6311 95.4592 23.6306 96.3469 23.6357C96.8266 23.6386 97.3053 23.6905 97.7642 23.8368C98.8104 24.1702 99.4524 24.8783 99.6989 25.9472C99.8698 26.6893 99.8084 27.4098 99.4987 28.1047C99.1191 28.9545 98.4393 29.4408 97.5527 29.6646C97.1467 29.7675 96.7312 29.7958 96.3148 29.8024C95.8921 29.8091 95.4689 29.8078 95.0459 29.8064C94.8717 29.8058 94.6976 29.8053 94.5236 29.8053H94.2498V29.8043ZM94.2564 25.256C94.2525 25.2834 94.2479 25.3093 94.2434 25.3344C94.2348 25.3827 94.2268 25.4274 94.2262 25.4722C94.2243 26.3031 94.2234 27.1341 94.2262 27.965C94.2262 28.1585 94.2536 28.1897 94.4443 28.1869C94.6147 28.1846 94.7853 28.1834 94.9558 28.1822C95.4845 28.1785 96.0134 28.1749 96.5395 28.1378C97.0513 28.1019 97.4866 27.8743 97.6631 27.3465C97.7387 27.1208 97.7906 26.8706 97.7802 26.6355C97.7538 26.0255 97.5064 25.5459 96.8011 25.3636C96.5376 25.2957 96.261 25.256 95.989 25.2466C95.6207 25.2327 95.2518 25.2356 94.8829 25.2385L94.8827 25.2385C94.7486 25.2396 94.6144 25.2406 94.4802 25.2409C94.4309 25.2409 94.3816 25.2452 94.3261 25.2501C94.304 25.2521 94.2809 25.2541 94.2564 25.256ZM26.5926 25.3743C26.5964 25.3422 26.6002 25.31 26.603 25.2779L26.6068 25.2789C26.6257 25.2723 26.6446 25.2666 26.6635 25.2609C26.6812 25.2832 26.6994 25.3051 26.7175 25.327C26.7562 25.3737 26.7949 25.4204 26.8296 25.4706C28.0767 27.2774 29.3228 29.0852 30.5689 30.893L30.5697 30.8942C30.698 31.0801 30.8264 31.2659 30.9548 31.4517L30.9551 31.4521L30.9554 31.4525L30.9557 31.453L30.9561 31.4534L30.9564 31.454C31.3406 32.0097 31.7244 32.565 32.1041 33.1235C32.189 33.249 32.2844 33.3029 32.4345 33.2953C32.5491 33.2896 32.6645 33.2915 32.7799 33.2934H32.7799C32.8376 33.2944 32.8953 33.2953 32.9529 33.2953C33.1682 33.2947 33.2758 33.1864 33.2758 32.9705V28.2673V28.263C33.2758 26.8226 33.2758 25.3813 33.2739 23.9409C33.2739 23.8766 33.2675 23.8123 33.2603 23.7416L33.2603 23.7415C33.2566 23.7043 33.2526 23.6653 33.2494 23.6237C33.1664 23.6237 33.0862 23.6234 33.0079 23.6232H33.0078H33.0077C32.8563 23.6228 32.712 23.6224 32.5677 23.6237C32.3222 23.6256 32.3165 23.6303 32.3165 23.8748V25.8737V31.3767C32.3165 31.4358 32.3123 31.495 32.3081 31.5542C32.306 31.5838 32.3039 31.6133 32.3023 31.6429C32.2934 31.6458 32.2844 31.6484 32.2754 31.651L32.2624 31.6547L32.2485 31.659C32.2337 31.6415 32.2185 31.6245 32.2034 31.6076C32.1694 31.5695 32.1356 31.5318 32.1069 31.49C31.4833 30.5853 30.86 29.6805 30.2367 28.7756C29.6141 27.8718 28.9915 26.968 28.3687 26.0645C28.2185 25.8467 28.068 25.6291 27.9175 25.4114L27.9161 25.4093L27.9156 25.4086C27.5447 24.8721 27.1737 24.3355 26.806 23.7974C26.7229 23.6756 26.6285 23.6114 26.4765 23.6199C26.3516 23.6264 26.2263 23.6248 26.1011 23.6232C26.0455 23.6225 25.99 23.6218 25.9345 23.6218C25.723 23.6224 25.6173 23.7313 25.6173 23.9485V32.9781V33.0489C25.6201 33.284 25.6267 33.2915 25.8514 33.2944C26.0082 33.2972 26.1659 33.2963 26.3226 33.2944C26.5671 33.2915 26.5775 33.284 26.5775 33.0442C26.5782 32.6784 26.578 32.3127 26.5777 31.947L26.5775 31.3984L26.5773 29.4551C26.5771 28.1592 26.5769 26.863 26.5775 25.5669C26.5775 25.5027 26.5851 25.4385 26.5926 25.3743ZM23.8931 33.2894H24.7797C24.7607 33.2366 24.7448 33.191 24.7304 33.1498L24.73 33.1487L24.7298 33.1482L24.7298 33.1482C24.7075 33.0841 24.6889 33.0309 24.6683 32.9788L23.2407 29.3478L21.813 25.7168L21.7226 25.4876L21.7225 25.4873C21.5023 24.9294 21.2824 24.3719 21.069 23.8123C21.0161 23.6744 20.9415 23.614 20.7914 23.6206C20.5713 23.63 20.3513 23.6291 20.1313 23.6206C19.9907 23.6159 19.9189 23.6744 19.8688 23.8019C19.7615 24.0756 19.6504 24.3475 19.5394 24.6194L19.5393 24.6195L19.5393 24.6197C19.4726 24.7829 19.4059 24.9461 19.3401 25.1096L18.2764 27.7473L17.2128 30.385C17.0817 30.7103 16.9504 31.0356 16.8191 31.361C16.5956 31.9148 16.372 32.4688 16.1496 33.0231C16.13 33.0715 16.1168 33.1221 16.1006 33.1839L16.1006 33.1839C16.0919 33.2175 16.0822 33.2544 16.0703 33.296C16.1558 33.296 16.2374 33.2954 16.3161 33.2948H16.3163H16.3165H16.3167H16.3169H16.317H16.3172H16.3174H16.3175H16.3177H16.3178H16.318H16.3181H16.3183C16.5022 33.2935 16.671 33.2923 16.8398 33.2989C16.989 33.3045 17.0777 33.2479 17.1231 33.1091C17.1351 33.0712 17.1506 33.0344 17.1661 32.9976L17.1661 32.9975C17.1749 32.9766 17.1838 32.9556 17.192 32.9344L18.1324 30.5011C18.2165 30.284 18.2174 30.284 18.4346 30.284C19.7395 30.2849 21.0444 30.2859 22.3493 30.2877C22.5844 30.2877 22.609 30.3038 22.6958 30.5247C22.8377 30.8843 22.9785 31.2442 23.1194 31.6044L23.1195 31.6046L23.2964 32.0563L23.2965 32.0566L23.2966 32.0569L23.2967 32.0572L23.2968 32.0575L23.297 32.0578L23.2971 32.0581L23.2972 32.0584L23.2973 32.0587L23.2975 32.059L23.2976 32.0593L23.2977 32.0596L23.2978 32.0599C23.438 32.4156 23.5782 32.7713 23.7175 33.128C23.7505 33.211 23.7845 33.2894 23.8931 33.2894ZM20.4609 24.6772C20.6658 25.0841 22.2105 29.2708 22.2162 29.4285C22.0349 29.4795 18.7736 29.4795 18.5687 29.4257C18.57 29.4134 18.5708 29.4007 18.5715 29.3879C18.5733 29.3565 18.5752 29.3242 18.5866 29.2954C19.1852 27.7723 19.7867 26.2503 20.3891 24.7291C20.3955 24.7139 20.4142 24.7038 20.4335 24.6933C20.443 24.6882 20.4525 24.6831 20.4609 24.6772ZM56.2308 23.9304V28.4429L56.2317 28.4448V33.028C56.2317 33.2763 56.2402 33.2933 56.4489 33.2896C56.8665 33.2815 57.2844 33.286 57.7023 33.2904H57.7024C58.4625 33.2985 59.2227 33.3065 59.9812 33.2395C60.6695 33.1791 61.3258 33.0025 61.914 32.6267C63.1632 31.8288 63.6854 30.6174 63.8317 29.2096C63.8771 28.7771 63.8856 28.339 63.8563 27.8981C63.8166 27.306 63.7099 26.7348 63.5088 26.1805C63.2435 25.4488 62.8091 24.8369 62.1671 24.3799C61.4712 23.8851 60.6752 23.6717 59.8433 23.6415C59.0625 23.6133 58.2804 23.6175 57.4981 23.6217C57.1565 23.6235 56.8149 23.6254 56.4734 23.6245H56.4026C56.2874 23.6198 56.2232 23.6661 56.2308 23.7898C56.2327 23.8206 56.232 23.8518 56.2314 23.8832C56.2311 23.8989 56.2308 23.9147 56.2308 23.9304ZM56.8549 24.4611V24.1693L56.853 24.1674C56.8943 24.1627 56.9321 24.1573 56.9677 24.1522C57.0379 24.1422 57.0991 24.1335 57.1599 24.1335C57.3421 24.1325 57.5242 24.1308 57.7064 24.1292C58.2163 24.1246 58.726 24.1199 59.2353 24.1297C59.7688 24.1391 60.3022 24.175 60.8206 24.3251C61.9376 24.649 62.6534 25.3798 63.0074 26.4713C63.1755 26.9878 63.2728 27.5175 63.2605 28.0642C63.2573 28.2049 63.2583 28.3452 63.2593 28.4856C63.26 28.5959 63.2608 28.7063 63.2595 28.8168C63.252 29.524 63.1066 30.202 62.7912 30.8365C62.2889 31.8468 61.4646 32.4379 60.3646 32.6673C60.0624 32.7306 59.7593 32.7532 59.4524 32.7532C58.6895 32.7523 57.9275 32.7523 57.1646 32.7523C57.1089 32.7523 57.0541 32.7514 56.9994 32.7485C56.9049 32.7438 56.8568 32.6928 56.8568 32.5984C56.8568 32.5672 56.8563 32.5358 56.8558 32.5044C56.8554 32.473 56.8549 32.4416 56.8549 32.4105V24.4611ZM65.8856 28.6409L65.8855 28.6413C65.8783 28.7054 65.8722 28.7604 65.8722 28.8158C65.8708 29.7265 65.871 30.6366 65.8711 31.5471V31.5472V31.5472V31.5473V31.5474V31.5475V31.5476V31.5477V31.5478V31.5478V31.5479V31.548V31.5481V31.5482L65.8713 32.4605C65.8713 32.4864 65.8721 32.5127 65.8729 32.539L65.8741 32.5775C65.876 32.6899 65.926 32.7541 66.0459 32.7522C66.0813 32.7522 66.1167 32.7527 66.1522 32.7532C66.1876 32.7536 66.223 32.7541 66.2584 32.7541H71.5403C71.7594 32.7541 71.8648 32.8624 71.8567 33.0789C71.85 33.264 71.8368 33.2819 71.6537 33.2838C71.4412 33.2867 71.2294 33.2863 71.0172 33.2859L70.8048 33.2857C69.0599 33.2857 67.315 33.2867 65.57 33.2876C65.5543 33.2876 65.5386 33.2874 65.5228 33.2872C65.4914 33.2868 65.4599 33.2863 65.4284 33.2876C65.3179 33.2904 65.2726 33.2319 65.2736 33.1271C65.2736 33.0997 65.2733 33.0723 65.2731 33.0449C65.2729 33.0175 65.2726 32.9902 65.2726 32.9628V23.9578V23.8869C65.2764 23.6329 65.283 23.6226 65.5408 23.6226H71.5064C71.5532 23.6226 71.6001 23.626 71.6467 23.6293L71.6467 23.6293C71.6696 23.631 71.6923 23.6326 71.715 23.6339C71.7927 23.748 71.7778 23.8657 71.7634 23.9794C71.7613 23.9955 71.7593 24.0116 71.7575 24.0276C71.7528 24.0654 71.6914 24.1126 71.647 24.1239C71.5975 24.1367 71.5436 24.1351 71.4899 24.1335C71.472 24.133 71.4542 24.1324 71.4365 24.1324C69.7152 24.1324 67.9939 24.1324 66.2725 24.1343C66.189 24.1343 66.1055 24.1413 66.0165 24.1488L66.0165 24.1488L66.0165 24.1488L66.0164 24.1488L66.0164 24.1488C65.9747 24.1523 65.9319 24.1559 65.8873 24.1589C65.8853 24.1956 65.8829 24.229 65.8807 24.2603L65.8807 24.2604L65.8806 24.2607C65.8766 24.3167 65.8731 24.3657 65.8731 24.4148V27.7063L65.8731 27.7256C65.873 27.7581 65.8728 27.7911 65.876 27.8234C65.8901 27.9679 65.9147 27.9924 66.0676 28.0019C66.1191 28.0053 66.1707 28.0047 66.2222 28.0042L66.2597 28.0038L66.2801 28.0037H71.09C71.4063 28.0037 71.4365 28.0387 71.4063 28.3588C71.3921 28.5061 71.3723 28.5249 71.2155 28.5325C71.179 28.5344 71.142 28.5338 71.1052 28.5331C71.0868 28.5328 71.0685 28.5325 71.0503 28.5325H66.2168H65.8986L65.8967 28.5334C65.8932 28.5725 65.8893 28.6079 65.8856 28.6409ZM115.435 42.0774H115.434L115.435 42.0746V42.0774ZM115.435 42.0774H115.922C115.977 42.2288 115.967 42.3799 115.956 42.532C115.949 42.6314 115.942 42.7312 115.954 42.8318C116.047 42.8189 116.081 42.7635 116.112 42.7114C116.12 42.6989 116.128 42.6866 116.136 42.6751C116.575 42.0642 117.273 41.7941 118.072 41.9735C118.446 42.0576 118.709 42.2984 118.897 42.6251C118.932 42.6855 118.969 42.7459 119.008 42.8035C119.012 42.8103 119.023 42.8126 119.039 42.8161L119.047 42.8179C119.053 42.8193 119.06 42.8211 119.068 42.8233L119.077 42.8118L119.085 42.8021C119.095 42.7891 119.106 42.7755 119.117 42.7608C119.121 42.7545 119.125 42.7479 119.129 42.7412C119.406 42.254 119.829 41.9792 120.381 41.9358C120.644 41.915 120.916 41.9396 121.175 41.9924C121.689 42.0963 122.092 42.5741 122.142 43.1113C122.17 43.4144 122.188 43.7204 122.19 44.0253C122.195 44.6286 122.194 45.2319 122.193 45.8352L122.193 45.8489L122.192 46.3481L122.192 46.5889L122.192 46.6083L122.191 46.6511V46.6512V46.6514C122.191 46.6932 122.19 46.7352 122.192 46.7768C122.195 46.8882 122.137 46.9307 122.032 46.9279C121.961 46.926 121.89 46.9266 121.812 46.9272H121.811L121.811 46.9272C121.769 46.9275 121.725 46.9279 121.678 46.9279C121.675 46.8962 121.671 46.8667 121.667 46.8385C121.66 46.7852 121.654 46.7368 121.654 46.688C121.654 46.3771 121.655 46.0661 121.656 45.7552C121.658 45.1332 121.66 44.5113 121.654 43.8894C121.651 43.625 121.616 43.3587 121.569 43.0981C121.503 42.7365 121.251 42.5316 120.915 42.4277C120.614 42.3352 120.311 42.3408 120.009 42.4315C119.724 42.5174 119.505 42.6874 119.367 42.9489C119.219 43.2284 119.123 43.524 119.123 43.8459C119.124 44.517 119.122 45.1886 119.121 45.8599L119.12 46.3623L119.12 46.3936L119.12 46.4224V46.4225L119.12 46.4247C119.12 46.4666 119.121 46.5086 119.12 46.5502L119.119 46.5589C119.111 46.7546 119.108 46.8482 119.059 46.8919C119.014 46.9321 118.932 46.9301 118.774 46.9263L118.719 46.925L118.667 46.9241C118.592 46.9232 118.554 46.8788 118.551 46.8042C118.549 46.7419 118.549 46.6786 118.549 46.6163L118.55 45.8706C118.55 45.1236 118.55 44.3764 118.547 43.6297C118.547 43.49 118.532 43.3474 118.503 43.2114C118.376 42.6081 117.942 42.3106 117.332 42.3711C116.76 42.4277 116.347 42.711 116.169 43.2832C116.077 43.5759 116.011 43.8695 116.015 44.1811C116.022 44.7779 116.02 45.3746 116.018 45.9714C116.018 46.182 116.017 46.3925 116.017 46.6031L116.017 46.6277L116.018 46.6551C116.019 46.7092 116.021 46.7636 116.007 46.8136C115.999 46.8459 115.966 46.8722 115.935 46.8974L115.919 46.9104C115.915 46.914 115.91 46.9176 115.906 46.9213C115.9 46.9268 115.889 46.9263 115.878 46.9258C115.872 46.9256 115.866 46.9253 115.86 46.926C115.453 46.9666 115.435 46.9515 115.435 46.5436V42.3805V42.0774ZM75.2474 40.6855C75.1945 40.8885 75.1869 42.9082 75.2389 43.1669C75.2711 43.1694 75.3041 43.1727 75.3377 43.1761C75.4074 43.1832 75.4794 43.1905 75.5514 43.1905C76.3117 43.1919 77.072 43.1918 77.8323 43.1916L78.5937 43.1915H78.7353C78.9799 43.1953 78.9921 43.2075 78.9902 43.4417C78.9884 43.6683 78.9789 43.6806 78.7504 43.6806C78.2117 43.6811 77.6733 43.6811 77.1349 43.6811C76.5964 43.6811 76.058 43.6811 75.5193 43.6815C75.4564 43.6815 75.3939 43.6855 75.3209 43.6901L75.263 43.6936L75.2096 43.6966C75.2011 44.5955 75.2039 45.4755 75.2077 46.3801C75.248 46.3827 75.2851 46.3858 75.3203 46.3886C75.3872 46.3941 75.4466 46.399 75.5061 46.399C76.2039 46.4001 76.9018 46.4002 77.5997 46.4004C78.0651 46.4004 78.5305 46.4005 78.9959 46.4009C79.316 46.4009 79.3245 46.4113 79.3085 46.7332C79.3 46.9108 79.2867 46.9268 79.0951 46.9287C78.8968 46.9313 78.699 46.9308 78.501 46.9302C78.4161 46.9299 78.3312 46.9296 78.2462 46.9296H74.9443L74.9095 46.9294L74.8814 46.929L74.8811 46.929C74.8393 46.9284 74.7976 46.9278 74.7554 46.9296C74.6393 46.9334 74.576 46.8862 74.5817 46.7644C74.583 46.7331 74.5825 46.7018 74.5821 46.6707V46.6705V46.6703V46.6701C74.5819 46.6545 74.5817 46.6391 74.5817 46.6237V40.4863L74.5815 40.4468V40.446V40.4459V40.4458V40.4457V40.4456C74.5813 40.4199 74.5811 40.3943 74.5817 40.3683C74.5892 40.2096 74.6043 40.1945 74.7573 40.1832C74.7883 40.1809 74.8198 40.1811 74.8515 40.1812L74.8753 40.1813H78.9317C79.2197 40.1813 79.2877 40.271 79.2254 40.5552C79.2093 40.627 79.1734 40.6666 79.0988 40.6685L79.0961 40.6686H79.096C79.0337 40.6695 78.9723 40.6704 78.91 40.6704H75.5146C75.4509 40.6704 75.3868 40.675 75.3254 40.6793L75.3253 40.6793L75.2782 40.6826L75.2464 40.6846L75.2474 40.6855ZM123.748 43.4879H124.241C124.248 43.4571 124.254 43.4293 124.26 43.4037L124.26 43.4035C124.274 43.3458 124.285 43.2986 124.294 43.2509C124.378 42.8213 124.652 42.5664 125.059 42.4436C125.469 42.3199 125.884 42.336 126.287 42.4682C126.589 42.5673 126.801 42.7713 126.857 43.097C126.88 43.2273 126.89 43.3614 126.886 43.4936C126.876 43.8278 126.726 43.995 126.393 44.046C126.245 44.0685 126.096 44.0875 125.948 44.1065L125.947 44.1065C125.754 44.1313 125.561 44.156 125.368 44.1885L125.245 44.2089C124.969 44.2541 124.691 44.2996 124.427 44.3859C123.757 44.604 123.46 45.0657 123.498 45.7626C123.536 46.4481 124.038 46.9532 124.722 46.9806C125.028 46.9929 125.334 46.9957 125.64 46.9806C125.777 46.974 125.92 46.9306 126.045 46.872C126.333 46.736 126.577 46.5406 126.759 46.2753C126.783 46.2402 126.812 46.2076 126.847 46.1671L126.872 46.1378L126.887 46.1211L126.909 46.094L126.917 46.1281L126.925 46.1629L126.938 46.2202L126.938 46.2203C126.954 46.2882 126.967 46.3453 126.976 46.4027C127.039 46.7927 127.29 46.9211 127.647 46.9164C128.001 46.9117 128.042 46.8475 127.971 46.4849C127.968 46.4837 127.966 46.4824 127.963 46.4811L127.957 46.4772C127.948 46.4716 127.939 46.466 127.929 46.466C127.568 46.4433 127.442 46.314 127.436 45.9561V45.7446C127.436 45.4839 127.436 45.2231 127.437 44.9624C127.438 44.4083 127.439 43.8542 127.433 43.3C127.425 42.6325 127.059 42.1802 126.409 42.0102C125.936 41.8875 125.458 41.8969 124.985 41.9961C124.306 42.1386 123.863 42.5871 123.75 43.2264C123.741 43.2796 123.743 43.3355 123.746 43.3959C123.747 43.4254 123.748 43.456 123.748 43.4879ZM126.898 44.2899C126.838 44.3077 126.782 44.3258 126.728 44.343C126.611 44.3805 126.505 44.4143 126.397 44.435C126.249 44.4628 126.101 44.4849 125.953 44.507L125.953 44.507C125.799 44.53 125.645 44.5529 125.492 44.5823C125.224 44.6342 124.954 44.6909 124.694 44.774C124.444 44.8552 124.24 45.0034 124.116 45.2565C123.871 45.7578 124.277 46.4849 124.877 46.5736C125.285 46.6341 125.691 46.5887 126.069 46.3952C126.434 46.2073 126.704 45.9316 126.825 45.5378C126.909 45.266 126.903 44.9891 126.897 44.7053C126.894 44.5685 126.891 44.4301 126.898 44.2899ZM114.168 45.3794C114.001 46.1197 113.638 46.6607 112.93 46.9222C112.823 46.9619 112.701 46.9808 112.585 46.9827C112.439 46.9859 112.293 46.9842 112.147 46.9824C111.994 46.9806 111.841 46.9788 111.689 46.9827C111.331 46.9912 111.03 46.8533 110.759 46.639C110.34 46.3085 110.115 45.8647 109.985 45.3548C109.808 44.6552 109.845 43.9725 110.099 43.3021C110.303 42.7611 110.643 42.3324 111.19 42.0982C111.909 41.7904 113.007 41.8301 113.638 42.626C113.928 42.9915 114.087 43.4145 114.166 43.8677C114.198 44.0518 114.214 44.2397 114.221 44.4267C114.228 44.5995 114.204 44.6155 114.035 44.6202C113.951 44.6228 113.868 44.6219 113.784 44.6211L113.783 44.6211L113.716 44.6205L113.657 44.6202H110.78H110.474C110.472 44.6637 110.467 44.7046 110.463 44.7437C110.455 44.8236 110.447 44.8955 110.458 44.9639C110.521 45.3284 110.623 45.6815 110.847 45.9865C111.132 46.3708 111.508 46.5729 111.991 46.587C112.294 46.5955 112.586 46.5748 112.858 46.4246C113.182 46.2471 113.417 45.996 113.538 45.6466C113.552 45.6062 113.563 45.5713 113.573 45.5412C113.631 45.356 113.632 45.3516 113.972 45.3548C114.007 45.3548 114.043 45.3599 114.088 45.3663C114.111 45.3695 114.136 45.3731 114.165 45.3766L114.168 45.3794ZM113.626 44.1462C113.68 43.7752 113.554 43.4787 113.412 43.1926C113.15 42.6695 112.706 42.3957 112.132 42.373C111.555 42.3494 111.103 42.6062 110.797 43.101C110.64 43.3559 110.537 43.6345 110.473 43.9272C110.435 44.1066 110.472 44.1566 110.651 44.1708C110.672 44.1727 110.692 44.172 110.713 44.1714L110.731 44.1709L110.745 44.1708C111.608 44.1708 112.472 44.1698 113.335 44.167C113.395 44.167 113.455 44.1614 113.519 44.1554L113.519 44.1554C113.554 44.1522 113.589 44.1489 113.627 44.1462H113.626ZM101.694 45.3692H101.693V45.3644L101.694 45.3692ZM101.738 45.5731C101.725 45.5099 101.711 45.4425 101.694 45.3692C101.745 45.3691 101.792 45.3687 101.836 45.3683H101.837H101.837L101.837 45.3682C101.95 45.3671 102.049 45.3662 102.147 45.3729C102.183 45.3758 102.225 45.4201 102.246 45.4551C102.264 45.4834 102.272 45.5193 102.279 45.5546C102.282 45.5663 102.284 45.5779 102.287 45.5892C102.42 46.1359 102.773 46.4559 103.32 46.5532C103.685 46.6184 104.056 46.6297 104.41 46.4824C104.531 46.4314 104.648 46.3644 104.762 46.2954C105.145 46.0641 105.141 45.4286 104.894 45.1699C104.755 45.0245 104.6 44.9065 104.407 44.8536C104.052 44.7573 103.694 44.6676 103.336 44.5798C103.023 44.5024 102.717 44.4098 102.432 44.2512C102.06 44.0444 101.874 43.7102 101.865 43.3079C101.855 42.9104 102.02 42.562 102.352 42.3099C102.643 42.0899 102.978 41.9879 103.334 41.9473C103.826 41.8906 104.309 41.9218 104.749 42.1796C105.13 42.4034 105.347 42.7461 105.438 43.1729C105.446 43.2107 105.447 43.2513 105.446 43.29C105.446 43.3161 105.443 43.3417 105.439 43.3693L105.439 43.3695L105.437 43.3857C105.436 43.3938 105.435 43.4022 105.434 43.4108C105.288 43.4745 105.145 43.4573 104.99 43.4388L104.936 43.4326L104.918 43.364C104.902 43.3031 104.887 43.2434 104.869 43.1842C104.762 42.8084 104.519 42.5639 104.144 42.4477C103.764 42.3297 103.386 42.3344 103.011 42.4666C102.646 42.596 102.442 42.8707 102.431 43.2135C102.425 43.3938 102.502 43.5308 102.613 43.6573C102.789 43.8603 103.023 43.9726 103.277 44.0369C103.565 44.1096 103.854 44.1766 104.143 44.2437L104.143 44.2437L104.144 44.244L104.145 44.2442C104.26 44.2709 104.376 44.2977 104.491 44.3248C104.731 44.3815 104.951 44.4816 105.15 44.627C105.737 45.0576 105.821 45.9225 105.322 46.4503C104.987 46.8034 104.575 46.9857 104.083 46.98L103.941 46.9784C103.705 46.9757 103.47 46.9729 103.234 46.98C102.616 46.9998 102.005 46.506 101.821 45.9225C101.787 45.8141 101.764 45.7024 101.738 45.5731ZM91.2425 46.993L91.1622 46.991C90.8827 46.9843 90.6071 46.9777 90.3417 46.8571C89.8724 46.6437 89.5155 46.3123 89.2974 45.8496C88.8602 44.9214 88.8621 43.9867 89.3266 43.0698C89.7666 42.2021 90.7212 41.8319 91.5786 41.9604C92.5502 42.1058 93.1385 42.678 93.4123 43.591C93.6889 44.5126 93.5766 45.3879 93.0214 46.1867C92.7475 46.5814 92.3614 46.8373 91.8968 46.9487C91.7531 46.983 91.6017 46.9853 91.4502 46.9877C91.3808 46.9888 91.3113 46.9898 91.2425 46.994V46.993ZM93.0214 44.4924C93.0109 44.0053 92.9316 43.5314 92.6512 43.1114C92.4463 42.8035 92.1876 42.5505 91.8232 42.4495C91.013 42.2247 90.2699 42.4155 89.8054 43.2199C89.6335 43.5183 89.5561 43.846 89.524 44.1812C89.4607 44.8393 89.5646 45.4625 89.9829 46.0007C90.7137 46.9411 92.2046 46.7891 92.7315 45.7202C92.9202 45.3371 93.0166 44.9265 93.0214 44.4924ZM95.127 45.4182H94.6426L94.6416 45.4163C94.6462 45.4498 94.65 45.4809 94.6535 45.5104L94.6536 45.5113C94.6604 45.5671 94.6664 45.6169 94.6756 45.6656C94.8314 46.471 95.4537 46.9799 96.2733 46.9771C96.3677 46.9771 96.462 46.9783 96.5563 46.9795H96.5564C96.6977 46.9813 96.8389 46.9831 96.9805 46.9809C97.4318 46.9743 97.8237 46.8081 98.1513 46.5031C98.6914 46.0008 98.6678 45.0329 97.9823 44.6109C97.7859 44.4891 97.5612 44.3994 97.3383 44.3352C97.1278 44.2742 96.9127 44.2279 96.6975 44.1817L96.6974 44.1816C96.5594 44.152 96.4214 44.1223 96.2846 44.0887C96.0315 44.0273 95.786 43.9424 95.5811 43.7734C95.2374 43.4891 95.2072 43.0076 95.5273 42.6969C95.6312 42.5969 95.7662 42.5175 95.9003 42.4609C96.2232 42.3259 96.5584 42.3514 96.8974 42.4052C97.3601 42.4779 97.6546 42.7385 97.7736 43.1804C97.8397 43.4249 97.852 43.4627 98.1504 43.4334C98.1915 43.4295 98.2326 43.4188 98.2721 43.4086L98.2993 43.4016L98.3087 43.3993L98.3241 43.3957C98.3496 42.7517 97.8661 42.1908 97.2562 42.0303C97.1051 41.9907 96.9493 41.9586 96.7935 41.9472C96.2638 41.9076 95.7615 41.9992 95.3092 42.2938C94.6369 42.7309 94.568 43.8602 95.415 44.2747L95.4444 44.2894C95.5262 44.3301 95.6086 44.3711 95.6954 44.3956C95.8583 44.4412 96.0221 44.4835 96.1859 44.5258C96.3713 44.5736 96.5566 44.6215 96.7406 44.6741L96.8051 44.6926C97.0475 44.7618 97.2915 44.8315 97.5196 44.9338C97.7632 45.0443 97.9351 45.2407 97.9785 45.5211C98.0361 45.8931 97.8926 46.2028 97.5536 46.3879C97.0919 46.6409 96.6 46.6825 96.0938 46.5446C95.584 46.4058 95.2733 46.0754 95.1657 45.5579C95.1585 45.5243 95.1487 45.4912 95.1377 45.4545L95.127 45.4182ZM83.8841 46.0987C83.8681 46.1173 83.8518 46.1356 83.8355 46.1539L83.8355 46.1539C83.7972 46.197 83.759 46.2399 83.7246 46.2856C83.565 46.4943 83.3714 46.6633 83.1439 46.7946C82.9144 46.9268 82.6736 47.0051 82.4036 46.9853C82.2756 46.9759 82.1471 46.977 82.0188 46.9781C81.9664 46.9785 81.914 46.979 81.8616 46.9787C81.3669 46.9768 81.0099 46.7417 80.7673 46.3253C80.5973 46.0335 80.5322 45.7078 80.5293 45.3773C80.5214 44.5838 80.5223 43.7902 80.5231 42.9967V42.9946C80.5234 42.7464 80.5237 42.4982 80.5237 42.2501C80.5237 42.2181 80.5288 42.1856 80.5339 42.154L80.5377 42.1297L80.5397 42.115C80.5498 42.1095 80.5587 42.1033 80.5669 42.0976C80.5812 42.0877 80.5936 42.0791 80.6068 42.0773C81.0515 42.0291 81.0534 42.031 81.0534 42.4748C81.0534 42.7058 81.0531 42.937 81.0528 43.1681C81.0519 43.8617 81.051 44.5556 81.0581 45.2489C81.06 45.4491 81.1006 45.653 81.1468 45.8494C81.2384 46.2384 81.499 46.4764 81.8843 46.5538C82.1043 46.5982 82.3375 46.6246 82.5603 46.6048C83.125 46.5538 83.4876 46.2167 83.7019 45.7106C83.8568 45.3452 83.92 44.96 83.9191 44.5643L83.9175 44.0248V44.024V44.0232V44.0224V44.0216V44.0208C83.9159 43.4809 83.9144 42.9413 83.9144 42.4011C83.9144 42.3356 83.9181 42.2702 83.9217 42.2066L83.9217 42.2063C83.9235 42.1737 83.9253 42.1416 83.9266 42.1103C83.9341 42.1072 83.9409 42.1041 83.9472 42.1011L83.9656 42.0921C83.9844 42.0827 83.9978 42.076 84.0116 42.0754L84.0689 42.0731C84.267 42.065 84.3648 42.061 84.4101 42.1078C84.4542 42.1535 84.4483 42.2475 84.4367 42.4332L84.4346 42.4663C84.418 42.7358 84.4215 43.0068 84.425 43.2778C84.4265 43.3913 84.428 43.5048 84.428 43.6182V46.4396L84.4282 46.5102C84.4284 46.5571 84.4286 46.6039 84.428 46.6511C84.4223 46.873 84.2524 46.9815 84.0475 46.8824C84.005 46.8616 83.9719 46.7861 83.9672 46.7323C83.9596 46.6501 83.9604 46.5672 83.9611 46.4842C83.9616 46.4337 83.962 46.3832 83.9606 46.3329C83.9593 46.2814 83.9532 46.2299 83.9471 46.178L83.9417 46.1307L83.9398 46.1138C83.9309 46.1108 83.9216 46.1078 83.9124 46.105L83.899 46.1009L83.8879 46.0977L83.8841 46.0987ZM107.109 42.5336L107.273 42.5445L107.272 42.5464V42.8325C107.273 43.1017 107.273 43.371 107.272 43.6403C107.272 44.2326 107.272 44.8252 107.276 45.4178C107.278 45.6992 107.296 45.9815 107.322 46.2619C107.353 46.6141 107.533 46.8624 107.836 46.9134C108.074 46.9529 108.318 46.9587 108.561 46.9645L108.629 46.9662L108.704 46.9682C108.748 46.9701 108.828 46.9096 108.833 46.87L108.838 46.8396C108.856 46.7293 108.874 46.612 108.786 46.497L108.721 46.4973L108.635 46.498C108.516 46.4992 108.396 46.5004 108.275 46.4951C108.049 46.4847 107.931 46.3875 107.878 46.1665C107.854 46.0693 107.848 45.9654 107.848 45.8644C107.848 44.838 107.848 43.8117 107.848 42.7853C107.848 42.7358 107.853 42.6867 107.857 42.6383L107.857 42.6381L107.857 42.6379C107.86 42.6126 107.862 42.5874 107.864 42.5625C107.882 42.5566 107.898 42.5505 107.912 42.5451C107.936 42.5357 107.955 42.5285 107.973 42.5285C108.153 42.5237 108.335 42.5209 108.515 42.5209C108.857 42.52 108.876 42.5001 108.839 42.1583C108.838 42.144 108.83 42.1304 108.821 42.1145C108.816 42.1063 108.811 42.0974 108.806 42.0875C108.659 42.0543 108.508 42.0586 108.356 42.063C108.188 42.0678 108.017 42.0727 107.848 42.0271V40.9072C107.847 40.6743 107.728 40.5616 107.491 40.5692C107.293 40.5758 107.276 40.589 107.274 40.7873C107.272 40.9757 107.273 41.1638 107.273 41.3519C107.273 41.4928 107.273 41.6338 107.272 41.775C107.272 41.8331 107.268 41.8908 107.262 41.9577L107.259 41.9966L107.255 42.0497L106.887 42.062L106.458 42.0762C106.371 42.4869 106.393 42.5171 106.766 42.519C106.78 42.519 106.793 42.5188 106.806 42.5186C106.832 42.5182 106.859 42.5178 106.884 42.519C106.957 42.5235 107.03 42.5284 107.109 42.5336ZM86.4685 42.0861H86.0171H86.0153C86.0123 42.1068 86.0094 42.1249 86.0068 42.141C86.001 42.177 85.9967 42.2035 85.9973 42.2296C85.9994 42.3047 86.0028 42.3798 86.0062 42.455L86.0062 42.4553C86.012 42.5834 86.0177 42.7117 86.0171 42.8396C86.0159 43.0801 86.0119 43.3207 86.0079 43.5612C86.0031 43.8532 85.9983 44.1452 85.9983 44.4372C85.9983 44.8046 86.0011 45.1723 86.0039 45.54V45.5404V45.5408C86.0068 45.909 86.0096 46.2774 86.0096 46.6457L86.0096 46.6544C86.0105 46.8923 86.0105 46.8997 86.2456 46.9007C86.2834 46.9014 86.3212 46.8998 86.3589 46.8981L86.3873 46.8969C86.4817 46.8931 86.5317 46.845 86.5327 46.7496L86.5338 46.6876C86.5347 46.6456 86.5355 46.6034 86.5355 46.5617L86.5353 46.0219C86.5349 45.481 86.5346 44.94 86.5374 44.3994C86.5384 44.2587 86.5497 44.1171 86.5733 43.9793C86.7111 43.1691 87.2475 42.6526 88.0604 42.5384C88.1279 42.5286 88.195 42.5167 88.2625 42.5046L88.3087 42.4964L88.355 42.4883V42.0342C88.3093 42.0342 88.2651 42.0321 88.2223 42.0301L88.2222 42.0301C88.1326 42.0259 88.049 42.022 87.9698 42.0379C87.4004 42.1541 86.9623 42.4562 86.6828 42.9737C86.6604 43.0148 86.6368 43.0556 86.6133 43.0963C86.6002 43.119 86.5871 43.1417 86.5742 43.1644C86.5604 43.1615 86.5466 43.159 86.5328 43.1566L86.5062 43.1521C86.4819 42.98 86.4849 42.8054 86.488 42.6291C86.4911 42.4495 86.4942 42.2681 86.4685 42.0861ZM99.8632 42.0811H100.383C100.385 42.1109 100.388 42.1393 100.39 42.1667V42.1668C100.395 42.2304 100.399 42.2886 100.399 42.3473V46.6445C100.399 46.6681 100.399 46.6914 100.399 46.7148C100.398 46.7382 100.398 46.7616 100.398 46.7852C100.398 46.8805 100.353 46.9306 100.255 46.9296H99.883C99.8519 46.65 99.8567 46.3789 99.8614 46.1112C99.8637 45.9812 99.866 45.8519 99.8641 45.7229C99.8596 45.4445 99.8608 45.1661 99.8621 44.8877C99.8626 44.7592 99.8632 44.6306 99.8632 44.502V43.3048V42.082V42.0811ZM99.8632 40.3248V41.0669L99.8641 41.0679C99.8888 41.073 99.9094 41.078 99.9274 41.0825C99.9595 41.0904 99.9831 41.0962 100.007 41.0962C100.239 41.1005 100.337 41.1026 100.377 41.0553C100.416 41.0095 100.4 40.9172 100.399 40.7355C100.398 40.6918 100.4 40.6476 100.402 40.603C100.409 40.4695 100.415 40.3313 100.354 40.1841H100.009C99.9142 40.1841 99.8632 40.2266 99.8632 40.3248Z" fill="#474D57"/>
</svg>
