<svg width="136" height="68" viewBox="0 0 136 68" fill="none" xmlns="http://www.w3.org/2000/svg">
<path d="M8 23H16.7975C18.4732 23 19.73 23.4189 20.661 24.1171C21.685 24.955 22.2436 26.1652 22.2436 27.6548C22.2436 29.377 21.5454 30.4476 20.149 31.0993V31.1924C22.0109 31.7975 23.0815 33.4732 23.0815 35.4748C23.0815 37.3832 22.3367 38.8728 21.1265 39.8037C20.1024 40.5485 18.7991 40.8743 17.0303 40.8743H8V23ZM15.9131 29.9822C16.8441 29.9822 17.5423 29.4701 17.5423 28.3995C17.5423 27.3755 16.8441 26.8635 15.8666 26.8635H12.841V29.9356H15.9131V29.9822ZM16.332 36.9178C17.4026 36.9178 18.1939 36.2661 18.1939 35.1024C18.1939 33.8456 17.3561 33.287 16.332 33.287H12.8875V36.9643H16.332V36.9178ZM23.8728 23H28.481V40.9209H23.8728V23ZM29.4119 34.5438C29.4119 30.4942 32.0186 27.7944 36.0683 27.7944C40.1179 27.7944 42.678 30.5407 42.678 34.5438C42.678 38.5935 40.1179 41.2933 36.0683 41.2933C32.0186 41.2933 29.4119 38.5935 29.4119 34.5438ZM38.0698 34.5438C38.0698 32.3095 37.3716 30.9131 35.9752 30.9131C34.5787 30.9131 33.9271 32.3095 33.9271 34.5438C33.9271 36.7781 34.5787 38.2211 35.9752 38.2211C37.3716 38.1746 38.0698 36.7781 38.0698 34.5438ZM43.1901 34.5438C43.1901 30.4942 45.7967 27.7944 49.8464 27.7944C53.896 27.7944 56.4096 30.4942 56.4096 34.5438C56.4096 38.5935 53.8495 41.2933 49.7998 41.2933C45.7967 41.2933 43.1901 38.5935 43.1901 34.5438ZM51.8479 34.5438C51.8479 32.3095 51.1497 30.9131 49.7533 30.9131C48.3569 30.9131 47.7052 32.3095 47.7052 34.5438C47.7052 36.7781 48.3569 38.2211 49.7533 38.2211C51.1497 38.1746 51.8479 36.7781 51.8479 34.5438ZM57.3406 28.1202H61.623V30.0287H61.7161C62.5539 28.5392 63.7176 27.7479 65.5795 27.7479C67.2087 27.7479 68.4189 28.5392 69.0241 29.9356H69.1171C70.1412 28.2599 71.4911 27.7479 73.0737 27.7479C76.0528 27.7479 77.3095 29.9356 77.3095 32.8681V40.8743H72.841V33.6594C72.841 32.3561 72.422 31.5182 71.3049 31.5182C70.1877 31.5182 69.6292 32.5423 69.6292 33.9387V40.8743H65.1606V33.6594C65.1606 32.3561 64.7417 31.5182 63.6245 31.5182C62.5074 31.5182 61.9488 32.5423 61.9488 33.9387V40.8743H57.3406V28.1202ZM82.9418 39.1986H82.8953V40.8743H78.6129V23H83.0815V29.4236H83.1746C84.0124 28.3064 85.1761 27.7013 86.8053 27.7013C90.0171 27.7013 91.879 30.5873 91.879 34.4507C91.879 38.7797 89.8774 41.2933 86.526 41.2933C85.1296 41.2933 83.6866 40.6416 82.9418 39.1986ZM87.2708 34.4042C87.2708 32.3561 86.526 31.0062 85.1761 31.0062C83.7797 31.0062 82.9418 32.3561 82.9418 34.4042C82.9418 36.4523 83.8262 37.8022 85.1761 37.8022C86.526 37.8022 87.2708 36.4988 87.2708 34.4042ZM92.391 34.4973C92.391 30.4942 95.0442 27.7479 98.8611 27.7479C100.77 27.7479 102.213 28.353 103.33 29.4236C104.819 30.8666 105.471 33.1009 105.424 35.7075H96.8596C97.0458 37.2901 97.7905 38.128 99.1404 38.128C99.9317 38.128 100.63 37.7556 100.909 36.9178H105.238C104.493 39.8503 102.213 41.2933 99.0008 41.2933C95.0442 41.2467 92.391 38.5469 92.391 34.4973ZM96.8596 33.1474H100.956C100.863 31.6113 100.025 30.82 98.9542 30.82C97.6974 30.7735 96.9992 31.6579 96.8596 33.1474ZM110.498 30.308H110.591C111.522 28.5392 112.732 27.841 114.268 27.841C114.641 27.841 114.874 27.8875 115.013 27.9806V31.8906H114.92C112.267 31.4251 110.731 32.6819 110.731 35.5679V40.9209H106.216V28.1202H110.498V30.308ZM115.479 40.9209H119.808C119.994 41.4794 120.552 41.9915 121.623 41.9915C123.066 41.9915 123.578 41.1071 123.578 39.7572V38.8262H123.485C122.787 39.6641 121.809 40.2692 120.413 40.2692C117.666 40.2692 115.246 38.2211 115.246 34.218C115.246 30.5407 117.201 27.7013 120.18 27.7013C121.902 27.7013 122.926 28.3995 123.625 29.4701H123.718V28.0737H128V39.1521C128 41.2002 127.302 42.7828 126.231 43.7137C125.114 44.6912 123.531 45.1102 121.716 45.1102C118.272 45.1567 115.898 43.7603 115.479 40.9209ZM123.764 34.0318C123.764 32.4492 123.019 31.1459 121.716 31.1459C120.459 31.1459 119.668 32.263 119.668 34.0318C119.668 35.7541 120.459 36.9643 121.716 36.9643C122.973 36.9643 123.764 35.7075 123.764 34.0318Z" fill="#474D57"/>
</svg>
