<svg width="136" height="68" viewBox="0 0 136 68" fill="none" xmlns="http://www.w3.org/2000/svg">
<path fill-rule="evenodd" clip-rule="evenodd" d="M18.5432 20.0371C18.5896 20.0237 18.631 20.0117 18.6725 20H18.6714H16.1986C16.2095 20.0132 16.2205 20.0261 16.2315 20.039C16.2425 20.052 16.2535 20.0649 16.2646 20.0781C16.2596 20.0802 16.2546 20.0831 16.2496 20.0859L16.2496 20.0859C16.2391 20.0919 16.2284 20.0979 16.2173 20.0979C15.1469 20.1408 14.1151 20.3773 13.1075 20.7238C11.8567 21.1539 10.7105 21.771 9.74468 22.6874C8.63365 23.7412 7.99454 25.0018 8.00004 26.565C8.00711 28.8597 8.006 31.1544 8.00488 33.4494C8.00427 34.7244 8.00365 35.9996 8.00444 37.2749C8.00444 38.1824 8.24974 39.0217 8.73265 39.7928C9.38937 40.8423 10.3079 41.6123 11.376 42.2107C12.9612 43.0995 14.6849 43.5285 16.4846 43.6528C18.2501 43.7749 19.9706 43.534 21.6349 42.9125C22.8394 42.4615 23.9439 41.8521 24.8866 40.9699C24.9248 40.9345 24.9649 40.9016 25.0201 40.8562C25.0492 40.8322 25.0825 40.8049 25.122 40.7719C24.5544 43.1765 24.0022 45.5163 23.451 47.8549L23.4972 47.878L35.371 30.6615C35.3658 30.6544 35.3608 30.6474 35.3559 30.6404L35.3416 30.62L35.3358 30.612C35.0013 30.752 34.667 30.8922 34.3327 31.0325C33.5663 31.3541 32.7999 31.6758 32.0324 31.9936C31.6219 32.1633 31.2124 32.3353 30.8006 32.5084C30.0991 32.8032 29.391 33.1007 28.6597 33.394C28.6691 33.3562 28.6763 33.3254 28.6825 33.2992L28.6826 33.2987L28.6826 33.2986C28.6943 33.2486 28.7021 33.2155 28.7136 33.1839C28.8615 32.79 29.0103 32.3966 29.1592 32.0032L29.1594 32.0026L29.1596 32.002L29.1599 32.0014L29.1601 32.0009L29.1603 32.0003L29.1605 31.9997L29.1611 31.9982L29.1617 31.9966C29.2478 31.7691 29.3339 31.5415 29.4198 31.3138C29.4973 31.1093 29.5743 30.9042 29.6513 30.6991C29.7283 30.4939 29.8053 30.2886 29.8829 30.084C29.9643 29.8717 29.9654 29.8717 30.1997 29.8695H30.1997H30.3647H35.8044C35.875 29.8695 35.9457 29.8661 36.0135 29.8628C36.0481 29.8612 36.0819 29.8596 36.1146 29.8585C36.6415 27.896 37.6205 23.7225 37.5963 23.5157H37.2718L35.1741 23.5155C32.0273 23.5152 28.8801 23.5149 25.7336 23.5212C25.5092 23.5223 25.3662 23.4552 25.2287 23.2803C24.8151 22.7523 24.3234 22.2991 23.7712 21.9174C22.7767 21.2298 21.6932 20.7337 20.5195 20.4334C19.8209 20.2541 19.1169 20.1122 18.3348 20.0968C18.4191 20.073 18.4851 20.0539 18.5432 20.0371ZM24.219 29.0762C24.2216 29.0513 24.2246 29.0229 24.2288 28.9894H18.3161L18.7268 27.2689L18.7278 27.2651L18.7283 27.2628L18.7285 27.2621L18.7308 27.2522L18.7345 27.2369C18.9603 26.2912 19.1847 25.3514 19.4095 24.4078H36.5337C36.5469 24.6267 35.5932 28.6891 35.4546 28.9949H35.1378C34.6982 28.9949 34.2587 28.9952 33.8192 28.9955C32.5009 28.9963 31.1826 28.9971 29.8642 28.9905C29.6409 28.9894 29.5287 29.051 29.4374 29.2655C28.8147 30.7337 28.1837 32.1977 27.5526 33.662L27.5497 33.6685C27.3836 34.054 27.2174 34.4395 27.0514 34.8251C27.0347 34.8645 27.0198 34.9043 27.001 34.9544L27.0009 34.9546L27.0009 34.9546C26.9877 34.9898 26.9726 35.0302 26.9535 35.0792C26.9918 35.0648 27.0261 35.0522 27.0577 35.0407L27.0577 35.0407C27.1225 35.0171 27.1757 34.9976 27.2274 34.9747C28.9413 34.2146 30.6551 33.4545 32.369 32.6954C32.4591 32.6557 32.5502 32.6192 32.6417 32.5826C32.682 32.5664 32.7224 32.5502 32.7628 32.5337L32.8068 32.5843C31.6181 34.3808 30.4292 36.1772 29.2403 37.9736C28.0493 39.7732 26.8583 41.5728 25.6676 43.3723C25.6517 43.3661 25.6352 43.3607 25.619 43.3554L25.619 43.3554L25.6071 43.3514C25.647 43.0385 25.7121 42.7295 25.7772 42.4205L25.7772 42.4204C25.8091 42.2689 25.8411 42.1174 25.87 41.9654C25.9337 41.6277 26.0021 41.2911 26.0704 40.9544C26.0965 40.8261 26.1225 40.6978 26.1483 40.5694C26.2429 40.0986 26.3375 39.6267 26.4398 39.113L25.0608 39.71L25.0603 39.7102C23.8487 40.2347 22.6476 40.7546 21.4204 41.2856C21.424 41.2484 21.4264 41.2154 21.4286 41.1852C21.4332 41.1235 21.4368 41.074 21.4479 41.026C21.7775 39.6048 22.1088 38.1842 22.4402 36.7634L22.8196 35.1364L24.2024 29.1929C24.2103 29.159 24.214 29.1242 24.219 29.0766L24.219 29.0765L24.219 29.0764L24.219 29.0764L24.219 29.0763L24.219 29.0762L24.219 29.0762ZM24.3069 23.4821L24.2937 23.5157H18.7891L18.1525 26.1451L18.152 26.1468L18.1515 26.1492L18.1485 26.1617C17.8508 27.3909 17.5529 28.6211 17.2524 29.8629H23.143C23.1606 30.1313 23.0781 30.2974 22.8603 30.4239C21.7647 31.0564 20.591 31.4711 19.3534 31.7263C18.1104 31.9826 16.8685 31.9914 15.6144 31.8033C14.4363 31.6273 13.3088 31.3028 12.2461 30.7693C11.2693 30.2798 10.4047 29.6451 9.74248 28.7639C9.39817 28.3063 9.14077 27.8058 8.99666 27.2503C8.74036 26.2625 8.88886 25.3318 9.40477 24.4573C9.92289 23.5773 10.6676 22.9261 11.5311 22.4003C12.7192 21.6764 14.0194 21.2617 15.3867 21.0406C16.3768 20.88 17.3734 20.8404 18.37 20.9372C20.2599 21.1209 22.0254 21.6676 23.5676 22.8139C23.7489 22.9489 23.9193 23.0986 24.0894 23.2481L24.0895 23.2482L24.0896 23.2482L24.0896 23.2482C24.1661 23.3155 24.2426 23.3827 24.3201 23.4486L24.3069 23.4821ZM22.6383 31.5886L22.7811 31.5261C22.7562 31.6346 22.7334 31.7352 22.7116 31.8307C22.6739 31.9967 22.6396 32.1475 22.604 32.2983C22.5566 32.4978 22.5084 32.6971 22.4601 32.8964L22.4601 32.8964L22.4601 32.8965L22.4601 32.8966L22.46 32.8967L22.46 32.8968L22.46 32.8968L22.46 32.8969L22.46 32.897L22.4599 32.8971L22.4599 32.8972L22.4599 32.8972L22.4599 32.8973L22.4599 32.8974L22.4598 32.8975L22.4598 32.8976L22.4598 32.8976L22.4598 32.8977L22.4598 32.8978L22.4597 32.8979L22.4597 32.898L22.4597 32.898L22.4597 32.8981L22.4597 32.8982L22.4596 32.8983L22.4596 32.8984L22.4596 32.8984L22.4596 32.8985L22.4596 32.8986L22.4595 32.8988L22.4595 32.8988L22.4595 32.8989L22.4595 32.8989L22.4595 32.899L22.4595 32.899L22.4595 32.8991L22.4594 32.8991L22.4594 32.8992L22.4594 32.8992L22.4594 32.8993L22.4594 32.8993L22.4594 32.8994L22.4594 32.8994L22.4594 32.8995L22.4593 32.8995L22.4593 32.8995L22.4593 32.8996L22.4593 32.8996L22.4593 32.8997L22.4593 32.8997L22.4593 32.8998L22.4593 32.8998L22.4593 32.8999L22.4592 32.8999L22.4592 32.9L22.4592 32.9L22.4592 32.9001C22.351 33.3468 22.2429 33.7934 22.1442 34.2421C22.1002 34.4423 22.0012 34.5512 21.8131 34.6304C20.3897 35.231 18.9024 35.4631 17.3635 35.4367C16.2888 35.418 15.225 35.3289 14.18 35.0693C12.849 34.7371 11.6202 34.1893 10.5708 33.2906C9.80408 32.6338 9.23317 31.8462 8.97466 30.854C8.87322 30.4642 8.87734 30.0727 8.88173 29.6554C8.88338 29.498 8.88508 29.3369 8.88116 29.1709C8.9486 29.2473 9.00921 29.3175 9.06593 29.3832C9.17019 29.504 9.26129 29.6095 9.35747 29.71C10.3607 30.7627 11.5729 31.4942 12.9293 32.0002C14.2691 32.4996 15.6595 32.7581 17.0863 32.8153C17.9047 32.8483 18.711 32.7196 19.5129 32.5744C20.5437 32.3874 21.5359 32.0739 22.494 31.6515C22.5374 31.6327 22.5812 31.6136 22.6381 31.5886L22.6383 31.5886ZM8.88116 32.8748C8.88116 32.9727 8.88187 33.0656 8.88255 33.1551C8.88395 33.3389 8.88524 33.5083 8.88006 33.6778C8.86356 34.2003 8.98456 34.6909 9.19467 35.1639C9.59288 36.0571 10.2386 36.7446 11.0251 37.3057C12.3969 38.2858 13.949 38.7951 15.6056 39.0118C16.4967 39.1284 17.3932 39.1427 18.2919 39.0833C19.173 39.025 20.0322 38.8567 20.8858 38.651C21.0464 38.6125 21.1245 38.5344 21.163 38.3639C21.2988 37.7631 21.4429 37.1639 21.5872 36.5645L21.5872 36.5643L21.5872 36.5642L21.5873 36.5641L21.5873 36.564L21.5873 36.5638L21.5874 36.5637L21.5874 36.5636L21.5874 36.5635L21.5874 36.5633L21.5875 36.5632L21.5875 36.5631L21.5875 36.563L21.5876 36.5628L21.5876 36.5627L21.5876 36.5626L21.5876 36.5625L21.5877 36.5623L21.5877 36.5622L21.5877 36.5621L21.5878 36.562L21.5878 36.5618L21.5878 36.5617L21.5878 36.5616L21.5879 36.5614L21.5879 36.5613L21.5879 36.5612L21.588 36.5611L21.588 36.5609C21.6526 36.2923 21.7173 36.0236 21.7812 35.7546C21.7886 35.722 21.7865 35.6875 21.7844 35.6516C21.7834 35.6342 21.7823 35.6164 21.7823 35.5984C21.7702 35.5997 21.7591 35.6006 21.7489 35.6015C21.7248 35.6035 21.7054 35.6051 21.6877 35.6105C21.6085 35.6347 21.5304 35.66 21.4534 35.6875C20.5613 36.0076 19.6427 36.2111 18.6978 36.2749C18.3002 36.3021 17.9003 36.3014 17.5005 36.3007H17.5005H17.5005H17.5005H17.5005H17.5004H17.5004H17.5004H17.5004H17.5004H17.5004H17.5003H17.5003H17.5003H17.5003H17.5003H17.5002H17.5002H17.5002H17.5002H17.5002H17.5002H17.5001H17.5001H17.5001H17.5001H17.5001H17.5001H17.5C17.3503 36.3004 17.2006 36.3001 17.0511 36.3013C15.8817 36.3101 14.7344 36.1583 13.6102 35.8338C12.1845 35.4224 10.8777 34.7888 9.77328 33.7834C9.57403 33.6026 9.38863 33.4069 9.18854 33.1957L9.18853 33.1957C9.0907 33.0925 8.98935 32.9855 8.88116 32.8748ZM20.8635 39.6104L20.8003 39.62L20.8002 39.62C20.7321 39.6303 20.6788 39.6383 20.6262 39.6476C20.4857 39.6728 20.3456 39.7004 20.2055 39.728L20.2053 39.728C19.9054 39.787 19.6057 39.8459 19.3028 39.8819C18.0895 40.026 16.8751 40.0359 15.6595 39.8951C14.433 39.7532 13.2505 39.4496 12.1317 38.9216C10.8986 38.3397 9.81288 37.5664 8.99556 36.4564C8.98215 36.4386 8.96671 36.4222 8.93626 36.3899L8.93613 36.3897L8.93604 36.3896L8.93592 36.3895C8.92148 36.3742 8.90369 36.3553 8.88116 36.331C8.88116 36.3981 8.88087 36.457 8.88061 36.5107L8.88061 36.5108C8.88014 36.6051 8.87976 36.6833 8.88116 36.7611C8.88412 36.8783 8.88393 36.9959 8.88374 37.1135C8.8833 37.3892 8.88287 37.665 8.92296 37.9349C9.04506 38.7643 9.46417 39.4573 10.0219 40.07C10.6269 40.7345 11.3529 41.2394 12.1537 41.6365C13.421 42.2668 14.7685 42.6067 16.1755 42.7475C17.4284 42.8729 18.6593 42.7431 19.887 42.5099C20.1147 42.467 20.2269 42.3647 20.2731 42.1315C20.3435 41.7697 20.4306 41.4108 20.5177 41.0519L20.5177 41.0518L20.5177 41.0518L20.5177 41.0518L20.5177 41.0517L20.5178 41.0517L20.5178 41.0516C20.549 40.9229 20.5803 40.7941 20.6108 40.6651C20.6647 40.4386 20.7191 40.212 20.7755 39.9768L20.7756 39.9767L20.7758 39.9757L20.7763 39.9737L20.7768 39.9714L20.7769 39.9713L20.7772 39.9698L20.7779 39.967L20.7783 39.9655L20.7787 39.9636L20.8635 39.6104ZM63.1533 29.9177H64.4601H64.4612V25.5825L64.514 25.566C64.541 25.6111 64.5682 25.6562 64.5954 25.7013C64.6227 25.7464 64.6499 25.7915 64.6768 25.8366L65.2281 26.7598C65.8304 27.7681 66.433 28.7772 67.0331 29.7868C67.0969 29.8935 67.1706 29.943 67.296 29.9397C67.4789 29.9347 67.6618 29.934 67.8448 29.9333C67.982 29.9327 68.1192 29.9322 68.2563 29.9298C68.2972 29.9291 68.3376 29.9179 68.3768 29.907L68.3768 29.907L68.3769 29.907C68.3946 29.9021 68.412 29.8973 68.429 29.8935V23.4166H67.131V25.918V26.5472C67.131 26.6061 67.1315 26.665 67.132 26.7239V26.7241V26.7242V26.7243V26.7244V26.7246V26.7247V26.7248V26.725V26.7251V26.7252V26.7253V26.7255V26.7256V26.7257V26.7259V26.726V26.7261V26.7262V26.7264V26.7265V26.7266V26.7268V26.7269V26.727V26.7271V26.7273V26.7274V26.7275V26.7277C67.1331 26.8681 67.1342 27.0088 67.1288 27.149C67.1266 27.2072 67.1286 27.2658 67.1307 27.3254V27.3255V27.3255V27.3255V27.3256V27.3256V27.3256V27.3257V27.3257V27.3257V27.3258V27.3258V27.3258V27.3259V27.3259V27.326V27.326V27.326V27.3261V27.3261V27.3262V27.3262V27.3263V27.3263C67.1359 27.4716 67.1412 27.6235 67.0859 27.7925C67.058 27.7482 67.0329 27.709 67.0097 27.6728L67.0096 27.6726L67.0095 27.6724L67.0089 27.6715L67.0088 27.6714C66.9702 27.6111 66.937 27.5592 66.9055 27.5065L66.4671 26.7761C65.8241 25.7049 65.1808 24.6333 64.5426 23.5596C64.4733 23.4419 64.3985 23.3924 64.2621 23.3957C64.0857 23.4002 63.9096 23.3994 63.7335 23.3987C63.6076 23.3981 63.4818 23.3976 63.3557 23.399C63.3079 23.399 63.2596 23.4071 63.2126 23.4149L63.2125 23.415C63.1925 23.4183 63.1727 23.4216 63.1533 23.4243V29.9177ZM105.784 26.7859L105.832 26.808L105.832 26.8084C105.89 26.8351 105.922 26.8499 105.954 26.864C106.531 27.1038 106.816 27.5482 106.856 28.1565C106.871 28.3655 106.87 28.5767 106.866 28.7857C106.861 29.1774 106.92 29.5492 107.198 29.8825C107.175 29.8894 107.153 29.8971 107.134 29.9042C107.097 29.9175 107.066 29.9287 107.036 29.9287C106.893 29.9305 106.75 29.9308 106.608 29.9311C106.412 29.9315 106.215 29.9319 106.019 29.9364C105.856 29.9397 105.754 29.866 105.709 29.7208C105.664 29.5734 105.62 29.4227 105.606 29.2698C105.582 29.0097 105.57 28.7489 105.558 28.4879V28.4878L105.558 28.4872L105.552 28.3402C105.521 27.6736 105.187 27.3425 104.513 27.3271C104.291 27.3219 104.069 27.3232 103.835 27.3246C103.723 27.3253 103.608 27.326 103.489 27.326V29.9177H102.183V23.4143C102.201 23.4123 102.217 23.41 102.232 23.4079L102.232 23.4079C102.267 23.4031 102.297 23.3989 102.326 23.3989L102.728 23.3987C103.308 23.3982 103.889 23.3977 104.469 23.4066C104.883 23.4132 105.291 23.4682 105.677 23.6288C106.535 23.9852 106.983 24.8509 106.762 25.7222C106.662 26.1171 106.413 26.3976 106.078 26.6121C106.023 26.647 105.967 26.6792 105.9 26.7176L105.9 26.7177L105.851 26.746C105.829 26.7588 105.805 26.7724 105.781 26.787L105.784 26.7859ZM103.509 26.2964C103.641 26.2964 103.77 26.2984 103.898 26.3004C104.183 26.3048 104.46 26.3091 104.737 26.2909C105.139 26.2645 105.418 26.0192 105.487 25.6771C105.535 25.4406 105.523 25.2051 105.431 24.9774C105.316 24.6947 105.112 24.5077 104.811 24.4505C104.472 24.3854 104.13 24.3914 103.777 24.3975L103.777 24.3975C103.688 24.399 103.599 24.4006 103.509 24.401V26.2964ZM122.724 29.9169H124.029L124.027 29.9158V27.2472C124.397 27.1911 126.462 27.2065 126.693 27.2692C126.696 27.6825 126.696 28.0973 126.695 28.5136C126.695 28.9857 126.694 29.4598 126.699 29.9356C126.785 29.9356 126.867 29.9359 126.945 29.9362C127.094 29.9366 127.231 29.9371 127.369 29.9356C127.517 29.9341 127.664 29.9308 127.815 29.9275L127.815 29.9275L127.997 29.9235V23.4389C127.715 23.3806 126.921 23.385 126.695 23.4488V24.3717C126.695 24.4717 126.696 24.5719 126.696 24.6721V24.6734C126.697 24.8737 126.698 25.0742 126.695 25.2748C126.694 25.3737 126.696 25.4728 126.697 25.5718C126.7 25.7789 126.703 25.9854 126.683 26.1878C126.193 26.2439 124.219 26.2208 124.015 26.1537V25.2341L124.015 25.0705L124.015 24.9357V24.9354V24.9352V24.9349V24.9347V24.9345V24.9342V24.934V24.9337V24.9324C124.016 24.7322 124.017 24.5316 124.015 24.331C124.013 24.2165 124.015 24.1018 124.017 23.9863C124.02 23.7942 124.023 23.6 124.01 23.4015C123.909 23.401 123.809 23.4002 123.712 23.3994C123.37 23.3966 123.047 23.3939 122.724 23.4059V29.9169ZM99.9493 25.3987H98.7525C98.744 25.3586 98.7366 25.3199 98.7295 25.2823C98.7153 25.2072 98.7018 25.1365 98.6821 25.0676C98.5897 24.7376 98.3872 24.5077 98.0583 24.3922C97.3279 24.1337 96.6371 24.434 96.3511 25.1534C96.2752 25.3459 96.2191 25.5582 96.2136 25.7628C96.1982 26.3734 96.2026 26.9861 96.218 27.5966C96.2268 27.9607 96.3522 28.2929 96.5909 28.5756C96.7867 28.8077 97.0298 28.9617 97.3334 29.0068C97.7492 29.0673 98.154 29.0332 98.5413 28.8572C98.7008 28.7846 98.7767 28.679 98.7712 28.4953C98.7634 28.2531 98.7649 28.0104 98.7665 27.7575L98.7665 27.7557C98.7672 27.6497 98.7679 27.5419 98.7679 27.4316H97.5171V26.5307H100.076C100.079 26.5655 100.082 26.5989 100.085 26.6315L100.085 26.6318C100.092 26.6918 100.098 26.7487 100.098 26.8057C100.098 27.0244 100.097 27.2434 100.096 27.4623V27.4624V27.4625C100.095 27.9007 100.093 28.3391 100.098 28.7769C100.1 28.9672 100.035 29.1058 99.8965 29.2312C99.4697 29.614 98.9769 29.8571 98.4125 29.9539C97.8757 30.0464 97.3389 30.0541 96.8054 29.9154C95.7813 29.6503 95.0311 28.778 94.9365 27.7242C94.8716 26.996 94.865 26.2655 94.9408 25.5373C95.0652 24.3537 96.0453 23.4143 97.2355 23.3351C97.714 23.3032 98.1859 23.323 98.6447 23.4858C99.462 23.7773 99.9284 24.4043 99.957 25.2557C99.9577 25.2773 99.9554 25.2989 99.9523 25.3289C99.9504 25.3478 99.9481 25.37 99.946 25.3976L99.9493 25.3987ZM57.4452 27.2271C57.4549 27.1091 57.4649 26.9877 57.4783 26.8619L57.4772 26.8608C57.4688 26.7348 57.4639 26.6039 57.4587 26.47V26.47C57.4469 26.1607 57.4345 25.8354 57.3793 25.5176C57.1395 24.1371 56.0163 23.2857 54.5951 23.3209C53.2695 23.3528 52.2542 24.268 52.0397 25.5275C51.9253 26.1964 51.9418 26.8718 52.0056 27.5472C52.0518 28.0389 52.1959 28.4965 52.4819 28.9002C53.0748 29.7351 53.9109 30.0608 54.9108 30.0124C56.1274 29.9541 57.1097 29.129 57.3573 27.9432C57.4052 27.7141 57.4245 27.4784 57.4452 27.2271ZM53.2882 26.6804C53.2783 26.6793 53.2684 26.6793 53.2585 26.6793L53.2574 26.6782C53.2649 26.5739 53.2716 26.4695 53.2784 26.3652L53.2785 26.3647L53.2785 26.3646L53.2785 26.3644L53.2785 26.3642L53.2785 26.3641L53.2785 26.3639L53.2785 26.3638L53.2786 26.3636L53.2786 26.3635L53.2786 26.3633L53.2786 26.3631L53.2786 26.363L53.2786 26.3628L53.2786 26.3627L53.2786 26.3625L53.2787 26.3624L53.2787 26.3622L53.2787 26.3621L53.2787 26.3619L53.2787 26.3618L53.2787 26.3616L53.2787 26.3614L53.2787 26.3613L53.2787 26.3611C53.2961 26.0947 53.3134 25.8281 53.341 25.5627C53.3553 25.4208 53.4016 25.2767 53.4588 25.1447C53.6678 24.6651 54.0187 24.3659 54.5599 24.3263C55.1528 24.2834 55.6115 24.4957 55.9074 25.0259C56.0394 25.2624 56.1219 25.5165 56.123 25.7816C56.1274 26.4362 56.1208 27.0918 56.0911 27.7463C56.0834 27.93 56.0042 28.1203 55.9195 28.2886C55.6698 28.7825 55.2529 29.0212 54.6985 29.0146C54.143 29.008 53.7228 28.7671 53.4984 28.2589C53.3905 28.0136 53.3311 27.7397 53.2959 27.4724C53.2722 27.2919 53.2778 27.1071 53.2834 26.9226V26.9226V26.9225V26.9225V26.9224V26.9224V26.9224V26.9223V26.9223V26.9223V26.9222V26.9222V26.9222V26.9221V26.9221V26.922V26.922V26.922V26.9219V26.9219V26.9219V26.9218V26.9218V26.9218V26.9217C53.2858 26.8411 53.2882 26.7605 53.2882 26.6804ZM114.08 29.9299L113.884 29.9297C113.592 29.9292 113.321 29.9288 113.051 29.9311C112.929 29.9311 112.875 29.8739 112.841 29.7617C112.767 29.5192 112.688 29.2788 112.61 29.0382L112.61 29.0381L112.609 29.037L112.548 28.8498C112.528 28.7888 112.506 28.7283 112.482 28.6623C112.468 28.6259 112.455 28.5879 112.44 28.5473H110.297C110.159 28.9818 110.012 29.4383 109.859 29.9146H108.516C109.234 27.7289 109.961 25.564 110.72 23.4102H112.05C112.559 24.9141 113.068 26.4159 113.583 27.9331L113.587 27.9477L113.592 27.9603L114.26 29.93L114.08 29.9299ZM111.35 25.2131L111.415 25.2196C111.645 25.9537 111.874 26.6877 112.103 27.4218L112.103 27.4227L112.103 27.4236L112.103 27.4244L112.104 27.4253L112.104 27.4262L112.104 27.4271L112.104 27.428L112.105 27.4289L112.105 27.4298L112.105 27.4307L112.106 27.4316L112.106 27.4324L112.106 27.4333L112.106 27.4342L112.107 27.4351L112.107 27.436L112.107 27.4369L112.107 27.4378L112.108 27.4387L112.108 27.4396L112.108 27.4405L112.109 27.4414L112.109 27.4423L112.109 27.4429C111.899 27.5089 111.054 27.5276 110.64 27.4792C110.805 26.9015 110.989 26.3332 111.172 25.7663L111.172 25.7661L111.172 25.7659L111.172 25.7657C111.232 25.5815 111.291 25.3974 111.35 25.2131ZM116.788 23.3932C116.487 23.3869 116.184 23.3804 115.879 23.3726V29.9166H117.175L117.174 29.5178C117.174 29.2596 117.174 29.007 117.175 28.7539C117.175 28.53 117.177 28.3057 117.179 28.077L117.179 28.0744L117.179 28.0688C117.18 27.9047 117.181 27.7383 117.182 27.5681C117.302 27.5681 117.417 27.5685 117.529 27.5688H117.529H117.529H117.529H117.529H117.529H117.529H117.529H117.53H117.53H117.53H117.53H117.53H117.53H117.53H117.53H117.53C117.745 27.5696 117.948 27.5702 118.151 27.5681C118.574 27.5637 118.993 27.5318 119.397 27.3965C121.103 26.8256 121.091 24.8048 120.155 24.004C119.788 23.6905 119.369 23.4793 118.893 23.4562C118.195 23.423 117.496 23.4082 116.788 23.3932ZM117.723 26.5619C117.546 26.5589 117.367 26.5559 117.186 26.5615H117.185V24.433C117.193 24.4289 117.201 24.4237 117.21 24.4186L117.21 24.4185C117.226 24.4085 117.241 24.3989 117.256 24.3989C117.381 24.4013 117.506 24.4026 117.631 24.4038L117.631 24.4038L117.631 24.4038L117.631 24.4038L117.631 24.4038L117.632 24.4039L117.632 24.4039L117.632 24.4039L117.632 24.4039L117.632 24.4039L117.632 24.4039L117.632 24.4039L117.632 24.4039L117.632 24.4039L117.632 24.4039C117.955 24.4071 118.278 24.4103 118.599 24.4341C119.081 24.4693 119.377 24.7674 119.465 25.2437C119.511 25.4923 119.497 25.7343 119.4 25.9686C119.276 26.27 119.05 26.4647 118.731 26.5175C118.399 26.5732 118.064 26.5676 117.723 26.5619ZM88.9655 29.9035V23.4155H93.1324C93.159 23.6096 93.1546 23.8004 93.1502 23.9962C93.1473 24.1246 93.1443 24.2551 93.15 24.3902H90.2679V26.0215C90.4599 26.0415 90.6466 26.0389 90.8308 26.0363C90.9094 26.0352 90.9875 26.034 91.0654 26.0347C91.2422 26.0369 91.4195 26.0362 91.5966 26.0354C91.6851 26.0351 91.7735 26.0347 91.8619 26.0347H92.6858C92.6994 26.2606 92.6971 26.4762 92.6948 26.6956V26.6957V26.6957V26.6958V26.6958C92.6936 26.8129 92.6923 26.9309 92.6935 27.0522H90.3251C90.258 27.2623 90.2382 28.4515 90.2899 28.9223H93.1632C93.183 29.2633 93.1841 29.5768 93.1632 29.8848C92.9421 29.9464 89.312 29.9596 88.9666 29.9024L88.9655 29.9035ZM80.9628 28.9302H78.0851L78.084 28.9291V27.0591H80.492C80.492 26.9585 80.4938 26.8608 80.4955 26.7646V26.7642V26.7637V26.7633V26.7629V26.7625V26.762V26.7616V26.7612V26.7608V26.7604V26.7599V26.7595C80.5 26.5153 80.5042 26.2807 80.4799 26.0349H79.6592C79.5709 26.0349 79.4825 26.0352 79.394 26.0354C79.2169 26.0359 79.0396 26.0364 78.8628 26.0349C78.7828 26.0343 78.7027 26.0352 78.6222 26.0362C78.4405 26.0385 78.2569 26.0407 78.0686 26.0239C78.0686 25.9354 78.0681 25.85 78.0676 25.7668V25.7658V25.7648V25.7638V25.7628V25.7618V25.7608C78.0665 25.5642 78.0654 25.3799 78.0708 25.1956C78.0728 25.1155 78.0702 25.0351 78.0675 24.9539C78.0614 24.7717 78.0552 24.5852 78.1016 24.3882H80.9441C80.9444 24.2857 80.9472 24.1858 80.9499 24.0876L80.95 24.0872V24.0871V24.0871V24.087V24.0869V24.0869V24.0868V24.0867V24.0867V24.0866V24.0866V24.0865V24.0865C80.9564 23.8574 80.9625 23.6379 80.9364 23.418H76.7739V29.9235H80.9617C80.9859 29.5891 80.9848 29.2701 80.9628 28.9302ZM50.217 25.5377H48.9761C48.9668 25.483 48.9588 25.4297 48.951 25.3777L48.9509 25.3775L48.9509 25.3775L48.9509 25.3774C48.9347 25.2696 48.9192 25.167 48.8947 25.0669C48.8078 24.7083 48.5889 24.4685 48.2248 24.3805C48.0653 24.342 47.9014 24.3101 47.7386 24.3068C47.2766 24.2958 46.9279 24.5004 46.7035 24.903C46.5495 25.1791 46.4714 25.4783 46.4692 25.794C46.4659 26.3781 46.4659 26.9622 46.4692 27.5474C46.4714 27.9039 46.5759 28.2317 46.7827 28.5232C47.1589 29.0534 47.9498 29.2085 48.502 28.8609C48.7902 28.6794 48.8925 28.3912 48.9409 28.0744C48.9495 28.0171 48.9548 27.9595 48.9605 27.8977L48.9605 27.8975L48.9606 27.8974C48.9636 27.8643 48.9668 27.8299 48.9706 27.7939H50.2148C50.228 28.3582 50.1059 28.8697 49.7142 29.2789C49.5349 29.4659 49.3138 29.6364 49.0795 29.7453C48.3139 30.0995 47.5175 30.1259 46.731 29.8223C45.9708 29.5286 45.4659 28.9599 45.2866 28.1778C45.0578 27.1811 45.049 26.1559 45.2866 25.1637C45.5154 24.2111 46.149 23.5851 47.1325 23.3816C47.7331 23.2573 48.337 23.2958 48.9167 23.5169C49.7791 23.8459 50.2368 24.5488 50.217 25.5377ZM73.1111 29.9238C73.1325 29.9205 73.1559 29.9169 73.1823 29.9135L73.1834 29.9124V26.5925V25.4969C73.1838 25.3622 73.1833 25.2274 73.1828 25.0913V25.0911V25.0909V25.0906V25.0904V25.0902V25.0899V25.0897V25.0895V25.0893V25.089V25.0888V25.0886V25.0883V25.0881V25.0879V25.0877V25.0874V25.0872C73.1819 24.8599 73.181 24.629 73.1845 24.3892H75.0347V23.4102H70.0395V24.3936C70.2477 24.3962 70.4548 24.3951 70.6621 24.394C71.0626 24.3919 71.4641 24.3898 71.8765 24.4145V29.9355C72.01 29.9355 72.1401 29.9358 72.268 29.936H72.2681H72.2681H72.2682H72.2683H72.2683H72.2684H72.2685H72.2686H72.2686H72.2687H72.2688H72.2688H72.2689H72.269H72.269H72.2691H72.2692H72.2692C72.5182 29.9365 72.7587 29.937 72.9997 29.9355C73.0346 29.9355 73.0691 29.9302 73.1111 29.9238ZM82.8636 23.4092H84.1573C84.168 23.8403 84.1664 24.2661 84.1649 24.6902V24.6908V24.6914V24.692V24.6926V24.6932V24.6938V24.6944V24.695V24.6956V24.6962V24.6968V24.6973V24.6979V24.6985V24.6991C84.1642 24.8802 84.1635 25.061 84.1639 25.2418C84.1653 25.6489 84.1648 26.0564 84.1643 26.4638V26.4639V26.464V26.4642C84.1641 26.6677 84.1639 26.8711 84.1639 27.0745V28.9291H87.0767C87.1249 29.1884 87.116 29.4334 87.1072 29.6731L87.1072 29.6735C87.1046 29.7459 87.102 29.8178 87.1009 29.8895C86.8688 29.95 83.187 29.9599 82.8625 29.9027V23.4092H82.8636ZM94.8342 37.3803C94.3358 36.5905 93.1236 36.5707 92.4878 37.3495H92.4845C92.4714 37.2912 92.4596 37.2396 92.4487 37.1921L92.4484 37.1906L92.4482 37.1899L92.4479 37.1888L92.4472 37.1855L92.4472 37.1854C92.4311 37.1155 92.4171 37.0543 92.4042 36.9931C92.3855 36.9062 92.3514 36.8347 92.248 36.8336C92.1412 36.8329 92.0345 36.8331 91.9265 36.8333L91.7618 36.8336V40.5924H92.5175L92.5195 40.5596L92.5228 40.5107V40.5106V40.5105C92.5269 40.4492 92.5307 40.3935 92.5307 40.3372C92.5322 40.1515 92.5333 39.9658 92.5344 39.7801C92.5366 39.4092 92.5388 39.0383 92.5439 38.6673C92.5472 38.5034 92.5571 38.3384 92.5824 38.1767C92.6671 37.6333 92.985 37.3847 93.5372 37.4188C93.821 37.4364 93.9992 37.5673 94.0696 37.8456C94.1092 38.0018 94.1224 38.169 94.1257 38.3318C94.1334 38.7976 94.1374 39.2639 94.1413 39.73C94.143 39.9299 94.1447 40.1297 94.1466 40.3295C94.1466 40.3876 94.1506 40.4461 94.1548 40.5095L94.1578 40.5553C94.1589 40.5724 94.16 40.5899 94.1609 40.6078C94.2121 40.6078 94.2597 40.6081 94.3051 40.6083H94.3053H94.3055H94.3057H94.3058H94.306H94.3062H94.3063H94.3064H94.3066C94.3915 40.6088 94.4684 40.6092 94.5449 40.6078C94.6475 40.606 94.7495 40.6019 94.8612 40.5974L94.9332 40.5946V40.2932L94.9337 40.0107C94.9344 39.5387 94.9352 39.0672 94.9398 38.5958C94.942 38.4495 94.9497 38.3021 94.9761 38.1602C95.0795 37.6069 95.3809 37.3792 95.9386 37.4177C96.2213 37.4375 96.405 37.5695 96.4776 37.8423C96.5194 37.9985 96.5326 38.1657 96.5337 38.3285C96.5383 38.7837 96.5381 39.2383 96.5379 39.6928C96.5378 39.8951 96.5378 40.0974 96.5381 40.2998C96.5381 40.369 96.542 40.4382 96.5463 40.513C96.548 40.5428 96.5497 40.5736 96.5513 40.6056C96.6406 40.6038 96.727 40.6063 96.8114 40.6087H96.8114C96.9919 40.6139 97.1629 40.6189 97.3323 40.5814C97.335 40.5684 97.3377 40.5569 97.3401 40.5465C97.3457 40.5225 97.3499 40.5041 97.3499 40.4857L97.3508 40.0321V40.0299C97.352 39.4247 97.3532 38.819 97.3488 38.2141C97.3477 38.0513 97.3268 37.8863 97.3004 37.7246C97.2476 37.4045 97.1046 37.1339 96.8219 36.959C96.3555 36.6697 95.4579 36.6895 95.0201 37.1867C94.9796 37.2325 94.937 37.2757 94.893 37.3202L94.893 37.3203L94.8929 37.3204L94.8928 37.3204C94.8735 37.34 94.8539 37.3598 94.8342 37.3803ZM60.8487 29.9102C60.836 29.9121 60.8237 29.9142 60.8118 29.9163L60.7879 29.9206C60.7484 29.9279 60.7131 29.9344 60.6782 29.9344C60.4368 29.9359 60.1954 29.9354 59.9486 29.9349H59.9485H59.9483H59.9482H59.9481H59.9479H59.9478C59.8226 29.9346 59.6959 29.9344 59.5672 29.9344V23.442C59.7674 23.3837 60.5605 23.3771 60.8498 23.4365V29.9102H60.8487ZM49.7582 40.5969H50.5074L50.5041 40.5958L50.5038 40.1365V40.1363V40.136V40.1358V40.1356V40.1353V40.1351V40.1349V40.1346V40.1344V40.1342V40.134V40.1338V40.1335V40.1333C50.5034 39.6861 50.503 39.2519 50.5063 38.8171C50.5085 38.6169 50.5162 38.4156 50.5437 38.2176C50.6339 37.5718 51.207 37.2396 51.8241 37.464C52.0133 37.5322 52.1321 37.6675 52.1794 37.8513C52.2201 38.0086 52.2388 38.1747 52.2399 38.3375C52.2443 38.7753 52.2438 39.2132 52.2433 39.6511C52.2431 39.8699 52.2428 40.0888 52.2432 40.3076C52.2439 40.3669 52.2471 40.4266 52.2505 40.4895L52.2505 40.4897L52.2505 40.4901C52.2526 40.5286 52.2547 40.5684 52.2564 40.6101C52.3599 40.6045 52.4591 40.6069 52.5555 40.6092H52.5555H52.5555H52.5556H52.5556H52.5557H52.5557H52.5557H52.5558H52.5558H52.5558H52.5559H52.5559H52.5559H52.556C52.7258 40.6133 52.8871 40.6171 53.0484 40.5771L53.0485 40.081V40.0795C53.0487 39.4243 53.0489 38.7769 53.0462 38.1296C53.0462 38.0207 53.0286 37.9107 53.0077 37.804C52.9428 37.4706 52.8108 37.178 52.5127 36.9844C52.054 36.6874 51.1278 36.6588 50.6581 37.1769C50.6296 37.209 50.5959 37.2367 50.551 37.2736C50.5282 37.2923 50.5026 37.3134 50.4733 37.3386L50.4789 37.2034V37.2033V37.2033V37.2032V37.2032V37.2031V37.2031V37.2031V37.203C50.5068 36.5417 50.5329 35.9237 50.4876 35.3047H49.7351C49.6867 35.6446 49.7076 40.4077 49.7582 40.5969ZM110.725 42.2139V41.6386C110.749 41.6386 110.772 41.6384 110.796 41.6382L110.849 41.6376C110.928 41.6366 111.004 41.6356 111.079 41.6386C111.439 41.6562 111.693 41.4967 111.859 41.1842C111.868 41.1683 111.876 41.1518 111.884 41.1353L111.896 41.1099L111.902 41.0986L111.909 41.0863C112.072 40.7926 112.085 40.5187 111.941 40.1887C111.623 39.4645 111.33 38.7296 111.036 37.9944L111.035 37.9922L111.035 37.9918L111.035 37.9913L111.035 37.9909L111.035 37.9905L111.035 37.99L111.034 37.9896L111.034 37.9892L111.034 37.9887L111.034 37.9883L111.034 37.9879L111.033 37.9874C110.928 37.7244 110.824 37.4614 110.717 37.1988C110.688 37.1265 110.662 37.0527 110.631 36.966L110.631 36.9658L110.631 36.9644C110.616 36.9224 110.6 36.8774 110.582 36.8281L110.846 36.8279C111.008 36.8276 111.161 36.8274 111.314 36.8281C111.427 36.8292 111.461 36.9106 111.493 37.003C111.719 37.6445 111.946 38.2859 112.174 38.9281L112.177 38.9347L112.183 38.9536C112.279 39.2236 112.375 39.4938 112.471 39.7641C112.794 38.7983 113.124 37.8149 113.454 36.8314H114.309C114.303 36.8525 114.297 36.8729 114.291 36.8929L114.281 36.9295L114.281 36.9297L114.281 36.9298L114.281 36.9299C114.261 37.0015 114.243 37.0669 114.219 37.1295C114.112 37.4092 114.005 37.6888 113.899 37.9685C113.511 38.9848 113.124 40.001 112.727 41.0137C112.625 41.2744 112.487 41.5275 112.328 41.7574C111.984 42.2513 111.219 42.4053 110.725 42.2139ZM54.814 38.8964H57.3199V38.8953C57.312 38.7966 57.3063 38.703 57.3008 38.6129V38.6128L57.3008 38.6127L57.3008 38.6125L57.3008 38.6123V38.6122C57.2902 38.4375 57.2804 38.276 57.2571 38.1164C57.1449 37.342 56.6873 36.8811 55.914 36.7854C55.1902 36.6963 54.4114 36.9724 54.0957 37.8689C53.912 38.3914 53.8867 38.9228 54.055 39.4552C54.2464 40.0624 54.6501 40.4518 55.2705 40.6003C55.6852 40.6993 56.1065 40.6971 56.5234 40.6135C56.684 40.5816 56.8424 40.531 56.9942 40.4694C57.0492 40.4463 57.1152 40.3726 57.1207 40.3165C57.1324 40.1983 57.1303 40.079 57.1281 39.9516L57.1281 39.9512C57.1272 39.8985 57.1262 39.8444 57.1262 39.7885C57.0613 39.809 57.0004 39.8288 56.9423 39.8476C56.8075 39.8914 56.6874 39.9303 56.5652 39.9634C56.2077 40.0591 55.8458 40.0954 55.4817 39.9931C55.0296 39.8655 54.726 39.3826 54.814 38.8964ZM56.4827 38.2902H54.7887C54.8899 37.6148 55.2111 37.3244 55.7732 37.3728C56.2209 37.4113 56.486 37.7479 56.4827 38.2902ZM110.357 38.9019H109.084H107.856C107.797 39.5344 108.22 40.0173 108.843 40.0493C109.232 40.0702 109.606 39.9899 109.973 39.8633C110.016 39.8479 110.059 39.8336 110.101 39.8193C110.106 39.8179 110.112 39.8201 110.123 39.8242C110.129 39.8265 110.137 39.8294 110.147 39.8325V40.4101C110.116 40.4229 110.086 40.4371 110.054 40.4516C109.992 40.4805 109.927 40.5106 109.859 40.5333C109.416 40.6807 108.959 40.7027 108.503 40.64C107.759 40.5366 107.241 40.0471 107.079 39.3122C106.974 38.8403 106.988 38.3684 107.141 37.9086C107.486 36.8702 108.724 36.4346 109.655 37.0198C109.869 37.1551 110.029 37.3388 110.148 37.5599C110.356 37.9492 110.356 38.3681 110.357 38.824L110.357 38.9019ZM109.538 38.2914C109.566 37.7249 109.24 37.3641 108.724 37.3707C108.203 37.3773 107.834 37.7766 107.879 38.2914H109.538ZM65.16 40.0949C65.1385 40.1135 65.1202 40.1288 65.1041 40.1423L65.1038 40.1425C65.0767 40.1652 65.0558 40.1827 65.0366 40.2019C64.547 40.7145 63.9508 40.7574 63.3161 40.5682C62.9542 40.4604 62.7397 40.1887 62.6462 39.8312C62.6055 39.6739 62.5813 39.5078 62.5802 39.345C62.5739 38.7032 62.5742 38.0614 62.5745 37.4196L62.5747 36.992C62.5747 36.9637 62.5792 36.9358 62.5846 36.9034C62.5875 36.8855 62.5906 36.8662 62.5934 36.8446H63.3788C63.3804 36.886 63.3827 36.9254 63.3849 36.9635C63.3885 37.0278 63.392 37.0886 63.392 37.1494C63.392 37.3611 63.3934 37.5729 63.3947 37.7847V37.7851C63.3978 38.2574 63.4009 38.7297 63.3887 39.202C63.3711 39.8895 63.7847 40.1117 64.3798 40.0006C64.7153 39.9379 64.9475 39.7443 65.019 39.4044C65.0641 39.1921 65.0949 38.9732 65.0993 38.7554C65.107 38.3751 65.1055 37.9949 65.1039 37.6142V37.614V37.6138V37.6136V37.6134V37.6132V37.613V37.6128V37.6126V37.6124V37.6122C65.1032 37.4551 65.1026 37.2979 65.1026 37.1406V36.8424C65.3721 36.8171 65.6229 36.8259 65.8693 36.838C65.932 37.0493 65.9551 40.0028 65.9023 40.5583C65.7131 40.6199 65.5855 40.6254 65.2874 40.5825C65.2505 40.4402 65.2127 40.2959 65.1694 40.1311L65.16 40.0949ZM101.82 38.7291C101.826 39.0712 101.767 39.4023 101.625 39.7136C101.377 40.257 100.942 40.5651 100.36 40.6476C99.1067 40.8247 98.3729 40.0183 98.2508 38.981C98.2079 38.6136 98.2574 38.2517 98.374 37.9019C98.6061 37.21 99.1595 36.8118 99.9306 36.7733C100.966 36.7227 101.706 37.375 101.805 38.4277C101.811 38.4921 101.814 38.5564 101.816 38.6208L101.818 38.6721C101.819 38.6908 101.819 38.7094 101.82 38.728V38.7291ZM99.0407 38.6257C99.0498 38.7054 99.0569 38.7778 99.0634 38.8451C99.0767 38.9805 99.0879 39.0956 99.11 39.2087C99.2277 39.8082 99.6358 40.0909 100.244 40.0073C100.544 39.9655 100.759 39.806 100.859 39.5266C101.047 39.0041 101.058 38.4695 100.871 37.9448C100.739 37.5763 100.463 37.4146 100.032 37.4157C99.5973 37.4157 99.3179 37.5752 99.1914 37.9426C99.133 38.1128 99.1012 38.2927 99.0734 38.4506C99.0623 38.513 99.0519 38.5721 99.0407 38.6257ZM80.1092 40.4365V39.804V39.8029L80.0168 39.8346L79.94 39.8608C79.895 39.8761 79.8541 39.89 79.8133 39.9041C79.4711 40.0218 79.1191 40.0746 78.7594 40.0416C78.1467 39.9855 77.765 39.5345 77.8134 38.8943H80.3028C80.3391 38.4279 80.3105 38.0077 80.1279 37.6062C80.019 37.3674 79.8529 37.1782 79.635 37.0308C78.7781 36.4522 77.5252 36.8262 77.1468 37.7833C76.929 38.3355 76.9059 38.9064 77.083 39.474C77.2722 40.0823 77.6847 40.4629 78.3084 40.6059C78.6879 40.6928 79.0729 40.6906 79.4535 40.6191C79.6061 40.591 79.7556 40.5446 79.9059 40.4979C79.9733 40.477 80.041 40.456 80.1092 40.4365ZM78.6901 37.3696C79.2731 37.3597 79.5426 37.7745 79.5217 38.2937H77.8167C77.8376 37.7151 78.1643 37.3773 78.6901 37.3696ZM106.079 40.5917H105.314C105.313 40.5608 105.311 40.5304 105.309 40.5005L105.309 40.4998L105.309 40.4965C105.305 40.417 105.301 40.3401 105.3 40.2628C105.299 40.0565 105.299 39.8502 105.3 39.6439C105.3 39.2572 105.301 38.8703 105.294 38.4829C105.291 38.275 105.268 38.0638 105.22 37.8625C105.168 37.6436 105.009 37.5083 104.787 37.4478C104.204 37.2905 103.738 37.5644 103.617 38.1529C103.58 38.33 103.569 38.5148 103.568 38.6963C103.564 39.0252 103.565 39.3544 103.565 39.6836C103.566 39.8929 103.566 40.1021 103.565 40.3112C103.565 40.3726 103.56 40.4336 103.555 40.4995L103.552 40.546L103.549 40.5917H102.781V36.8461H103.378C103.423 37.0056 103.466 37.1596 103.516 37.3389C103.541 37.3163 103.563 37.2985 103.581 37.2832L103.581 37.2832L103.581 37.2831C103.607 37.262 103.626 37.2456 103.644 37.2278C104.141 36.7273 104.734 36.6723 105.369 36.8813C105.75 37.0067 105.955 37.3048 106.038 37.6854C106.073 37.8449 106.093 38.011 106.094 38.1738C106.099 38.8391 106.097 39.5043 106.095 40.1703L106.094 40.419C106.094 40.4557 106.09 40.4924 106.085 40.534C106.083 40.5522 106.081 40.5712 106.079 40.5917ZM82.8988 39.2253C83.0352 39.9634 83.6403 40.6916 84.6347 40.6663H84.6358C85.5686 40.674 86.2143 40.1339 86.3782 39.2176C86.4332 38.9096 86.4354 38.6038 86.3859 38.2936C86.2253 37.2936 85.5136 36.7172 84.5049 36.7755C83.6854 36.8239 83.0968 37.3079 82.9208 38.0857C82.835 38.463 82.8284 38.8414 82.8988 39.2253ZM83.6722 38.9314C83.6618 38.8508 83.6511 38.7671 83.637 38.6797H83.6381C83.6509 38.6154 83.6626 38.5479 83.6746 38.4786L83.6747 38.4781C83.7048 38.3045 83.7369 38.1194 83.7943 37.9427C83.9032 37.6027 84.1672 37.4388 84.5225 37.4212C85.1297 37.3904 85.452 37.6357 85.5653 38.2276C85.6357 38.5983 85.628 38.9723 85.5378 39.3397C85.43 39.7775 85.1396 40.0085 84.6974 40.0261C84.231 40.0459 83.8834 39.8237 83.7558 39.3925C83.7129 39.2477 83.6934 39.096 83.6722 38.9314ZM72.5288 40.6089L72.5283 40.6067L72.5874 40.6069L72.6391 40.6073C72.7042 40.6077 72.7632 40.6082 72.8226 40.6067C72.8952 40.6051 72.9678 40.6016 73.0403 40.5981L73.113 40.5946V36.8402H72.3297V37.1461C72.3277 37.3495 72.3281 37.5532 72.3285 37.7569V37.7588C72.3293 38.212 72.3302 38.6655 72.3044 39.1173C72.2615 39.8763 71.7346 40.0963 71.1351 40.0061C70.8909 39.9698 70.7314 39.8279 70.6665 39.6013C70.6225 39.4462 70.6071 39.279 70.606 39.1162C70.6016 38.6782 70.6021 38.2406 70.6026 37.8029V37.8028V37.8028V37.8027V37.8027V37.8016C70.6028 37.5824 70.6031 37.3632 70.6027 37.1439C70.602 37.0795 70.5978 37.0151 70.5935 36.9481L70.5935 36.9479C70.5913 36.9142 70.5891 36.8799 70.5873 36.8447C70.309 36.8237 70.0593 36.8072 69.8052 36.8468L69.8024 36.8711L69.7987 36.9022C69.7937 36.9433 69.7898 36.9751 69.7898 37.0064L69.7908 37.3644C69.7925 37.9571 69.7942 38.5502 69.7997 39.1426C69.8008 39.3065 69.8129 39.4715 69.8349 39.6343C69.8855 40.005 70.0395 40.3185 70.3838 40.5022C70.8557 40.7542 71.7764 40.763 72.2428 40.2305C72.2682 40.2015 72.2998 40.1778 72.3357 40.1508L72.3358 40.1507C72.3465 40.1427 72.3575 40.1344 72.3689 40.1256C72.3773 40.1191 72.3859 40.1123 72.3946 40.1051C72.4407 40.2804 72.4801 40.4284 72.5283 40.6067H72.5277L72.5288 40.6089ZM46.7365 40.5958H47.5483L47.5505 40.5947V36.3013H48.9937V35.627H45.2778V36.3222H46.72C46.72 36.5715 46.7195 36.8164 46.719 37.0584C46.718 37.5341 46.717 37.9988 46.72 38.4639C46.7214 38.691 46.7197 38.9181 46.7181 39.1455V39.1458V39.1462V39.1465V39.1469V39.1471V39.1471V39.1471V39.1472C46.7146 39.6284 46.7111 40.1106 46.7365 40.5958ZM61.0336 36.8272H61.9378V37.4234H61.0413C61.0126 37.8005 61.0165 38.1657 61.0204 38.5268V38.5269V38.5269V38.527V38.5272V38.5275V38.5277C61.0222 38.693 61.0239 38.8574 61.0226 39.0217C61.0188 39.3788 61.0197 39.7359 61.0206 40.0981V40.0984V40.0988V40.1V40.1014V40.1027C61.021 40.2645 61.0215 40.4273 61.0215 40.5915H60.2118V37.4454L60.1667 37.4433C59.9737 37.4342 59.7995 37.4261 59.6167 37.4179V37.0714C59.8048 36.9922 60.0039 36.9086 60.2195 36.8184C60.2195 36.7717 60.2188 36.7263 60.218 36.6817C60.2166 36.595 60.2152 36.5114 60.2195 36.4279C60.2624 35.6678 60.6551 35.2761 61.4175 35.2475C61.7101 35.2365 61.9983 35.2882 62.3096 35.3971C62.2776 35.4926 62.2467 35.5857 62.2157 35.6787L62.2151 35.6806L62.2143 35.6831L62.2138 35.6844C62.1827 35.7781 62.1515 35.8719 62.1193 35.9681C62.0726 35.9609 62.0281 35.9537 61.9851 35.9467L61.9851 35.9467L61.985 35.9467C61.8822 35.93 61.7879 35.9147 61.6925 35.9054C61.2591 35.8625 61.0588 36.0352 61.0336 36.4686C61.0293 36.5382 61.0305 36.6078 61.032 36.6866V36.6867V36.6867V36.6869C61.0327 36.7301 61.0336 36.7759 61.0336 36.8261V36.8272ZM89.246 37.4277V36.8216H89.2449H88.344C88.344 36.7765 88.3433 36.7336 88.3426 36.6923L88.3426 36.6915V36.6914V36.6913C88.3412 36.606 88.3399 36.5274 88.3451 36.4497C88.3726 36.0284 88.6003 35.8458 89.0227 35.9052C89.1157 35.9183 89.2083 35.9368 89.307 35.9565C89.3495 35.9649 89.3932 35.9736 89.4385 35.9822C89.5034 35.7831 89.5639 35.5983 89.6266 35.408C89.312 35.276 89.0139 35.2342 88.7125 35.2496C88.0029 35.2848 87.6454 35.6236 87.5607 36.3232C87.5473 36.4333 87.5394 36.5444 87.5312 36.6596L87.5312 36.6606C87.5274 36.7143 87.5235 36.769 87.5189 36.8249C87.3851 36.8797 87.2517 36.9341 87.1226 36.9867L86.9315 37.0647V37.4398H87.5409V40.587H88.3462V37.4277H89.246ZM69.066 39.9731V40.1249C69.066 40.5836 69.0495 40.6177 68.5819 40.6441C68.33 40.6584 68.0671 40.6474 67.8229 40.5913C67.4841 40.5132 67.2718 40.269 67.2003 39.9291C67.1574 39.7256 67.1387 39.5132 67.1343 39.3053C67.1279 38.9295 67.1291 38.5537 67.1302 38.1779C67.1306 38.0334 67.131 37.8889 67.131 37.7444V37.4474C66.9627 37.4364 66.8131 37.4265 66.6679 37.4166L66.6653 37.4017C66.6127 37.1035 66.6089 37.0818 66.8329 36.9898C67.1145 36.8743 67.2663 36.6807 67.3268 36.3903C67.3456 36.3008 67.3793 36.2139 67.4135 36.1258L67.4135 36.1257C67.4293 36.0849 67.4453 36.0437 67.4599 36.002H67.9417V36.8226H68.9989V37.421H67.9725C67.9683 37.4547 67.9638 37.484 67.9598 37.5104L67.9598 37.5106L67.9598 37.5107C67.9522 37.5602 67.9461 37.5998 67.9461 37.6399C67.9461 38.1965 67.9461 38.7542 67.9472 39.3108C67.9472 39.3834 67.9505 39.4571 67.956 39.5297C67.9846 39.8774 68.1573 40.0391 68.5104 40.0303C68.6272 40.0273 68.7439 40.0123 68.8725 39.9957L68.8725 39.9957C68.9342 39.9877 68.9986 39.9794 69.0671 39.972L69.066 39.9731ZM74.312 36.8403H74.3109L74.312 36.8392V36.8403ZM74.9071 36.8403H74.312V40.6013C74.3759 40.6021 74.4385 40.604 74.5005 40.6058C74.7018 40.6118 74.8957 40.6176 75.1018 40.5848V40.0689C75.1018 39.9075 75.1004 39.7458 75.0989 39.5841C75.0958 39.2356 75.0928 38.8867 75.104 38.5388C75.1249 37.8886 75.5836 37.4794 76.2316 37.508C76.2765 37.5101 76.3215 37.5124 76.3668 37.5147C76.419 37.5173 76.4717 37.52 76.5253 37.5223C76.533 37.4705 76.5416 37.4199 76.55 37.3702C76.5839 37.171 76.6155 36.9858 76.5759 36.7886C76.3438 36.7545 76.1292 36.7644 75.9147 36.8227C75.5429 36.9239 75.3009 37.1934 75.0457 37.5311C74.9918 37.2638 74.95 37.0548 74.9071 36.8403Z" fill="#474D57"/>
</svg>
