<svg width="136" height="68" viewBox="0 0 136 68" fill="none" xmlns="http://www.w3.org/2000/svg">
<path fill-rule="evenodd" clip-rule="evenodd" d="M10.9162 23.0562C10.8438 23.0608 10.7719 23.0629 10.7001 23.0651C10.4728 23.0718 10.2465 23.0786 10.0091 23.1621C9.10893 23.4799 8.50607 24.0909 8.18427 24.949C7.87198 25.784 7.97246 26.6327 8.36622 27.4365C8.4151 27.5356 8.48842 27.6334 8.57396 27.704C9.10621 28.1561 9.55428 28.6626 9.71586 29.3673C9.81634 29.8045 9.82449 30.2417 9.72672 30.6789C9.5923 31.2804 9.28001 31.7814 8.83465 32.1996C8.5631 32.4535 8.40559 32.7794 8.30783 33.1188C8.22473 33.4126 8.19308 33.7215 8.16158 34.0291C8.15654 34.0783 8.1515 34.1275 8.14625 34.1766C8.05528 35.0103 8.40423 35.6905 8.94871 36.2757C9.27322 36.6247 9.53935 36.9899 9.70228 37.4407C10.0064 38.2852 9.90595 39.0891 9.45652 39.8426C9.30523 40.0954 9.1224 40.3289 8.93923 40.563C8.838 40.6923 8.73666 40.8218 8.64049 40.9547C8.33634 41.3742 8.05121 41.806 8.02269 42.3478L8.02186 42.3634C7.99903 42.7926 7.97642 43.2176 8.19106 43.6214C8.49928 44.2012 8.93242 44.6682 9.43887 45.0756L9.45177 45.086L9.45179 45.086C9.54741 45.1634 9.65172 45.2479 9.76474 45.2752L9.87774 45.3029C10.2248 45.3882 10.5743 45.474 10.927 45.5046C11.2407 45.5318 11.5652 45.4856 11.8775 45.434C12.3649 45.3539 12.8198 45.1937 13.1687 44.8094C13.4498 44.5012 13.7729 44.2432 14.1653 44.0857C14.9135 43.7884 15.6535 43.7911 16.3948 44.1197C16.7793 44.2908 17.076 44.5667 17.3751 44.8449C17.4131 44.8802 17.451 44.9155 17.4892 44.9507C17.8776 45.3078 18.3365 45.5549 18.8565 45.6255C19.3589 45.6947 19.8681 45.692 20.365 45.5114C21.2109 45.2046 21.826 44.6465 22.1655 43.825C22.4506 43.1326 22.4465 42.4143 22.1899 41.6974C21.8912 40.8623 21.3263 40.2744 20.5117 39.9771C19.496 39.6064 18.5116 39.7177 17.6481 40.4102L17.5644 40.4775C17.1266 40.8299 16.695 41.1772 16.1423 41.3457C15.3086 41.5983 14.4939 41.5738 13.7485 41.1135C12.8537 40.5595 12.3065 39.7585 12.2196 38.6804C12.1558 37.8752 12.3663 37.1624 12.923 36.569C13.2828 36.1847 13.629 35.7937 13.7675 35.2696C14.0418 34.235 13.9725 33.2736 13.2067 32.4359C12.7885 31.9797 12.407 31.4813 12.2685 30.8622C12.035 29.8113 12.2549 28.8703 13.0262 28.0841C13.4457 27.6564 13.9033 27.2817 14.5034 27.1554C15.4267 26.9599 16.2767 27.1337 16.9882 27.78C17.3114 28.0746 17.6413 28.3448 18.0283 28.5539L18.0404 28.5606C18.3497 28.7293 18.6469 28.8914 19.0195 28.8459C19.0987 28.836 19.1805 28.8405 19.2619 28.8449C19.3592 28.8503 19.456 28.8556 19.5476 28.8364C19.5971 28.8261 19.6471 28.8162 19.6973 28.8063C19.9793 28.7505 20.2685 28.6933 20.5117 28.5607C20.8756 28.3639 21.2055 28.0909 21.5137 27.8112C22.103 27.279 22.7833 26.9979 23.5708 27.0441C24.3406 27.0902 24.987 27.4283 25.5084 28.0027C25.8383 28.3652 26.2334 28.6232 26.7086 28.7698C27.5831 29.0387 28.3977 28.926 29.1595 28.4317C29.8166 28.0054 30.1982 27.3876 30.4046 26.6381C30.5607 26.0719 30.5417 25.5125 30.3448 24.9775C30.0026 24.0488 29.3455 23.4174 28.3801 23.154C27.3753 22.8811 26.4602 23.0712 25.6631 23.7637C25.1472 24.2117 24.6027 24.5933 23.898 24.7087C23.1078 24.839 22.4031 24.6652 21.7663 24.209C21.6521 24.1276 21.554 24.0241 21.4559 23.9205C21.3673 23.8271 21.2788 23.7337 21.1783 23.6564C20.5959 23.2083 19.9495 22.9897 19.1933 23.0006C18.5456 23.0101 18.0052 23.1907 17.515 23.5939C17.459 23.6398 17.4033 23.6862 17.3476 23.7325L17.3476 23.7325L17.3476 23.7325L17.3475 23.7325L17.3475 23.7325C16.9305 24.0792 16.5137 24.4257 15.9807 24.6041C15.3779 24.8051 14.7831 24.7861 14.183 24.6041C13.7132 24.4616 13.3507 24.1547 12.999 23.8356C12.407 23.3006 11.7485 22.9517 10.9162 23.0562ZM28.6408 42.8121C28.6381 42.1875 28.1506 41.6933 27.5287 41.7082C27.3321 41.7129 27.1538 41.7641 27.0016 41.8501C26.6696 42.0371 26.4609 42.3904 26.4534 42.789C26.4426 43.3892 26.9639 43.8929 27.5573 43.8875C27.8533 43.8847 28.1287 43.7543 28.3275 43.5518C28.5207 43.3558 28.6421 43.0919 28.6408 42.8108V42.8121ZM27.9071 35.4442C28.3528 35.3033 28.6254 34.8702 28.6394 34.4576C28.6611 33.8629 28.1696 33.366 27.5776 33.3456C27.4414 33.3409 27.309 33.3625 27.1858 33.4058C26.7737 33.5502 26.4638 33.9378 26.4575 34.4011C26.4507 34.9836 26.9069 35.524 27.5288 35.49C27.6655 35.4978 27.7921 35.4808 27.9071 35.4442ZM18.221 34.4187C18.221 33.948 18.5102 33.5607 18.925 33.4183C19.0347 33.3804 19.1532 33.3597 19.2774 33.3592C19.9251 33.3565 20.3908 33.8222 20.3908 34.4563C20.3908 34.834 20.1983 35.1704 19.8813 35.3608C19.7139 35.4616 19.5115 35.5216 19.2842 35.5253C18.7017 35.5348 18.221 35.027 18.221 34.4187ZM64.2339 30.3353C63.1993 30.3244 62.371 29.488 62.3846 28.467C62.3982 27.4772 63.2278 26.6489 64.2 26.6557C65.236 26.6625 66.0928 27.4934 66.0792 28.4778C66.0656 29.5003 65.2265 30.3448 64.2339 30.3353ZM47.6295 32.1098H48.0559L48.0586 32.1071C48.0577 32.0828 48.0577 32.0611 48.0576 32.0412V32.0412V32.0412V32.0411C48.0575 31.9977 48.0575 31.9632 48.0491 31.9306C48.0092 31.7797 47.9727 31.6276 47.9361 31.4754L47.9361 31.4753L47.936 31.4752L47.936 31.475L47.936 31.4749L47.9359 31.4748L47.9359 31.4746L47.9359 31.4745L47.9358 31.4744C47.8504 31.119 47.765 30.7636 47.6377 30.4234C47.1136 29.0222 46.1264 28.0215 44.7714 27.4023C43.3715 26.7615 41.8942 26.5714 40.368 26.8226C39.4244 26.9787 38.516 27.2394 37.7 27.7526C36.2947 28.6366 35.3483 29.8885 34.7875 31.4309C34.2621 32.8742 34.129 34.3569 34.368 35.879C34.5635 37.1228 35.0034 38.266 35.7203 39.2966C36.5988 40.5607 37.8208 41.3699 39.2832 41.8235C40.645 42.2457 42.03 42.2566 43.4244 41.9918C46.2201 41.4623 47.954 39.1432 48.1726 36.8499C48.1835 36.7372 48.1577 36.7019 48.0423 36.7019C46.9221 36.7059 45.8019 36.7073 44.6818 36.7005C44.5338 36.7005 44.4889 36.7507 44.4659 36.8852C44.1767 38.6068 42.5663 39.3631 41.1298 39.1418C39.7611 38.9314 38.9016 38.0868 38.4169 36.8444C37.9335 35.6061 37.9145 34.3203 38.1236 33.025C38.2458 32.2632 38.5133 31.5531 39.0007 30.9502C39.8141 29.9468 40.8881 29.5965 42.1468 29.8341C43.347 30.0609 44.1115 30.7683 44.3763 31.9686C44.4075 32.1125 44.4862 32.1125 44.5921 32.1125H44.5923H44.5925H44.5927H44.5929H44.5931H44.5933H44.5935H44.5937H44.5939C45.6049 32.1112 46.6172 32.1098 47.6295 32.1098ZM79.7617 33.2167L79.7617 34.4224C79.7617 35.228 79.7618 36.0337 79.762 36.8395V36.8696C79.7623 38.4712 79.7626 40.0731 79.7617 41.6744V41.6772C79.7617 41.7816 79.7616 41.8523 79.9083 41.8523C80.8696 41.8509 81.8313 41.8509 82.7929 41.8509H82.797C83.7573 41.8509 84.7176 41.8509 85.6776 41.8495C86.4705 41.8482 87.2567 41.7789 88.0306 41.5916C89.6274 41.2032 90.9268 40.3777 91.827 38.9914C92.491 37.969 92.8467 36.8393 92.9703 35.6268C93.0843 34.5202 93.0354 33.4299 92.7897 32.345C92.4842 30.9981 91.8718 29.8113 90.8915 28.8297C89.7075 27.6443 88.2194 27.0903 86.5832 27.0387C85.0554 26.99 83.5256 26.9988 81.9956 27.0076C81.308 27.0116 80.6203 27.0156 79.9328 27.0143C79.8065 27.0143 79.7576 27.0455 79.7576 27.1867C79.7621 29.1963 79.7619 31.2068 79.7617 33.2167ZM83.4576 38.5718V34.4224V30.3572L83.4575 30.3046C83.457 30.1815 83.4568 30.1254 83.4846 30.1005C83.5078 30.0797 83.5507 30.0808 83.6293 30.0828C83.657 30.0835 83.6891 30.0843 83.7264 30.0843C83.9317 30.0843 84.137 30.0827 84.3424 30.081C84.8164 30.0773 85.2904 30.0736 85.7631 30.0897C86.939 30.1318 87.9071 30.5771 88.5656 31.5914C88.867 32.0544 89.0721 32.5541 89.1793 33.0945C89.4129 34.2676 89.3898 35.4299 89.0014 36.5704C88.5792 37.8088 87.4902 38.6506 86.1732 38.7185C85.6101 38.7479 85.0453 38.7504 84.4803 38.7529C84.1855 38.7542 83.8907 38.7554 83.5961 38.7606C83.4556 38.7631 83.4565 38.6845 83.4574 38.5944L83.4576 38.5718ZM120.567 34.8355C120.575 34.8184 120.581 34.8004 120.588 34.7823C120.6 34.7457 120.613 34.7093 120.637 34.682C120.891 34.3912 121.147 34.1012 121.403 33.8111L121.404 33.8092C121.607 33.5799 121.809 33.3505 122.011 33.1206C122.196 32.9089 122.381 32.6969 122.566 32.485L122.567 32.4836C122.9 32.1019 123.232 31.7205 123.568 31.3418C123.617 31.2862 123.708 31.2359 123.78 31.2346C124.751 31.2293 125.722 31.2298 126.704 31.2302L127.551 31.2305C127.543 31.2455 127.538 31.259 127.532 31.271C127.522 31.295 127.514 31.3134 127.502 31.3269L126.704 32.1691C125.772 33.1535 124.84 34.1379 123.912 35.1247C123.878 35.1613 123.868 35.2645 123.894 35.3066C124.485 36.2571 125.081 37.2062 125.68 38.1525C126.104 38.8238 126.529 39.4937 126.955 40.1637C127.271 40.6621 127.587 41.1605 127.904 41.6597C127.924 41.6924 127.941 41.7279 127.962 41.7718C127.973 41.7955 127.985 41.8217 128 41.8512H127.776L127.208 41.851C126.26 41.8506 125.312 41.8503 124.365 41.8593C124.162 41.8607 124.058 41.7914 123.956 41.619C123.302 40.4998 122.641 39.3863 121.979 38.2722L121.974 38.2649L121.971 38.2595L121.594 37.6244C121.583 37.6051 121.569 37.5877 121.549 37.5635C121.54 37.5517 121.529 37.5384 121.517 37.5225C121.493 37.5457 121.471 37.5679 121.449 37.5896L121.449 37.5897L121.448 37.5906L121.448 37.5909C121.406 37.6323 121.365 37.6719 121.326 37.7126C121.256 37.7856 121.185 37.8581 121.113 37.9306L121.113 37.9309C120.939 38.1079 120.766 38.285 120.6 38.4689C120.539 38.5354 120.497 38.6441 120.495 38.735C120.489 39.7072 120.489 40.6807 120.495 41.6529C120.495 41.7982 120.462 41.8498 120.309 41.8484C119.303 41.8444 118.296 41.8471 117.29 41.8539C117.136 41.8539 117.137 41.7727 117.139 41.6714L117.139 41.6584C117.141 41.2781 117.142 40.8978 117.144 40.5174V40.5163V40.5152V40.514V40.5129C117.149 39.5568 117.153 38.6004 117.154 37.6447C117.154 35.2496 117.151 32.8544 117.148 30.4593C117.147 29.3744 117.144 28.2895 117.135 27.2047C117.135 27.0567 117.176 27.0132 117.326 27.0146C118.316 27.0214 119.306 27.0214 120.296 27.0146C120.452 27.0146 120.495 27.0594 120.495 27.2142C120.492 28.9172 120.491 30.6203 120.491 32.3233C120.491 33.0046 120.49 33.6858 120.49 34.367V34.7771C120.503 34.7872 120.516 34.7971 120.529 34.8069L120.549 34.8216L120.556 34.8266L120.569 34.8368L120.567 34.8355ZM71.0705 31.2427H67.7927V31.7098C67.7941 35.0499 67.7955 38.3901 67.7941 41.7303C67.7941 41.8226 67.8199 41.847 67.9082 41.847C68.9496 41.8443 69.9897 41.843 71.0311 41.847C71.1709 41.8484 71.1994 41.7914 71.1994 41.6651V41.6645V41.6639V41.6633V41.6627V41.6621V41.6615V41.6609C71.1954 39.7844 71.1913 37.9067 71.1954 36.0303C71.1967 35.7696 71.2117 35.498 71.2768 35.2468C71.5063 34.3615 72.0888 33.8184 72.9021 33.7492C73.4507 33.703 73.9653 33.8157 74.3332 34.2787C74.6252 34.6453 74.7446 35.0676 74.7446 35.5347C74.7435 36.4007 74.7438 37.2666 74.7441 38.1323V38.1454V38.1455V38.1456V38.1457V38.1458V38.1459V38.146C74.7446 39.306 74.745 40.4659 74.7419 41.6257C74.7406 41.79 74.7704 41.8538 74.951 41.8525C75.6841 41.8464 76.4179 41.8471 77.1519 41.8479H77.152H77.152H77.1521H77.1522H77.1522H77.1523C77.397 41.8481 77.6418 41.8484 77.8866 41.8484C78.1486 41.847 78.1513 41.8457 78.1513 41.5755C78.1513 40.8562 78.1515 40.1367 78.1516 39.4172V39.417V39.4169V39.4167V39.4165V39.4164V39.3895C78.1519 37.9588 78.1522 36.5278 78.1513 35.0974C78.15 34.5842 78.0984 34.0777 77.9585 33.5808C77.6775 32.5828 77.1357 31.7776 76.1771 31.3174C74.6605 30.5882 72.4758 30.7756 71.228 32.5638C71.2054 32.5958 71.1795 32.6252 71.1535 32.6547L71.1535 32.6548L71.136 32.6747L71.1193 32.6942L71.0705 32.6779V31.2427ZM97.2976 37.4491C97.3258 37.5521 97.3508 37.6503 97.3749 37.745L97.375 37.7454L97.375 37.7456C97.4253 37.9428 97.4715 38.1244 97.5339 38.3004C98.0172 39.6691 99.4361 40.0384 100.52 39.6569C100.898 39.5224 101.208 39.2835 101.395 38.925C101.476 38.7716 101.573 38.7336 101.728 38.7349C102.252 38.7385 102.776 38.7385 103.3 38.7385C103.562 38.7385 103.825 38.7385 104.087 38.739H104.844C104.8 38.8443 104.76 38.9462 104.721 39.0449C104.64 39.2515 104.565 39.4437 104.467 39.6229C103.734 40.9549 102.573 41.7193 101.112 42.0574C100.444 42.2122 99.7606 42.2774 99.0736 42.1986C97.2229 41.9882 95.7171 41.217 94.7612 39.5618C94.3322 38.8191 94.1109 38.0112 94.0294 37.1626C93.914 35.9637 94.1204 34.8163 94.6934 33.7559C95.4361 32.3791 96.5861 31.5047 98.1218 31.1476C99.7851 30.7606 101.334 31.0186 102.736 32.0057C103.797 32.7525 104.368 33.8306 104.704 35.0458C104.908 35.779 105.006 36.5312 105.015 37.2929C105.017 37.4409 104.964 37.4722 104.829 37.4722C102.737 37.4613 100.645 37.4545 98.5522 37.4477H97.299L97.2976 37.4491ZM97.3641 35.445L97.3917 35.4492C97.4209 35.4539 97.4506 35.4586 97.4796 35.4586C97.8933 35.4586 98.307 35.459 98.7207 35.4595L98.7233 35.4595C99.5525 35.4604 100.382 35.4613 101.211 35.4586C101.266 35.4586 101.313 35.4604 101.354 35.4619C101.58 35.4705 101.583 35.4705 101.52 35.0947C101.376 34.2108 100.609 33.4463 99.7457 33.3974C98.2861 33.316 97.5909 34.113 97.3641 35.445ZM58.7051 40.9342C60.071 39.8045 60.6522 38.3164 60.7024 36.4114H60.701C60.6905 36.3323 60.6808 36.2397 60.67 36.1378L60.67 36.1375V36.1374L60.6699 36.1371C60.6417 35.8699 60.6067 35.5383 60.534 35.2152C60.1457 33.484 59.1803 32.19 57.5265 31.4677C56.1728 30.8757 54.7729 30.7888 53.3337 31.1594C51.8292 31.5464 50.7253 32.4317 49.9948 33.7651C49.2155 35.188 49.0756 36.6979 49.54 38.2526C50.0301 39.8914 51.0539 41.07 52.6534 41.7244C53.6799 42.1453 54.7512 42.2513 55.8483 42.1114C56.9074 41.977 57.8782 41.6185 58.7051 40.9342ZM53.1517 38.6463C52.8489 38.0584 52.7362 37.5085 52.7308 36.8785H52.7335C52.7199 35.8221 52.8367 35.078 53.1979 34.3896C53.9433 32.9694 55.7913 33.0536 56.5883 34.0991C56.9386 34.5594 57.1151 35.0726 57.2047 35.6266C57.3269 36.3897 57.3133 37.1514 57.1165 37.8995C56.9522 38.5214 56.6684 39.0781 56.1022 39.4406C55.058 40.11 53.7179 39.7475 53.1517 38.6463ZM107.393 38.4808H108.835C108.931 38.4808 108.983 38.5025 109 38.6166C109.105 39.3077 109.617 39.8291 110.308 39.9703C110.78 40.068 111.252 40.064 111.719 39.9391C111.978 39.8698 112.22 39.7598 112.399 39.5494C112.744 39.1447 112.668 38.6125 112.232 38.2988C111.909 38.0666 111.535 37.9895 111.159 37.9121L111.086 37.8969L111.009 37.8806C110.72 37.8189 110.431 37.7593 110.142 37.6998L110.142 37.6997C109.58 37.5838 109.018 37.468 108.46 37.3362C107.94 37.2126 107.458 36.9845 107.042 36.6396C106.41 36.1141 106.118 35.4217 106.07 34.6179C105.981 33.1053 106.785 32.0177 108.129 31.4705C109.868 30.7617 111.644 30.7862 113.383 31.4814C114.585 31.9607 115.271 32.8853 115.461 34.1657C115.488 34.3517 115.472 34.3694 115.283 34.3694H115.282C114.377 34.3694 113.473 34.3694 112.567 34.3748C112.421 34.3748 112.35 34.3382 112.315 34.1807C112.197 33.662 111.871 33.3361 111.343 33.2193C110.79 33.0958 110.237 33.0781 109.717 33.328C109.544 33.4108 109.372 33.5574 109.271 33.719C109.052 34.0666 109.155 34.4753 109.53 34.6477C109.888 34.8134 110.279 34.9274 110.668 35.0103C110.977 35.0765 111.289 35.132 111.601 35.1875C112.272 35.3071 112.944 35.4266 113.591 35.6539C114.136 35.8453 114.637 36.1033 115.039 36.5296C115.526 37.047 115.747 37.6702 115.799 38.3613C115.872 39.3756 115.617 40.2812 114.855 40.9981C114.361 41.4639 113.765 41.7585 113.115 41.9377C111.506 42.3804 109.907 42.3437 108.331 41.7938C107.432 41.4801 106.719 40.9262 106.231 40.0993C105.951 39.6268 105.858 39.104 105.778 38.5758C105.774 38.546 105.856 38.474 105.901 38.4713C106.068 38.4615 106.235 38.4622 106.402 38.4628L106.463 38.463L106.528 38.4631H107.393V38.4808ZM66.0873 31.2398H61.2644L61.263 31.2385C61.263 31.4975 61.2632 31.7543 61.2633 32.0095C61.2636 32.5155 61.2639 33.0155 61.263 33.5155C61.263 33.6199 61.3275 33.6187 61.394 33.6176L61.4151 33.6173C61.5371 33.6173 61.6593 33.6181 61.7815 33.6188L61.7818 33.6188C62.0268 33.6203 62.2722 33.6218 62.5176 33.6173C62.6412 33.6159 62.6901 33.6472 62.6901 33.7762C62.6901 33.9364 62.6945 34.0966 62.6989 34.2568C62.7033 34.417 62.7077 34.5773 62.7077 34.7375C62.7023 37.0552 62.6969 39.3716 62.686 41.688C62.6847 41.8143 62.7172 41.8523 62.8462 41.8523C63.87 41.8482 64.8938 41.8496 65.9176 41.855C66.0547 41.855 66.0886 41.8075 66.0886 41.6772C66.0873 38.4877 66.0873 35.2996 66.0873 32.1115V31.2398Z" fill="#474D57"/>
</svg>
