<svg width="136" height="68" viewBox="0 0 136 68" fill="none" xmlns="http://www.w3.org/2000/svg">
<path fill-rule="evenodd" clip-rule="evenodd" d="M32.8806 46.5749L32.7239 46.5511L32.7233 46.551L32.7227 46.5509L32.7215 46.5507L32.7215 46.5507L32.7215 46.5507C32.6154 46.5347 32.5093 46.5186 32.4033 46.502C30.7356 46.242 29.425 45.4077 28.4557 44.0348C27.9302 43.2907 27.6056 42.4619 27.4704 41.5612C27.4507 41.4302 27.4499 41.2959 27.449 41.1626L27.4487 41.1173C27.4452 40.6752 27.4411 40.2331 27.437 39.791V39.7908V39.7907V39.7906V39.7904V39.7903C27.4262 38.6149 27.4154 37.4395 27.4145 36.2639C27.4123 33.2101 27.4179 30.1565 27.4283 27.1027L27.4283 27.0756C27.4299 26.6006 27.4315 26.1235 27.5358 25.6541C27.8025 24.4545 28.3818 23.4328 29.2752 22.591C30.0947 21.8189 31.0569 21.3179 32.165 21.1047C32.3087 21.077 32.4536 21.0544 32.5985 21.0319C32.6656 21.0214 32.7326 21.011 32.7996 21H33.6904C33.763 21.0121 33.8359 21.0233 33.9088 21.0345L33.9088 21.0345C34.0683 21.059 34.2278 21.0835 34.3851 21.1179C36.4651 21.5708 37.9008 22.7919 38.716 24.7528C38.8859 25.1614 38.9655 25.5911 39.0265 26.0245C39.0591 26.2561 39.0751 26.492 39.0759 26.7259C39.0868 30.5488 39.0961 34.3716 39.1004 38.1945C39.1009 38.6771 39.094 39.1596 39.0871 39.6421C39.0812 40.0562 39.0753 40.4703 39.074 40.8844C39.0694 42.4527 38.4629 43.7576 37.3695 44.8602C36.4319 45.8056 35.2975 46.3416 33.9874 46.5259C33.9177 46.5357 33.8481 46.5458 33.7785 46.556L33.7781 46.5561L33.6499 46.5747H32.8806V46.5749ZM31.6672 33.7629H31.6517L31.6516 34.9926C31.6515 36.9423 31.6514 38.8921 31.6539 40.8419C31.6539 40.9681 31.6739 41.0975 31.7053 41.22C31.9157 42.0388 32.6799 42.5323 33.5221 42.4046C34.1867 42.3037 34.9225 41.6272 34.8434 40.7469C34.8355 40.6599 34.834 40.572 34.8342 40.4843C34.8351 40.1227 34.8363 39.761 34.8375 39.3993V39.3992V39.3992V39.3992C34.8389 38.9924 34.8403 38.5855 34.8411 38.1787L34.8463 35.676V35.6754V35.6748V35.6742V35.6736V35.673C34.8525 32.6726 34.8586 29.672 34.867 26.6716C34.8677 26.4515 34.829 26.2513 34.7316 26.0512C34.4222 25.416 33.8327 25.0713 33.1252 25.1181C32.4294 25.1641 31.677 25.7481 31.6717 26.684C31.6619 28.3653 31.6638 30.0465 31.6657 31.7278C31.6665 32.4062 31.6672 33.0846 31.6672 33.7629ZM82.8794 46.575L82.7434 46.5518C82.6443 46.5348 82.5452 46.5179 82.4459 46.5017C80.5382 46.1911 79.1056 45.1902 78.1621 43.5105C77.7312 42.7431 77.4957 41.911 77.4929 41.0192C77.49 40.0987 77.484 39.1783 77.4781 38.2579C77.4706 37.1014 77.4631 35.945 77.4617 34.7885C77.4581 31.6689 77.4588 28.5492 77.4595 25.4295C77.4598 24.166 77.4601 22.9024 77.4601 21.6388V21.3705H81.6383C81.6404 21.3844 81.6429 21.3983 81.6454 21.4122C81.6508 21.4425 81.6562 21.4728 81.6578 21.5033C81.6602 21.5509 81.6597 21.5986 81.6592 21.6463C81.659 21.6661 81.6588 21.6859 81.6588 21.7056L81.6602 26.2487C81.6615 30.473 81.6628 34.6973 81.6657 38.9216C81.6659 39.2205 81.6716 39.5194 81.6773 39.8183C81.6833 40.1327 81.6894 40.4472 81.689 40.7617C81.6875 41.7405 82.6233 42.5892 83.7613 42.2715C84.3266 42.1135 84.9044 41.6073 84.9035 40.7283C84.9025 39.716 84.9048 38.7036 84.9071 37.6913C84.9088 36.9167 84.9106 36.1422 84.9108 35.3677C84.9121 31.8425 84.9121 28.3175 84.9122 24.7924L84.9122 21.6516V21.3968C85.0718 21.3513 88.7835 21.3349 89.1401 21.3752L89.1437 21.4093L89.1559 21.5258C89.1563 21.5302 89.1562 21.5347 89.156 21.5392V21.5394L89.1559 21.5461L89.1537 24.524L89.1536 24.6052V24.6059V24.6067V24.6074V24.6081C89.15 29.5418 89.1463 34.4756 89.1413 39.4092C89.141 39.6513 89.1361 39.8932 89.1312 40.1352C89.1258 40.4057 89.1203 40.6761 89.1213 40.9465C89.1249 41.9094 88.8651 42.8026 88.3731 43.6184C87.4898 45.0831 86.2311 46.0567 84.5405 46.429C84.3854 46.4632 84.2276 46.4845 84.0697 46.5059C83.987 46.517 83.9043 46.5282 83.822 46.5412C83.7908 46.5461 83.7601 46.5549 83.7295 46.5637C83.7159 46.5676 83.7022 46.5715 83.6886 46.575H82.8794ZM122.923 46.2193L122.923 46.2193L122.923 46.2192L122.923 46.2192C122.937 46.2175 122.951 46.2159 122.965 46.2143C122.977 46.213 122.988 46.2118 123 46.2107V42.0025C122.971 42.0017 122.943 42.0007 122.914 41.9997L122.914 41.9997C122.848 41.9974 122.783 41.9952 122.717 41.9952C120.897 41.9948 119.077 41.9948 117.257 41.9948H117.231H116.996C116.948 41.8235 116.927 36.1496 116.97 35.5693C117.112 35.5614 117.256 35.5625 117.4 35.5635C117.469 35.564 117.537 35.5644 117.606 35.564C117.749 35.5632 117.893 35.5634 118.037 35.5636L118.233 35.5638H120.794C120.837 35.3982 120.849 31.5921 120.808 31.3232H116.969V25.5955H117.234L117.921 25.5955C119.527 25.5955 121.134 25.5955 122.74 25.5944C122.799 25.5944 122.858 25.5879 122.917 25.5813C122.945 25.5783 122.972 25.5752 123 25.5728V21.3642L122.945 21.3622C122.903 21.3607 122.86 21.3591 122.818 21.3591C119.513 21.3589 116.208 21.3589 112.902 21.3595C112.863 21.3596 112.823 21.3638 112.784 21.3678C112.767 21.3696 112.749 21.3715 112.732 21.3729C112.692 21.7238 112.708 46.0681 112.751 46.2334H112.966C116.23 46.2334 119.495 46.2334 122.76 46.2323C122.814 46.2323 122.869 46.2258 122.923 46.2193ZM98.7312 34.3049V46.1893C98.5617 46.2427 94.7579 46.2514 94.5448 46.2045V21.3624C95.9441 21.3591 97.3368 21.3672 98.746 21.3755L100.474 26.8577L102.918 34.6115C102.932 34.6099 102.946 34.6083 102.96 34.6069C102.996 31.8337 102.995 29.0602 102.994 26.2839C102.994 24.6474 102.993 23.01 103 21.3711H107.227V46.1972C107.097 46.2367 103.081 46.2365 102.532 46.196L100.967 41.2057L98.7982 34.2892L98.7312 34.3047V34.3049ZM44.707 21.3637C44.6856 21.365 44.6626 21.3663 44.6371 21.3675V46.2027C44.8431 46.2509 48.7133 46.2434 48.8721 46.1932V33.8364V29.7293L48.8721 28.0818C48.872 27.258 48.8719 26.4342 48.8723 25.6102C48.8953 25.6076 48.9144 25.6051 48.9309 25.6029L48.931 25.6029C48.9597 25.5991 48.9808 25.5963 49.0019 25.5964L49.1866 25.5979L49.1868 25.5979C49.6985 25.602 50.2103 25.6061 50.7221 25.6142C50.8154 25.6156 50.9102 25.6332 51.0015 25.6551C51.5458 25.7861 51.9824 26.179 52.0367 26.7565C52.0434 26.8287 52.0522 26.9009 52.0609 26.9731C52.0796 27.1289 52.0984 27.2846 52.098 27.4403C52.0942 28.7956 52.0873 30.1511 52.068 31.5062C52.0597 32.0901 51.8512 32.6152 51.499 33.0773C51.0716 33.6382 50.518 34.0331 49.8572 34.2803C49.7697 34.3131 49.6845 34.3522 49.5923 34.3945L49.5922 34.3946C49.5472 34.4152 49.5005 34.4367 49.451 34.4585L52.5465 46.2066H56.9165L54.0626 36.38C54.1345 36.3115 54.206 36.2462 54.276 36.1823C54.4244 36.0468 54.5665 35.917 54.6938 35.7741C55.6862 34.6596 56.2244 33.348 56.2679 31.8613C56.3049 30.5995 56.3071 29.3368 56.3093 28.0742V28.0737C56.3098 27.7785 56.3103 27.4834 56.3113 27.1882C56.3137 26.462 56.207 25.7539 55.9282 25.0738C55.5471 24.1447 54.9947 23.3424 54.2153 22.707C53.1315 21.8235 51.8898 21.3693 50.486 21.3685C49.2265 21.3679 47.9671 21.3654 46.7078 21.3629L46.7077 21.3629L46.7076 21.3629C46.0779 21.3617 45.4481 21.3604 44.8184 21.3594C44.7832 21.3593 44.7481 21.3613 44.707 21.3637ZM60.9227 25.5889V21.3874C61.0614 21.3507 72.1515 21.3325 72.5581 21.371C72.6004 21.5093 72.6183 25.2052 72.5753 25.5926H68.8699V46.2189H64.6255V25.5889H60.9227ZM23.2741 21.3684H13V46.2192H17.2556V35.5589H21.1761C21.1769 34.1493 21.1732 32.7582 21.141 31.3466L17.2605 31.3148V25.5946H23.2741V21.3684Z" fill="#474D57"/>
</svg>
