<svg width="136" height="68" viewBox="0 0 136 68" fill="none" xmlns="http://www.w3.org/2000/svg">
<path fill-rule="evenodd" clip-rule="evenodd" d="M13.07 33.1081C13.0672 33.1681 13.0643 33.2294 13.0019 33.2692L13 33.2655V34.545C13.0673 34.5714 13.0667 34.6254 13.0661 34.6771C13.0659 34.6911 13.0658 34.7049 13.067 34.718C13.1097 35.1978 13.1823 35.6721 13.2901 36.1408C13.5505 37.2734 14.0062 38.3223 14.6404 39.295C15.6242 40.8052 16.9354 41.9546 18.5423 42.7655C19.5131 43.2546 20.5435 43.5634 21.6241 43.7084C21.7476 43.725 21.8712 43.7451 21.9942 43.765L21.9942 43.765L21.9943 43.765C22.0508 43.7742 22.1072 43.7833 22.1634 43.7921H23.8856C23.9161 43.7848 23.9467 43.7763 23.9773 43.7677C24.0399 43.7502 24.1027 43.7327 24.1665 43.7252C24.6351 43.6731 25.0945 43.5838 25.5502 43.4629C27.2705 43.0036 28.7584 42.1387 30.0212 40.8926C30.6182 40.3049 31.126 39.6428 31.5612 38.9249C32.3497 37.6231 32.7626 36.2021 32.8928 34.6957C32.9932 33.5314 32.8891 32.382 32.5636 31.2606C31.7639 28.5043 30.0845 26.4436 27.5421 25.1064C25.9128 24.249 24.1646 23.9012 22.3215 24.0239C21.4083 24.0834 20.5193 24.2601 19.6582 24.5689C17.5417 25.3295 15.8641 26.6482 14.6292 28.5229C13.9243 29.596 13.4519 30.764 13.2157 32.0231C13.175 32.2425 13.1481 32.4642 13.1212 32.6863C13.1064 32.8087 13.0916 32.9312 13.0744 33.0534C13.0717 33.0711 13.0709 33.0895 13.07 33.1081ZM24.5514 39.4438L24.5273 39.4085L24.5291 39.4029C24.6238 39.3129 24.7184 39.2233 24.8131 39.1338L24.8137 39.1332L24.8137 39.1332L24.8137 39.1332C24.9086 39.0435 25.0034 38.9537 25.0982 38.8636L25.0982 38.8636C25.0908 38.8561 25.0852 38.8505 25.0796 38.8431C25.0389 38.8731 24.9985 38.9033 24.9582 38.9334L24.9581 38.9334C24.8734 38.9967 24.789 39.0597 24.7021 39.1202C24.6114 39.1829 24.5214 39.247 24.4315 39.3112C24.1879 39.485 23.9442 39.6588 23.6848 39.8028C23.371 39.9772 23.04 40.1216 22.7089 40.266L22.7086 40.2662L22.7083 40.2663C22.6196 40.305 22.5308 40.3437 22.4424 40.383C22.2769 40.4556 22.0946 40.4649 21.9216 40.4091C21.5785 40.2974 21.2381 40.1773 20.8982 40.0572L20.7462 40.0036C20.7016 39.9869 20.6588 39.9609 20.6216 39.9292C20.4505 39.7842 20.4803 39.5591 20.6886 39.4754C20.8497 39.4099 21.0193 39.3613 21.186 39.3134L21.1861 39.3134L21.2112 39.3062C21.2521 39.2932 21.3097 39.3006 21.3507 39.3174C21.6259 39.4327 21.8993 39.5517 22.1727 39.6726C22.2992 39.7284 22.368 39.8344 22.4052 39.9627C22.4294 39.7953 22.3438 39.6912 22.2062 39.6149C21.8435 39.4122 21.4827 39.2076 21.1219 39.003C21.0382 38.9566 20.9545 38.9082 20.8392 38.8412C20.8692 38.8287 20.8942 38.8175 20.9163 38.8075L20.9163 38.8075C20.9532 38.7909 20.982 38.778 21.0122 38.7687L21.3821 38.6606L21.3821 38.6606L21.3822 38.6606C21.9149 38.5048 22.4471 38.3491 22.9817 38.1996C23.0465 38.1809 23.118 38.1856 23.1962 38.1907L23.1962 38.1907C23.2347 38.1933 23.2748 38.1959 23.3165 38.1959C23.2774 38.1695 23.2385 38.1435 23.2 38.1177C23.0643 38.027 22.9321 37.9385 22.8032 37.8444C22.7586 37.8128 22.7214 37.7607 22.699 37.7086L22.6863 37.6789C22.6529 37.6005 22.6217 37.5271 22.5391 37.4743C22.5001 37.4494 22.4813 37.3788 22.4668 37.3239L22.4647 37.3162C22.4583 37.2915 22.4524 37.2666 22.4463 37.2417L22.4463 37.2416L22.4463 37.2416C22.4225 37.1427 22.3984 37.0426 22.3494 36.9461C22.3538 36.9959 22.3576 37.0457 22.3614 37.0954L22.3614 37.0954L22.3614 37.0954L22.3614 37.0955L22.3614 37.0955C22.3673 37.1719 22.3731 37.2481 22.381 37.3236L22.3816 37.3296C22.4015 37.517 22.4016 37.518 22.2378 37.61C22.1653 37.6509 22.0927 37.69 21.9904 37.7439V36.9516C21.9774 36.9498 21.9663 36.9498 21.9532 36.9498C21.9452 37.0207 21.937 37.0917 21.9288 37.1626L21.9287 37.1636C21.9121 37.3062 21.8956 37.4488 21.8807 37.5914C21.8603 37.7904 21.8565 37.7997 21.6575 37.8351C21.5683 37.8518 21.4771 37.863 21.386 37.8741C21.3757 37.8764 21.3653 37.8723 21.351 37.8667C21.3422 37.8632 21.3318 37.8591 21.319 37.8555C21.3442 37.7076 21.3697 37.5593 21.3953 37.4109C21.4209 37.2626 21.4465 37.1143 21.4716 36.9665C21.466 36.9656 21.4609 36.9642 21.4558 36.9628L21.4558 36.9628L21.4557 36.9628L21.4557 36.9628C21.4506 36.9614 21.4455 36.96 21.4399 36.9591C21.4027 37.0725 21.3655 37.186 21.3302 37.3013C21.3185 37.3394 21.3066 37.3774 21.2948 37.4153L21.2947 37.4154L21.2947 37.4154C21.2556 37.5405 21.2165 37.6653 21.1851 37.7923C21.1628 37.8853 21.1126 37.9243 21.0215 37.9281C20.9324 37.9307 20.8443 37.9351 20.7454 37.9402L20.6142 37.9467C20.7406 37.5803 20.8559 37.2436 20.9713 36.907L20.9378 36.8903L20.9042 36.9553C20.8758 37.01 20.8472 37.065 20.8206 37.1209C20.7881 37.1881 20.7553 37.2552 20.7224 37.3225C20.6406 37.4899 20.5585 37.6578 20.4803 37.8276C20.4338 37.9281 20.3668 37.9783 20.2552 37.9783C20.1865 37.9783 20.1186 37.9819 20.0422 37.986L20.0422 37.986L20.0421 37.986L20.042 37.986C19.9964 37.9885 19.9479 37.9911 19.8944 37.9932C19.9396 37.9045 19.9826 37.8208 20.0242 37.7399L20.0243 37.7398C20.0769 37.6374 20.1273 37.5394 20.1771 37.4408C20.2627 37.2697 20.3464 37.0967 20.404 36.907L20.404 36.907L20.404 36.907L20.404 36.907C20.337 36.9982 20.2701 37.0893 20.2069 37.1823L20.1023 37.3374C19.9769 37.5233 19.8515 37.7091 19.7307 37.8983C19.6675 37.9969 19.5913 38.0434 19.4778 38.0527C19.4089 38.0584 19.34 38.0677 19.2611 38.0783L19.261 38.0783L19.2609 38.0784C19.212 38.085 19.1592 38.0921 19.1003 38.0992C19.2194 37.9231 19.3342 37.7531 19.4464 37.5867C19.6057 37.3507 19.76 37.122 19.9149 36.894C19.9093 36.8893 19.9037 36.8852 19.8981 36.881L19.8981 36.881C19.8925 36.8768 19.887 36.8726 19.8814 36.868L18.4586 38.5195L18.4382 38.5139L18.4177 38.5083C18.4168 38.4998 18.4152 38.4908 18.4136 38.4817C18.409 38.455 18.4043 38.4273 18.414 38.4079C18.4563 38.3284 18.5047 38.255 18.5537 38.1808L18.5683 38.1587C18.7209 37.9234 18.8738 37.6886 19.0268 37.4538C19.1798 37.219 19.3327 36.9842 19.4852 36.7489C19.4923 36.7377 19.5002 36.7267 19.508 36.7156C19.525 36.6918 19.542 36.6677 19.5522 36.6411C19.6359 36.4086 19.8144 36.3007 20.0413 36.2207C20.5684 36.0369 21.0891 35.8392 21.6108 35.6411L21.6108 35.641L21.9458 35.514C22.0537 35.4731 22.1597 35.4229 22.2583 35.3633C22.4294 35.2611 22.5465 35.1123 22.5819 34.904C22.572 34.9176 22.5618 34.9312 22.5517 34.9449C22.5315 34.9722 22.5112 34.9994 22.4926 35.0267C22.3977 35.1681 22.2676 35.2685 22.1132 35.3336C22.0297 35.3682 21.9455 35.3989 21.861 35.4298L21.861 35.4298L21.8609 35.4298C21.8136 35.4471 21.7663 35.4644 21.7189 35.4824C21.6557 35.5066 21.6055 35.5103 21.5627 35.4415C21.4864 35.3187 21.4734 35.2648 21.5348 35.196C21.5529 35.175 21.5742 35.1573 21.5955 35.1395L21.5955 35.1395L21.5955 35.1395L21.6082 35.1288L21.6166 35.1216C21.6389 35.103 21.6613 35.0825 21.6668 35.036C21.4816 35.1494 21.2964 35.2614 21.1017 35.3791L21.1011 35.3795L21.0047 35.4377C20.9518 35.3319 20.9051 35.237 20.8547 35.1344L20.8411 35.1067C21.0011 34.9852 21.159 34.8664 21.3156 34.7484L21.3161 34.7481C21.4543 34.6441 21.5914 34.5408 21.7282 34.4372C21.7254 34.4325 21.7222 34.4283 21.7189 34.4241L21.7189 34.4241C21.7157 34.4199 21.7124 34.4158 21.7096 34.4111C21.254 34.6845 20.7964 34.9579 20.3166 35.2443C20.2682 35.1216 20.2255 35.0174 20.1734 34.891C20.6197 34.5934 21.0605 34.2995 21.5032 34.0057C21.4976 33.9982 21.492 33.989 21.4865 33.9797L21.4864 33.9797L21.4864 33.9796L20.9449 34.277C20.5592 34.4886 20.1711 34.7017 19.7735 34.9207C19.7665 34.9005 19.7597 34.8818 19.7532 34.8642C19.7361 34.8169 19.7216 34.7772 19.7121 34.7366C19.6787 34.5971 19.6842 34.5804 19.8126 34.4985C20.0877 34.324 20.3638 34.1505 20.6395 33.9773L20.9582 33.7769C20.9936 33.7546 21.0271 33.7286 21.0456 33.6765L21.0452 33.6767L21.0439 33.6774C20.481 33.9653 19.918 34.2533 19.3532 34.5413C19.2822 34.4477 19.284 34.3443 19.2857 34.2457C19.286 34.2307 19.2862 34.2157 19.2862 34.201C19.2862 34.1582 19.3551 34.1061 19.4034 34.0801C19.7553 33.8899 20.1099 33.7024 20.4637 33.5153L20.464 33.5151L20.6476 33.418C20.6737 33.4031 20.6979 33.3863 20.7109 33.3454C20.4158 33.4688 20.1203 33.5918 19.8248 33.7147L19.8241 33.715L19.8228 33.7155C19.5266 33.8387 19.2305 33.962 18.9347 34.0856C18.8771 33.9313 18.8752 33.8978 18.9068 33.7007L19.3509 33.5296C19.6749 33.4047 20.0013 33.2788 20.3278 33.1539L20.3222 33.1353L20.3166 33.1167C19.74 33.2748 19.1616 33.4328 18.5758 33.5928C18.5275 33.4687 18.5495 33.3574 18.5708 33.25L18.5758 33.2245C18.5832 33.1911 18.6539 33.1557 18.7023 33.1446C18.9464 33.0864 19.1916 33.0314 19.4371 32.9764L19.6657 32.9251L19.6707 32.9238C19.7212 32.9112 19.7733 32.8982 19.8219 32.873C19.532 32.8877 19.2452 32.9297 18.959 32.9717C18.7018 33.0094 18.4451 33.047 18.1871 33.0646C18.1824 33.0479 18.1792 33.0381 18.1771 33.0318C18.175 33.0255 18.1741 33.0227 18.1741 33.02C18.1836 32.9624 18.1898 32.9157 18.1949 32.8777C18.2064 32.7919 18.2119 32.7505 18.2356 32.7283C18.2577 32.7076 18.2956 32.7039 18.3691 32.6966H18.3691L18.3692 32.6966C18.4072 32.6928 18.4547 32.6881 18.5144 32.6796C18.7155 32.6505 18.9182 32.6326 19.1268 32.6142L19.1268 32.6142L19.1269 32.6142C19.2251 32.6055 19.3246 32.5967 19.4257 32.5866C19.1842 32.5352 18.9519 32.5438 18.7221 32.5524C18.6776 32.554 18.6332 32.5556 18.5888 32.5569C18.396 32.5605 18.2033 32.5594 18.003 32.5581H18.003H18.0028H18.0027H18.0026C17.8997 32.5575 17.7947 32.5569 17.6868 32.5569C17.6924 32.4974 17.6987 32.4401 17.7052 32.3802C17.7095 32.3408 17.714 32.3003 17.7184 32.2574H18.9478C18.9496 32.2463 18.9496 32.2332 18.9496 32.2221C18.9208 32.2184 18.892 32.2144 18.8631 32.2105C18.7766 32.1986 18.6902 32.1868 18.6037 32.1812C18.303 32.1608 18.0018 32.1408 17.7006 32.1208L17.6989 32.1207L17.6972 32.1206C17.396 32.1007 17.0948 32.0807 16.7941 32.0603C16.7474 32.0567 16.7022 32.0462 16.6571 32.0356C16.6321 32.0298 16.6072 32.024 16.582 32.0194C16.5783 32.0063 16.5765 31.9933 16.5746 31.9803L16.5747 31.9803C16.6881 31.9412 16.8016 31.9022 16.9559 31.8501C16.7211 31.7582 16.5001 31.6726 16.2778 31.5864L16.2777 31.5864L16.2774 31.5862C16.1353 31.5312 15.9927 31.4759 15.8455 31.4186C15.9325 31.366 16.0131 31.3641 16.0921 31.3621C16.1416 31.3609 16.1904 31.3597 16.2398 31.3461C16.1891 31.2694 16.1157 31.2291 16.0437 31.1895L16.0437 31.1895L16.0437 31.1895C16.0127 31.1724 15.982 31.1555 15.9534 31.1359C15.8903 31.0927 15.8249 31.0538 15.7592 31.0148L15.7592 31.0147L15.7592 31.0147C15.7204 30.9917 15.6815 30.9685 15.6428 30.9444C15.586 30.9092 15.5303 30.8735 15.4687 30.8341L15.4687 30.8341C15.4195 30.8025 15.3665 30.7685 15.3062 30.7305C15.4407 30.7002 15.5621 30.7111 15.6831 30.722C15.7845 30.7311 15.8858 30.7402 15.9943 30.7249L15.7183 30.4629C15.5582 30.3109 15.4033 30.164 15.2485 30.0163C15.2508 30.0097 15.2536 30.0037 15.2564 29.9979L15.2564 29.9979C15.2583 29.9941 15.2601 29.9903 15.2616 29.9866C15.3036 29.9903 15.3452 29.9944 15.39 29.9987C15.4564 30.0052 15.5295 30.0123 15.6205 30.02C15.3025 29.702 15.1146 29.3598 15.0719 28.9432C15.1009 28.9784 15.1288 29.0148 15.1566 29.0511C15.2214 29.1356 15.2858 29.2196 15.3639 29.2873C15.4529 29.365 15.558 29.4266 15.6622 29.4876L15.6622 29.4876C15.6951 29.5069 15.7278 29.5261 15.76 29.5458C15.8381 29.594 15.9175 29.6401 15.9971 29.6862L15.9971 29.6862L15.9971 29.6862C16.0465 29.7148 16.0959 29.7435 16.145 29.7727L16.1692 29.7429L16.0862 29.6218L16.0862 29.6218L16.0861 29.6218C16.0121 29.5135 15.9382 29.4055 15.8623 29.2984C15.7526 29.1441 15.654 28.9878 15.6242 28.7925C15.6121 28.7149 15.5961 28.6379 15.58 28.5608C15.5592 28.4605 15.5383 28.3599 15.5257 28.2569C15.628 28.346 15.701 28.4564 15.7737 28.5663C15.8543 28.6882 15.9345 28.8095 16.0539 28.9004C16.1165 28.9481 16.1783 28.9966 16.2403 29.0453L16.2404 29.0453C16.3938 29.1658 16.5483 29.2871 16.7178 29.397C16.7086 29.3785 16.6998 29.3598 16.691 29.3411L16.691 29.341L16.691 29.341L16.691 29.341C16.6678 29.2918 16.6446 29.2424 16.6137 29.198C16.3124 28.774 16.1747 28.2941 16.1338 27.7827C16.1306 27.7412 16.125 27.6998 16.1194 27.6583C16.1152 27.6272 16.111 27.5961 16.1078 27.5651C16.1066 27.5601 16.1111 27.5535 16.1197 27.541C16.124 27.5346 16.1294 27.5267 16.1357 27.5167C16.1491 27.539 16.1628 27.5602 16.176 27.581L16.176 27.581L16.176 27.581L16.176 27.581C16.2104 27.6347 16.2425 27.6849 16.264 27.7399C16.4444 28.203 16.7476 28.5638 17.153 28.8465C17.2005 28.8799 17.2464 28.9152 17.2926 28.9507C17.3802 29.0182 17.4685 29.0862 17.5696 29.1422C17.5628 29.1293 17.5566 29.1165 17.5503 29.1037L17.5503 29.1037L17.5503 29.1037L17.5503 29.1036L17.5503 29.1036C17.5394 29.0813 17.5287 29.0593 17.5157 29.038L17.4617 28.9506C17.3386 28.7511 17.2159 28.5521 17.0861 28.3573C16.9838 28.203 16.9057 28.0468 16.8926 27.8552C16.8777 27.6561 16.8528 27.4579 16.8279 27.2599L16.8279 27.2599C16.8156 27.1619 16.8033 27.0641 16.7922 26.9662C16.7899 26.9477 16.7905 26.9293 16.7912 26.9042V26.9042V26.9042V26.9042V26.9042C16.7917 26.8888 16.7922 26.8709 16.7922 26.849C16.8539 26.9024 16.8722 26.9557 16.8901 27.0078L16.8964 27.0257C16.9186 27.0869 16.9405 27.1483 16.9625 27.2097C17.0309 27.4005 17.0994 27.5918 17.1753 27.7789C17.2144 27.8719 17.2702 27.9668 17.3427 28.0337C17.4764 28.1572 17.6133 28.2771 17.7502 28.3969L17.7502 28.3969C17.9391 28.5623 18.1279 28.7276 18.308 28.9023C18.5795 29.1664 18.8994 29.3505 19.2305 29.5197C19.5331 29.6743 19.8385 29.8219 20.1442 29.9698L20.298 30.0442C20.3947 30.0907 20.4691 30.1539 20.5323 30.2414C20.7165 30.4968 20.9016 30.7514 21.0868 31.006C21.4571 31.5151 21.8274 32.0243 22.1894 32.5401C22.3698 32.7992 22.6011 33.0006 22.834 33.2033L22.834 33.2033L22.8776 33.2413C22.93 33.2885 22.9861 33.3329 23.0421 33.3771L23.0421 33.3771C23.0655 33.3957 23.0889 33.4142 23.1119 33.4328C23.1166 33.4291 23.1212 33.4249 23.1259 33.4207C23.1305 33.4166 23.1352 33.4124 23.1398 33.4087C23.094 33.346 23.0477 33.2833 22.9989 33.2172L22.9987 33.2169L22.9985 33.2167L22.9982 33.2163L22.9975 33.2153C22.9555 33.1584 22.9116 33.099 22.8646 33.0348C23.0008 32.9988 23.1294 32.9654 23.2543 32.9329L23.2545 32.9328C23.3683 32.9032 23.4791 32.8744 23.5899 32.8451V32.8042C23.4281 32.7931 23.2682 32.7838 23.1063 32.7745V32.7317C23.2543 32.6842 23.4075 32.6584 23.5617 32.6324L23.5617 32.6323L23.5617 32.6323C23.6672 32.6145 23.7731 32.5967 23.8782 32.5717C23.7208 32.532 23.5602 32.5183 23.3992 32.5046C23.2139 32.4889 23.0281 32.4731 22.846 32.4174C22.86 32.4127 22.8738 32.4075 22.8876 32.4023C22.9177 32.3909 22.9474 32.3797 22.978 32.3746C23.1051 32.353 23.2325 32.3327 23.3598 32.3125L23.3599 32.3125L23.3599 32.3125L23.36 32.3125C23.594 32.2753 23.828 32.2381 24.0604 32.1923C24.2483 32.1551 24.4231 32.1775 24.6017 32.2239C24.6528 32.2374 24.7039 32.2479 24.7614 32.2598L24.7618 32.2599C24.7837 32.2644 24.8064 32.2691 24.8304 32.2742C24.7095 32.1551 24.3915 32.0194 24.2371 32.0194H23.5062C23.5056 32.0148 23.5047 32.0104 23.5038 32.0061C23.5022 31.9982 23.5006 31.9906 23.5006 31.9822C23.5409 31.9735 23.5814 31.9658 23.6219 31.9582C23.7029 31.9429 23.7839 31.9276 23.8633 31.9041C24.2297 31.7962 24.5849 31.8185 24.9308 31.9803C24.9569 31.9915 24.9848 31.9989 25.0257 31.9822L24.9295 31.92L24.9295 31.92L24.9295 31.9199C24.7946 31.8325 24.66 31.7453 24.5217 31.6641C24.4723 31.6349 24.4068 31.6308 24.348 31.6271L24.345 31.6269C24.288 31.6229 24.2307 31.6198 24.1734 31.6167C24.0736 31.6113 23.9737 31.606 23.8745 31.5953C24.3431 31.3982 24.7802 31.4782 25.1949 31.7683C25.1977 31.7627 25.201 31.7571 25.2042 31.7516C25.2075 31.746 25.2108 31.7404 25.2135 31.7348C25.2071 31.7264 25.2011 31.7178 25.1952 31.7093C25.184 31.6933 25.173 31.6775 25.1596 31.6641C25.1062 31.6138 25.0519 31.5642 24.9975 31.5145L24.9974 31.5145L24.9974 31.5144C24.9211 31.4447 24.8447 31.375 24.7709 31.3033C24.7095 31.2438 24.6407 31.2215 24.557 31.2215C24.4779 31.2227 24.3995 31.219 24.3209 31.2153H24.3209H24.3209C24.2813 31.2135 24.2417 31.2116 24.2018 31.2103C24.1999 31.1992 24.1981 31.1862 24.1981 31.175C24.2124 31.1702 24.2262 31.1649 24.24 31.1597L24.24 31.1597C24.2636 31.1507 24.2868 31.1418 24.3115 31.1359C24.3445 31.1288 24.3783 31.1238 24.4122 31.1187C24.4758 31.1091 24.5397 31.0995 24.5979 31.0764C24.7616 31.0132 24.8844 31.0504 25.009 31.1694C25.1484 31.3033 25.3065 31.4186 25.4795 31.5284C25.4733 31.5178 25.4673 31.5071 25.4613 31.4963C25.4493 31.4748 25.4373 31.4534 25.4237 31.4335C25.3866 31.3794 25.3484 31.3257 25.3101 31.2719C25.2353 31.1668 25.1603 31.0613 25.0927 30.9518C25.0294 30.8495 24.9476 30.7975 24.8304 30.7807C24.7805 30.7739 24.7305 30.7629 24.6713 30.7499L24.6713 30.7499C24.6334 30.7416 24.5918 30.7325 24.544 30.7231C24.717 30.6524 24.8705 30.6534 25.0173 30.6545C25.0521 30.6547 25.0864 30.655 25.1206 30.6542C25.1615 30.6542 25.2098 30.7119 25.2433 30.7528C25.3471 30.8761 25.4482 31.0012 25.5497 31.1268C25.5937 31.1812 25.6378 31.2358 25.6822 31.2903C25.7045 31.3182 25.7287 31.3442 25.7808 31.3573L25.7808 31.3572L25.7807 31.3571L25.7807 31.3571C25.751 31.2883 25.7212 31.2196 25.6897 31.1527C25.6574 31.085 25.6245 31.0172 25.5916 30.9494L25.5916 30.9494L25.5916 30.9494C25.5313 30.8254 25.4709 30.7012 25.4144 30.5761C25.3716 30.4794 25.3103 30.4199 25.2042 30.3939C25.1186 30.3718 25.0356 30.3416 24.9528 30.3114L24.9528 30.3114C24.917 30.2984 24.8812 30.2853 24.8453 30.273C24.8453 30.2676 24.8462 30.2618 24.847 30.2558C24.848 30.2493 24.849 30.2425 24.849 30.2358C24.8589 30.2352 24.8689 30.2341 24.8788 30.2331C24.8986 30.231 24.9184 30.229 24.9383 30.2302C24.991 30.2345 25.0437 30.2393 25.0964 30.244L25.0964 30.2441L25.0965 30.2441C25.2018 30.2536 25.3072 30.2631 25.4125 30.2693C25.4944 30.273 25.5409 30.3083 25.5818 30.3808C25.68 30.5584 25.783 30.733 25.886 30.9076L25.8862 30.9078L25.8863 30.908C25.9256 30.9747 25.9649 31.0413 26.004 31.108C26.03 31.1545 26.0598 31.201 26.1118 31.2364C26.1011 31.2021 26.0906 31.1676 26.08 31.133L26.08 31.1329L26.08 31.1328C26.0614 31.0718 26.0427 31.0105 26.0226 30.95C25.9951 30.8668 25.9666 30.7839 25.9381 30.7009L25.9381 30.7009L25.938 30.7006L25.938 30.7006L25.938 30.7006C25.8876 30.5536 25.8371 30.4066 25.792 30.2581C25.7566 30.1409 25.6915 30.0758 25.5744 30.0386C25.42 29.9903 25.2675 29.9252 25.1187 29.8434C25.1305 29.8434 25.1425 29.8427 25.1544 29.8421C25.1784 29.8409 25.2024 29.8396 25.2247 29.8434C25.2903 29.8549 25.3559 29.8673 25.4215 29.8798C25.5363 29.9017 25.6511 29.9235 25.7659 29.9401C25.8756 29.9568 25.9352 30.0089 25.9761 30.1112C26.1118 30.4497 26.2569 30.7844 26.4169 31.1192C26.4156 31.1069 26.415 31.0945 26.4144 31.0823C26.4131 31.0575 26.4119 31.0331 26.4057 31.0095C26.3794 30.9024 26.3528 30.7953 26.3263 30.6881L26.3262 30.6878L26.3262 30.6878C26.2666 30.4471 26.2069 30.2061 26.149 29.9642C26.123 29.8545 26.0598 29.7857 25.9612 29.7336C25.841 29.6679 25.7224 29.5989 25.6038 29.5299L25.6038 29.5299L25.6037 29.5299C25.5444 29.4954 25.4851 29.4609 25.4256 29.4268C25.4271 29.4236 25.4286 29.4203 25.4299 29.417C25.431 29.4144 25.432 29.4117 25.433 29.4091C25.4353 29.403 25.4377 29.397 25.4404 29.3914C25.4605 29.3981 25.4804 29.4043 25.5 29.4105C25.5351 29.4214 25.5696 29.4323 25.6041 29.4454C25.6611 29.4671 25.7178 29.4902 25.7744 29.5133L25.7744 29.5133C25.8876 29.5596 26.0009 29.6059 26.1174 29.6406C26.2458 29.6797 26.3053 29.7559 26.3425 29.875C26.4263 30.1422 26.5168 30.4068 26.6072 30.671L26.6549 30.8105C26.6735 30.8681 26.6958 30.9221 26.7442 30.9723L26.7441 30.972L26.7441 30.9719L26.7441 30.9719C26.7162 30.8139 26.6884 30.656 26.6586 30.498C26.6409 30.4045 26.6224 30.3113 26.6039 30.2181C26.5738 30.0667 26.5438 29.9154 26.5173 29.7634C26.495 29.6295 26.4373 29.529 26.3201 29.4528C26.1323 29.33 25.9556 29.1906 25.7845 29.0325C25.7938 29.0349 25.8035 29.0368 25.8132 29.0387C25.8327 29.0424 25.8521 29.0461 25.8682 29.0548C25.95 29.0996 26.0312 29.1449 26.1125 29.1902L26.1125 29.1902L26.1125 29.1902C26.2604 29.2726 26.4081 29.355 26.5582 29.4342C26.6307 29.4732 26.6568 29.5328 26.6772 29.6053C26.7646 29.9215 26.8539 30.2376 26.9432 30.5538C26.9618 30.6226 26.986 30.6914 27.0287 30.7565C27.0287 30.7441 27.0294 30.7317 27.03 30.7193C27.0312 30.6945 27.0325 30.6697 27.0287 30.6449C27.0069 30.5153 26.9843 30.3856 26.9617 30.2558L26.9617 30.2558L26.9617 30.2558C26.9227 30.0319 26.8837 29.8078 26.8483 29.583C26.8242 29.4305 26.7665 29.3133 26.6438 29.2129C26.4336 29.0399 26.2383 28.8483 26.0523 28.6382C26.061 28.6425 26.0699 28.6464 26.0788 28.6504C26.0966 28.6582 26.1143 28.6661 26.1304 28.6772C26.2061 28.7287 26.2811 28.7812 26.3561 28.8337C26.5061 28.9386 26.6562 29.0436 26.8111 29.1403C26.9488 29.2259 27.0157 29.3356 27.0436 29.49C27.0871 29.7183 27.1356 29.9446 27.1839 30.1704L27.1839 30.1705C27.2017 30.2537 27.2195 30.3368 27.237 30.4199C27.2463 30.4608 27.2594 30.4999 27.2928 30.5389C27.2928 30.5221 27.2933 30.5054 27.2937 30.4889V30.4889V30.4889C27.2945 30.4562 27.2953 30.4241 27.2928 30.392L27.2721 30.172C27.2444 29.8753 27.2167 29.5788 27.1794 29.2835C27.1701 29.2073 27.1199 29.1255 27.0678 29.0641C26.9439 28.9189 26.8144 28.7776 26.6845 28.636C26.6331 28.5798 26.5815 28.5236 26.5303 28.4671C26.5117 28.4448 26.4987 28.4206 26.5005 28.3797C26.5098 28.3859 26.5194 28.3919 26.5289 28.3979C26.5479 28.4098 26.5669 28.4218 26.5842 28.4355C26.6657 28.5029 26.747 28.5709 26.8282 28.6389L26.8284 28.639C26.9622 28.751 27.0961 28.863 27.2315 28.973C27.2966 29.0269 27.3319 29.0883 27.3449 29.172C27.3881 29.4312 27.4347 29.6915 27.4811 29.9513L27.4812 29.9515L27.5216 30.1781C27.5346 30.2432 27.5495 30.3065 27.5848 30.3678C27.5755 30.2265 27.5658 30.0851 27.556 29.9438C27.5462 29.8024 27.5365 29.6611 27.5272 29.5197C27.5258 29.497 27.5226 29.4742 27.5195 29.4515C27.5141 29.4131 27.5088 29.3749 27.5123 29.3375C27.5365 29.0901 27.4435 28.8893 27.291 28.7033C27.1329 28.5117 26.986 28.309 26.8521 28.0914C26.8624 28.1004 26.8733 28.1091 26.8842 28.1179C26.9027 28.1327 26.9212 28.1476 26.9376 28.1639C27.0218 28.2496 27.105 28.3355 27.1883 28.4214L27.1884 28.4215C27.3129 28.5501 27.4373 28.6785 27.5644 28.8056C27.6332 28.8744 27.6704 28.9451 27.6815 29.0436C27.709 29.2763 27.7429 29.508 27.7774 29.7439C27.792 29.8438 27.8067 29.9443 27.821 30.0461V29.3207C27.821 29.2983 27.8178 29.2756 27.8146 29.2528C27.8101 29.2207 27.8055 29.1886 27.8099 29.1571C27.8396 28.9246 27.7578 28.7312 27.6257 28.5452C27.4881 28.3518 27.3654 28.149 27.2556 27.9314L27.2662 27.9391C27.2786 27.9479 27.2916 27.9571 27.3003 27.9686C27.3512 28.0319 27.4022 28.0949 27.4532 28.1579L27.4532 28.1579C27.5941 28.3318 27.7347 28.5053 27.8712 28.6828C27.9159 28.7442 27.9456 28.8223 27.9605 28.8967C27.9813 29.0038 27.9963 29.1117 28.0113 29.2198L28.0113 29.2198L28.0114 29.2198C28.0206 29.2863 28.0299 29.3528 28.0405 29.4193C28.0461 29.4528 28.061 29.4844 28.0888 29.5142C28.0854 29.4415 28.0827 29.3688 28.08 29.2961C28.0738 29.1326 28.0677 28.9691 28.0535 28.8056C28.0461 28.7107 28.0089 28.6159 27.9717 28.5266C27.901 28.358 27.8271 28.1911 27.7531 28.0242L27.7531 28.024L27.753 28.024C27.716 27.9405 27.6791 27.857 27.6425 27.7734C27.6295 27.7417 27.6183 27.712 27.6332 27.6673C27.6685 27.7269 27.7057 27.7882 27.7429 27.8496C27.7726 27.8991 27.8019 27.949 27.8311 27.9988C27.9006 28.1174 27.9701 28.236 28.0461 28.3499C28.1577 28.5154 28.2376 28.6865 28.2469 28.8893C28.2488 28.9358 28.26 28.9841 28.2841 29.0306C28.3213 28.8335 28.3399 28.6326 28.299 28.4336C28.2676 28.2767 28.2312 28.1206 28.1948 27.9648L28.1947 27.9648L28.1947 27.9647L28.1947 27.9645L28.1946 27.9643C28.1771 27.8894 28.1597 27.8147 28.1428 27.7399C28.1316 27.6952 28.1242 27.6488 28.1446 27.593C28.2231 27.777 28.3027 27.96 28.3826 28.1436L28.3826 28.1437L28.4552 28.3109C28.4589 28.3102 28.4627 28.3094 28.4664 28.3086L28.4664 28.3086C28.4738 28.3069 28.4813 28.3053 28.4887 28.3053C28.5313 28.1483 28.5734 27.9907 28.6155 27.8329C28.6487 27.7084 28.682 27.5837 28.7156 27.459C28.7227 27.4611 28.7303 27.4625 28.7382 27.4641L28.7382 27.4641C28.7448 27.4653 28.7516 27.4667 28.7584 27.4683C28.7468 27.5999 28.7356 27.7318 28.7244 27.8636C28.7123 28.0057 28.7003 28.1476 28.6877 28.2885L28.6926 28.2913C28.7022 28.2969 28.7071 28.2997 28.7119 28.2997C28.7175 28.3016 28.7268 28.3034 28.7286 28.2997C28.9295 28.017 29.1304 27.7362 29.3461 27.4609C29.3048 27.5883 29.2482 27.7085 29.1911 27.8298C29.1273 27.9654 29.0629 28.1021 29.0188 28.2513L29.9784 27.5725C29.9831 27.5762 29.9882 27.5799 29.9933 27.5837C29.9984 27.5874 30.0035 27.5911 30.0082 27.5948C29.9998 27.6094 29.9918 27.6242 29.9837 27.6392L29.9837 27.6392C29.9649 27.6739 29.946 27.7087 29.9226 27.7399C29.7412 27.9845 29.5591 28.2286 29.3771 28.4727L29.377 28.4728L29.3769 28.4729L29.3768 28.473C29.1037 28.8393 28.8305 29.2055 28.5594 29.5737C28.485 29.6741 28.4218 29.7894 28.3771 29.9066C28.18 30.4236 27.9847 30.9425 27.8006 31.4651C27.7355 31.6474 27.6276 31.759 27.4453 31.8241C27.2735 31.8857 27.1044 31.9545 26.9354 32.0233C26.7934 32.0811 26.6515 32.1388 26.508 32.1923C26.3332 32.2574 26.1751 32.343 26.0467 32.4787C25.9668 32.5643 25.8738 32.6034 25.7566 32.6145C25.4646 32.6424 25.1745 32.6796 24.8825 32.7391C24.922 32.7397 24.9618 32.7418 25.0016 32.7439L25.0017 32.7439C25.0817 32.748 25.162 32.7521 25.2414 32.7447C25.6599 32.7075 26.0542 32.7875 26.4299 32.9679C26.5006 33.002 26.5739 33.0309 26.6475 33.06C26.6822 33.0737 26.717 33.0875 26.7516 33.1018C26.9283 33.1762 27.0418 33.3064 27.0715 33.4942C27.0864 33.5928 27.131 33.6616 27.1961 33.7304C27.2687 33.8048 27.3412 33.8811 27.397 33.9666C27.5644 34.227 27.4639 34.465 27.1589 34.5469C27.1069 34.1805 27.0157 34.0856 26.8316 34.227C26.8574 34.2754 26.8831 34.3244 26.9095 34.3747L26.9748 34.4985C26.8558 34.5878 26.7405 34.5469 26.6493 34.4855C26.5508 34.4186 26.4503 34.4037 26.3387 34.4074C26.294 34.4087 26.2491 34.4087 26.2042 34.4086C26.0624 34.4084 25.9201 34.4083 25.7789 34.452C25.8774 34.4766 25.9772 34.5025 26.094 34.5329L26.0943 34.5329L26.1695 34.5525C25.9239 34.8564 25.6746 35.1498 25.427 35.4412C25.1215 35.8007 24.8188 36.157 24.5291 36.5257C24.6062 36.4592 24.6829 36.3922 24.7622 36.3229C24.8514 36.245 24.9439 36.1641 25.0443 36.0775C25.0666 36.2375 25.0815 36.3732 25.0443 36.496C25.0073 36.6158 25.0243 36.7316 25.0413 36.847C25.0525 36.9232 25.0636 36.9993 25.0592 37.0763C25.0574 37.1057 25.0959 37.1415 25.1253 37.1688L25.1317 37.1748L25.1841 37.222L25.1841 37.2221C25.2943 37.3214 25.4032 37.4197 25.5204 37.5096C25.6469 37.6063 25.7696 37.7049 25.8329 37.863C25.875 37.7997 25.8539 37.69 25.7696 37.5338C25.8639 37.509 25.9903 37.5933 26.149 37.7867C26.1988 37.6924 26.1558 37.6277 26.1107 37.5598C26.09 37.5287 26.0689 37.4969 26.056 37.4612C26.0717 37.4568 26.0871 37.4514 26.1023 37.4461L26.1023 37.4461C26.125 37.4382 26.1472 37.4304 26.1695 37.4259C26.3189 37.3955 26.4683 37.3654 26.6177 37.3352C26.9165 37.2748 27.2153 37.2145 27.5142 37.1525C27.5979 37.1358 27.6704 37.1451 27.7429 37.1878C27.8561 37.2553 27.9697 37.3226 28.0834 37.3898L28.0835 37.3899C28.28 37.5061 28.4766 37.6224 28.671 37.7402C28.7379 37.7793 28.803 37.8314 28.8551 37.889C29.0169 38.0731 28.9871 38.3112 28.777 38.4358C28.6803 38.4935 28.5612 38.5307 28.4497 38.5381L28.4043 38.5408C27.7909 38.577 27.1793 38.6132 26.5731 38.7166C26.534 38.7241 26.4912 38.7222 26.4317 38.6943L26.7851 38.3521C26.1994 38.761 25.5481 39.0305 24.8982 39.2994L24.8982 39.2994L24.8981 39.2994C24.7824 39.3473 24.6667 39.3952 24.5514 39.4438ZM88.2384 37.865C88.3042 37.9437 88.3684 38.0204 88.5168 37.9615L88.5131 37.9596V37.7792V33.1389C88.5131 32.9954 88.5127 32.8519 88.5123 32.7083L88.5122 32.7005C88.5111 32.311 88.51 31.9215 88.5168 31.532C88.5224 31.253 88.5465 30.9741 88.6525 30.7081C88.792 30.3603 89.0357 30.1278 89.4002 30.0441C89.5955 29.9995 89.8001 29.979 89.9991 29.9865C90.6277 30.0125 91.0387 30.3696 91.1522 30.9834C91.1912 31.1861 91.2024 31.3944 91.2024 31.6008C91.2036 32.6758 91.2032 33.7508 91.2028 34.8259V34.8407C91.2026 35.3806 91.2024 35.9206 91.2024 36.4606C91.2024 36.5647 91.2005 36.6689 91.1912 36.7712C91.167 37.0204 91.0536 37.2231 90.849 37.37C90.6984 37.4779 90.5328 37.5523 90.3487 37.5839C90.262 37.5988 90.1752 37.6147 90.087 37.6309L90.0862 37.631L90.0859 37.6311L89.9879 37.649V37.822H90.2129C90.5566 37.821 90.9 37.8195 91.2435 37.8181C92.1584 37.8143 93.0729 37.8105 93.9884 37.8145C94.5315 37.8164 95.0615 37.7625 95.5823 37.6155C96.4806 37.3626 97.2338 36.8865 97.7843 36.1277C98.4278 35.2405 98.6473 34.2418 98.4855 33.1668C98.2846 31.8259 97.5537 30.8625 96.3355 30.271C95.6418 29.9344 94.8997 29.7968 94.1335 29.7968C91.7566 29.7949 89.3816 29.7949 87.0047 29.7949H86.8262C86.8225 29.8237 86.8192 29.8507 86.816 29.8777C86.8127 29.9047 86.8094 29.9316 86.8057 29.9604C86.8316 29.9649 86.8527 29.9689 86.8716 29.9725C86.8922 29.9764 86.9101 29.9799 86.9285 29.9828C86.9843 29.9933 87.0403 30.0028 87.0963 30.0123C87.2083 30.0313 87.3203 30.0503 87.4306 30.0776C87.7989 30.1669 88.0351 30.3975 88.1597 30.7546C88.2601 31.0466 88.288 31.3479 88.2917 31.6529C88.296 32.0498 88.2978 32.4462 88.2996 32.8423V32.8428V32.8434C88.301 33.141 88.3024 33.4385 88.3048 33.7359C88.3075 33.9952 88.3117 34.254 88.3159 34.5125L88.3159 34.5147L88.316 34.5167L88.316 34.5188C88.3201 34.7756 88.3243 35.0323 88.3271 35.2889C88.3274 35.3006 88.3283 35.3125 88.3294 35.3245L88.3304 35.3352C88.3359 35.3947 88.3418 35.4577 88.2917 35.5195L88.2595 35.4848L88.2593 35.4846C88.2285 35.4514 88.201 35.4218 88.1746 35.3912L87.458 34.5485C86.5588 33.4913 85.6604 32.4349 84.7655 31.3739L84.6689 31.2596C84.3002 30.8235 83.9298 30.3855 83.6459 29.8861C83.5975 29.8005 83.5306 29.7949 83.4487 29.7949H80.8654C80.8389 29.7949 80.8123 29.7988 80.7868 29.8026C80.773 29.8046 80.7594 29.8066 80.7464 29.8079L80.7459 29.8112C80.7222 29.9568 80.7213 29.9625 80.8468 29.9883C81.2727 30.0739 81.6335 30.2803 81.9423 30.5798C82.0224 30.6569 82.1009 30.7362 82.1795 30.8156C82.2469 30.8836 82.3144 30.9517 82.383 31.0187C82.4574 31.0912 82.4798 31.1768 82.4798 31.2809C82.4798 31.7048 82.4802 32.1289 82.4806 32.5531V32.5533V32.559C82.4814 33.4058 82.4822 34.2529 82.4798 35.0992C82.4798 35.5121 82.4798 35.9268 82.3961 36.336C82.3421 36.6001 82.2677 36.8567 82.0948 37.0725C81.9144 37.2994 81.6875 37.4556 81.4103 37.5393C81.3241 37.5652 81.2367 37.5866 81.1499 37.6079L81.0737 37.6267C81.0142 37.6416 80.9751 37.6732 80.9789 37.7401C80.9826 37.8127 81.0309 37.8276 81.0923 37.8257H81.202L83.9862 37.8201C84.0337 37.8187 84.0822 37.8152 84.127 37.812L84.1271 37.812L84.1703 37.809C84.2113 37.6918 84.1796 37.6397 84.0773 37.6193C84.0211 37.6087 83.9657 37.593 83.91 37.5773C83.8773 37.568 83.8445 37.5587 83.8114 37.5504C83.3185 37.4221 82.9968 37.1134 82.8703 36.6261C82.7996 36.3527 82.742 36.0663 82.7308 35.7836C82.705 35.1084 82.6974 34.4333 82.6898 33.7581V33.7573L82.6862 33.4458C82.6788 32.8085 82.6788 32.1694 82.6788 31.5303V31.5283C82.6788 31.4987 82.6817 31.47 82.6861 31.4268L82.6862 31.4262L82.6862 31.426L82.6918 31.3702C82.7222 31.4036 82.7496 31.4327 82.7748 31.4595L82.775 31.4598C82.8144 31.5017 82.8486 31.5381 82.8815 31.5766L82.8834 31.579C84.1642 33.0809 85.445 34.5829 86.7258 36.0867C86.9768 36.3815 87.2274 36.6763 87.4781 36.9711C87.7287 37.2659 87.9793 37.5607 88.2304 37.8555L88.2384 37.865ZM92.653 30.1799V30.0274C92.6649 30.017 92.6729 30.0096 92.6785 30.0045C92.687 29.9966 92.6899 29.9939 92.6921 29.9939C92.8102 29.9924 92.9285 29.9891 93.0467 29.9858C93.509 29.973 93.9711 29.9601 94.4273 30.0534C95.4651 30.2673 96.1737 30.8811 96.5792 31.85C96.7912 32.3541 96.8935 32.8841 96.9158 33.4309C96.94 34.0409 96.9195 34.6472 96.7689 35.2442C96.6926 35.54 96.594 35.8264 96.4527 36.0979C95.971 37.026 95.1936 37.5114 94.1651 37.6137C93.9047 37.6397 93.6406 37.6341 93.3784 37.623C93.0046 37.6062 92.7646 37.3942 92.694 37.0278C92.6661 36.879 92.6549 36.7247 92.6549 36.574C92.6531 34.4427 92.653 32.3113 92.653 30.1799ZM48.2922 37.956C48.1397 38.0211 48.0709 37.9467 48.0003 37.863C47.5621 37.3464 47.122 36.8307 46.6821 36.3154L46.2204 35.7744C45.8186 35.3026 45.4169 34.8313 45.0151 34.3599L45.0036 34.3465C44.5983 33.871 44.193 33.3955 43.7877 32.9195C43.4326 32.5027 43.076 32.0859 42.7204 31.6704L42.7191 31.6688L42.564 31.4875C42.5478 31.4679 42.5317 31.4476 42.5095 31.4196L42.4598 31.3573C42.4555 31.3927 42.4511 31.4211 42.4474 31.4452C42.4417 31.4831 42.4375 31.5104 42.4375 31.5377C42.4399 31.7546 42.4433 31.9712 42.4467 32.1877C42.4513 32.4762 42.4558 32.7645 42.4579 33.0534C42.46 33.3502 42.461 33.647 42.4621 33.9436V33.9439L42.4621 33.9448C42.4639 34.4639 42.4657 34.9828 42.4728 35.501C42.4784 35.873 42.5137 36.2431 42.6179 36.602C42.763 37.1079 43.081 37.4334 43.598 37.558L43.7311 37.5915L43.864 37.6249C43.9328 37.6417 43.9737 37.677 43.9607 37.7533C43.9487 37.8233 43.8943 37.8227 43.8452 37.8222L43.8324 37.8221C43.7373 37.8221 43.6422 37.8202 43.5474 37.8183H43.5473L43.5472 37.8183C43.4529 37.8165 43.3588 37.8146 43.2651 37.8146C42.7326 37.8146 42.2 37.8163 41.6669 37.8179C41.3994 37.8188 41.1319 37.8196 40.8641 37.8202C40.8455 37.8202 40.827 37.818 40.8053 37.8155C40.7922 37.814 40.7779 37.8123 40.7618 37.8109C40.7597 37.7932 40.7579 37.776 40.7561 37.7586L40.7561 37.7585C40.753 37.7283 40.7497 37.6975 40.745 37.6621C40.77 37.6552 40.793 37.6479 40.8149 37.641C40.8403 37.6329 40.8643 37.6253 40.8882 37.6193C41.1821 37.5505 41.4592 37.4445 41.6954 37.2474C41.8833 37.0893 42.0004 36.8847 42.0748 36.656C42.1883 36.31 42.2292 35.9548 42.2292 35.594C42.2292 35.1192 42.2286 34.6445 42.2279 34.1697V34.1695C42.2267 33.2195 42.2255 32.2693 42.2292 31.3182C42.2292 31.1732 42.1957 31.0597 42.0878 30.9611C42.0152 30.8935 41.9441 30.8242 41.8732 30.7549C41.7608 30.6452 41.6485 30.5356 41.5299 30.4329C41.2714 30.2098 40.9719 30.0628 40.6334 29.9977C40.6099 29.9928 40.5863 29.9862 40.5628 29.9796C40.551 29.9762 40.5392 29.9729 40.5274 29.9698C40.524 29.9698 40.5213 29.967 40.5167 29.9623C40.5138 29.9593 40.5101 29.9555 40.5051 29.9512L40.5029 29.9427C40.499 29.9284 40.494 29.9098 40.494 29.8899C40.494 29.8705 40.4975 29.8523 40.5018 29.8305V29.8305L40.5051 29.8136C40.5165 29.8116 40.5277 29.8089 40.5386 29.8062C40.558 29.8014 40.5765 29.7969 40.5944 29.7969H41.383H43.1963C43.2856 29.7969 43.3581 29.8006 43.412 29.8936C43.6988 30.3954 44.0719 30.8368 44.4432 31.276L44.4432 31.276L44.4852 31.3257C45.2613 32.2444 46.0407 33.1614 46.8201 34.0784C47.2099 34.5371 47.5997 34.9957 47.9891 35.4545C47.9981 35.4657 48.0085 35.475 48.0235 35.4883L48.0235 35.4883C48.0333 35.497 48.0451 35.5075 48.0598 35.5215C48.0623 35.4991 48.0651 35.4794 48.0676 35.4613C48.0725 35.4268 48.0765 35.3983 48.0765 35.3689V35.3662C48.0746 34.4055 48.0728 33.4431 48.0672 32.4825V32.4819C48.0653 32.1175 48.0635 31.7514 48.0375 31.387C48.0226 31.1769 47.9817 30.9649 47.924 30.7603C47.8217 30.405 47.5706 30.1819 47.2154 30.087C47.078 30.0498 46.9371 30.0249 46.7901 29.9991L46.7901 29.9991C46.7242 29.9875 46.6571 29.9756 46.5886 29.9624C46.5868 29.9215 46.5831 29.8694 46.5793 29.8211C46.591 29.8174 46.6006 29.8135 46.609 29.8101C46.6222 29.8047 46.6324 29.8006 46.6426 29.8006C46.7253 29.8006 46.8076 29.8001 46.8899 29.7997C46.9722 29.7992 47.0545 29.7987 47.1373 29.7987C47.8887 29.7987 48.64 29.7985 49.3914 29.7983C50.8942 29.7979 52.3969 29.7975 53.8997 29.7987C54.6399 29.7987 55.3615 29.9271 56.0347 30.2432C57.3645 30.8663 58.1196 31.9134 58.2721 33.3733C58.3874 34.493 58.0917 35.4991 57.3627 36.364C56.801 37.0298 56.0719 37.4315 55.235 37.6491C54.7422 37.7774 54.24 37.8221 53.7304 37.8183C53.0385 37.8121 52.3457 37.8142 51.6533 37.8163H51.6532C51.3071 37.8173 50.961 37.8183 50.6152 37.8183C50.4525 37.8183 50.2889 37.82 50.1257 37.8217C50.0445 37.8225 49.9633 37.8233 49.8824 37.8239L49.8748 37.8239C49.8142 37.8241 49.7556 37.8242 49.7466 37.7421C49.7378 37.6538 49.7944 37.641 49.8622 37.6256L49.8731 37.6231C49.9131 37.6142 49.9534 37.6058 49.9936 37.5974C50.1389 37.5673 50.2845 37.537 50.4199 37.4817C50.7305 37.3552 50.9165 37.1153 50.9555 36.775C50.9686 36.6541 50.9779 36.5332 50.9779 36.4105C50.9779 35.8803 50.9783 35.3504 50.9787 34.8206V34.8204C50.9795 33.7609 50.9803 32.7018 50.9779 31.6418C50.9779 31.4187 50.9611 31.1899 50.9165 30.9704C50.7956 30.3716 50.4497 30.0628 49.8452 29.9922C49.6016 29.9643 49.3561 29.9791 49.1199 30.0535C48.6679 30.1949 48.4392 30.5278 48.3462 30.9667C48.309 31.1378 48.2978 31.3164 48.2978 31.493C48.295 33.0553 48.2954 34.6176 48.2957 36.1798L48.296 37.7421V37.9578L48.2922 37.956ZM52.4043 29.9791V30.2581V36.3044C52.4043 36.5109 52.4192 36.7192 52.4415 36.9238C52.4899 37.3645 52.7428 37.6138 53.1855 37.6231C53.5202 37.6305 53.8587 37.6249 54.1879 37.5747C54.8909 37.4668 55.4749 37.1376 55.9176 36.5704C56.2077 36.1984 56.3956 35.7781 56.5127 35.3262C56.6857 34.6548 56.7303 33.9703 56.6727 33.2785C56.6262 32.7205 56.5146 32.1812 56.2691 31.6772C55.8655 30.8458 55.2239 30.3009 54.3144 30.0777C53.8794 29.9709 53.4407 29.9754 52.9894 29.98C52.7963 29.982 52.6009 29.984 52.4025 29.9773L52.4043 29.9791ZM17.6752 28.6722L17.6752 28.6722C17.8062 28.8429 17.9374 29.0137 18.0588 29.1903C18.2038 29.4024 18.3805 29.5586 18.6223 29.6572C18.8376 29.746 19.0471 29.8484 19.2571 29.9511L19.2571 29.9512C19.3373 29.9904 19.4176 30.0296 19.4983 30.0682C19.5243 30.0812 19.5485 30.0961 19.5597 30.1389C19.5263 30.1271 19.493 30.1158 19.4598 30.1045L19.4597 30.1045L19.4597 30.1045L19.4596 30.1045L19.4596 30.1045L19.4596 30.1045L19.4595 30.1044L19.4595 30.1044L19.4595 30.1044L19.4594 30.1044C19.4038 30.0856 19.3484 30.0668 19.2937 30.0459C19.1617 29.9957 19.0301 29.9446 18.8983 29.8934L18.8983 29.8934C18.7126 29.8213 18.5267 29.7491 18.3396 29.6795C18.2317 29.6386 18.1555 29.5772 18.0941 29.4768C17.9615 29.2545 17.8246 29.0348 17.6875 28.8147C17.6227 28.7107 17.5578 28.6067 17.4934 28.5022L17.5269 28.478C17.5751 28.5418 17.6239 28.6054 17.6727 28.6689L17.6727 28.669L17.6728 28.669L17.6728 28.6691L17.6729 28.6692L17.6729 28.6692L17.673 28.6693L17.673 28.6694L17.6731 28.6694L17.6731 28.6695L17.6732 28.6695L17.6732 28.6696L17.6733 28.6697L17.6733 28.6697L17.6734 28.6698L17.6734 28.6699L17.6735 28.6699L17.6735 28.67L17.6736 28.6701L17.6736 28.6701L17.6737 28.6702L17.6737 28.6703L17.6737 28.6703L17.6738 28.6704L17.6738 28.6704L17.6739 28.6705L17.6739 28.6706L17.674 28.6706L17.674 28.6707L17.6741 28.6708L17.6741 28.6708L17.6742 28.6709L17.6742 28.671L17.6743 28.671L17.6743 28.6711L17.6744 28.6712L17.6744 28.6712L17.6745 28.6713L17.6745 28.6713L17.6748 28.6717L17.6749 28.6718L17.6749 28.6718L17.6749 28.6718L17.6749 28.6719L17.675 28.6719L17.675 28.672L17.675 28.672L17.675 28.672L17.6751 28.6721L17.6751 28.6721L17.6751 28.6721L17.6752 28.6722L17.6752 28.6722ZM16.2231 29.3298L16.2212 29.3281H16.2231L16.2231 29.3298ZM16.2214 29.3657C16.2221 29.357 16.223 29.3454 16.2231 29.3298C16.2839 29.386 16.3439 29.4401 16.403 29.4934C16.533 29.6106 16.6582 29.7235 16.7755 29.8433C16.9447 30.0163 17.1251 30.1502 17.3669 30.2171C17.6456 30.2935 17.9205 30.3844 18.195 30.4751C18.3015 30.5103 18.4079 30.5455 18.5144 30.5798C18.5702 30.5984 18.6241 30.6226 18.6706 30.6746C18.6195 30.6616 18.5679 30.6491 18.5163 30.6365C18.4647 30.624 18.413 30.6114 18.3619 30.5984C18.2503 30.57 18.1385 30.5417 18.0267 30.5134C17.7138 30.4343 17.4008 30.3551 17.0898 30.2729C17.0172 30.2543 16.9373 30.2153 16.8889 30.1613C16.7007 29.9515 16.5177 29.7354 16.3355 29.5202L16.2231 29.3876C16.2199 29.3844 16.2204 29.378 16.2214 29.3657ZM79.9671 29.8172V32.1216C79.8276 32.1681 79.8202 32.1681 79.7588 32.0602C79.6951 31.9479 79.6329 31.8348 79.5707 31.722L79.5701 31.7209L79.5697 31.7202L79.5693 31.7194C79.5321 31.6518 79.4949 31.5844 79.4575 31.5171C79.4205 31.4504 79.3839 31.3842 79.3473 31.3179L79.347 31.3174L79.3469 31.3172L79.3467 31.3169L79.3464 31.3164L79.3457 31.3151L79.3441 31.3122C79.3083 31.2473 79.2725 31.1825 79.2362 31.1173C78.8921 30.4979 78.3639 30.1539 77.6646 30.0479C77.2181 29.9796 76.7704 29.982 76.3225 29.9844C76.1847 29.9852 76.0468 29.9859 75.9089 29.9846C75.8935 29.9846 75.8771 29.9891 75.858 29.9943C75.8495 29.9966 75.8405 29.9991 75.8308 30.0014V33.5462C75.835 33.548 75.8396 33.5508 75.8444 33.5537C75.8546 33.5598 75.866 33.5667 75.8773 33.5667C75.9905 33.5636 76.1038 33.5618 76.2171 33.56C76.5191 33.5552 76.8213 33.5504 77.1216 33.522C77.5363 33.483 77.8618 33.2617 78.0385 32.8804C78.1414 32.6551 78.2204 32.4191 78.2995 32.1829L78.2995 32.1827C78.319 32.1245 78.3385 32.0662 78.3584 32.0081C78.3918 31.9114 78.4346 31.8593 78.5406 31.8928C78.5797 32.0286 78.5964 35.0657 78.5611 35.4451C78.4216 35.4897 78.4123 35.4897 78.3714 35.3744C78.3428 35.2934 78.3159 35.2118 78.289 35.1302C78.251 35.015 78.213 34.8999 78.1705 34.7867C78.124 34.6621 78.0701 34.5375 78.005 34.4203C77.8469 34.1265 77.607 33.9293 77.2722 33.8661C76.9461 33.8042 76.6172 33.7986 76.2845 33.793C76.1372 33.7905 75.9891 33.788 75.8401 33.7805C75.8366 33.801 75.8323 33.8193 75.8283 33.8363C75.8217 33.8641 75.816 33.8884 75.816 33.9126C75.816 34.8202 75.816 35.7278 75.8234 36.6335C75.8234 36.7656 75.8383 36.9013 75.8718 37.0297C75.9554 37.357 76.1786 37.5709 76.5097 37.6044C77.0751 37.6602 77.646 37.6713 78.2003 37.5058C78.708 37.3533 79.1246 37.0632 79.4147 36.6168C79.5787 36.3653 79.7323 36.1065 79.8856 35.8482L79.8857 35.8481L79.8857 35.848L79.8858 35.8479L79.8872 35.8455L79.8886 35.8431C79.9395 35.7574 79.9903 35.6717 80.0415 35.5864L80.043 35.584C80.0927 35.5031 80.1394 35.4269 80.2535 35.4693C80.3 35.6013 80.3149 37.5542 80.2684 37.8089L80.2371 37.8115C80.1978 37.8148 80.1565 37.8182 80.114 37.8182C79.5403 37.8173 78.9661 37.8159 78.3918 37.8145C77.8176 37.8131 77.2434 37.8117 76.6696 37.8108H73.3163H73.2438C73.1824 37.8108 73.1322 37.7978 73.1341 37.7234C73.1341 37.6546 73.1787 37.6323 73.2401 37.6211C73.278 37.6148 73.3159 37.609 73.3538 37.6032C73.4607 37.5868 73.5672 37.5705 73.6716 37.543C74.1049 37.4295 74.3392 37.1338 74.3597 36.6875C74.3649 36.586 74.3637 36.4837 74.3626 36.381V36.3809C74.3621 36.3368 74.3616 36.2927 74.3616 36.2485V31.0429V30.9145C74.3467 30.511 74.1644 30.2506 73.7794 30.1185C73.6317 30.0671 73.4757 30.0352 73.3209 30.0035L73.2475 29.9883C73.149 29.9679 73.1118 29.9177 73.1434 29.8228C73.2736 29.7856 79.7086 29.7745 79.9652 29.8135L79.9671 29.8172ZM113.85 35.4528C113.848 35.4762 113.846 35.5033 113.844 35.5361L113.84 35.5417L113.779 35.4733C113.732 35.4216 113.697 35.3826 113.664 35.3427C113.323 34.9416 112.982 34.5406 112.641 34.1397L112.625 34.1204C111.83 33.1855 111.035 32.2503 110.243 31.3124L110.168 31.2226C109.813 30.8006 109.456 30.3762 109.183 29.8934C109.133 29.8078 109.068 29.8022 108.984 29.8022H106.42C106.39 29.8022 106.359 29.8061 106.33 29.8099L106.33 29.8099L106.33 29.8099C106.314 29.8119 106.299 29.814 106.284 29.8153C106.262 29.976 106.285 29.9802 106.391 30.0003C106.404 30.0027 106.419 30.0054 106.434 30.0087C106.779 30.0812 107.08 30.2356 107.34 30.4643C107.428 30.5413 107.513 30.6234 107.597 30.7056C107.666 30.7723 107.734 30.8391 107.805 30.9033C107.958 31.0409 108.052 31.1971 108.012 31.4147C108.005 31.4543 108.007 31.4948 108.01 31.5355C108.011 31.5559 108.012 31.5765 108.012 31.597C108.013 32.8989 108.013 34.2026 108.013 35.5064C108.013 35.9099 107.967 36.308 107.839 36.6929C107.746 36.9756 107.578 37.2063 107.322 37.355C107.193 37.4288 107.053 37.4839 106.913 37.5388L106.913 37.539C106.877 37.5532 106.84 37.5674 106.805 37.5819C106.773 37.595 106.739 37.6016 106.705 37.6081C106.667 37.6155 106.629 37.6228 106.594 37.6396C106.561 37.6563 106.533 37.7103 106.527 37.7512C106.52 37.8126 106.57 37.8293 106.626 37.8293H106.81L109.578 37.8237C109.611 37.8237 109.644 37.8202 109.677 37.8167C109.691 37.8152 109.705 37.8137 109.719 37.8126C109.741 37.6582 109.741 37.6563 109.622 37.6229L109.575 37.6096L109.523 37.5953L109.462 37.5789L109.462 37.5789L109.462 37.5788L109.461 37.5787C109.385 37.5583 109.309 37.5379 109.233 37.515C108.845 37.396 108.588 37.1374 108.451 36.758C108.328 36.4233 108.276 36.0755 108.265 35.7202C108.252 35.3315 108.24 34.941 108.237 34.5523C108.232 33.8838 108.23 33.2162 108.228 32.5483L108.228 32.5439L108.228 32.5395L108.228 32.5351L108.227 32.5307L108.227 32.5264L108.227 32.522L108.227 32.5176L108.227 32.5132L108.227 32.5088L108.227 32.5044L108.227 32.5001L108.227 32.4957L108.227 32.4913L108.227 32.4869L108.227 32.4825L108.227 32.4781L108.227 32.4737L108.227 32.4693L108.227 32.4649L108.227 32.4605L108.227 32.4562L108.227 32.4518L108.227 32.4474L108.227 32.443L108.227 32.4386L108.227 32.4343L108.227 32.4299L108.227 32.4255L108.227 32.4211L108.227 32.4167L108.227 32.4124L108.227 32.408L108.227 32.4036L108.227 32.3992L108.227 32.3949L108.227 32.3905L108.227 32.3861L108.227 32.3817L108.227 32.3774L108.227 32.373L108.227 32.3686L108.227 32.3643L108.227 32.3599L108.227 32.3556L108.227 32.3512L108.227 32.3469L108.227 32.3425L108.226 32.3382L108.226 32.3338L108.226 32.3295L108.226 32.3252L108.226 32.3208L108.226 32.3165L108.226 32.3122L108.226 32.3079L108.226 32.3035L108.226 32.2992L108.226 32.2949L108.226 32.2906L108.226 32.2863L108.226 32.282L108.226 32.2777L108.224 31.5189C108.224 31.4938 108.229 31.4679 108.234 31.4422L108.234 31.4418L108.237 31.4224L108.239 31.4144L108.24 31.4054L108.274 31.3905C108.279 31.3984 108.283 31.4065 108.288 31.4146C108.295 31.4276 108.302 31.4405 108.311 31.4519C108.514 31.6893 108.717 31.9268 108.92 32.1643L108.938 32.1861L108.939 32.187C109.327 32.6415 109.716 33.0962 110.104 33.5517C110.503 34.0204 110.902 34.489 111.302 34.9577C111.701 35.4264 112.1 35.8951 112.499 36.3637L112.5 36.3641L112.5 36.3645L112.5 36.3648L112.501 36.3652L112.501 36.3655L112.501 36.3659L112.501 36.3662L112.502 36.3666L112.502 36.3669L112.502 36.3673L112.503 36.3677L112.503 36.368L112.503 36.3684L112.504 36.3687C112.93 36.8674 113.356 37.366 113.781 37.8665C113.851 37.9502 113.922 38.0209 114.054 37.9613L114.055 37.947C114.056 37.9333 114.056 37.9192 114.057 37.9048L114.057 37.9046C114.059 37.8723 114.062 37.8387 114.062 37.8051V34.2417L114.062 33.9908L114.061 33.6896V33.6895V33.6893C114.061 33.0452 114.06 32.4005 114.067 31.7569C114.071 31.4091 114.116 31.0651 114.248 30.7377C114.4 30.3583 114.675 30.124 115.079 30.044C115.169 30.0265 115.259 30.0118 115.351 29.9969C115.405 29.9881 115.46 29.9793 115.516 29.9696V29.806H112.369V29.9715L112.413 29.9778L112.413 29.9778C112.512 29.992 112.602 30.0048 112.691 30.0161C113.195 30.0831 113.528 30.3546 113.686 30.8382L113.696 30.8682C113.712 30.9164 113.728 30.9656 113.734 31.0149C113.743 31.0824 113.753 31.15 113.762 31.2176L113.763 31.2186C113.793 31.4335 113.824 31.6486 113.831 31.8648C113.842 32.2141 113.841 32.5634 113.84 32.9127C113.84 33.099 113.839 33.2854 113.84 33.4717C113.842 33.7852 113.845 34.0982 113.848 34.411L113.848 34.4165C113.851 34.7291 113.853 35.0415 113.855 35.3539C113.855 35.3828 113.853 35.4118 113.85 35.451L113.85 35.4517L113.85 35.4523L113.85 35.4528ZM65.267 29.8062H58.4674H58.4637C58.4153 29.9531 58.4153 29.9587 58.5362 29.9884C58.5971 30.0033 58.6587 30.016 58.7204 30.0287C58.8208 30.0494 58.9211 30.0701 59.0179 30.1C59.4494 30.2358 59.6577 30.5185 59.6577 30.9686C59.6585 31.7754 59.6583 32.582 59.658 33.3885V33.3936V33.3936V33.3936V33.3937V33.3937V33.3937V33.3937V33.3938V33.3938V33.3938V33.3939V33.3939V33.3939V33.394V33.394V33.394V33.3941V33.3941V33.3941V33.3942V33.3942V33.3942V33.3943V33.3943V33.3943V33.3943V33.3944V33.3944V33.3944V33.3945V33.3945V33.3945V33.3946V33.3946V33.3946V33.3947V33.3947V33.3947V33.3948V33.3948V33.3948V33.3948V33.3949V33.3949V33.3949V33.395V33.395V33.395V33.3951V33.3951V33.3951V33.3952V33.3952V33.3952V33.3953V33.3953V33.3953V33.3954V33.3954V33.3954V33.3954V33.3955C59.6577 34.4679 59.6574 35.5402 59.6596 36.6132C59.6614 37.1841 59.2746 37.4947 58.8375 37.5803C58.7825 37.5911 58.7268 37.5993 58.6708 37.6077C58.6304 37.6137 58.5898 37.6197 58.5492 37.6268C58.4209 37.6509 58.4116 37.6695 58.4637 37.8202C59.6452 37.81 60.8271 37.8118 62.01 37.8137H62.0102H62.0103H62.0105H62.0106H62.0108H62.0109H62.0111H62.0112H62.0114H62.0115H62.0117H62.0118H62.012H62.0121H62.0123H62.0124H62.0126H62.0127H62.0129H62.013H62.0132H62.0133H62.0135H62.0136H62.0138H62.0139H62.0141H62.0142H62.0144H62.0145H62.0146H62.0148H62.0149H62.0151H62.0152H62.0154H62.0155H62.0157H62.0158H62.016H62.0161H62.0163H62.0164H62.0166H62.0167H62.0169H62.017H62.0172H62.0173H62.0175H62.0176H62.0178H62.0179H62.0181H62.0182H62.0184H62.0185H62.0187H62.0188H62.019H62.0191H62.0193H62.0194H62.0195H62.0197H62.0198H62.0199H62.0201H62.0202H62.0204H62.0205H62.0206H62.0208H62.0209H62.021H62.0212H62.0213H62.0215H62.0216H62.0217H62.0219H62.022H62.0221H62.0223H62.0224H62.0226H62.0227H62.0228H62.023H62.0231H62.0232H62.0234H62.0235H62.0237H62.0238H62.0239H62.0241H62.0242H62.0243H62.0245H62.0246H62.0248H62.0249H62.025H62.0252H62.0253H62.0254H62.0256H62.0257H62.0259H62.026H62.0261H62.0263H62.0264H62.0265H62.0267H62.0268H62.027H62.0271H62.0272H62.0274H62.0275H62.0276H62.0278C63.2112 37.8155 64.3955 37.8174 65.5813 37.8072V35.4861C65.4697 35.4377 65.4027 35.4712 65.3488 35.5661C65.2372 35.7632 65.1256 35.9585 65.0047 36.1482C64.9754 36.1941 64.9463 36.2403 64.9173 36.2864L64.9172 36.2866L64.9171 36.2866C64.8027 36.4684 64.6885 36.6498 64.5565 36.8159C64.2534 37.1971 63.8442 37.4259 63.3774 37.5431C62.8808 37.6677 62.3712 37.6584 61.8653 37.6212C61.4878 37.5933 61.2497 37.3757 61.1586 37.0093C61.1307 36.8996 61.1195 36.7824 61.1195 36.6671V33.9815C61.1195 33.94 61.1222 33.8995 61.1251 33.8561V33.8561V33.856V33.856V33.8559L61.1264 33.8363L61.1288 33.7974C61.2014 33.7974 61.2724 33.7966 61.3425 33.7959H61.3426C61.4971 33.7943 61.6468 33.7928 61.7965 33.7992C62.029 33.8104 62.2596 33.8271 62.4902 33.8569C62.8399 33.9015 63.104 34.0838 63.2769 34.3906C63.3402 34.5004 63.396 34.6175 63.4406 34.7366C63.4877 34.8618 63.5299 34.9886 63.572 35.1155C63.5931 35.1789 63.6142 35.2424 63.6359 35.3057C63.6387 35.3143 63.6413 35.3232 63.6439 35.332L63.644 35.3321C63.6556 35.371 63.6675 35.4108 63.6917 35.4396C63.714 35.4656 63.7661 35.4824 63.8014 35.4787C63.8237 35.4768 63.8516 35.4322 63.8609 35.4024C63.8693 35.3773 63.8682 35.3491 63.8672 35.3208V35.3208C63.8669 35.3114 63.8665 35.302 63.8665 35.2927V32.0417C63.8665 32.0077 63.8616 31.9738 63.8567 31.9406C63.8549 31.9283 63.8531 31.9161 63.8516 31.904C63.7487 31.8916 63.6836 31.9245 63.6563 32.0026C63.6274 32.0852 63.6001 32.1687 63.5729 32.2522L63.5729 32.2522L63.5728 32.2523L63.5728 32.2523L63.5728 32.2524L63.5728 32.2524L63.5728 32.2525L63.5727 32.2526L63.5727 32.2526L63.5727 32.2527L63.5727 32.2527L63.5726 32.2528L63.5726 32.2528L63.5726 32.2529L63.5726 32.253L63.5725 32.253L63.5725 32.2531L63.5725 32.2531L63.5725 32.2532L63.5725 32.2532L63.5724 32.2533L63.5724 32.2534L63.5724 32.2534L63.5724 32.2535L63.5723 32.2535L63.5723 32.2536L63.5723 32.2536L63.5723 32.2537L63.5722 32.2538L63.5722 32.2538L63.5722 32.2539L63.5722 32.2539L63.5722 32.254L63.5721 32.254L63.5721 32.2541L63.5721 32.2542L63.5721 32.2542L63.572 32.2543L63.572 32.2543L63.572 32.2544L63.572 32.2544L63.5719 32.2545L63.5719 32.2546L63.5719 32.2546L63.5719 32.2547L63.5719 32.2547L63.5718 32.2548L63.5718 32.2548L63.5718 32.2549L63.5718 32.255L63.5717 32.255L63.5717 32.2551L63.5717 32.2551L63.5717 32.2552L63.5717 32.2552L63.5716 32.2553L63.5716 32.2554L63.5716 32.2554L63.5716 32.2555L63.5715 32.2555L63.5715 32.2556L63.5715 32.2556C63.5081 32.4492 63.4447 32.6428 63.3606 32.8265C63.1709 33.2431 62.8417 33.5016 62.3712 33.5333C62.0891 33.5521 61.807 33.5583 61.525 33.5645C61.4165 33.5668 61.308 33.5692 61.1995 33.5723C61.1833 33.5723 61.1671 33.5665 61.1524 33.5611L61.1523 33.5611L61.1416 33.5573L61.1363 33.5556C61.0972 33.232 61.1139 30.126 61.1586 29.9866C61.2584 29.9866 61.3585 29.9857 61.4588 29.9847C61.6802 29.9827 61.9024 29.9807 62.1238 29.9884C62.4103 29.9996 62.6985 30.0182 62.9812 30.0572C63.5727 30.1372 64.0581 30.405 64.3966 30.9053C64.4812 31.0287 64.5548 31.1599 64.6284 31.2911C64.6502 31.33 64.672 31.3688 64.6941 31.4075C64.7869 31.5705 64.8775 31.7357 64.9685 31.9014L65.0568 32.0621C65.1033 32.1458 65.1628 32.1942 65.267 32.1272V29.8062ZM105.81 37.811V35.4825H105.813C105.689 35.4341 105.637 35.488 105.588 35.5717C105.542 35.6488 105.497 35.726 105.452 35.8033C105.305 36.0522 105.159 36.3008 105.001 36.5407C104.681 37.0224 104.253 37.3758 103.682 37.5246C103.148 37.6641 102.603 37.6603 102.062 37.6083C101.723 37.5748 101.489 37.3702 101.407 37.0298C101.374 36.8959 101.348 36.7546 101.348 36.617C101.343 35.8716 101.345 35.1249 101.347 34.3791V34.3771L101.348 33.9314C101.349 33.9026 101.354 33.873 101.359 33.8442C101.362 33.8283 101.364 33.8126 101.366 33.7975C101.449 33.7975 101.531 33.7967 101.611 33.796C101.788 33.7944 101.959 33.7929 102.131 33.7993C102.333 33.8068 102.534 33.8272 102.733 33.8532C103.1 33.9016 103.368 34.1006 103.537 34.4224C103.613 34.5674 103.676 34.7218 103.734 34.8743C103.799 35.0454 103.855 35.2184 103.909 35.3932C103.94 35.4918 103.998 35.4936 104.082 35.4639V31.8986C103.953 31.8521 103.922 31.9246 103.89 32.0139C103.866 32.0838 103.843 32.1541 103.82 32.2244C103.75 32.4381 103.679 32.6516 103.587 32.8545C103.412 33.2414 103.105 33.4887 102.674 33.5241C102.378 33.5476 102.082 33.5537 101.785 33.5597C101.661 33.5623 101.536 33.5648 101.411 33.5687C101.4 33.5699 101.388 33.5636 101.374 33.5554C101.367 33.5514 101.359 33.5469 101.35 33.5427V33.366L101.35 33.3524C101.353 32.2429 101.357 31.1334 101.363 30.0238C101.363 30.0234 101.363 30.0229 101.363 30.0224C101.363 30.0212 101.364 30.0199 101.366 30.0186C101.367 30.017 101.369 30.0153 101.371 30.0137L101.374 30.0108L101.377 30.0078C101.381 30.0044 101.387 29.9991 101.398 29.9866C101.513 29.9866 101.629 29.986 101.746 29.9854C101.983 29.9842 102.224 29.9829 102.466 29.9866C102.828 29.9904 103.185 30.0331 103.535 30.1261C103.885 30.221 104.195 30.3847 104.431 30.6636C104.56 30.8161 104.681 30.9798 104.783 31.1509C104.894 31.3344 104.996 31.5222 105.098 31.7103L105.098 31.7106L105.099 31.7118L105.099 31.7125C105.148 31.8019 105.196 31.8913 105.246 31.9804C105.252 31.9911 105.257 32.0022 105.262 32.0134C105.278 32.047 105.294 32.0813 105.32 32.105C105.352 32.1329 105.404 32.1552 105.445 32.1515C105.469 32.1496 105.495 32.092 105.506 32.0566C105.515 32.0315 105.514 32.0033 105.513 31.975L105.512 31.962L105.512 31.9469V29.955C105.512 29.9221 105.508 29.89 105.503 29.8564L105.503 29.8562L105.501 29.841L105.499 29.8235L105.497 29.8081H98.6678C98.6696 29.8658 98.6715 29.9123 98.6752 29.9662C98.7147 29.9754 98.7519 29.9832 98.7879 29.9908C98.8249 29.9985 98.8607 30.0061 98.8965 30.0145L98.9202 30.0203L98.9501 30.0274L99.0078 30.0407L99.0078 30.0408L99.008 30.0408C99.1077 30.0637 99.2077 30.0867 99.3038 30.1206C99.6404 30.2377 99.832 30.4795 99.8859 30.8292C99.899 30.9203 99.9045 31.0114 99.9045 31.1026V36.0348C99.9045 36.0963 99.9048 36.1577 99.905 36.2188C99.9054 36.3407 99.9058 36.4621 99.9045 36.5835C99.9008 36.9462 99.7892 37.2586 99.4508 37.4409C99.3299 37.506 99.1922 37.5469 99.0583 37.5822C98.9742 37.6052 98.8875 37.6176 98.7988 37.6304L98.7422 37.6386C98.7199 37.6419 98.6976 37.6454 98.6752 37.6492V37.811H105.81ZM69.3121 34.6567V34.4595C69.3327 34.4582 69.3528 34.4564 69.3726 34.4546L69.3727 34.4546C69.4081 34.4514 69.4423 34.4484 69.4758 34.4484C70.3462 34.4614 71.1124 33.8625 71.3077 32.9587C71.423 32.4267 71.423 31.8948 71.2798 31.3666C71.0455 30.5037 70.3592 29.9848 69.4609 29.9829H69.0573C69.0559 30.0165 69.054 30.0482 69.0521 30.0788L69.0521 30.0791C69.049 30.1297 69.0462 30.1772 69.0462 30.2247C69.0462 32.0027 69.0462 33.7807 69.048 35.5606C69.048 35.955 69.0609 36.3476 69.0739 36.742L69.0741 36.7471C69.0871 37.0968 69.2693 37.3311 69.5985 37.4409C69.7581 37.4936 69.9216 37.5335 70.0854 37.5736L70.0855 37.5736C70.147 37.5886 70.2085 37.6037 70.2699 37.6194C70.2822 37.6226 70.2956 37.6243 70.3088 37.6259C70.3338 37.629 70.3583 37.6321 70.3741 37.6454C70.402 37.6678 70.4243 37.7124 70.4243 37.7477C70.4243 37.7719 70.3852 37.8035 70.3573 37.8165C70.3378 37.8249 70.3142 37.8239 70.2902 37.8228C70.2822 37.8225 70.2741 37.8221 70.2662 37.8221L66.6935 37.8277C66.6235 37.8277 66.5536 37.8242 66.4854 37.8208C66.4539 37.8193 66.4228 37.8177 66.3922 37.8165C66.383 37.7254 66.3788 37.6844 66.3972 37.6614C66.4121 37.6426 66.442 37.6356 66.4963 37.6231C66.5406 37.6132 66.5853 37.6047 66.6301 37.5962L66.6302 37.5962C66.7115 37.5807 66.7929 37.5653 66.872 37.5413C67.2012 37.4371 67.4709 37.2567 67.562 36.8996C67.5936 36.7769 67.5955 36.6467 67.5955 36.5202C67.5967 35.3214 67.5963 34.1218 67.5959 32.9224V32.9143V32.9141V32.9139V32.9137V32.9135V32.9133V32.9131V32.9129V32.9127V32.9125V32.9123V32.9121V32.9119V32.9117V32.9114V32.9112V32.911V32.9108V32.9106V32.9104V32.9102V32.91V32.9098V32.9096V32.9094V32.9092V32.909V32.9088V32.9086V32.9084V32.9082V32.908V32.9078V32.9076V32.9074V32.9072V32.907V32.9068V32.9066V32.9064V32.9062V32.906V32.9058V32.9056V32.9054V32.9052V32.9049V32.9047V32.9045V32.9043V32.9041V32.9039V32.9037V32.9035V32.9033V32.9031V32.9029V32.9027C67.5957 32.3056 67.5955 31.7086 67.5955 31.1118C67.5955 31.0207 67.5955 30.9296 67.5843 30.8384C67.5509 30.5464 67.4095 30.3158 67.1417 30.1894C67.0258 30.1348 66.9009 30.0993 66.7759 30.0637C66.7303 30.0507 66.6847 30.0377 66.6395 30.0238C66.6148 30.0159 66.589 30.0122 66.5633 30.0085C66.5406 30.0053 66.5181 30.002 66.4963 29.9959C66.3754 29.9662 66.3754 29.9643 66.3847 29.7969H66.5614C66.9023 29.7969 67.2432 29.7964 67.5841 29.7959C68.3796 29.7948 69.175 29.7936 69.9705 29.7988C70.6865 29.8044 71.3635 29.968 71.9642 30.3753C73.0206 31.0895 73.281 32.5011 72.5389 33.511C72.1986 33.9741 71.7355 34.268 71.1943 34.4484C70.588 34.6511 69.9631 34.6716 69.3103 34.6567H69.3121ZM117.419 30.1485C117.82 29.9588 118.244 29.9699 118.696 29.9922L118.7 29.9904V30.1968C118.7 31.1928 118.699 32.1887 118.698 33.1846C118.697 34.1806 118.696 35.1765 118.696 36.1725C118.696 36.21 118.697 36.2475 118.697 36.2851V36.2853C118.697 36.4361 118.698 36.5875 118.689 36.7379C118.672 37.0447 118.533 37.2884 118.252 37.4279C118.118 37.4948 117.971 37.5394 117.826 37.5822C117.747 37.6049 117.666 37.618 117.584 37.6311L117.584 37.6311C117.563 37.6344 117.543 37.6378 117.522 37.6413L117.487 37.6473V37.8054H121.348C121.355 37.6963 121.317 37.6349 121.235 37.6213C121.222 37.6192 121.208 37.6179 121.194 37.6165C121.172 37.6144 121.149 37.6122 121.127 37.6064C121.078 37.5931 121.028 37.5815 120.978 37.57L120.978 37.57L120.978 37.57C120.861 37.543 120.744 37.5159 120.638 37.465C120.27 37.2865 120.151 36.9629 120.151 36.5742V30.1968C120.151 30.1536 120.153 30.1103 120.156 30.0621L120.156 30.0609L120.156 30.0594L120.156 30.0589L120.156 30.0584L120.158 30.0232L120.16 29.9848C120.231 29.9848 120.3 29.9836 120.369 29.9825C120.514 29.9801 120.653 29.9778 120.792 29.9866C121.365 30.022 121.802 30.2898 122.089 30.7864C122.198 30.9761 122.297 31.1732 122.383 31.3741C122.481 31.6024 122.572 31.8342 122.664 32.0659C122.705 32.1683 122.745 32.2708 122.786 32.3728L122.79 32.3815C122.816 32.4479 122.844 32.5169 122.937 32.4956C123.012 32.4778 123.006 32.4196 123.001 32.3666C123 32.3533 122.998 32.3402 122.998 32.3282V29.9532C122.998 29.9197 122.994 29.887 122.989 29.8535C122.987 29.8386 122.985 29.8235 122.983 29.8081H115.845V32.4807C115.961 32.5253 116.011 32.4863 116.05 32.3877C116.174 32.0641 116.306 31.7423 116.438 31.4224C116.552 31.1453 116.675 30.8738 116.855 30.632C117.008 30.4293 117.186 30.2582 117.419 30.1485ZM36.5102 37.8092C36.5027 37.6474 36.5027 37.6455 36.6255 37.6232C36.8728 37.5805 37.1128 37.5191 37.3322 37.387C37.548 37.2568 37.667 37.0709 37.7061 36.8309C37.7265 36.7119 37.7358 36.5892 37.7358 36.4683V31.1529C37.7358 31.0561 37.7247 30.9594 37.7135 30.8627C37.6707 30.4833 37.4531 30.2397 37.1016 30.1151C36.9928 30.0771 36.8787 30.052 36.7648 30.027C36.7113 30.0153 36.6579 30.0035 36.605 29.9905L36.5762 29.9832L36.5762 29.9832L36.5762 29.9831L36.5761 29.9831C36.5559 29.978 36.5347 29.9726 36.5083 29.9663C36.5046 29.9179 36.5009 29.8714 36.4953 29.8101H40.3656C40.4233 29.9458 40.4196 29.9588 40.2856 29.9905C40.2365 30.0025 40.1865 30.0122 40.1365 30.0219C40.0787 30.0331 40.0207 30.0443 39.9639 30.0593C39.4115 30.1988 39.1716 30.5112 39.1716 31.0859C39.1716 31.4848 39.1725 31.8838 39.1735 32.2827L39.1735 32.2852C39.1744 32.6833 39.1753 33.0814 39.1753 33.4795C39.1753 34.483 39.1735 35.4865 39.1716 36.4918L39.1716 36.4943V36.4944C39.1716 36.5372 39.1716 36.5799 39.1735 36.6226C39.1809 37.1192 39.4376 37.4001 39.9286 37.5507C40.0017 37.573 40.0782 37.5871 40.1546 37.6011C40.1929 37.6081 40.2311 37.6152 40.2689 37.6232L40.2753 37.6246C40.3091 37.6316 40.3466 37.6394 40.3693 37.6604C40.3917 37.6809 40.4065 37.7274 40.3991 37.7553C40.3935 37.7813 40.3563 37.8092 40.3266 37.8185C40.3027 37.8265 40.2759 37.825 40.2491 37.8235C40.2383 37.8228 40.2275 37.8222 40.2168 37.8222C39.0135 37.8222 37.8102 37.8204 36.6088 37.8185C36.5898 37.8185 36.5709 37.8163 36.5491 37.8137L36.5285 37.8113L36.5083 37.8092H36.5102ZM24.4405 37.9003C24.4248 37.8811 24.4087 37.8614 24.3934 37.8405L24.3915 37.8386C24.5291 37.8014 24.6444 37.7698 24.8044 37.7252C24.7509 37.6954 24.7013 37.6674 24.6544 37.6409C24.5546 37.5844 24.4665 37.5345 24.3766 37.489C24.3245 37.4629 24.2613 37.4443 24.2037 37.4443C24.1144 37.4443 24.0567 37.4053 24.0047 37.3402C23.8745 37.1784 23.7424 37.0184 23.6104 36.8603C23.5898 36.8359 23.5666 36.8133 23.5376 36.7851L23.5376 36.785L23.5375 36.785C23.5246 36.7724 23.5105 36.7586 23.4951 36.7432C23.4951 36.7626 23.4945 36.7781 23.494 36.7912V36.7912C23.4933 36.8118 23.4928 36.8262 23.4951 36.8399L23.5093 36.9213L23.5186 36.9748C23.5472 37.1398 23.5757 37.3044 23.6122 37.4666C23.6308 37.5466 23.6699 37.6303 23.7238 37.6917C23.8511 37.8347 23.9849 37.9733 24.1186 38.1117C24.1588 38.1533 24.199 38.1949 24.239 38.2366C24.2807 38.1451 24.2343 38.0824 24.1867 38.018C24.1579 37.9791 24.1286 37.9395 24.1181 37.8925C24.2204 37.8609 24.2948 37.9037 24.3543 37.9632C24.3952 38.0053 24.4303 38.0524 24.4678 38.1027C24.4867 38.128 24.5061 38.1541 24.5273 38.1808C24.5696 38.0584 24.5087 37.9839 24.4405 37.9003ZM18.6576 31.1081L18.6558 31.1077C18.6568 31.1022 18.6581 31.0963 18.6595 31.0904C18.6609 31.0844 18.6623 31.0784 18.6632 31.0728C18.6403 31.066 18.6173 31.0589 18.5944 31.0519L18.5944 31.0519C18.5485 31.0378 18.5026 31.0238 18.4568 31.0114C18.3367 30.9787 18.217 30.9446 18.0972 30.9105L18.0971 30.9105L18.097 30.9105L18.0969 30.9104L18.0968 30.9104L18.0967 30.9104L18.0966 30.9104L18.0965 30.9103L18.0964 30.9103L18.0963 30.9103L18.0962 30.9102L18.0961 30.9102L18.096 30.9102L18.096 30.9102L18.0959 30.9101L18.0958 30.9101L18.0957 30.9101L18.0956 30.9101L18.0955 30.91L18.0954 30.91L18.0953 30.91L18.0952 30.9099L18.0951 30.9099L18.095 30.9099L18.0949 30.9099C17.7999 30.8259 17.5048 30.7419 17.2051 30.6785C16.822 30.5967 16.5039 30.4218 16.225 30.154C16.1372 30.0688 16.038 29.9948 15.9389 29.9209C15.8932 29.8867 15.8474 29.8526 15.8028 29.8174C15.7981 29.822 15.7939 29.8271 15.7898 29.8323C15.7856 29.8374 15.7814 29.8425 15.7767 29.8471C15.8402 29.9106 15.9038 29.9738 15.9673 30.0369L15.9673 30.0369L15.9674 30.037C16.1366 30.2051 16.3055 30.3729 16.4705 30.5446C16.5541 30.6339 16.6509 30.6803 16.768 30.7045C17.0729 30.7669 17.3768 30.8326 17.6804 30.8982L17.6804 30.8982L17.6806 30.8982L17.9639 30.9593C18.0658 30.9813 18.1674 31.003 18.2688 31.0246L18.2692 31.0247L18.2694 31.0247L18.2695 31.0248L18.2696 31.0248L18.2697 31.0248L18.2698 31.0248L18.2699 31.0248L18.27 31.0249L18.2701 31.0249L18.2702 31.0249L18.2706 31.025L18.2708 31.025L18.2712 31.0251L18.2715 31.0252L18.2717 31.0252L18.2721 31.0253L18.2724 31.0254L18.2726 31.0254L18.2728 31.0255L18.2729 31.0255L18.2731 31.0255L18.2733 31.0256L18.2735 31.0256L18.2736 31.0257L18.2738 31.0257L18.274 31.0257L18.2742 31.0258L18.2743 31.0258L18.2745 31.0258L18.2749 31.0259L18.2751 31.026C18.4022 31.0531 18.529 31.0801 18.6558 31.1077L18.6558 31.1081H18.6576ZM18.2548 31.4197C18.4021 31.4434 18.5494 31.4671 18.6967 31.4895C18.6985 31.4765 18.7004 31.4635 18.7004 31.4505C18.5002 31.4098 18.2999 31.3686 18.0996 31.3274L18.0996 31.3274L18.0995 31.3274L18.0995 31.3274L18.0995 31.3274L18.0995 31.3274L18.0995 31.3274L18.0995 31.3274L18.0995 31.3274L18.0994 31.3274L18.0994 31.3274L18.0994 31.3274L18.0994 31.3274L18.0994 31.3274L18.0994 31.3274L18.0994 31.3274L18.0993 31.3274L18.0993 31.3274L18.0993 31.3274L18.0993 31.3274L18.0993 31.3274L18.0993 31.3274L18.0993 31.3274L18.0992 31.3274L18.0992 31.3274L18.0992 31.3274L18.0992 31.3274L18.0992 31.3274L18.0992 31.3274L18.0992 31.3274L18.0991 31.3274L18.0991 31.3273L18.0991 31.3273L18.0991 31.3273L18.0991 31.3273L18.0991 31.3273L18.0991 31.3273L18.099 31.3273L18.099 31.3273L18.099 31.3273L18.099 31.3273L18.099 31.3273L18.099 31.3273L18.099 31.3273L18.0989 31.3273L18.0989 31.3273L18.0989 31.3273L18.0989 31.3273L18.0989 31.3273L18.0989 31.3273L18.0989 31.3273L18.0988 31.3273L18.0988 31.3273C17.3934 31.1823 16.6872 31.0371 15.9776 30.9111C15.9925 30.9372 16.0129 30.9502 16.0334 30.9595C16.4202 31.112 16.8164 31.2199 17.233 31.2701C17.5743 31.3103 17.9147 31.365 18.2548 31.4197ZM18.9626 30.3436C18.8597 30.3093 18.7573 30.2734 18.655 30.2374L18.655 30.2374L18.655 30.2374L18.655 30.2374L18.655 30.2374L18.6549 30.2374L18.6549 30.2374L18.6549 30.2374L18.6549 30.2374L18.6549 30.2374L18.6549 30.2374L18.6549 30.2374L18.6549 30.2374L18.6549 30.2374L18.6549 30.2374L18.6549 30.2374L18.6549 30.2374L18.6549 30.2374L18.6549 30.2374L18.6549 30.2374L18.6549 30.2374L18.6549 30.2374L18.6549 30.2374L18.6549 30.2374L18.6549 30.2374L18.6549 30.2374L18.6549 30.2374L18.6549 30.2374L18.6548 30.2374L18.6548 30.2374L18.6548 30.2374L18.6548 30.2374L18.6548 30.2374L18.6548 30.2374L18.6548 30.2374L18.6548 30.2374L18.6548 30.2374L18.6548 30.2374L18.6548 30.2374L18.6548 30.2374L18.6548 30.2374L18.6548 30.2374L18.6548 30.2374L18.6548 30.2374L18.6548 30.2374L18.6548 30.2374L18.6548 30.2374L18.6548 30.2374L18.6548 30.2374L18.6548 30.2374L18.6548 30.2374L18.6547 30.2374C18.4131 30.1525 18.1717 30.0678 17.9248 30.0051C17.5956 29.9214 17.3594 29.7485 17.1865 29.4621C17.1511 29.4033 17.1123 29.3464 17.0733 29.2891C17.016 29.2049 16.9581 29.1198 16.9094 29.0269L16.9293 29.0425C16.9516 29.0598 16.9745 29.0776 16.9931 29.0975L17.052 29.1592L17.0521 29.1593C17.1923 29.3058 17.3319 29.4517 17.4673 29.6034C17.5603 29.7057 17.67 29.7745 17.7965 29.8266C18.0222 29.9171 18.2478 30.0093 18.4735 30.1014C18.5863 30.1475 18.6991 30.1936 18.812 30.2395C18.8553 30.2568 18.8976 30.2775 18.9396 30.2981L18.9396 30.2981L18.9756 30.3157C18.9738 30.3204 18.9715 30.325 18.9691 30.3297C18.9668 30.3343 18.9645 30.339 18.9626 30.3436ZM16.7597 31.5141L16.7569 31.5137H16.7587L16.7597 31.5141ZM16.7597 31.5141L18.8808 31.8484L18.8752 31.8856C18.7102 31.8671 18.5443 31.854 18.3785 31.8408L18.3785 31.8408C17.8289 31.7973 17.2795 31.7538 16.7597 31.5141ZM22.4387 39.2074C23.164 38.8783 23.9135 38.6179 24.6798 38.4077C24.6835 38.4189 24.6872 38.43 24.6928 38.4431C24.3189 38.5761 23.9449 38.7095 23.571 38.843C23.1973 38.9764 22.8235 39.1098 22.4498 39.2428C22.4461 39.2316 22.4424 39.2205 22.4387 39.2074ZM23.5546 38.4453C23.0282 38.6499 22.4963 38.8359 21.9458 38.9661C22.461 38.7299 22.9929 38.542 23.5546 38.4453ZM21.4994 39.5815L21.496 39.5839C21.1954 39.6228 21.0788 39.6675 20.9917 39.7843L21.2886 39.8828C21.4892 39.9493 21.6872 40.0151 21.8844 40.08C21.8881 40.0688 21.8919 40.0595 21.8956 40.0502C21.6873 39.9554 21.479 39.8605 21.2428 39.7526C21.3025 39.7137 21.3534 39.6795 21.4081 39.6427L21.496 39.5839L21.4994 39.5834V39.5815ZM27.927 37.7812C27.4565 37.8966 26.9785 37.9542 26.4987 37.9989C26.9655 37.8631 27.4416 37.7961 27.927 37.7812ZM19.5522 31.8819V31.5713L19.5944 31.6215L19.5944 31.6215L19.5945 31.6215C19.6139 31.6448 19.6312 31.6655 19.6526 31.6903L19.8855 31.5676C20.0884 31.4606 20.2894 31.3546 20.4914 31.2495C20.4942 31.2542 20.497 31.2583 20.4998 31.2625L20.5043 31.2694L20.5082 31.2755C20.3391 31.3831 20.1706 31.4901 19.9962 31.6009L19.9957 31.6012L19.5541 31.8819H19.5522ZM19.9242 32.2613C20.2515 32.0586 20.5454 31.8782 20.8392 31.6978H20.8411C20.8318 31.6885 20.8243 31.6792 20.8169 31.6699C20.7133 31.7232 20.6097 31.7767 20.5055 31.8305L20.5054 31.8306C20.3404 31.9158 20.174 32.0018 20.0042 32.0884L19.9929 32.0644L19.9929 32.0644C19.971 32.0179 19.9553 31.9843 19.9409 31.9508C19.9316 31.9526 19.9205 31.9563 19.9112 31.9601L19.9112 31.9603L19.9112 31.9605L19.9112 31.9606C19.9149 32.0497 19.9186 32.1388 19.9242 32.2613ZM19.2993 31.4241L19.2992 31.423L19.3424 31.3969C19.6412 31.216 19.9163 31.0494 20.1678 30.8457C19.9074 30.9815 19.6471 31.1172 19.3811 31.2549C19.3476 31.1991 19.3253 31.1637 19.303 31.1284C19.2983 31.1303 19.2942 31.1317 19.29 31.133L19.2841 31.135L19.2769 31.1377C19.2811 31.1852 19.2846 31.2326 19.2886 31.2851L19.2886 31.2852L19.2886 31.2852L19.2886 31.2853L19.2886 31.2858L19.2886 31.286L19.2886 31.2862C19.2918 31.3278 19.2951 31.3726 19.2992 31.423L19.2974 31.4241H19.2993ZM20.3929 32.3095V32.5903C20.4999 32.5234 20.6024 32.4592 20.702 32.3967L20.7023 32.3965L20.7028 32.3962L20.7037 32.3956C20.8804 32.2848 21.0482 32.1796 21.2168 32.0751C21.1535 32.0714 21.1052 32.0919 21.0587 32.1161C21.0128 32.1395 20.9669 32.1625 20.921 32.1855C20.8029 32.2445 20.6852 32.3034 20.5714 32.369C20.4821 32.4211 20.4338 32.3802 20.3929 32.3095ZM27.4212 37.5782L27.2833 37.6037C26.9874 37.6584 26.6926 37.713 26.3964 37.7661C26.3945 37.7586 26.3931 37.7507 26.3917 37.7428C26.3903 37.7349 26.3889 37.727 26.3871 37.7196C26.7237 37.6247 27.0641 37.5559 27.4119 37.5317C27.4137 37.5392 27.4151 37.5471 27.4165 37.555C27.4179 37.5629 27.4193 37.5708 27.4212 37.5782ZM19.1755 30.7277C19.172 30.7853 19.1686 30.8416 19.1635 30.9204L19.1653 30.9185C19.4239 30.7548 19.647 30.6135 19.8684 30.4721C19.8629 30.4653 19.8584 30.4575 19.8543 30.4501L19.8498 30.4424L19.6912 30.5238C19.5887 30.5764 19.4868 30.6288 19.3848 30.6804L19.3815 30.6822C19.3506 30.6986 19.3149 30.7175 19.2844 30.7139C19.264 30.7126 19.2446 30.6975 19.2195 30.6779C19.2078 30.6689 19.195 30.6588 19.1802 30.6488L19.1755 30.7277ZM20.8913 32.9008V32.566C20.918 32.6169 20.9352 32.6505 20.9516 32.6826L20.9787 32.7353C21.1092 32.6688 21.2381 32.6039 21.3659 32.5396L21.3667 32.5392L21.367 32.5391L21.5608 32.4414C21.3656 32.6162 21.1442 32.7501 20.8913 32.9008ZM25.9668 38.0879C25.7157 38.1902 25.4572 38.2441 25.1894 38.2683C25.433 38.1418 25.6971 38.1009 25.9668 38.0879ZM23.8038 34.2474C23.8013 34.1433 23.7591 34.0571 23.6773 33.9889C23.7328 33.9807 23.785 33.9727 23.8351 33.9651C23.9094 33.9537 23.9793 33.9431 24.0493 33.9331L24.0679 33.9666C24.0243 34.013 23.9807 34.0598 23.9371 34.1066L23.9371 34.1067L23.9368 34.107C23.8931 34.1539 23.8494 34.2009 23.8056 34.2474H23.8038ZM21.3878 32.9437V33.204C21.5701 33.0869 21.7282 32.9864 21.8863 32.886C21.8788 32.8749 21.8733 32.8637 21.8677 32.8525C21.771 32.899 21.6743 32.9437 21.5776 32.9883C21.4878 33.0304 21.4864 33.0293 21.3922 32.9475L21.3878 32.9437ZM24.0812 34.7439L24.0812 34.7439L24.081 34.7443C24.036 34.8039 23.9889 34.8665 23.9377 34.9354C23.934 34.8152 23.8844 34.7327 23.7889 34.6881L23.8624 34.6649C23.9679 34.6316 24.0632 34.6016 24.1572 34.5728L24.1832 34.6081C24.1499 34.6528 24.1162 34.6975 24.0812 34.7439ZM24.0345 35.4101C24.0551 35.4187 24.0747 35.4268 24.0958 35.4359H24.0939C24.0977 35.4935 24.0995 35.5363 24.1014 35.581C24.106 35.5819 24.1107 35.5833 24.1153 35.5847L24.1153 35.5847C24.12 35.5861 24.1246 35.5875 24.1293 35.5884L24.2287 35.4332L24.3283 35.2778L24.3078 35.248C24.2601 35.2627 24.2121 35.2776 24.1618 35.2932L24.1616 35.2933C24.0903 35.3155 24.0145 35.3391 23.9284 35.3652C23.9715 35.384 24.0042 35.3976 24.0344 35.4101L24.0345 35.4101ZM24.6398 34.3232L24.6397 34.3233L24.5961 34.3756C24.5975 34.3615 24.5991 34.3477 24.6006 34.3343C24.6136 34.2229 24.624 34.1331 24.5012 34.0966L24.5013 34.0966C24.611 34.0762 24.7207 34.0557 24.8286 34.0371C24.8323 34.0427 24.8355 34.0483 24.8388 34.0539C24.842 34.0594 24.8453 34.065 24.849 34.0706C24.7856 34.1483 24.7208 34.2259 24.6398 34.3232ZM27.1077 33.8248L27.1077 33.8248L27.1077 33.8248L27.1077 33.8248L27.1077 33.8248L27.1077 33.8248L27.1077 33.8248L27.1077 33.8248L27.1076 33.8247C27.0716 33.795 27.0351 33.765 27.0009 33.7324C26.9276 33.821 26.9745 33.8503 27.0158 33.8761L27.0269 33.8831L27.0439 33.8942C27.1741 33.9796 27.3044 34.065 27.3561 34.229C27.359 34.0316 27.2361 33.9304 27.1077 33.8248ZM26.5396 33.3974C26.5545 33.455 26.5675 33.5034 26.588 33.5741C26.6201 33.556 26.6485 33.5395 26.6765 33.5232L26.6766 33.5232C26.7005 33.5093 26.7241 33.4956 26.7498 33.4811C26.7777 33.5629 26.7628 33.6261 26.681 33.6559C26.6066 33.6838 26.5359 33.6708 26.4894 33.5982C26.4373 33.5183 26.4559 33.4532 26.5415 33.3955L26.5396 33.3974ZM22.1095 33.6746V33.8029V33.8048C22.2769 33.749 22.448 33.6374 22.5056 33.5537C22.454 33.5693 22.3998 33.586 22.3426 33.6035L22.3422 33.6036L22.3417 33.6038C22.2694 33.626 22.1923 33.6497 22.1095 33.6746ZM23.867 33.4403L23.8668 33.4405L23.8667 33.4405L23.8667 33.4406L23.8667 33.4406L23.8667 33.4406L23.8666 33.4406L23.8666 33.4406L23.8666 33.4407L23.8665 33.4407L23.8665 33.4407L23.8665 33.4407L23.8665 33.4408L23.8664 33.4408L23.8664 33.4408L23.8664 33.4408L23.8663 33.4409L23.8663 33.4409L23.8663 33.4409L23.8663 33.4409L23.8662 33.4409L23.8662 33.441L23.8662 33.441L23.8661 33.441L23.8661 33.441L23.8661 33.4411L23.8661 33.4411L23.866 33.4411L23.866 33.4411L23.866 33.4411L23.8659 33.4412C23.7938 33.4985 23.7216 33.5559 23.6476 33.6133C23.6383 33.577 23.6294 33.544 23.6206 33.511L23.6206 33.511C23.6118 33.478 23.6029 33.4449 23.5936 33.4087H23.8447L23.8447 33.4087C23.8522 33.4199 23.8596 33.431 23.867 33.4403ZM21.9683 33.3968L21.9684 33.3967C22.0414 33.3482 22.1134 33.3003 22.195 33.2451C22.1058 33.2659 22.0281 33.2832 21.953 33.2999L21.9525 33.3L21.9523 33.3C21.893 33.3132 21.8353 33.326 21.7747 33.34C21.7775 33.3585 21.7803 33.3808 21.7838 33.4087L21.7838 33.4088L21.7838 33.4088L21.7838 33.409C21.7873 33.4369 21.7915 33.4703 21.797 33.5111C21.8578 33.4703 21.9133 33.4333 21.9683 33.3968ZM25.5669 37.9354C25.5087 37.8638 25.4536 37.7954 25.4006 37.7296L25.3177 37.6267C25.5 37.6118 25.606 37.7346 25.5669 37.9354ZM24.8726 34.7431L24.8732 34.7424V34.7442L24.8726 34.7431ZM24.863 34.7256C24.866 34.7313 24.8691 34.737 24.8726 34.7431C24.8484 34.772 24.8245 34.8008 24.8005 34.83L24.8 34.8306C24.767 34.8705 24.7336 34.9109 24.6984 34.9525C24.6782 34.9154 24.6586 34.8807 24.6383 34.8445C24.623 34.8174 24.6073 34.7894 24.5905 34.7591C24.6336 34.7501 24.6799 34.7411 24.7277 34.7318L24.7279 34.7317C24.7688 34.7238 24.8107 34.7156 24.8527 34.707C24.8564 34.7135 24.8597 34.7196 24.8629 34.7256L24.863 34.7256ZM23.6903 38.019C23.8875 38.0302 23.9563 38.1083 23.9489 38.3315L23.9066 38.2806L23.9064 38.2804L23.9063 38.2803L23.9062 38.2801L23.9059 38.2798C23.8311 38.1897 23.7607 38.1051 23.6903 38.019ZM25.42 33.6431H25.1392C25.1557 33.6895 25.1704 33.7287 25.1842 33.7658L25.1842 33.766L25.1843 33.7661L25.1844 33.7663C25.1937 33.7914 25.2027 33.8155 25.2117 33.8402C25.2331 33.8212 25.2571 33.8055 25.2814 33.7897C25.3354 33.7546 25.3905 33.7187 25.42 33.6431ZM23.1138 34.6066C23.152 34.598 23.1916 34.5894 23.2347 34.5801L23.2352 34.58C23.276 34.5711 23.3199 34.5616 23.3686 34.5508C23.3467 34.6319 23.3026 34.6845 23.2596 34.7357C23.2404 34.7584 23.2215 34.781 23.2049 34.8056C23.1893 34.7704 23.1742 34.7378 23.1585 34.704L23.1585 34.7039L23.1584 34.7038L23.1583 34.7035L23.1582 34.7034L23.1582 34.7033L23.1581 34.7032L23.1581 34.7032L23.158 34.7029C23.144 34.6727 23.1295 34.6415 23.1138 34.6066ZM23.3945 35.2784C23.4242 35.2372 23.451 35.1999 23.4783 35.1626C23.4737 35.1579 23.4695 35.1528 23.4653 35.1477L23.4653 35.1477L23.4653 35.1477C23.4611 35.1426 23.4569 35.1375 23.4523 35.1328L23.19 35.1998L23.1621 35.2444C23.295 35.2225 23.2926 35.2899 23.2895 35.3749C23.2889 35.3911 23.2883 35.4079 23.2886 35.4248C23.3294 35.3688 23.3635 35.3215 23.3944 35.2785L23.3945 35.2784ZM24.6872 33.5372L24.6869 33.5374C24.6859 33.5318 24.6844 33.5266 24.683 33.5217L24.683 33.5217L24.683 33.5217L24.683 33.5216L24.683 33.5216C24.6818 33.5174 24.6806 33.5133 24.6798 33.5093H24.4101C24.4236 33.551 24.4371 33.5911 24.4511 33.6328L24.4511 33.6329L24.4512 33.6329L24.4733 33.699C24.5135 33.6681 24.5532 33.6383 24.5925 33.6087L24.5928 33.6085L24.5929 33.6084C24.6243 33.5848 24.6556 33.5613 24.6869 33.5374L24.6872 33.539V33.5372ZM23.5002 35.9015L23.5248 35.9546H23.5267C23.5624 35.9124 23.5968 35.8708 23.6308 35.8299L23.631 35.8296L23.6314 35.8291L23.6314 35.8291L23.6314 35.829L23.6315 35.829C23.6556 35.7998 23.6795 35.771 23.7034 35.7426C23.6996 35.737 23.6955 35.7319 23.6913 35.7267C23.6871 35.7216 23.6829 35.7165 23.6792 35.7109C23.5936 35.7277 23.5081 35.7444 23.4337 35.7574C23.4561 35.8065 23.4764 35.8502 23.5002 35.9015ZM26.4634 34.2643C26.4057 34.175 26.4262 34.1025 26.4987 34.0578C26.5619 34.0188 26.6345 34.0243 26.7237 34.1118C26.5675 34.0894 26.5006 34.1527 26.4634 34.2643ZM22.9222 36.1426C22.9873 36.0868 23.0394 36.0422 23.0896 35.9994H23.0915C23.0882 35.9939 23.0855 35.9878 23.0828 35.9814C23.0809 35.9769 23.0789 35.9724 23.0766 35.9678H22.8664C22.876 35.9984 22.885 36.0265 22.8944 36.0554L22.8944 36.0556L22.8946 36.0562C22.9034 36.0834 22.9124 36.1112 22.9222 36.1426ZM22.8925 35.5217L22.8427 35.564C22.8096 35.5921 22.7765 35.6202 22.7418 35.65C22.7158 35.5923 22.6953 35.5458 22.6693 35.4863H22.8794C22.8813 35.4919 22.8836 35.498 22.886 35.504L22.886 35.504L22.8898 35.5143L22.8925 35.5217ZM22.2806 34.0245C22.2769 34.058 22.2713 34.1026 22.2601 34.1863L22.5744 33.9706L22.5614 33.9482C22.4722 33.9724 22.3829 33.9966 22.2806 34.0245ZM24.5588 35.8672L24.5589 35.8672L24.5812 35.8951C24.5555 35.9273 24.5291 35.9594 24.5007 35.9941C24.4799 36.0195 24.4579 36.0463 24.4343 36.0755C24.4064 36.0141 24.3859 35.9695 24.3543 35.9025C24.4324 35.8895 24.4956 35.8784 24.5588 35.8672ZM24.9221 35.364C24.8931 35.3674 24.8623 35.3709 24.8286 35.3745H24.8304C24.8455 35.4228 24.857 35.4614 24.8717 35.511L24.8825 35.5474C24.9436 35.4808 24.9881 35.4325 25.0326 35.3844L25.0331 35.3838C25.0294 35.3791 25.0262 35.374 25.0229 35.3689L25.0187 35.3623L25.0164 35.359L25.0127 35.354C24.9835 35.3569 24.9538 35.3603 24.9221 35.364ZM22.3587 34.5712V34.4132C22.435 34.4039 22.5038 34.3964 22.6116 34.3853C22.5693 34.4162 22.5323 34.4436 22.4968 34.4698L22.4962 34.4703L22.4962 34.4703L22.4961 34.4704L22.496 34.4704L22.4959 34.4705L22.4956 34.4708L22.4952 34.471C22.4501 34.5044 22.4073 34.5361 22.3587 34.5712ZM25.3814 34.2944C25.3015 34.2987 25.2428 34.3018 25.1652 34.305L25.2187 34.3938L25.2187 34.3939C25.234 34.4194 25.248 34.4427 25.2638 34.4687C25.314 34.4129 25.3568 34.3664 25.4256 34.292L25.3814 34.2944ZM23.2533 34.069C23.2105 34.1155 23.1677 34.162 23.1138 34.2178C23.1023 34.1899 23.0922 34.1648 23.0825 34.1406L23.0825 34.1405L23.0824 34.1404L23.0823 34.1402C23.0701 34.1098 23.0584 34.0806 23.045 34.0486L23.1162 34.0427C23.1576 34.0393 23.1956 34.0361 23.2328 34.0337C23.2356 34.0392 23.2388 34.0453 23.2421 34.0513L23.2421 34.0514C23.2454 34.0574 23.2486 34.0635 23.2514 34.069H23.2533ZM25.0015 33.1183V33.2652L25.0144 33.2601C25.0873 33.2309 25.1513 33.2052 25.1689 33.1016C25.1314 33.1058 25.0988 33.1089 25.068 33.1118L25.0678 33.1118L25.0675 33.1118L25.0674 33.1118L25.0673 33.1118C25.0449 33.1139 25.0234 33.116 25.0015 33.1183ZM23.8391 36.3789L23.8384 36.3773C23.8809 36.3151 23.9076 36.2745 23.9456 36.2167L23.96 36.1948C23.9267 36.1999 23.8998 36.2038 23.8762 36.2073L23.8761 36.2073C23.8391 36.2128 23.8099 36.217 23.7759 36.2227C23.7962 36.2744 23.811 36.3114 23.8384 36.3773L23.8373 36.3789H23.8391ZM22.4201 36.3657H22.5968C22.4907 36.5108 22.4889 36.5108 22.4201 36.3657ZM25.4423 34.9282C25.423 34.9454 25.4043 34.9626 25.3844 34.9808C25.3699 34.9942 25.3547 35.0081 25.3381 35.0231C25.3234 35.0044 25.3107 34.9877 25.2962 34.9688C25.2834 34.9519 25.2691 34.9333 25.2507 34.9096C25.3214 34.9003 25.3753 34.8947 25.4292 34.8892L25.4293 34.8892C25.433 34.9022 25.4367 34.9152 25.4423 34.9282ZM24.2927 33.1081C24.2684 33.1066 24.2467 33.1053 24.2223 33.1035L24.2241 33.1054L24.2263 33.1199C24.2328 33.1616 24.2383 33.1976 24.2483 33.256C24.276 33.2293 24.2983 33.2074 24.3213 33.1849C24.343 33.1636 24.3653 33.1418 24.3934 33.1147C24.351 33.1117 24.3201 33.1098 24.2927 33.1081ZM21.2986 36.2749C21.2832 36.2879 21.2674 36.3009 21.2505 36.3148C21.2286 36.3328 21.2049 36.3523 21.1777 36.3753C21.1648 36.3349 21.156 36.3043 21.1442 36.2627L21.1442 36.2626L21.1386 36.2433C21.1936 36.2397 21.2401 36.2379 21.2846 36.2361L21.2911 36.2358C21.293 36.2423 21.2944 36.2489 21.2958 36.2554C21.2972 36.2619 21.2986 36.2684 21.3004 36.2749H21.2986ZM21.8222 36.3763C21.8738 36.3321 21.9127 36.2987 21.9756 36.2451H21.7933C21.8004 36.2807 21.8065 36.3087 21.8139 36.3433L21.8212 36.3772L21.8222 36.3763ZM22.2713 36.0312C22.2646 35.9903 22.2604 35.9616 22.2569 35.9375C22.2535 35.9146 22.2507 35.8959 22.2471 35.875H22.4126C22.3921 35.8979 22.3743 35.9174 22.356 35.9375L22.3559 35.9376L22.3558 35.9377C22.331 35.9648 22.3054 35.9928 22.2713 36.0312ZM23.3189 36.4523L23.3202 36.4515V36.4533L23.3189 36.4523ZM23.3189 36.4523C23.2982 36.4659 23.2796 36.4779 23.2626 36.4888L23.2622 36.489L23.2621 36.4891C23.2357 36.5061 23.2131 36.5206 23.1919 36.5352C23.186 36.5306 23.1803 36.5269 23.1755 36.5238C23.1665 36.518 23.1603 36.514 23.1603 36.5091C23.1603 36.5038 23.1599 36.4976 23.1596 36.4911C23.1586 36.4707 23.1574 36.4478 23.1658 36.4422C23.2102 36.4126 23.26 36.4051 23.3189 36.4523ZM25.8031 33.2485C25.7436 33.3062 25.7101 33.3378 25.6655 33.3787C25.6552 33.3545 25.6464 33.3341 25.6376 33.3136L25.6375 33.3136C25.6287 33.2931 25.6199 33.2727 25.6097 33.2485H25.8031Z" fill="#474D57"/>
</svg>
