<svg width="136" height="68" viewBox="0 0 136 68" fill="none" xmlns="http://www.w3.org/2000/svg">
<g clip-path="url(#clip0_3773_5368)">
<path fill-rule="evenodd" clip-rule="evenodd" d="M24.7248 20.7245H31.5038L31.5037 20.7246C29.8212 24.6291 28.1537 28.5279 26.4836 32.4331C24.8103 36.3455 23.1343 40.2643 21.4378 44.2015H14.6587L17.3876 37.8688C15.7732 34.1243 14.1596 30.379 12.5461 26.6338C11.6974 24.664 10.8488 22.6942 10 20.7245H16.7791L20.7519 29.9442L24.7248 20.7245ZM125 13.0492H117.704L111.107 28.5821H118.403L125 13.0492ZM117.014 34.088C117.014 31.8744 115.172 30.0801 112.9 30.0801C110.629 30.0801 108.787 31.8746 108.787 34.088C108.787 36.3015 110.629 38.0959 112.9 38.0959C115.172 38.0959 117.014 36.3015 117.014 34.088ZM107.805 29.2709C107.805 24.2934 103.664 20.2582 98.5557 20.2582C93.4474 20.2582 89.3062 24.2932 89.3062 29.2709C89.3062 34.2484 93.4473 38.2836 98.5557 38.2836C103.664 38.2836 107.805 34.2486 107.805 29.2709ZM102.167 29.271C102.167 27.3274 100.55 25.7518 98.5557 25.7518C96.5611 25.7518 94.944 27.3274 94.944 29.271C94.944 31.2147 96.5611 32.7903 98.5557 32.7903C100.55 32.7903 102.167 31.2147 102.167 29.271ZM87.9479 29.2709C87.9479 24.2934 83.8069 20.2582 78.6984 20.2582C73.5901 20.2582 69.4489 24.2932 69.4489 29.2709C69.4489 34.2484 73.59 38.2836 78.6984 38.2836C83.8067 38.2836 87.9479 34.2486 87.9479 29.2709ZM82.3101 29.271C82.3101 27.3274 80.6931 25.7518 78.6984 25.7518C76.7037 25.7518 75.0867 27.3274 75.0867 29.271C75.0867 31.2147 76.7037 32.7903 78.6984 32.7903C80.6931 32.7903 82.3101 31.2147 82.3101 29.271ZM57.5075 13.0002H51.3911L51.3909 13V38.0959H57.5074L57.5083 28.0389C57.4778 26.8479 58.4504 25.8665 59.6754 25.8665C60.8728 25.8665 61.8435 26.8123 61.8435 27.979V38.0959H67.9599V27.979C67.9146 21.7736 65.6475 20.2582 62.1126 20.2582C58.5776 20.2582 57.5075 22.2656 57.5075 22.2656V13.0002ZM49.179 20.7245H43.0626V20.7248V22.0839C41.6929 20.9385 39.9858 20.2585 38.1347 20.2585C33.624 20.2585 29.9673 24.2935 29.9673 29.2712C29.9673 34.2487 33.624 38.2839 38.1347 38.2839C39.9858 38.2839 41.6928 37.6038 43.0626 36.4585V38.0961H49.179V20.7245ZM43.2291 29.271C43.2291 27.3274 41.6121 25.7518 39.6174 25.7518C37.6227 25.7518 36.0057 27.3274 36.0057 29.271C36.0057 31.2147 37.6227 32.7903 39.6174 32.7903C41.6121 32.7903 43.2291 31.2147 43.2291 29.271ZM54.4269 53.83H53.2531C52.8441 53.8312 52.665 53.6373 52.6904 53.2333C52.7145 52.8529 52.7387 52.4712 52.7399 52.0908C52.7449 50.9179 52.7444 49.745 52.744 48.5721L52.7438 47.5668C52.7438 47.1665 52.4656 46.8868 52.0603 46.8769C52.0112 46.8757 51.9617 46.8764 51.9122 46.8772C51.8556 46.878 51.799 46.8788 51.7428 46.8769C51.4544 46.8644 51.3655 46.7786 51.3668 46.4964C51.3668 46.4005 51.3731 46.3049 51.3795 46.2092C51.3862 46.1091 51.3928 46.0089 51.3922 45.9084C51.3902 45.5792 51.3828 45.2493 51.3755 44.9197L51.3755 44.9193L51.3693 44.6391C51.363 44.3296 51.41 44.2798 51.7275 44.2736C51.7925 44.2722 51.857 44.2728 51.9216 44.2733C51.9732 44.2737 52.0249 44.2742 52.0769 44.2736C52.5011 44.2674 52.6879 44.0996 52.7425 43.6844C52.7642 43.5179 52.7875 43.3515 52.8108 43.185C52.8462 42.9323 52.8816 42.6795 52.9114 42.4263C52.9368 42.2062 52.9749 41.9986 53.1566 41.842C53.1947 41.8096 53.2227 41.7574 53.2354 41.7089C53.3463 41.3083 53.634 41.0428 53.9214 40.7775C54.0059 40.6996 54.0904 40.6217 54.1703 40.5403C54.2065 40.5039 54.2606 40.4837 54.3138 40.4637C54.3315 40.4571 54.3491 40.4505 54.3659 40.4434C54.3956 40.4301 54.4285 40.4201 54.4613 40.4101C54.5236 40.3911 54.5855 40.3722 54.6238 40.3315C54.8149 40.131 55.0605 40.0843 55.3087 40.0371C55.3591 40.0275 55.4095 40.0179 55.4596 40.007C55.5628 39.9839 55.6624 39.9446 55.762 39.9053C55.8181 39.8831 55.8741 39.8609 55.9309 39.8417C55.9523 39.8343 55.9738 39.8264 55.9955 39.8184C56.0726 39.7899 56.151 39.761 56.2294 39.7571C56.6613 39.736 57.0945 39.7248 57.5276 39.7186C57.78 39.715 57.995 39.8218 58.2098 39.9285C58.2967 39.9716 58.3835 40.0147 58.4727 40.0505C58.5375 40.0766 58.5794 40.2221 58.5845 40.3153C58.5949 40.511 58.5941 40.7072 58.5933 40.9037V40.9037V40.9037V40.9038C58.593 40.9968 58.5926 41.09 58.5934 41.1831L58.5952 41.363C58.5982 41.6645 58.6012 41.9654 58.6087 42.2671C58.6163 42.5319 58.5464 42.6015 58.2809 42.5879C58.1616 42.5819 58.0423 42.5783 57.9231 42.5747C57.768 42.5701 57.6129 42.5654 57.4578 42.5555C56.9827 42.5257 56.6575 42.8154 56.3666 43.1013C56.1507 43.3126 56.1151 43.6458 56.1278 43.9467C56.1354 44.1257 56.3006 44.2251 56.4771 44.2587C56.5794 44.2778 56.6859 44.2776 56.7918 44.2774L56.8252 44.2774C56.9953 44.2778 57.1653 44.2775 57.3353 44.2771H57.3353H57.3354H57.3354C57.6412 44.2765 57.9468 44.2758 58.253 44.2798C58.4842 44.2823 58.5223 44.3097 58.5261 44.526C58.5375 45.2172 58.5401 45.9097 58.5299 46.6009C58.5274 46.8296 58.4524 46.8843 58.2098 46.8868C57.7233 46.8918 57.2367 46.893 56.7502 46.8806C56.5178 46.8744 56.345 46.9564 56.1977 47.1243C56.0948 47.2424 56.0389 47.358 56.0694 47.5183C56.0935 47.6389 56.0948 47.7645 56.0948 47.8888C56.1011 49.6865 56.1062 51.4829 56.11 53.2805C56.11 53.692 55.9614 53.8337 55.5358 53.8325H54.4262L54.4269 53.83ZM54.4262 53.8325L54.4256 53.835V53.8325H54.4262ZM114.294 49.779H114.294C114.468 49.7787 114.642 49.7783 114.816 49.7783L114.815 49.7759V49.7411C114.949 49.7411 115.083 49.7405 115.217 49.7399C115.485 49.7388 115.753 49.7377 116.02 49.7411C116.264 49.7443 116.507 49.7499 116.751 49.7555H116.751H116.751H116.752H116.752C117.068 49.7628 117.383 49.77 117.7 49.7721C118.03 49.7746 118.105 49.7062 118.099 49.3954C118.088 48.8385 118.069 48.2803 118.035 47.7246C118.026 47.5767 117.985 47.4039 117.895 47.2932C117.768 47.1378 117.72 46.9725 117.683 46.7885L117.683 46.7867C117.659 46.6703 117.631 46.5345 117.554 46.4516C117.423 46.3099 117.34 46.1557 117.26 45.9841C117.206 45.8677 117.114 45.7676 117.022 45.6681C116.989 45.6327 116.957 45.5974 116.926 45.5615C116.861 45.4856 116.789 45.4148 116.714 45.3489C116.695 45.3322 116.67 45.3199 116.645 45.3078C116.61 45.2909 116.576 45.2744 116.56 45.2469C116.452 45.0664 116.277 44.9684 116.103 44.8704C115.988 44.8058 115.873 44.7411 115.776 44.6527C115.728 44.6083 115.657 44.5903 115.584 44.5721C115.518 44.5556 115.452 44.5389 115.402 44.5023C115.136 44.3096 114.843 44.225 114.519 44.1964C114.427 44.1884 114.337 44.1639 114.246 44.1393C114.184 44.1221 114.121 44.105 114.056 44.0933L114.003 44.0836C113.617 44.0131 113.228 43.9422 112.832 44.01C112.71 44.0307 112.589 44.0565 112.467 44.0823L112.467 44.0824C112.268 44.1248 112.069 44.1672 111.868 44.1865C111.483 44.2238 111.112 44.271 110.806 44.5296C110.777 44.5545 110.73 44.5669 110.689 44.5731C110.412 44.6122 110.194 44.7688 109.981 44.9227L109.981 44.9227C109.916 44.9696 109.852 45.0162 109.786 45.0592C109.582 45.192 109.409 45.3703 109.236 45.5487C109.163 45.6241 109.09 45.6995 109.015 45.7716C108.995 45.7907 108.982 45.8169 108.969 45.842L108.965 45.8499C108.912 45.9488 108.844 46.04 108.776 46.1313C108.65 46.3016 108.523 46.4722 108.49 46.694C108.485 46.7301 108.448 46.7711 108.415 46.791C108.239 46.8991 108.217 47.0732 108.197 47.2497C108.161 47.5468 108.106 47.8377 107.977 48.1162C107.908 48.2629 107.885 48.4357 107.878 48.5986C107.864 48.9181 107.868 49.2388 107.88 49.5583C107.885 49.6901 107.908 49.8306 107.965 49.9474C108.113 50.2532 108.171 50.5752 108.195 50.9059C108.207 51.0663 108.268 51.1943 108.381 51.3187C108.448 51.3922 108.488 51.489 108.528 51.5854C108.538 51.6071 108.547 51.6289 108.556 51.6503C108.563 51.6655 108.569 51.6805 108.576 51.6953C108.59 51.7243 108.601 51.7599 108.611 51.7952C108.629 51.86 108.648 51.9233 108.687 51.9403C108.813 51.9942 108.878 52.1033 108.943 52.2116C109.016 52.3331 109.088 52.4534 109.243 52.4935C109.473 52.8167 109.75 53.0877 110.135 53.2332C110.154 53.241 110.171 53.2564 110.187 53.272C110.202 53.286 110.217 53.3002 110.234 53.309C110.383 53.3811 110.533 53.4507 110.683 53.5191C110.724 53.5383 110.769 53.5544 110.813 53.5705C110.898 53.6014 110.983 53.6322 111.05 53.6844C111.198 53.8025 111.358 53.856 111.541 53.8722C111.584 53.8759 111.627 53.8794 111.669 53.8829C111.795 53.8931 111.921 53.9033 112.046 53.9219C112.815 54.0338 113.583 54.0164 114.351 53.9182C114.368 53.9161 114.386 53.9137 114.403 53.9112C114.438 53.9062 114.474 53.9012 114.509 53.8995L114.543 53.898C114.901 53.8826 115.261 53.8672 115.54 53.5937C115.881 53.539 116.166 53.3823 116.42 53.1573C116.544 53.0479 116.682 52.951 116.823 52.8627C117.038 52.7285 117.186 52.536 117.333 52.3435C117.412 52.24 117.492 52.1365 117.582 52.0422C117.789 51.8259 117.679 51.5325 117.383 51.4492C117.301 51.4262 117.217 51.4081 117.133 51.3899C117.063 51.3746 116.992 51.3592 116.922 51.341C116.831 51.3174 116.742 51.2876 116.654 51.2528C116.588 51.2266 116.523 51.1976 116.458 51.1687C116.323 51.1084 116.187 51.0481 116.044 51.0128L116.04 51.0118C115.816 50.9562 115.604 50.9038 115.407 50.7654C115.223 50.6349 114.984 50.6038 114.781 50.7381C114.6 50.8574 114.434 51.0041 114.28 51.157C114.138 51.3 113.966 51.3734 113.774 51.3821L113.653 51.3874C113.345 51.4014 113.035 51.4155 112.73 51.3858C112.131 51.3274 111.708 50.9867 111.408 50.4894C111.376 50.4372 111.35 50.3788 111.332 50.3204C111.256 50.0581 111.351 49.8716 111.621 49.792C111.751 49.7547 111.892 49.7435 112.028 49.7448C112.202 49.7466 112.376 49.7538 112.551 49.7609C112.725 49.7681 112.899 49.7752 113.073 49.7771C113.48 49.7806 113.887 49.7798 114.294 49.779ZM113.082 47.9931V47.977H113.114L113.414 47.9818C113.715 47.9867 114.017 47.9916 114.319 47.9944C114.702 47.9981 114.831 47.8365 114.76 47.4673C114.73 47.3044 114.651 47.1838 114.514 47.0881C114.459 47.0507 114.411 47.0053 114.363 46.96L114.362 46.96L114.362 46.9599C114.327 46.927 114.292 46.8941 114.255 46.8643L114.235 46.8484C114.169 46.7959 114.101 46.742 114.023 46.7126L114.006 46.7058C113.798 46.6247 113.587 46.5421 113.371 46.4914C113.21 46.4541 113.009 46.4118 112.876 46.474C112.757 46.5301 112.627 46.5654 112.496 46.6006C112.231 46.6721 111.967 46.7437 111.793 46.9911C111.528 47.0767 111.457 47.3004 111.386 47.5253L111.383 47.5369C111.309 47.7706 111.383 47.9161 111.626 47.9708C111.722 47.9919 111.822 47.9924 111.922 47.9928L111.973 47.9931C112.22 47.9948 112.467 47.9942 112.714 47.9937C112.837 47.9934 112.959 47.9931 113.082 47.9931ZM92.1778 45.0831C92.1392 45.0941 92.1002 45.1051 92.0615 45.1176L92.0603 45.1201C91.8599 45.0036 91.8398 44.8099 91.8198 44.6174L91.8189 44.6091C91.7846 44.2834 91.7668 44.266 91.434 44.266H88.9608L88.8973 44.2663C88.8549 44.2666 88.8126 44.2668 88.7702 44.266C88.6038 44.2635 88.5136 44.3369 88.5086 44.5047C88.5075 44.538 88.506 44.5712 88.5044 44.6044C88.5021 44.6497 88.4995 44.695 88.4969 44.7403C88.49 44.8577 88.4832 44.975 88.4832 45.0927C88.4823 46.8614 88.4826 48.6306 88.4829 50.3997L88.4832 53.0528C88.4832 53.1971 88.4882 53.3413 88.5009 53.4855C88.5314 53.8174 88.5467 53.8311 88.882 53.8311C89.1902 53.8311 89.4986 53.8303 89.807 53.8295H89.8071H89.8072H89.8074H89.8075C90.2706 53.8283 90.7337 53.8271 91.1965 53.8286L91.2078 53.8286C91.8316 53.8311 91.8329 53.8311 91.8329 53.2169C91.8342 51.7923 91.8354 50.3676 91.8303 48.9429C91.8278 48.3064 92.0501 47.7817 92.5277 47.3329C92.7437 47.1303 92.9584 47.0582 93.2315 47.0669C93.2851 47.0683 93.3387 47.0688 93.3924 47.0693C93.5296 47.0706 93.6667 47.072 93.8018 47.088C93.8996 47.0992 94.0114 47.1403 94.0813 47.2049C94.4802 47.5679 94.7711 47.9844 94.6999 48.5562C94.694 48.6035 94.696 48.6518 94.6979 48.7002C94.6989 48.7243 94.6999 48.7485 94.6999 48.7726L94.6885 53.294C94.6872 53.7602 94.7571 53.8286 95.2373 53.8286C95.4981 53.8286 95.7589 53.8283 96.0196 53.828H96.0197H96.0198H96.02H96.0201C96.5412 53.8275 97.062 53.8269 97.5835 53.8286C97.9925 53.8311 98.0624 53.7764 98.1081 53.386C98.1142 53.3373 98.1138 53.2877 98.1134 53.238L98.1132 53.2008V53.197V53.1933V53.1896V53.1858V53.1821V53.1783V53.1746C98.1119 51.7698 98.1106 50.3638 98.1081 48.9578C98.1079 48.8066 98.109 48.6553 98.1101 48.504V48.5039C98.1155 47.7684 98.1209 47.0328 97.9734 46.3048C97.9383 46.1367 97.8664 45.9741 97.7959 45.8151L97.7854 45.7914C97.7493 45.7086 97.7004 45.6307 97.6513 45.5525L97.6315 45.5209L97.6119 45.4893L97.6021 45.4731L97.5873 45.4483C97.5731 45.4239 97.5602 45.3984 97.5473 45.3729C97.5174 45.3139 97.4877 45.2551 97.4425 45.2108C97.3972 45.166 97.3522 45.1208 97.3072 45.0755L97.3065 45.0748C96.8974 44.6628 96.4873 44.25 95.8444 44.184C95.8157 44.1804 95.7876 44.1682 95.7597 44.1561C95.7482 44.1511 95.7366 44.1461 95.725 44.1417C95.2677 43.9676 94.8015 43.9378 94.3252 44.0472C94.0483 44.1106 93.7713 44.174 93.4982 44.2486C93.1667 44.3394 92.9101 44.5407 92.6878 44.7931C92.6141 44.8764 92.5201 44.9485 92.421 44.9982C92.3453 45.0358 92.2623 45.0592 92.1779 45.0831L92.1778 45.0831ZM83.4747 53.6332L83.4748 53.6348C83.4788 53.6881 83.4829 53.7448 83.4884 53.8064L83.4935 53.8114C83.5436 53.8142 83.5881 53.8175 83.6291 53.8205C83.6973 53.8256 83.7557 53.83 83.8136 53.83C84.0778 53.8337 84.342 53.835 84.6062 53.835C84.8075 53.835 85.0085 53.8353 85.2095 53.8355H85.2098C85.6114 53.8361 86.0126 53.8366 86.4139 53.835C86.6984 53.8337 86.7391 53.7927 86.7606 53.5142C86.7657 53.4222 86.7657 53.329 86.7657 53.2358V44.7809C86.7657 44.6889 86.7632 44.5981 86.7607 44.5062V44.506L86.7606 44.5024C86.7568 44.3544 86.6844 44.2699 86.5269 44.2699H86.3364L85.5329 44.2689H85.5326H85.5323H85.532H85.5317C84.9966 44.2684 84.4614 44.2678 83.9266 44.2662L83.9192 44.2661C83.5074 44.2649 83.5072 44.2649 83.4604 44.6764L83.4596 44.6836L83.4581 44.6973L83.4566 44.7113C83.4556 44.7201 83.4545 44.7288 83.4528 44.7373C83.4096 44.9686 83.2851 45.0519 83.0489 45.0071C82.8787 44.9748 82.7491 44.8865 82.6144 44.7759C82.3845 44.5869 82.133 44.3967 81.8573 44.296C81.494 44.1642 81.1015 44.1008 80.7166 44.0424C80.1981 43.9635 79.702 44.0799 79.2065 44.1962C79.0465 44.2338 78.8867 44.2713 78.7261 44.3022C78.6855 44.3097 78.6448 44.3321 78.613 44.3569C78.4765 44.4649 78.3244 44.5474 78.1714 44.6304C78.0057 44.7204 77.8389 44.8109 77.6896 44.935C77.3605 45.2098 77.0531 45.4795 76.8207 45.8438C76.779 45.909 76.7327 45.9712 76.6865 46.0332C76.5681 46.1923 76.4504 46.3504 76.4129 46.5561C76.4028 46.6108 76.3507 46.6643 76.3062 46.7066C76.1698 46.8388 76.1389 47.0042 76.1061 47.1795L76.1055 47.1827C76.0382 47.5469 75.9582 47.9087 75.8654 48.268C75.7193 48.8324 75.7346 49.3893 75.8946 49.9475C75.9636 50.1883 76.0203 50.4313 76.0772 50.6755L76.0773 50.6757L76.0773 50.6758L76.0774 50.676L76.0774 50.6762L76.0775 50.6764L76.0775 50.6766L76.089 50.7258C76.0993 50.77 76.1033 50.8165 76.1073 50.8629V50.863L76.1074 50.8631C76.1133 50.9314 76.1192 50.9995 76.1449 51.0602C76.1925 51.1713 76.2542 51.276 76.316 51.3807C76.4208 51.5582 76.5256 51.7358 76.5615 51.9453C76.6925 52.0245 76.7665 52.146 76.8403 52.2673L76.8404 52.2674L76.8405 52.2675L76.8405 52.2676C76.8791 52.3309 76.9176 52.3942 76.9642 52.4513C77.1408 52.6689 77.325 52.8926 77.5511 53.0543C77.625 53.1068 77.6957 53.1653 77.7667 53.224C77.968 53.3905 78.1713 53.5586 78.453 53.5963C78.4809 53.6 78.5114 53.6236 78.5317 53.646C78.7159 53.8536 78.9624 53.8859 79.2228 53.8922C79.36 53.8947 79.4972 53.9058 79.6331 53.9245C80.3012 54.0152 80.9694 53.9568 81.6224 53.8511C81.9425 53.7989 82.2537 53.5801 82.5192 53.3762L82.5371 53.3624C82.6814 53.2507 82.816 53.1465 82.9917 53.0916C83.2724 53.0045 83.4109 53.0866 83.4503 53.3713C83.4616 53.4543 83.4678 53.5383 83.4747 53.6327L83.4747 53.633L83.4747 53.6332ZM82.9434 47.6563C83.3969 48.1002 83.524 48.5067 83.4884 49.137L83.4859 49.1382C83.4825 49.1802 83.4805 49.2226 83.4784 49.2651V49.2652C83.4735 49.3674 83.4685 49.4701 83.4452 49.5684C83.416 49.6927 83.3512 49.812 83.289 49.9264C83.271 49.9604 83.2438 49.9896 83.2166 50.0188L83.2166 50.0188C83.1861 50.0515 83.1559 50.084 83.1391 50.1228C83.0306 50.3753 82.8298 50.5294 82.6197 50.6907L82.6191 50.6912C82.5956 50.7092 82.572 50.7273 82.5484 50.7457C82.1317 51.0689 81.6579 51.0826 81.1727 51.0726C81.0486 51.0697 80.9245 51.0432 80.8011 51.0168L80.8006 51.0167L80.8001 51.0166L80.7524 51.0065L80.7052 50.9968L80.6919 50.9942C80.6141 50.9788 80.5289 50.962 80.4677 50.9185C80.1209 50.6723 79.7817 50.4137 79.5213 50.0743C79.4763 50.0149 79.4494 49.9412 79.4229 49.8684C79.4172 49.8528 79.4115 49.8373 79.4057 49.822C79.3454 49.6641 79.2882 49.5041 79.2313 49.3449L79.2152 49.2998C79.1516 49.1183 79.1453 48.9393 79.2202 48.7566C79.2556 48.671 79.2853 48.5832 79.3149 48.4955L79.315 48.4954L79.315 48.4953L79.315 48.4952L79.315 48.4952L79.3151 48.4951C79.3482 48.397 79.3813 48.2991 79.4222 48.2046C79.4665 48.1032 79.5299 48.009 79.5932 47.9151L79.6267 47.8652C79.7441 47.689 79.9105 47.5656 80.0771 47.4421C80.1773 47.3678 80.2776 47.2935 80.3673 47.2076C80.4168 47.1591 80.488 47.118 80.5566 47.1031C81.099 46.9863 81.6566 46.944 82.1813 47.123C82.4658 47.22 82.725 47.4413 82.9434 47.6563ZM64.927 49.01V44.8292C64.927 44.2896 64.9359 44.2797 65.4935 44.2784C66.2964 44.2772 67.1005 44.2759 67.9033 44.2772C68.1827 44.2772 68.1942 44.3008 68.2348 44.5706C68.2602 44.7409 68.311 44.91 68.3695 45.0741C68.405 45.176 68.5067 45.2133 68.6045 45.1574C68.6588 45.1259 68.7184 45.1009 68.7781 45.0758C68.9403 45.0076 69.1034 44.939 69.1647 44.7409C69.1761 44.7048 69.2104 44.6626 69.2447 44.6489C69.3709 44.5984 69.4883 44.5289 69.6059 44.4593C69.8446 44.318 70.0836 44.1764 70.3968 44.1939C70.5226 44.2005 70.6502 44.1669 70.7785 44.1331L70.7785 44.1331C70.8679 44.1096 70.9576 44.086 71.0472 44.0758C71.2543 44.0522 71.4715 44.036 71.676 44.0658C72.0088 44.1143 72.348 44.1728 72.663 44.2859C72.9133 44.3766 73.161 44.5246 73.3553 44.7036C73.3889 44.7345 73.4229 44.7652 73.457 44.7959C73.7073 45.0217 73.9627 45.2522 74.0667 45.5925C74.0781 45.631 74.0959 45.6795 74.1264 45.6994C74.3413 45.8368 74.3641 46.0436 74.3875 46.2568C74.3913 46.2905 74.395 46.3244 74.3995 46.3583C74.5024 47.139 74.5138 47.921 74.5075 48.7067C74.4973 50.0381 74.5037 51.3696 74.51 52.7023C74.51 52.885 74.5405 53.0702 74.5799 53.2505C74.6358 53.5103 74.4059 53.8249 74.1315 53.8261C73.3071 53.8311 72.4827 53.8323 71.6582 53.8286C71.2987 53.8273 71.1514 53.6595 71.1565 53.3002C71.1599 53.0173 71.1634 52.7343 71.167 52.4513C71.1822 51.2487 71.1974 50.046 71.1984 48.8434C71.1984 48.5164 71.1349 48.1858 71.0701 47.8638C71.0472 47.7507 70.9571 47.6443 70.8753 47.5478L70.8618 47.5318C70.7678 47.4212 70.6598 47.3193 70.5442 47.231C70.4578 47.1651 70.3511 47.093 70.2495 47.0868C70.0193 47.0712 69.7883 47.0747 69.5571 47.0781C69.4924 47.0791 69.4276 47.08 69.3628 47.0806C69.3108 47.0806 69.2434 47.0806 69.2104 47.1117C69.1435 47.1736 69.0681 47.228 68.9927 47.2824C68.8077 47.416 68.6223 47.5499 68.56 47.7954C68.5397 47.875 68.5092 47.9558 68.4635 48.0229C68.2666 48.3175 68.264 48.6495 68.2653 48.9789C68.2672 50.0391 68.2734 51.1 68.2796 52.1605L68.2796 52.1619C68.2817 52.5148 68.2837 52.8678 68.2856 53.2207C68.2856 53.2617 68.2856 53.304 68.2818 53.345C68.2424 53.7888 68.1954 53.8273 67.7445 53.8249C67.1692 53.8219 66.5948 53.8221 66.0198 53.8223H66.0197H66.0197H66.0196H66.0195H66.0194L65.5888 53.8224L65.5528 53.8225L65.5021 53.8228H65.502H65.5018H65.5018H65.5017H65.5017C65.4147 53.8235 65.3274 53.8242 65.2408 53.8186C65.0324 53.805 64.988 53.7677 64.9511 53.5638C64.9334 53.4631 64.9308 53.3587 64.9308 53.2555V49.0125L64.927 49.01ZM106.834 47.3493L106.835 47.3492L106.834 47.3505L106.834 47.3493ZM106.849 47.2551C106.844 47.2863 106.838 47.3176 106.834 47.3493C106.821 47.3499 106.81 47.3506 106.801 47.3513C106.785 47.3525 106.774 47.3537 106.765 47.3546C106.749 47.3563 106.743 47.3569 106.74 47.3542C106.359 47.0398 105.905 47.0288 105.454 47.018C105.362 47.0157 105.269 47.0135 105.177 47.0086C104.925 46.9954 104.667 47.0427 104.417 47.0886L104.392 47.0931C104.296 47.1109 104.204 47.1605 104.114 47.2094L104.113 47.2094C104.084 47.2254 104.055 47.2413 104.025 47.256C104.004 47.2669 103.986 47.2841 103.968 47.3012C103.947 47.3212 103.926 47.3411 103.901 47.3505C103.627 47.4488 103.47 47.6605 103.313 47.8719L103.313 47.872C103.248 47.96 103.183 48.0478 103.109 48.1275C103.056 48.1847 103.024 48.2729 103.013 48.3512C102.978 48.5862 102.949 48.8224 102.938 49.0586C102.902 49.8008 103.283 50.308 103.88 50.727C104.316 51.0316 104.797 51.0751 105.292 51.0838C105.575 51.0887 105.862 51.0477 106.14 50.9955C106.228 50.9787 106.31 50.9301 106.391 50.8813L106.391 50.8813C106.437 50.8542 106.482 50.827 106.529 50.8053C106.54 50.8 106.552 50.7941 106.564 50.788L106.595 50.7712C106.668 50.7324 106.744 50.6916 106.804 50.7058C106.922 50.7344 106.918 50.8455 106.914 50.9462C106.913 50.964 106.912 50.9814 106.912 50.998L106.913 51.4324V51.4364C106.913 52.0126 106.913 52.589 106.91 53.1661C106.909 53.4881 106.669 53.8126 106.336 53.8412C106.125 53.8593 105.914 53.8865 105.704 53.9136L105.704 53.9137C105.151 53.985 104.598 54.0564 104.034 53.9655C103.799 53.9269 103.559 53.9104 103.32 53.8939H103.319C103.242 53.8886 103.165 53.8833 103.088 53.8772C102.893 53.8623 102.713 53.8213 102.562 53.6907L102.56 53.6892C102.529 53.6623 102.494 53.6321 102.456 53.6236C102.161 53.5603 101.911 53.4102 101.661 53.2599L101.661 53.2598C101.582 53.2123 101.503 53.1649 101.422 53.1201C101.408 53.1126 101.393 53.1069 101.378 53.1013C101.353 53.0918 101.328 53.0825 101.311 53.0654C101.249 53.0065 101.19 52.9435 101.131 52.8805C101.013 52.7547 100.896 52.629 100.755 52.5371C100.623 52.4508 100.545 52.3266 100.468 52.2027C100.394 52.0854 100.321 51.9684 100.202 51.8844C100.151 51.8485 100.13 51.7718 100.11 51.6942C100.099 51.6536 100.089 51.6128 100.073 51.5773C100.06 51.5465 100.048 51.5146 100.036 51.4826C99.9995 51.3883 99.9631 51.2932 99.9005 51.2218C99.7658 51.0713 99.7252 50.8998 99.6922 50.7145C99.6792 50.6419 99.6664 50.5692 99.6537 50.4965L99.6533 50.4943L99.6529 50.4921C99.5946 50.1604 99.5363 49.8281 99.4584 49.5C99.3924 49.2202 99.3924 48.9529 99.4534 48.6745C99.5435 48.2617 99.616 47.844 99.6858 47.4276C99.7201 47.2199 99.7595 47.021 99.9234 46.8681C99.9538 46.8408 99.9881 46.8035 99.9945 46.7674C100.039 46.5122 100.182 46.3067 100.324 46.102C100.375 46.0286 100.426 45.9553 100.472 45.8798C100.507 45.8219 100.564 45.7773 100.621 45.7324C100.655 45.7059 100.689 45.6793 100.719 45.6498C100.781 45.5876 100.841 45.5215 100.901 45.4554C101.019 45.3246 101.137 45.194 101.277 45.0941C101.486 44.9468 101.718 44.8278 101.948 44.7094C102.023 44.6709 102.098 44.6324 102.172 44.5931C102.274 44.5387 102.379 44.4904 102.484 44.4422C102.521 44.4254 102.557 44.4087 102.593 44.3917C102.619 44.3797 102.645 44.3665 102.671 44.3533C102.739 44.3185 102.807 44.2834 102.879 44.2699C103.146 44.2209 103.413 44.1763 103.681 44.1318C103.902 44.095 104.123 44.0581 104.344 44.0187C104.65 43.964 104.952 43.9727 105.257 44.0312C105.432 44.0651 105.606 44.0964 105.781 44.1277L105.781 44.1278L105.782 44.1279C105.991 44.1655 106.2 44.203 106.409 44.245C106.751 44.3134 106.897 44.4849 106.896 44.8268C106.893 45.569 106.885 46.3124 106.873 47.0546C106.872 47.1215 106.861 47.1878 106.849 47.2551ZM59.9818 49.0487V44.8716C59.9818 44.4775 60.1698 44.2885 60.5789 44.2848C61.3283 44.2786 62.0791 44.2723 62.8285 44.2686C63.2223 44.2661 63.3557 44.4029 63.3557 44.7895L63.3557 44.7969L63.3557 44.8043C63.3506 47.4722 63.3455 50.1389 63.343 52.8068C63.343 52.867 63.3492 52.9275 63.3555 52.988C63.363 53.0611 63.3706 53.1343 63.3671 53.2071C63.362 53.314 63.3328 53.4234 63.296 53.5254C63.2109 53.7653 63.0267 53.8237 62.7764 53.8188C62.2836 53.8097 61.7907 53.8105 61.2978 53.8113C61.0514 53.8117 60.805 53.8121 60.5585 53.8113C60.2041 53.8113 59.9793 53.5751 59.9793 53.227C59.981 52.2987 59.9804 51.3699 59.9799 50.4412C59.9796 49.977 59.9793 49.5127 59.9793 49.0487H59.9818Z" fill="#474D57"/>
</g>
<defs>
<clipPath id="clip0_3773_5368">
<rect width="115" height="41.0078" fill="white" transform="translate(10 13)"/>
</clipPath>
</defs>
</svg>
