<svg xmlns="http://www.w3.org/2000/svg" fill="none" viewBox="0 0 101 14" height="14" width="101">
<path fill="#1E2329" d="M11.312 13H8.702L5.606 8.608H2.834V13H0.62V0.399999H6.236C9.134 0.399999 10.916 1.93 10.916 4.396C10.916 6.484 9.674 7.744 7.91 8.23L11.312 13ZM8.666 4.522C8.666 3.136 7.694 2.416 6.056 2.416H2.834V6.646H6.074C7.658 6.646 8.666 5.818 8.666 4.522ZM22.9698 0.399999V2.38H15.8418V5.656H22.1598V7.636H15.8418V11.02H23.0598V13H13.6278V0.399999H22.9698ZM27.5584 3.694C27.5584 4.684 28.1344 5.116 30.5464 5.692C33.2104 6.34 34.5964 7.294 34.5964 9.4C34.5964 11.776 32.7424 13.18 30.0964 13.18C28.1704 13.18 26.3524 12.514 24.8404 11.164L26.1724 9.58C27.3784 10.624 28.5844 11.218 30.1504 11.218C31.5184 11.218 32.3824 10.588 32.3824 9.616C32.3824 8.698 31.8784 8.212 29.5384 7.672C26.8564 7.024 25.3444 6.232 25.3444 3.892C25.3444 1.696 27.1444 0.219999 29.6464 0.219999C31.4824 0.219999 32.9404 0.778 34.2184 1.804L33.0304 3.478C31.8964 2.632 30.7624 2.182 29.6104 2.182C28.3144 2.182 27.5584 2.848 27.5584 3.694ZM46.5421 0.399999V2.38H39.4141V5.656H45.7321V7.636H39.4141V11.02H46.6321V13H37.2001V0.399999H46.5421ZM55.7747 0.309999L61.3187 13H58.9787L57.7007 9.958H51.7427L50.4467 13H48.1787L53.7227 0.309999H55.7747ZM56.8907 7.996L54.7127 2.956L52.5527 7.996H56.8907ZM74.1714 13H71.5614L68.4654 8.608H65.6934V13H63.4794V0.399999H69.0954C71.9934 0.399999 73.7754 1.93 73.7754 4.396C73.7754 6.484 72.5334 7.744 70.7694 8.23L74.1714 13ZM71.5254 4.522C71.5254 3.136 70.5534 2.416 68.9154 2.416H65.6934V6.646H68.9334C70.5174 6.646 71.5254 5.818 71.5254 4.522ZM87.4492 10.984C86.1352 12.352 84.6952 13.216 82.3372 13.216C78.6652 13.216 75.9292 10.354 75.9292 6.718C75.9292 3.118 78.6112 0.184 82.4272 0.184C84.7492 0.184 86.1532 0.993999 87.3592 2.146L85.9372 3.784C84.9292 2.848 83.8492 2.218 82.4092 2.218C79.9972 2.218 78.2512 4.198 78.2512 6.682C78.2512 9.166 79.9972 11.182 82.4092 11.182C83.9572 11.182 84.9472 10.552 86.0272 9.544L87.4492 10.984ZM98.0023 7.69H91.9903V13H89.7763V0.399999H91.9903V5.638H98.0023V0.399999H100.216V13H98.0023V7.69Z"></path>
</svg>
