<svg xmlns="http://www.w3.org/2000/svg"><defs><linearGradient id="a" x1="0%" y1="0%" x2="0%" y2="100%"><stop offset="0%" stop-color="rgba(240,185,10,.65)"/><stop offset="80%" stop-color="rgba(240,185,10,.05)"/><stop offset="100%" stop-color="transparent"/></linearGradient></defs><path d="M0 1l4 6 5 1 4 1 4-1h5l4 2 4 6 5-2 4-4 4-1 5 2 4 4 5-3 4 2 4-1 5 1 4 1 4-2 5 2 4 14 4-4 5-1h4" stroke="rgba(240, 185, 10, 1)" fill="none"/><path d="M0 28V1l4 6 5 1 4 1 4-1h5l4 2 4 6 5-2 4-4 4-1 5 2 4 4 5-3 4 2 4-1 5 1 4 1 4-2 5 2 4 14 4-4 5-1h4v4" fill="url(#a)"/></svg>