<svg width="15" height="15" viewBox="0 0 15 15" fill="none" xmlns="http://www.w3.org/2000/svg">
<circle cx="7.5" cy="7.5" r="7.5" fill="#2D374B"/>
<path d="M8.62594 7.07813L9.34305 5.86136L11.2759 8.87186L11.2768 9.44958L11.2705 5.47397C11.2659 5.37679 11.2143 5.28788 11.132 5.23546L7.65214 3.23379C7.57075 3.19379 7.4675 3.19421 7.38626 3.23503C7.37529 3.24055 7.36496 3.24652 7.35511 3.25303L7.34299 3.26067L3.96522 5.21806L3.9521 5.224C3.93525 5.23176 3.91822 5.24161 3.90222 5.25306C3.83819 5.299 3.79565 5.36691 3.78189 5.44309C3.77983 5.45464 3.77832 5.46639 3.77759 5.47824L3.78289 8.71798L5.58326 5.92751C5.80992 5.55748 6.30379 5.4383 6.76224 5.44479L7.30033 5.459L4.12995 10.5434L4.50367 10.7586L7.71205 5.46415L9.13015 5.459L5.93004 10.887L7.2636 11.654L7.42293 11.7457C7.49032 11.7731 7.56978 11.7744 7.63774 11.7499L11.1665 9.70494L10.4919 10.0959L8.62594 7.07813ZM8.89954 11.0186L7.55262 8.90468L8.37483 7.50949L10.1437 10.2976L8.89954 11.0186Z" fill="#2D374B"/>
<path d="M7.55261 8.90447L8.89953 11.0184L10.1438 10.2974L8.37484 7.50928L7.55261 8.90447Z" fill="#28A0F0"/>
<path d="M11.2767 9.44955L11.2758 8.87183L9.34296 5.86133L8.62585 7.0781L10.4918 10.0958L11.1664 9.70491C11.2326 9.65118 11.2726 9.57231 11.2768 9.48719L11.2767 9.44955Z" fill="#28A0F0"/>
<path d="M3.17715 9.99422L4.12987 10.5432L7.30025 5.4588L6.76216 5.44458C6.30372 5.4381 5.80987 5.55728 5.58318 5.92731L3.78281 8.71778L3.17712 9.6484V9.99422H3.17715Z" fill="white"/>
<path d="M9.13011 5.45898L7.71204 5.46414L4.50366 10.7585L5.62507 11.4042L5.93004 10.887L9.13011 5.45898Z" fill="white"/>
<path d="M11.8745 5.45158C11.8626 5.15501 11.702 4.8835 11.4505 4.72544L7.92503 2.69805C7.67621 2.57275 7.36537 2.5726 7.11616 2.69796C7.08671 2.71281 3.68769 4.68411 3.68769 4.68411C3.64066 4.70666 3.59536 4.73353 3.55273 4.76402C3.32818 4.92496 3.19131 5.17501 3.17725 5.44977V9.64852L3.78293 8.7179L3.77763 5.47816C3.77836 5.46631 3.77984 5.45468 3.78193 5.44316C3.7956 5.36692 3.83818 5.29892 3.90227 5.25298C3.91827 5.24153 7.37531 3.24046 7.38631 3.23495C7.46758 3.19413 7.57082 3.19371 7.65218 3.23371L11.132 5.23538C11.2144 5.2878 11.266 5.37671 11.2706 5.47389V9.48713C11.2663 9.57225 11.2327 9.6511 11.1665 9.70486L10.4919 10.0958L10.1438 10.2975L8.89956 11.0186L7.63776 11.7498C7.56979 11.7744 7.49034 11.773 7.42294 11.7456L5.93005 10.8869L5.62509 11.4041L6.96671 12.1766C7.01107 12.2018 7.05062 12.2242 7.08304 12.2424C7.13328 12.2706 7.16749 12.2894 7.17958 12.2952C7.27495 12.3415 7.41213 12.3685 7.53576 12.3685C7.64912 12.3685 7.75963 12.3477 7.86424 12.3067L11.5292 10.1842C11.7395 10.0213 11.8633 9.77549 11.8745 9.50922V5.45158Z" fill="#96BEDC"/>
</svg>
