<svg width="15" height="15" viewBox="0 0 15 15" fill="none" xmlns="http://www.w3.org/2000/svg">
<circle cx="7.5" cy="7.5" r="7.5" fill="#E84142"/>
<mask id="mask0_4660_27943" style="mask-type:alpha" maskUnits="userSpaceOnUse" x="0" y="0" width="15" height="15">
<circle cx="7.5" cy="7.5" r="7.5" fill="white"/>
</mask>
<g mask="url(#mask0_4660_27943)">
<path d="M10.9094 7.6622C10.6703 7.2376 10.2878 7.2376 10.0487 7.6622L8.5392 10.3281C8.30012 10.7457 8.49821 11.0938 8.96953 11.0938H11.9613C12.4394 11.0938 12.6375 10.7457 12.3985 10.3281L10.9094 7.6622Z" fill="white"/>
<path d="M9.06928 4.52594L8.25069 3.11209L7.90192 2.50615C7.65281 2.08128 7.25419 2.08128 7.00505 2.50615L2.44956 10.3276C2.20042 10.7525 2.40684 11.0938 2.90509 11.0938H4.17209H5.04047H5.18995C5.6028 11.0938 6.11528 10.8082 6.3217 10.453L9.06925 5.8005C9.26858 5.45923 9.26858 4.88116 9.06928 4.52594Z" fill="white"/>
</g>
</svg>
