<svg width="20" height="20" viewBox="0 0 20 20" fill="none" xmlns="http://www.w3.org/2000/svg">
<g clip-path="url(#clip0_17663_219637)">
<path d="M10 20C11.9778 20 13.9112 19.4135 15.5557 18.3147C17.2002 17.2159 18.4819 15.6541 19.2388 13.8268C19.9957 11.9996 20.1937 9.98894 19.8079 8.04913C19.422 6.10929 18.4696 4.32746 17.0711 2.92894C15.6726 1.53041 13.8907 0.578004 11.9509 0.192152C10.0111 -0.193701 8.00044 0.00433296 6.17316 0.761206C4.34591 1.51809 2.78412 2.79981 1.68531 4.4443C0.58649 6.08879 0 8.02219 0 10C0 12.6522 1.05357 15.1957 2.92893 17.0711C4.80429 18.9464 7.34781 20 10 20Z" fill="#0052FF"/>
<path d="M9.97675 17.0423C13.8661 17.0423 17.019 13.8894 17.019 10C17.019 6.11069 13.8661 2.95776 9.97675 2.95776C6.287 2.95776 3.26001 5.79539 2.95905 9.40738H13.4092V10.5801H2.95801C3.25296 14.1981 6.28268 17.0423 9.97675 17.0423Z" fill="white"/>
</g>
<defs>
<clipPath id="clip0_17663_219637">
<rect width="20" height="20" fill="white"/>
</clipPath>
</defs>
</svg>
