<svg xmlns="http://www.w3.org/2000/svg" fill="none" viewBox="0 0 183 217" height="217" width="183">
<g clip-path="url(#clip0_866_133)">
<path fill="#E36E1B" d="M11.791 178.865H23.5901C24.76 178.865 25.8647 179.092 26.9004 179.545C27.9361 179.999 28.8375 180.614 29.597 181.391C30.3565 182.167 30.9625 183.078 31.419 184.116C31.8716 185.158 32.098 186.265 32.098 187.434C32.098 188.783 31.7757 190.102 31.1313 191.39C30.9549 191.713 30.8091 191.947 30.694 192.093L30.5636 192.224L30.8283 192.355C32.2897 193.235 33.4367 194.4 34.2729 195.849C35.1091 197.298 35.5234 198.89 35.5234 200.62C35.5234 201.881 35.274 203.088 34.7792 204.249C34.2805 205.406 33.6016 206.432 32.7385 207.328C31.8755 208.224 30.859 208.931 29.689 209.461C28.5191 209.988 27.261 210.253 25.9184 210.253H11.791V178.861V178.865ZM23.5939 190.997C24.0312 190.997 24.457 190.909 24.8674 190.732C25.2778 190.555 25.6499 190.313 25.9875 190.006C26.325 189.698 26.5935 189.325 26.8007 188.883C27.004 188.445 27.1075 187.961 27.1075 187.434C27.1075 186.527 26.793 185.696 26.1639 184.95C25.5348 184.205 24.6641 183.828 23.5555 183.828H16.7546V190.951L23.5977 190.994L23.5939 190.997ZM16.7508 205.244H25.9184C26.5897 205.244 27.2111 205.121 27.7826 204.871C28.3542 204.622 28.8413 204.287 29.2518 203.86C29.6622 203.437 29.9844 202.945 30.2184 202.388C30.4524 201.831 30.5675 201.246 30.5675 200.631C30.5675 200.016 30.4485 199.428 30.2184 198.874C29.9844 198.317 29.6622 197.825 29.2518 197.402C28.8413 196.979 28.3542 196.641 27.7826 196.391C27.2111 196.141 26.5897 196.018 25.9184 196.018H16.7508V205.252V205.244Z"></path>
<path fill="#E36E1B" d="M25.9188 210.449H11.5996V178.673H23.5904C24.7796 178.673 25.9188 178.907 26.9775 179.369C28.0323 179.83 28.9606 180.468 29.7355 181.256C30.5065 182.044 31.1355 182.982 31.5958 184.039C32.0561 185.1 32.2901 186.242 32.2901 187.434C32.2901 188.806 31.9602 190.167 31.3043 191.478C31.1394 191.782 30.9975 192.012 30.8785 192.17L30.9131 192.185C32.409 193.085 33.5905 194.284 34.4382 195.757C35.2859 197.229 35.7155 198.867 35.7155 200.623C35.7155 201.904 35.4585 203.149 34.9522 204.326C34.4459 205.498 33.7477 206.555 32.8732 207.462C31.9986 208.37 30.9514 209.1 29.7661 209.634C28.577 210.173 27.2805 210.442 25.915 210.442L25.9188 210.449ZM11.9832 210.065H25.9188C27.2307 210.065 28.4735 209.804 29.6127 209.292C30.7558 208.777 31.7608 208.074 32.6008 207.201C33.4447 206.328 34.116 205.313 34.6031 204.179C35.0865 203.049 35.3319 201.858 35.3319 200.627C35.3319 198.94 34.9215 197.367 34.1083 195.953C33.2951 194.538 32.1597 193.385 30.7328 192.528L30.2456 192.285L30.5678 191.966C30.6637 191.843 30.8057 191.616 30.9744 191.309C31.5997 190.056 31.9181 188.756 31.9181 187.445C31.9181 186.308 31.6956 185.216 31.2545 184.205C30.8133 183.19 30.2111 182.294 29.4708 181.537C28.7305 180.783 27.8444 180.176 26.8317 179.73C25.8229 179.288 24.7335 179.065 23.5981 179.065H11.9909V210.073L11.9832 210.065ZM25.9188 205.437H16.5594V195.818H25.9188C26.6131 195.818 27.2652 195.949 27.8597 196.206C28.4505 196.464 28.9645 196.818 29.3902 197.26C29.8122 197.698 30.1497 198.213 30.3952 198.79C30.6369 199.37 30.7596 199.985 30.7596 200.623C30.7596 201.262 30.6369 201.877 30.3952 202.457C30.1536 203.034 29.816 203.549 29.3902 203.987C28.9645 204.429 28.4505 204.783 27.8597 205.041C27.269 205.298 26.6169 205.429 25.9188 205.429V205.437ZM16.9429 205.052H25.9188C26.5632 205.052 27.1654 204.933 27.7063 204.695C28.251 204.456 28.7228 204.133 29.1141 203.726C29.5053 203.322 29.816 202.845 30.0385 202.311C30.261 201.781 30.376 201.216 30.376 200.627C30.376 200.039 30.2648 199.474 30.0385 198.944C29.816 198.409 29.5015 197.936 29.1141 197.529C28.7228 197.125 28.251 196.798 27.7063 196.56C27.1616 196.322 26.5594 196.203 25.9188 196.203H16.9429V205.052ZM23.5943 191.19L16.5594 191.144V183.64H23.5521C24.7182 183.64 25.6426 184.039 26.3101 184.827C26.966 185.608 27.2997 186.484 27.2997 187.434C27.2997 187.987 27.1885 188.503 26.9737 188.968C26.7588 189.429 26.4712 189.825 26.1183 190.148C25.7654 190.467 25.3741 190.725 24.9445 190.909C24.511 191.094 24.0584 191.19 23.5981 191.19H23.5943ZM16.9429 190.763L23.5943 190.805C24.0047 190.805 24.4075 190.721 24.7911 190.555C25.1785 190.39 25.5352 190.156 25.8574 189.863C26.172 189.575 26.4328 189.218 26.6246 188.802C26.8164 188.391 26.9123 187.93 26.9123 187.434C26.9123 186.577 26.6093 185.781 26.0147 185.074C25.4163 184.366 24.6108 184.02 23.5521 184.02H16.9429V190.759V190.763Z"></path>
<path fill="#E36E1B" d="M43.947 180.799C43.947 181.621 43.6631 182.317 43.0916 182.886C42.52 183.459 41.8257 183.743 41.0087 183.743C40.1917 183.743 39.4513 183.459 38.8798 182.886C38.3083 182.313 38.0244 181.618 38.0244 180.799C38.0244 179.98 38.3083 179.238 38.8798 178.665C39.4513 178.092 40.1571 177.808 41.0087 177.808C41.8603 177.808 42.5239 178.092 43.0916 178.665C43.6631 179.238 43.947 179.949 43.947 180.799ZM43.4675 185.504V210.257H38.5116L38.4694 185.504H43.4713H43.4675Z"></path>
<path fill="#E36E1B" d="M43.6596 210.449H38.3202L38.2741 185.312H43.6596V210.449ZM38.6999 210.065H43.2722V185.696H38.6539L38.6961 210.065H38.6999ZM41.0091 183.936C40.1115 183.936 39.352 183.628 38.7459 183.021C38.1399 182.413 37.833 181.667 37.833 180.795C37.833 179.922 38.1399 179.134 38.7459 178.527C39.352 177.919 40.1115 177.612 41.0091 177.612C41.9067 177.612 42.624 177.919 43.23 178.527C43.8361 179.134 44.143 179.895 44.143 180.795C44.143 181.694 43.8361 182.413 43.23 183.021C42.624 183.628 41.8798 183.936 41.0091 183.936ZM41.0091 178C40.2074 178 39.5553 178.261 39.0183 178.8C38.4813 179.338 38.2204 179.991 38.2204 180.795C38.2204 181.598 38.4813 182.21 39.0183 182.748C39.5553 183.286 40.2074 183.547 41.0091 183.547C41.8108 183.547 42.4207 183.286 42.9577 182.748C43.4947 182.21 43.7555 181.571 43.7555 180.795C43.7555 180.018 43.4947 179.338 42.9577 178.8C42.4207 178.261 41.7839 178 41.0091 178Z"></path>
<path fill="#E36E1B" d="M59.3896 210.257C58.2197 210.257 57.115 210.023 56.0793 209.554C55.0398 209.085 54.1269 208.446 53.3367 207.643C52.5465 206.836 51.9251 205.905 51.4725 204.852C51.0198 203.795 50.7935 202.684 50.7935 201.511V188.937H47.1533V183.924H50.7935V177.812H55.7494V183.924H60.7514V188.937H55.7494V201.6C55.7494 202.069 55.8377 202.522 56.0141 202.965C56.1906 203.403 56.436 203.799 56.7583 204.152C57.0805 204.502 57.4602 204.783 57.8975 204.987C58.3348 205.19 58.8181 205.294 59.3436 205.294H62.7652V210.261H59.3858L59.3896 210.257Z"></path>
<path fill="#E36E1B" d="M62.9612 210.449H59.39C58.1971 210.449 57.0578 210.207 55.9992 209.73C54.9443 209.254 54.0007 208.596 53.199 207.778C52.3973 206.959 51.7567 206.002 51.2964 204.925C50.8361 203.853 50.6021 202.703 50.6021 201.508V189.125H46.9619V183.728H50.6021V177.616H55.9416V183.728H60.9435V189.125H55.9416V201.596C55.9416 202.038 56.026 202.473 56.1909 202.888C56.3559 203.303 56.5975 203.683 56.9006 204.018C57.2036 204.348 57.568 204.614 57.9823 204.81C58.3927 205.002 58.853 205.098 59.3478 205.098H62.9612V210.449ZM47.3417 188.741H50.9819V201.508C50.9819 202.649 51.2043 203.749 51.6455 204.771C52.0866 205.802 52.7003 206.72 53.4713 207.505C54.2423 208.289 55.1438 208.919 56.1564 209.377C57.1652 209.834 58.2508 210.065 59.39 210.065H62.5776V205.483H59.3478C58.7955 205.483 58.2815 205.371 57.8173 205.156C57.357 204.94 56.9543 204.644 56.6167 204.275C56.283 203.91 56.0183 203.491 55.8342 203.03C55.6501 202.569 55.558 202.088 55.558 201.596V188.741H60.56V184.112H55.558V178H50.9857V184.112H47.3455V188.741H47.3417Z"></path>
<path fill="#E36E1B" d="M66.0146 210.257V177.812H71.0166V210.257H66.0146Z"></path>
<path fill="#E36E1B" d="M71.2088 210.449H65.8232V177.62H71.2088V210.449ZM66.2068 210.065H70.8252V178.004H66.2068V210.065Z"></path>
<path fill="#E36E1B" d="M99.8813 210.257H94.9676V207.97L94.4843 208.324C93.4026 209.115 92.2173 209.731 90.9323 210.169C89.6435 210.607 88.3163 210.83 86.9392 210.83C85.1248 210.83 83.4294 210.484 81.849 209.796C80.2687 209.108 78.9031 208.17 77.7485 206.982C76.5939 205.794 75.681 204.418 75.0059 202.849C74.3308 201.281 73.9971 199.616 73.9971 197.86C73.9971 196.103 74.3346 194.43 75.0059 192.847C75.6772 191.263 76.5978 189.879 77.7677 188.691C78.9376 187.503 80.3109 186.573 81.8912 185.9C83.4716 185.227 85.1517 184.889 86.9354 184.889C88.5733 184.92 89.9925 185.154 91.1893 185.593C92.3899 186.031 93.5138 186.646 94.5687 187.438L94.9638 187.788V186.865H99.8775V210.253L99.8813 210.257ZM94.9676 197.86C94.9676 196.66 94.749 195.568 94.3078 194.584C93.8706 193.604 93.276 192.758 92.5318 192.055C91.7877 191.351 90.9323 190.801 89.9657 190.406C88.999 190.01 87.9902 189.814 86.9392 189.814C85.8882 189.814 84.8256 190.025 83.8475 190.452C82.8655 190.878 82.0063 191.447 81.2583 192.166C80.5142 192.885 79.9273 193.735 79.5053 194.715C79.0796 195.699 78.8686 196.745 78.8686 197.86C78.8686 199.032 79.0949 200.116 79.5475 201.112C80.0002 202.107 80.6024 202.965 81.3465 203.684C82.0907 204.402 82.9461 204.96 83.9127 205.356C84.8793 205.752 85.8728 205.948 86.897 205.948C88.0976 205.948 89.1908 205.721 90.1882 205.267C91.1816 204.814 92.0294 204.214 92.7313 203.464C93.4333 202.719 93.9818 201.861 94.3769 200.893C94.772 199.924 94.9676 198.913 94.9676 197.86Z"></path>
<path fill="#E36E1B" d="M86.9396 211.018C85.1099 211.018 83.3722 210.665 81.7727 209.969C80.177 209.273 78.7769 208.312 77.6108 207.113C76.4447 205.917 75.5088 204.506 74.8298 202.922C74.1509 201.339 73.8057 199.636 73.8057 197.856C73.8057 196.076 74.1509 194.365 74.8298 192.77C75.5088 191.174 76.4524 189.756 77.6338 188.556C78.8153 187.357 80.223 186.404 81.8187 185.723C83.4144 185.043 85.1367 184.697 86.9396 184.697C88.5967 184.728 90.0504 184.966 91.2626 185.412C92.4747 185.858 93.6254 186.484 94.688 187.284L94.7762 187.361V186.673H100.073V210.446H94.7762V208.347L94.5998 208.477C93.5065 209.277 92.2944 209.907 90.9941 210.349C89.6937 210.795 88.3282 211.018 86.9396 211.018ZM86.9357 185.081C85.1904 185.081 83.518 185.416 81.9683 186.077C80.4187 186.738 79.0531 187.665 77.9062 188.825C76.7593 189.99 75.8425 191.367 75.1827 192.92C74.523 194.469 74.1892 196.13 74.1892 197.856C74.1892 199.582 74.523 201.235 75.1827 202.769C75.8425 204.31 76.7516 205.679 77.887 206.843C79.0186 208.008 80.3803 208.942 81.9261 209.615C83.4758 210.288 85.1598 210.63 86.9396 210.63C88.286 210.63 89.6093 210.411 90.8713 209.98C92.1333 209.55 93.3109 208.939 94.3734 208.162L95.1598 207.589V210.061H99.6899V187.057H95.1598V188.214L94.4463 187.58C93.426 186.815 92.3059 186.204 91.1283 185.769C89.9545 185.339 88.5468 185.108 86.9357 185.077V185.081ZM86.8974 206.14C85.854 206.14 84.826 205.936 83.8402 205.533C82.8582 205.129 81.9722 204.552 81.2127 203.822C80.4532 203.091 79.8356 202.203 79.3715 201.192C78.9073 200.178 78.6733 199.055 78.6733 197.859C78.6733 196.664 78.892 195.641 79.3254 194.638C79.7551 193.638 80.3611 192.758 81.1244 192.028C81.8839 191.297 82.7739 190.709 83.7712 190.275C85.7428 189.418 88.0443 189.41 90.0389 190.229C91.0209 190.632 91.907 191.197 92.6627 191.916C93.4221 192.635 94.0359 193.504 94.4847 194.507C94.9335 195.511 95.1598 196.637 95.1598 197.859C95.1598 198.936 94.9565 199.982 94.5537 200.966C94.151 201.95 93.5871 202.838 92.8698 203.595C92.1525 204.356 91.2779 204.979 90.2653 205.44C89.2526 205.905 88.1172 206.14 86.8974 206.14ZM86.9396 190.006C85.8886 190.006 84.8759 190.213 83.9246 190.628C82.9695 191.044 82.1179 191.605 81.393 192.305C80.668 193.004 80.0926 193.838 79.6822 194.792C79.2717 195.745 79.0608 196.775 79.0608 197.859C79.0608 199.001 79.2832 200.066 79.7244 201.035C80.1655 202.004 80.7562 202.849 81.4812 203.549C82.2062 204.249 83.05 204.794 83.986 205.179C84.9258 205.563 85.9039 205.759 86.8974 205.759C88.0635 205.759 89.1452 205.536 90.108 205.094C91.0746 204.652 91.9108 204.06 92.5936 203.334C93.2764 202.607 93.8172 201.761 94.2008 200.82C94.5844 199.882 94.78 198.882 94.78 197.859C94.78 196.691 94.5652 195.614 94.1394 194.661C93.7137 193.708 93.1306 192.877 92.4057 192.193C91.6807 191.509 90.8368 190.967 89.897 190.582C88.9611 190.198 87.9676 190.002 86.9434 190.002L86.9396 190.006Z"></path>
<path fill="#E36E1B" d="M107.514 184.316L114.753 200.847L120.982 184.316H126.291L116.463 210.43L116.333 210.696L114.051 216.762L108.7 216.804L112.209 207.528L102.075 184.316H107.514Z"></path>
<path fill="#E36E1B" d="M108.42 217L111.999 207.535L101.78 184.124H107.638L107.687 184.239L114.738 200.339L120.848 184.124H126.567L116.644 210.499L116.506 210.78L114.185 216.954L108.42 217ZM102.367 184.508L112.413 207.524L108.976 216.612L113.917 216.569L116.153 210.626L116.291 210.346L126.011 184.508H121.113L114.765 201.358L107.388 184.508H102.367Z"></path>
<path fill="#E36E1B" d="M131.684 199.132L131.772 199.482C132.006 200.45 132.409 201.292 132.981 202.011C133.552 202.73 134.193 203.337 134.91 203.837C135.627 204.337 136.387 204.71 137.192 204.96C137.998 205.21 138.75 205.333 139.452 205.333C141.032 205.333 142.398 204.96 143.552 204.21C144.707 203.464 145.708 202.43 146.556 201.112L151.028 203.176C150.296 204.525 149.456 205.644 148.504 206.54C147.553 207.435 146.56 208.158 145.52 208.716C144.481 209.273 143.43 209.669 142.363 209.903C141.297 210.138 140.25 210.253 139.225 210.253C137.53 210.253 135.915 209.907 134.377 209.219C132.843 208.531 131.489 207.601 130.319 206.428C129.149 205.256 128.22 203.899 127.534 202.361C126.847 200.823 126.502 199.205 126.502 197.502C126.502 195.714 126.832 194.023 127.488 192.424C128.148 190.828 129.053 189.421 130.207 188.203C131.362 186.988 132.731 186.027 134.308 185.323C135.888 184.62 137.599 184.27 139.44 184.27C141.281 184.27 142.942 184.616 144.507 185.304C146.072 185.992 147.438 186.923 148.608 188.095C149.778 189.268 150.698 190.64 151.374 192.205C152.045 193.773 152.382 195.453 152.382 197.237C152.382 197.414 152.375 197.729 152.359 198.182C152.344 198.636 152.321 198.951 152.294 199.128H131.677L131.684 199.132ZM146.732 193.9C146.468 193.316 146.134 192.743 145.723 192.185C145.313 191.628 144.81 191.124 144.208 190.667C143.61 190.213 142.916 189.848 142.125 189.567C141.335 189.291 140.441 189.148 139.448 189.148C138.715 189.148 137.986 189.252 137.254 189.456C136.521 189.66 135.835 189.967 135.19 190.379C134.546 190.79 133.963 191.293 133.437 191.897C132.912 192.497 132.471 193.193 132.121 193.984L132.079 194.204H146.863L146.732 193.896V193.9Z"></path>
<path fill="#E36E1B" d="M139.23 210.449C137.511 210.449 135.854 210.096 134.305 209.4C132.755 208.704 131.37 207.755 130.189 206.567C129.007 205.383 128.056 203.999 127.362 202.442C126.667 200.885 126.314 199.224 126.314 197.506C126.314 195.703 126.652 193.969 127.316 192.354C127.979 190.74 128.907 189.302 130.074 188.076C131.24 186.846 132.64 185.865 134.235 185.154C135.831 184.443 137.584 184.082 139.445 184.082C141.305 184.082 143.004 184.435 144.588 185.131C146.169 185.827 147.569 186.78 148.75 187.964C149.932 189.148 150.875 190.552 151.554 192.135C152.233 193.719 152.578 195.441 152.578 197.244C152.578 197.421 152.571 197.74 152.555 198.194C152.54 198.663 152.517 198.982 152.486 199.166L152.46 199.328H131.926L131.953 199.439C132.179 200.377 132.575 201.2 133.123 201.896C133.679 202.596 134.316 203.195 135.014 203.683C135.712 204.168 136.46 204.537 137.243 204.779C138.025 205.021 138.766 205.144 139.445 205.144C140.979 205.144 142.321 204.779 143.441 204.053C144.569 203.322 145.559 202.3 146.391 201.012L146.483 200.873L151.293 203.095L151.198 203.276C150.461 204.637 149.598 205.782 148.639 206.69C147.68 207.593 146.664 208.335 145.616 208.896C144.569 209.458 143.488 209.865 142.41 210.103C141.336 210.338 140.265 210.461 139.234 210.461L139.23 210.449ZM139.448 184.466C137.642 184.466 135.942 184.816 134.393 185.504C132.843 186.192 131.485 187.149 130.354 188.341C129.222 189.533 128.317 190.932 127.672 192.501C127.028 194.069 126.698 195.753 126.698 197.506C126.698 199.259 127.039 200.777 127.711 202.284C128.386 203.795 129.31 205.144 130.457 206.294C131.604 207.443 132.95 208.37 134.458 209.046C136.871 210.13 139.544 210.326 142.321 209.715C143.369 209.484 144.412 209.092 145.432 208.546C146.453 208.001 147.442 207.278 148.374 206.401C149.264 205.567 150.066 204.51 150.76 203.264L146.625 201.354C145.785 202.626 144.784 203.637 143.652 204.372C142.471 205.137 141.056 205.525 139.448 205.525C138.731 205.525 137.949 205.398 137.132 205.144C136.314 204.891 135.528 204.506 134.799 203.999C134.071 203.491 133.407 202.865 132.828 202.134C132.241 201.396 131.823 200.52 131.585 199.532L131.439 198.944H152.133C152.153 198.767 152.164 198.513 152.176 198.182C152.191 197.733 152.199 197.417 152.199 197.244C152.199 195.491 151.865 193.823 151.205 192.285C150.545 190.748 149.629 189.383 148.482 188.233C147.335 187.084 145.973 186.158 144.439 185.481C142.904 184.804 141.224 184.462 139.448 184.462V184.466ZM147.155 194.4H131.846L131.949 193.911C132.306 193.108 132.759 192.389 133.296 191.774C133.833 191.163 134.435 190.64 135.091 190.221C135.747 189.802 136.456 189.483 137.204 189.275C137.949 189.068 138.704 188.96 139.448 188.96C140.461 188.96 141.382 189.106 142.187 189.387C142.993 189.671 143.71 190.052 144.324 190.513C144.934 190.978 145.455 191.501 145.877 192.07C146.292 192.635 146.641 193.223 146.905 193.819L147.151 194.4H147.155ZM132.321 194.015H146.572L146.556 193.977C146.299 193.408 145.965 192.843 145.567 192.301C145.168 191.762 144.673 191.263 144.094 190.824C143.514 190.386 142.832 190.025 142.061 189.752C141.293 189.483 140.415 189.344 139.448 189.344C138.739 189.344 138.018 189.444 137.308 189.644C136.598 189.844 135.923 190.148 135.298 190.544C134.673 190.944 134.097 191.443 133.583 192.024C133.085 192.597 132.659 193.262 132.321 194.011V194.015Z"></path>
<path fill="#E36E1B" d="M160.377 184.316V186.162L160.86 185.854C161.65 185.385 162.49 185.012 163.384 184.731C164.278 184.455 165.217 184.312 166.215 184.312C166.798 184.312 167.385 184.355 167.968 184.443C168.551 184.532 169.122 184.647 169.679 184.797L167.749 189.325C167.546 189.268 167.289 189.229 166.982 189.214C166.675 189.198 166.464 189.191 166.345 189.191C165.497 189.191 164.707 189.352 163.975 189.675C163.242 189.998 162.613 190.436 162.087 190.994C161.562 191.551 161.144 192.197 160.837 192.927C160.53 193.662 160.377 194.454 160.377 195.303V210.25H155.463V184.309H160.377V184.316Z"></path>
<path fill="#E36E1B" d="M160.569 210.449H155.271V184.124H160.569V185.812L160.757 185.692C161.562 185.216 162.425 184.831 163.327 184.551C164.765 184.101 166.388 184.016 167.995 184.259C168.582 184.347 169.165 184.466 169.725 184.616L169.94 184.674L167.857 189.564L167.696 189.517C167.508 189.464 167.262 189.429 166.971 189.414C166.668 189.398 166.461 189.391 166.346 189.391C165.529 189.391 164.758 189.548 164.056 189.86C163.354 190.171 162.736 190.598 162.234 191.136C161.727 191.674 161.317 192.305 161.021 193.012C160.726 193.715 160.576 194.492 160.576 195.311V210.449H160.569ZM155.655 210.065H160.185V195.311C160.185 194.438 160.346 193.615 160.661 192.862C160.975 192.109 161.409 191.44 161.95 190.871C162.491 190.298 163.146 189.84 163.898 189.51C164.65 189.179 165.475 189.01 166.346 189.01C166.464 189.01 166.679 189.018 166.99 189.033C167.239 189.045 167.454 189.072 167.638 189.11L169.414 184.939C168.935 184.82 168.44 184.72 167.941 184.647C166.392 184.416 164.827 184.497 163.442 184.927C162.571 185.2 161.735 185.569 160.96 186.031L160.189 186.523V184.52H155.659V210.077L155.655 210.065Z"></path>
<path fill="#E36E1B" d="M0.103516 3.86347V36.6395C7.63327 32.7184 15.1055 33.1951 22.5202 32.3955V0C14.3843 0 7.63327 0.0691966 0.103516 3.86347Z"></path>
<path fill="#E36E1B" d="M65.8152 7.48863C58.7381 4.97834 51.6034 2.77943 44.415 1.37244V33.3912C51.6034 34.679 58.7342 36.7549 65.8152 39.1422V7.48863Z"></path>
<path fill="#E36E1B" d="M44.4193 65.4099V33.3911C37.1773 32.0956 29.8776 31.5997 22.5205 32.3955V64.7909C29.8776 63.8683 37.1773 64.2412 44.4193 65.4137V65.4099Z"></path>
<path fill="#E36E1B" d="M0.103516 69.4156V102.192C7.63327 98.0129 15.1055 98.2359 22.5202 97.1826V64.7871C14.8408 65.4099 7.63327 65.3637 0.103516 69.4156Z"></path>
<path fill="#E36E1B" d="M44.4189 65.4098V97.4285C51.6073 98.4703 58.7381 100.304 65.8191 102.449V70.7956C58.742 68.5275 51.6073 66.5708 44.4189 65.4098Z"></path>
<path fill="#E36E1B" d="M22.5205 97.1825V129.578C29.8776 128.405 37.1773 128.528 44.4193 129.451V97.4324C37.1773 96.3829 29.8776 96.1369 22.5205 97.1825Z"></path>
<path fill="#E36E1B" d="M165.21 83.2587C173.545 76.4044 178.236 65.3907 178.236 54.0578C178.236 36.4973 167.285 29.3086 144.496 27.0789V11.7788C139.648 11.5328 134.776 11.0023 129.874 10.2565V25.5374C125.298 24.88 120.703 24.0304 116.08 23.0425V7.64242C111.075 6.52759 106.046 5.24745 100.982 3.86353C100.982 9.03788 100.982 14.2161 100.982 19.3904C96.2567 18.1372 91.5118 16.7956 86.7362 15.4155V46.7115C79.8163 44.1897 72.8466 41.5102 65.8193 39.1422V70.7957C72.8428 73.0484 79.8163 75.6087 86.7362 78.0113V109.307C79.8163 107.024 72.8466 104.583 65.8193 102.449V134.103C72.8428 136.113 79.8163 138.435 86.7362 140.603C91.508 141.657 96.2567 142.675 100.982 143.606C100.982 148.78 100.982 153.958 100.982 159.133C106.042 160.086 111.075 160.936 116.08 161.624V146.224C120.703 146.896 125.302 147.431 129.874 147.777V163.058C134.776 163.384 139.648 163.496 144.496 163.331V148.15C169.767 146.785 182.901 127.106 182.901 107.481C182.901 92.9962 176.169 85.9728 165.21 83.2549V83.2587ZM116.123 48.2146C120.729 49.1372 125.313 49.9176 129.87 50.5096C131.907 50.7749 133.94 51.0017 135.965 51.1862C136.353 51.2208 136.732 51.2631 137.105 51.3092C137.197 51.3207 137.289 51.3323 137.381 51.3438C137.726 51.3861 138.067 51.4322 138.397 51.486C138.42 51.486 138.443 51.4937 138.466 51.4976C138.831 51.5552 139.184 51.6206 139.529 51.6859C139.59 51.6975 139.652 51.709 139.709 51.7244C140.039 51.7897 140.361 51.8589 140.676 51.9358C140.687 51.9358 140.699 51.9397 140.71 51.9435C141.055 52.0281 141.389 52.1165 141.711 52.2126C141.731 52.2203 141.754 52.2241 141.777 52.2318C142.766 52.5278 143.672 52.8738 144.489 53.2851C148.324 55.1957 150.277 58.471 150.277 63.3032C150.277 68.2277 148.324 71.7298 144.489 73.5059C143.672 73.8826 142.762 74.1786 141.773 74.3901C141.754 74.3939 141.731 74.3977 141.711 74.4054C141.385 74.4746 141.052 74.5323 140.706 74.5823C140.695 74.5823 140.683 74.5823 140.672 74.5861C140.357 74.6322 140.035 74.6668 139.705 74.6937C139.644 74.6976 139.586 74.7053 139.525 74.7091C139.18 74.736 138.827 74.7553 138.462 74.7629C138.439 74.7629 138.416 74.7629 138.393 74.7629C138.064 74.7706 137.722 74.7668 137.377 74.7629C137.285 74.7629 137.193 74.7591 137.097 74.7553C136.725 74.7437 136.349 74.7245 135.958 74.6937C133.929 74.5361 131.899 74.3362 129.863 74.0979C125.302 73.5674 120.722 72.8447 116.115 71.9836V48.2261L116.123 48.2146ZM144.492 123.12C144.197 123.166 143.894 123.208 143.587 123.243C143.499 123.254 143.407 123.262 143.319 123.27C143.092 123.293 142.866 123.312 142.636 123.331C142.528 123.339 142.421 123.347 142.314 123.35C142.083 123.366 141.85 123.373 141.612 123.381C141.512 123.381 141.412 123.389 141.309 123.389C140.971 123.397 140.634 123.397 140.284 123.389C136.825 123.32 133.353 123.116 129.87 122.804C125.309 122.397 120.729 121.801 116.123 121.067V96.0793C120.729 96.8789 125.313 97.5363 129.87 98.0091C133.357 98.3705 136.828 98.6203 140.284 98.7357C140.634 98.7472 140.975 98.7626 141.309 98.7818C141.412 98.7895 141.512 98.7933 141.612 98.801C141.846 98.8164 142.084 98.8318 142.31 98.851C142.417 98.8587 142.525 98.8702 142.632 98.8779C142.862 98.8971 143.088 98.924 143.315 98.9471C143.403 98.9586 143.495 98.9663 143.583 98.9779C143.89 99.0163 144.193 99.0547 144.489 99.1009C151.458 100.139 155.095 103.576 155.095 110.584C155.095 117.534 151.458 121.959 144.489 123.116L144.492 123.12Z"></path>
</g>
<defs>
<clipPath id="clip0_866_133">
<rect transform="translate(0.103516)" fill="white" height="217" width="182.793"></rect>
</clipPath>
</defs>
</svg>
