<svg xmlns="http://www.w3.org/2000/svg" style="height:30px" fill="black" viewBox="0 0 40 40">
  <rect style="" fill="black" height="40" width="40"></rect>
  <g transform="matrix(1, 0, 0, 1, 0.018000001087784767, -0.16699999570846558)">
    <path fill="white" d="M 33.596 5.669 C 33.591 5.965 33.584 6.26 33.565 6.555 C 33.397 9.268 32.386 11.92 30.704 14.054 C 30.059 14.897 29.271 15.612 28.529 16.366 C 24.059 20.839 19.585 25.309 15.114 29.783 C 13.824 31.057 13.085 32.851 13.083 34.663 C 10.845 34.664 8.606 34.665 6.369 34.662 C 6.374 34.405 6.38 34.15 6.39 33.894 C 6.558 30.665 7.937 27.517 10.196 25.204 C 15.077 20.321 19.961 15.441 24.841 10.557 C 26.136 9.282 26.877 7.484 26.881 5.669 C 29.119 5.668 31.357 5.666 33.596 5.669 Z"></path>
    <path fill="white" d="M 33.231 31.517 C 33.475 32.547 33.592 33.605 33.597 34.663 C 31.359 34.667 29.119 34.657 26.881 34.667 C 26.872 33.3 26.466 31.933 25.692 30.804 C 24.794 29.464 23.41 28.475 21.866 28.023 C 23.558 26.336 25.242 24.643 26.936 22.957 C 30.073 24.808 32.405 27.967 33.231 31.517 Z"></path>
    <path fill="white" d="M 18.099 12.308 C 16.408 13.995 14.722 15.688 13.029 17.374 C 10.26 15.735 8.106 13.086 7.082 10.033 C 6.607 8.63 6.371 7.15 6.367 5.669 C 8.606 5.668 10.845 5.669 13.084 5.668 C 13.088 7.228 13.629 8.781 14.614 9.993 C 15.501 11.099 16.738 11.911 18.099 12.308 Z"></path>
    <path fill="white" d="M 16.622 5.667 C 16.617 6.157 16.718 6.648 16.939 7.096 C 17.61 8.607 19.487 9.415 21.047 8.855 C 22.406 8.435 23.344 7.066 23.347 5.667 L 16.622 5.667 Z"></path>
    <path fill="white" d="M 23.348 34.664 C 23.35 34.354 23.306 34.043 23.212 33.741 C 23.094 33.322 22.892 32.928 22.623 32.587 C 21.644 31.286 19.678 30.913 18.288 31.76 C 17.251 32.336 16.634 33.499 16.623 34.664 L 23.348 34.664 Z"></path>
  </g>
</svg>