<svg width="30" height="30" viewBox="0 0 30 30" fill="none" xmlns="http://www.w3.org/2000/svg">
<circle cx="15" cy="15" r="15" fill="#F0B90B"/>
<path d="M9.65652 8.09552L14.9403 5.0199L20.2241 8.09552L18.2815 9.23173L14.9403 7.29233L11.5991 9.23173L9.65652 8.09552ZM20.2241 11.9743L18.2815 10.8381L14.9403 12.7775L11.5991 10.8381L9.65652 11.9743V14.2468L12.9977 16.1862V20.065L14.9403 21.2012L16.8829 20.065V16.1862L20.2241 14.2468V11.9743ZM20.2241 18.1256V15.8531L18.2815 16.9893V19.2618L20.2241 18.1256ZM21.6033 18.9288L18.2621 20.8682V23.1406L23.5459 20.065V13.9137L21.6033 15.0499V18.9288ZM19.6607 10.0349L21.6033 11.1711V13.4436L23.5459 12.3074V10.0349L21.6033 8.89871L19.6607 10.0349ZM12.9977 21.6909V23.9634L14.9403 25.0996L16.8829 23.9634V21.6909L14.9403 22.8271L12.9977 21.6909ZM9.65652 18.1256L11.5991 19.2618V16.9893L9.65652 15.8531V18.1256ZM12.9977 10.0349L14.9403 11.1711L16.8829 10.0349L14.9403 8.89871L12.9977 10.0349ZM8.27728 11.1711L10.2198 10.0349L8.27728 8.89871L6.33472 10.0349V12.3074L8.27728 13.4436V11.1711ZM8.27728 15.0499L6.33472 13.9137V20.065L11.6185 23.1406V20.8682L8.27728 18.9288V15.0499Z" fill="white"/>
</svg>
