<svg xmlns="http://www.w3.org/2000/svg" fill="none" viewBox="0 0 30 30" height="30" width="30">
<path fill="#FFB852" d="M29.3996 15C29.3996 22.9529 22.9525 29.4 14.9996 29.4C7.04671 29.4 0.599609 22.9529 0.599609 15C0.599609 7.0471 7.04671 0.599998 14.9996 0.599998C22.9525 0.599998 29.3996 7.0471 29.3996 15Z"></path>
<path fill="black" d="M30 15C30 23.2843 23.2843 30 15 30C6.71573 30 0 23.2843 0 15C0 6.71573 6.71573 0 15 0C23.2843 0 30 6.71573 30 15ZM15 29.4C22.9529 29.4 29.4 22.9529 29.4 15C29.4 7.0471 22.9529 0.6 15 0.6C7.0471 0.6 0.6 7.0471 0.6 15C0.6 22.9529 7.0471 29.4 15 29.4Z" clip-rule="evenodd" fill-rule="evenodd"></path>
<path fill="#FFE3BD" d="M9.87824 19.1682C9.88011 19.264 9.88153 19.3201 9.74911 19.3216L8.03421 19.3387L8.05343 20.8941L11.0426 20.8618L11.0706 23.1221L12.5567 23.1044L12.5287 20.8441L13.4525 20.8344L13.4797 23.0916L14.8934 23.0763L14.8685 20.8152L15.9317 20.8055C16.6397 20.7959 19.1674 20.1666 19.1337 17.8214C19.1536 17.1868 18.9582 16.5641 18.5793 16.0546C18.2004 15.5451 17.6604 15.1787 17.0469 15.015C17.0469 15.015 18.4757 14.1326 18.3202 12.6527C18.1647 11.1728 17.0002 10.7709 16.3302 10.558C15.8097 10.4154 15.2745 10.3328 14.7352 10.312L14.7068 7.9489L13.3485 7.97289L13.3799 10.322L12.2879 10.3359L12.2665 7.97427L10.8927 8.00234L10.9203 10.3624L8.04073 10.3966L8.0534 11.7877L9.63221 11.769C9.7911 11.7672 9.792 11.8467 9.7926 11.8996L9.87824 19.1682ZM12.2999 11.7372L13.9784 11.7189C14.2666 11.7164 15.6698 11.9396 15.6763 13.1299C15.6872 13.4561 15.5809 13.7755 15.3765 14.0301C15.1722 14.2846 14.8834 14.4575 14.5625 14.5174C14.434 14.5508 14.3024 14.5709 14.1698 14.5772L12.3191 14.5974L12.2999 11.7372ZM12.3718 16.0777L14.9951 16.0541C15.185 16.0555 15.3727 16.0955 15.5466 16.1717C15.7205 16.248 15.877 16.3589 16.0066 16.4977C16.1362 16.6365 16.2361 16.8003 16.3003 16.979C16.3645 17.1577 16.3916 17.3477 16.3799 17.5372C16.3922 18.4835 15.5705 18.9081 15.1387 19.0212C15.0755 19.0399 15.0101 19.0503 14.9443 19.0523L12.4129 19.0849L12.3718 16.0777Z"></path>
<path fill="black" d="M9.27262 18.7263L7.42646 18.7447L7.46051 21.5006L10.4497 21.4682L10.4777 23.7291L13.1637 23.6972L13.1637 23.695L15.4996 23.6698L15.4747 21.4097L15.9368 21.4054L15.9394 21.4054C16.398 21.3992 17.3159 21.2105 18.1305 20.6968C18.9701 20.1673 19.7489 19.254 19.7335 17.8264C19.7543 17.0612 19.5174 16.311 19.0604 15.6966C18.8072 15.3561 18.4947 15.0683 18.1406 14.8452C18.1613 14.8217 18.1819 14.7975 18.2025 14.7728C18.5999 14.2956 19.0172 13.5486 18.9165 12.59C18.8207 11.678 18.4017 11.0646 17.8902 10.6597C17.4016 10.2731 16.8475 10.0929 16.5115 9.98616L16.5001 9.98252L16.4884 9.97934C16.1077 9.87501 15.7198 9.80033 15.3282 9.75582L15.2991 7.33834L12.8608 7.38141L12.8606 7.362L10.2854 7.41461L10.3129 9.76954L7.43493 9.80377L7.45854 12.3948L9.19778 12.3742L9.27262 18.7263ZM10.9199 10.3624L8.04036 10.3966L8.05303 11.7877L9.63184 11.769C9.79073 11.7672 9.79163 11.8467 9.79223 11.8996L9.87787 19.1682L9.87789 19.1689C9.87975 19.2643 9.88083 19.3201 9.74874 19.3216L8.03384 19.3387L8.05306 20.8941L11.0422 20.8618L11.0702 23.1221L12.5563 23.1044L12.5283 20.8441L13.4521 20.8344L13.4793 23.0916L14.893 23.0763L14.8681 20.8152L15.9313 20.8055C16.6393 20.7959 19.167 20.1666 19.1333 17.8214C19.1532 17.1868 18.9578 16.5641 18.579 16.0546C18.3409 15.7345 18.0393 15.4709 17.6958 15.2786C17.4925 15.1648 17.2746 15.0759 17.0465 15.015C17.0465 15.015 17.3023 14.8571 17.5856 14.5627C17.9719 14.1614 18.4095 13.5065 18.3198 12.6527C18.1644 11.1728 16.9999 10.7708 16.3299 10.558C15.8093 10.4154 15.2742 10.3328 14.7348 10.312L14.7064 7.9489L13.3481 7.97289L13.3795 10.322L12.2875 10.3359L12.2661 7.97427L10.8923 8.00233L10.9199 10.3624ZM15.6759 13.1299C15.6694 11.9396 14.2662 11.7164 13.978 11.7189L12.2995 11.7372L12.3187 14.5974L14.1694 14.5772C14.302 14.5709 14.4336 14.5508 14.5621 14.5174C14.883 14.4575 15.1718 14.2846 15.3762 14.0301C15.5805 13.7755 15.6868 13.4561 15.6759 13.1299ZM14.1508 13.9774C14.2387 13.9725 14.3259 13.9589 14.4112 13.9367L14.4315 13.9315L14.452 13.9276C14.6319 13.894 14.7937 13.7971 14.9083 13.6545C15.0228 13.5118 15.0824 13.3328 15.0762 13.15L15.0759 13.1416L15.0759 13.1331C15.0743 12.8317 14.918 12.6477 14.6529 12.5079C14.5163 12.436 14.3657 12.3867 14.2309 12.356C14.1646 12.3409 14.1058 12.3312 14.0595 12.3254C14.0365 12.3226 14.0176 12.3208 14.0035 12.3199C13.9908 12.319 13.9842 12.3189 13.9833 12.3189C13.9831 12.3189 13.9831 12.3189 13.9833 12.3189L12.9035 12.3307L12.9147 13.9909L14.1508 13.9774ZM16.3795 17.5372C16.3912 17.3477 16.3641 17.1577 16.2999 16.979C16.2358 16.8003 16.1358 16.6365 16.0062 16.4977C15.8766 16.3589 15.7201 16.248 15.5462 16.1717C15.3723 16.0955 15.1847 16.0554 14.9948 16.0541L12.3714 16.0777L12.4125 19.0846L14.9439 19.0523C15.0098 19.0503 15.0751 19.0399 15.1383 19.0212C15.5701 18.9081 16.3918 18.4835 16.3795 17.5372ZM14.9293 18.4524C14.9426 18.4518 14.9557 18.4495 14.9685 18.4458L14.9773 18.4432L14.9862 18.4408C15.1302 18.4031 15.3484 18.3082 15.518 18.1512C15.6735 18.0073 15.7831 17.8199 15.7796 17.545L15.7793 17.5226L15.7806 17.5002C15.7873 17.3921 15.7719 17.2838 15.7353 17.1818C15.6986 17.0798 15.6416 16.9864 15.5677 16.9072C15.4937 16.828 15.4044 16.7647 15.3052 16.7212C15.2072 16.6782 15.1016 16.6555 14.9947 16.6542L12.9796 16.6723L13.0043 18.4772L14.9293 18.4524Z" clip-rule="evenodd" fill-rule="evenodd"></path>
<path fill="black" d="M14.0977 3.17145C16.4389 2.9929 18.7781 3.51324 20.8202 4.66305L20.4694 5.25085C18.5487 4.17328 16.3501 3.68595 14.1497 3.85377C11.8495 4.0292 9.6599 4.91196 7.8812 6.38099C6.10251 7.85001 4.82185 9.83335 4.21489 12.059C3.60792 14.2846 3.70438 16.6435 4.49102 18.8121C5.27767 20.9808 6.71597 22.8529 8.60866 24.1718C10.5014 25.4907 12.7557 26.1918 15.0626 26.1788C17.3695 26.1659 19.6158 25.4396 21.4936 24.0995C23.2899 22.8176 24.6647 21.0341 25.4479 18.9757L26.0939 19.2019C25.2639 21.3935 23.8023 23.2925 21.8911 24.6565C19.8984 26.0786 17.5145 26.8494 15.0664 26.8631C12.6184 26.8769 10.226 26.1329 8.21744 24.7333C6.20888 23.3336 4.68253 21.3469 3.84774 19.0455C3.01294 16.7441 2.91058 14.2408 3.5547 11.8789C4.19882 9.51707 5.55787 7.41232 7.44544 5.85337C9.33302 4.29442 11.6567 3.35762 14.0977 3.17145Z"></path>
<path fill="#FFDFB6" d="M26.3508 15.4371H21.6953V14.1645L23.229 12.609C23.7729 12.0507 24.1499 11.6228 24.3602 11.3255C24.5778 11.0282 24.6865 10.7128 24.6865 10.3792C24.6865 10.0384 24.5959 9.7991 24.4146 9.66132C24.2406 9.52354 23.9904 9.45465 23.6641 9.45465C23.1782 9.45465 22.6489 9.49816 22.076 9.58518L21.815 9.61781L21.7388 8.45395C22.4495 8.2364 23.1855 8.12763 23.9469 8.12763C25.4697 8.12763 26.2311 8.8129 26.2311 10.1834C26.2311 10.72 26.1151 11.1841 25.883 11.5757C25.651 11.9673 25.2304 12.4423 24.6213 13.0006L23.3704 14.1318H26.3508V15.4371Z"></path>
<path fill="black" d="M26.9511 16.0371H21.0957V13.9184L22.7996 12.1904C22.8 12.19 22.8004 12.1895 22.8009 12.1891C23.341 11.6345 23.6895 11.2353 23.8708 10.9791L23.8736 10.9751L23.8764 10.9712C24.027 10.7654 24.0869 10.5721 24.0869 10.3792C24.0869 10.2587 24.0705 10.19 24.0579 10.1567C24.0537 10.1456 24.0504 10.1394 24.0485 10.1364L24.0472 10.1354L24.0426 10.1317C24.0143 10.1093 23.9169 10.0547 23.6645 10.0547C23.2139 10.0547 22.715 10.0951 22.1665 10.1784L22.1587 10.1796L21.2582 10.2921L21.1095 8.01924L21.5636 7.88023C22.3325 7.64484 23.1278 7.52763 23.9473 7.52763C24.7865 7.52763 25.5279 7.71509 26.0618 8.1956C26.6078 8.68694 26.8315 9.38839 26.8315 10.1834C26.8315 10.8082 26.6956 11.382 26.3996 11.8816C26.1224 12.3493 25.6504 12.8716 25.0271 13.4429L25.0241 13.4456L24.9288 13.5318H26.9511V16.0371ZM23.3708 14.1318L24.6217 13.0006C25.2308 12.4423 25.6514 11.9673 25.8834 11.5757C26.1155 11.1841 26.2315 10.72 26.2315 10.1834C26.2315 8.8129 25.4701 8.12763 23.9473 8.12763C23.1859 8.12763 22.4499 8.23641 21.7392 8.45395L21.8154 9.61781L22.0764 9.58518C22.1898 9.56796 22.3015 9.55244 22.4115 9.53862C22.8571 9.48264 23.2748 9.45465 23.6645 9.45465C23.9908 9.45465 24.241 9.52354 24.415 9.66132C24.5963 9.7991 24.6869 10.0384 24.6869 10.3792C24.6869 10.7128 24.5782 11.0282 24.3606 11.3255C24.1503 11.6228 23.7732 12.0507 23.2294 12.609L21.6957 14.1645V15.4371H26.3511V14.1318H23.3708Z" clip-rule="evenodd" fill-rule="evenodd"></path>
</svg>
