<svg width="20" height="20" viewBox="0 0 20 20" fill="none" xmlns="http://www.w3.org/2000/svg">
<circle cx="10" cy="10" r="10" fill="white"/>
<path d="M8.36383 16.1373C10.8495 16.1373 12.8645 14.1223 12.8645 11.6367C12.8645 9.15098 10.8495 7.13599 8.36383 7.13599C5.87815 7.13599 3.86317 9.15098 3.86317 11.6367C3.86317 14.1223 5.87815 16.1373 8.36383 16.1373ZM8.36383 17.7739C4.97442 17.7739 2.22656 15.0261 2.22656 11.6367C2.22656 8.24725 4.97442 5.49939 8.36383 5.49939C11.7532 5.49939 14.5011 8.24725 14.5011 11.6367C14.5011 15.0261 11.7532 17.7739 8.36383 17.7739Z" fill="#FBCC5C"/>
<path d="M11.6363 12.8641C14.122 12.8641 16.1369 10.8491 16.1369 8.36346C16.1369 5.87779 14.122 3.8628 11.6363 3.8628C9.15061 3.8628 7.13563 5.87779 7.13563 8.36346C7.13563 10.8491 9.15061 12.8641 11.6363 12.8641ZM11.6363 14.5007C8.24688 14.5007 5.49902 11.7529 5.49902 8.36346C5.49902 4.97405 8.24688 2.2262 11.6363 2.2262C15.0257 2.2262 17.7736 4.97405 17.7736 8.36346C17.7736 11.7529 15.0257 14.5007 11.6363 14.5007Z" fill="#35D07F"/>
<path d="M11.8391 14.5007C12.2647 13.9849 12.5698 13.3806 12.732 12.7319C13.3807 12.5697 13.985 12.2647 14.5008 11.8391C14.4773 12.5902 14.3155 13.3306 14.0235 14.0231C13.331 14.3152 12.5905 14.4771 11.8392 14.5007H11.8391ZM7.26783 7.26787C6.61911 7.43005 6.0148 7.73506 5.49902 8.16063C5.52254 7.40949 5.68433 6.66912 5.97627 5.97664C6.66886 5.68465 7.40934 5.52287 8.16059 5.49939C7.73506 6.01507 7.43005 6.61927 7.26783 7.26787V7.26787Z" fill="#5EA33B"/>
</svg>
