<svg width="30" height="30" viewBox="0 0 30 30" fill="none" xmlns="http://www.w3.org/2000/svg">
<g clip-path="url(#clip0_6611_161314)">
<path d="M15 30C23.2843 30 30 23.2843 30 15C30 6.71573 23.2843 0 15 0C6.71573 0 0 6.71573 0 15C0 23.2843 6.71573 30 15 30Z" fill="#1969FF"/>
<path d="M14.0904 4.77013C14.5958 4.50371 15.3647 4.50371 15.8701 4.77013L21.0268 7.48873C21.3312 7.64918 21.4983 7.88828 21.5283 8.1351H21.5332V21.8001C21.5265 22.0694 21.3578 22.3368 21.0268 22.5113L15.8701 25.2299C15.3647 25.4963 14.5958 25.4963 14.0904 25.2299L8.93368 22.5113C8.60412 22.3375 8.44597 22.0682 8.43813 21.8001C8.43733 21.7726 8.43726 21.7499 8.43811 21.7313L8.43813 8.22711C8.43736 8.20811 8.43736 8.1892 8.43811 8.17037L8.43813 8.1351H8.44044C8.46334 7.88555 8.62291 7.65256 8.93368 7.48873L14.0904 4.77013ZM20.7129 15.7324L15.8685 18.2947C15.3639 18.5617 14.596 18.5617 14.0914 18.2947L9.25781 15.7381V21.7579L14.0914 24.3009C14.3771 24.4538 14.6741 24.6027 14.9633 24.6092L14.98 24.6094C15.2686 24.6103 15.5488 24.4635 15.833 24.3246L20.7129 21.736V15.7324ZM7.6296 21.5039C7.6296 22.0278 7.68995 22.3721 7.80976 22.6146C7.90906 22.8157 8.05807 22.9693 8.33013 23.1563L8.34566 23.1669C8.40537 23.2075 8.47114 23.2501 8.55121 23.3L8.64562 23.3584L8.93555 23.5349L8.51972 24.2285L8.19521 24.0308L8.14067 23.997C8.04685 23.9385 7.96908 23.8884 7.89654 23.839C7.12115 23.3116 6.83196 22.7366 6.82626 21.5403L6.82617 21.5039H7.6296ZM14.5898 12.0996C14.5523 12.1125 14.5172 12.1275 14.4851 12.1444L9.33623 14.8718C9.33082 14.8746 9.32567 14.8775 9.32077 14.8803L9.31641 14.8828L9.32449 14.8875L9.33623 14.8938L14.4851 17.6212C14.5172 17.6382 14.5523 17.6531 14.5898 17.666V12.0996ZM15.4102 12.0996V17.666C15.4477 17.6531 15.4829 17.6382 15.5149 17.6212L20.6638 14.8938C20.6692 14.891 20.6743 14.8881 20.6792 14.8853L20.6836 14.8828L20.6755 14.8782L20.6638 14.8718L15.5149 12.1444C15.4829 12.1275 15.4477 12.1125 15.4102 12.0996ZM20.7129 9.11133L16.084 11.543L20.7129 13.9746V9.11133ZM9.25781 9.11133V13.9746L13.8867 11.543L9.25781 9.11133ZM15.5104 5.49689C15.2424 5.3552 14.7576 5.3552 14.4896 5.49689L9.33624 8.2214C9.33084 8.22427 9.32568 8.22708 9.32077 8.2299L9.31641 8.23242L9.3245 8.23705L9.33624 8.24344L14.4896 10.9679C14.7576 11.1096 15.2424 11.1096 15.5104 10.9679L20.6637 8.24344C20.6691 8.24057 20.6743 8.23775 20.6792 8.23496L20.6836 8.23242L20.6755 8.22779L20.6637 8.2214L15.5104 5.49689ZM21.4803 5.77148L21.8048 5.96922L21.8593 6.003C21.9531 6.06143 22.0309 6.11164 22.1035 6.16098C22.8789 6.6884 23.168 7.26343 23.1737 8.45965L23.1738 8.49609H22.3704C22.3704 7.97222 22.3101 7.62794 22.1902 7.38536C22.0909 7.18432 21.9419 7.03068 21.6699 6.84373L21.6543 6.83311C21.5946 6.7925 21.5289 6.74994 21.4488 6.69995L21.3544 6.6416L21.0645 6.46508L21.4803 5.77148Z" fill="white"/>
</g>
<defs>
<clipPath id="clip0_6611_161314">
<rect width="30" height="30" fill="white"/>
</clipPath>
</defs>
</svg>
