<svg width="15" height="15" viewBox="0 0 15 15" fill="none" xmlns="http://www.w3.org/2000/svg">
<g clip-path="url(#clip0_4660_28655)">
<path d="M7.5 15C11.6421 15 15 11.6421 15 7.5C15 3.35786 11.6421 0 7.5 0C3.35786 0 0 3.35786 0 7.5C0 11.6421 3.35786 15 7.5 15Z" fill="#8247E5"/>
<path d="M9.98247 5.89535C9.80259 5.7907 9.56873 5.7907 9.37086 5.89535L7.96771 6.69768L7.0143 7.22093L5.61117 8.02326C5.43127 8.12791 5.19743 8.12791 4.99954 8.02326L3.88422 7.39535C3.70434 7.2907 3.57842 7.09884 3.57842 6.88953V5.65116C3.57842 5.44187 3.68635 5.25 3.88422 5.14535L4.98155 4.53488C5.16144 4.43023 5.3953 4.43023 5.59318 4.53488L6.6905 5.14535C6.8704 5.25 6.99631 5.44187 6.99631 5.65116V6.45349L7.94972 5.91278V5.11046C7.94972 4.90116 7.84179 4.7093 7.64392 4.60465L5.61117 3.45349C5.43127 3.34884 5.19743 3.34884 4.99954 3.45349L2.93082 4.60465C2.73293 4.7093 2.625 4.90116 2.625 5.11046V7.43023C2.625 7.63953 2.73293 7.83139 2.93082 7.93604L4.99954 9.0872C5.17944 9.19187 5.41329 9.19187 5.61117 9.0872L7.0143 8.30232L7.96771 7.76162L9.37086 6.97674C9.55074 6.87209 9.7846 6.87209 9.98247 6.97674L11.0798 7.5872C11.2597 7.69187 11.3856 7.88372 11.3856 8.09303V9.33139C11.3856 9.5407 11.2777 9.73255 11.0798 9.8372L9.98247 10.4651C9.80259 10.5698 9.56873 10.5698 9.37086 10.4651L8.27353 9.85465C8.09364 9.75 7.96771 9.55814 7.96771 9.34884V8.54651L7.0143 9.0872V9.88953C7.0143 10.0988 7.12223 10.2907 7.32012 10.3954L9.38884 11.5465C9.56873 11.6512 9.80259 11.6512 10.0005 11.5465L12.0692 10.3954C12.2491 10.2907 12.375 10.0988 12.375 9.88953V7.56977C12.375 7.36046 12.2671 7.16861 12.0692 7.06395L9.98247 5.89535Z" fill="white"/>
</g>
<defs>
<clipPath id="clip0_4660_28655">
<rect width="15" height="15" fill="white"/>
</clipPath>
</defs>
</svg>
