<svg xmlns="http://www.w3.org/2000/svg" fill="none" viewBox="0 0 20 20" height="20" width="20">
<circle fill="white" r="10" cy="10" cx="10"></circle>
<circle fill-opacity="0.1" fill="#848E9C" r="10" cy="10" cx="10"></circle>
<path fill="#F1B90C" d="M6.43762 5.39703L9.96014 3.34662L13.4826 5.39703L12.1876 6.15451L9.96014 4.86157L7.73267 6.15451L6.43762 5.39703ZM13.4826 7.9829L12.1876 7.22543L9.96014 8.51836L7.73267 7.22543L6.43762 7.9829V9.49786L8.66509 10.7908V13.3767L9.96014 14.1341L11.2552 13.3767V10.7908L13.4826 9.49786V7.9829ZM13.4826 12.0837V10.5688L12.1876 11.3263V12.8412L13.4826 12.0837ZM14.4021 12.6192L12.1747 13.9121V15.4271L15.6972 13.3767V9.27584L14.4021 10.0333V12.6192ZM13.1071 6.68997L14.4021 7.44744V8.9624L15.6972 8.20492V6.68997L14.4021 5.93249L13.1071 6.68997ZM8.66509 14.4606V15.9756L9.96014 16.7331L11.2552 15.9756V14.4606L9.96014 15.2181L8.66509 14.4606ZM6.43762 12.0837L7.73267 12.8412V11.3263L6.43762 10.5688V12.0837ZM8.66509 6.68997L9.96014 7.44744L11.2552 6.68997L9.96014 5.93249L8.66509 6.68997ZM5.51813 7.44744L6.81317 6.68997L5.51813 5.93249L4.22308 6.68997V8.20492L5.51813 8.9624V7.44744ZM5.51813 10.0333L4.22308 9.27584V13.3767L7.7456 15.4271V13.9121L5.51813 12.6192V10.0333Z"></path>
</svg>
