<svg width="15" height="15" viewBox="0 0 15 15" fill="none" xmlns="http://www.w3.org/2000/svg">
<g clip-path="url(#clip0_4660_29155)">
<path d="M7.50234 15.0047C11.6458 15.0047 15.0047 11.6458 15.0047 7.50234C15.0047 3.35891 11.6458 0 7.50234 0C3.35891 0 0 3.35891 0 7.50234C0 11.6458 3.35891 15.0047 7.50234 15.0047Z" fill="#FF0420"/>
<path d="M5.33792 9.49782C4.89122 9.49782 4.52551 9.39282 4.24021 9.18252C3.95881 8.96862 3.81812 8.66472 3.81812 8.27052C3.81812 8.18802 3.82742 8.08662 3.84632 7.96662C3.89522 7.69632 3.96452 7.37172 4.05452 6.99282C4.30982 5.96082 4.96832 5.44482 6.03032 5.44482C6.31922 5.44482 6.57812 5.49372 6.80702 5.59122C7.03592 5.68512 7.21622 5.82762 7.34732 6.01902C7.47872 6.20652 7.54441 6.43182 7.54441 6.69462C7.54441 6.77352 7.53512 6.87282 7.51622 6.99312C7.45982 7.32702 7.39232 7.65162 7.31372 7.96692C7.18232 8.48112 6.95521 8.86572 6.63271 9.12102C6.30991 9.37242 5.87852 9.49812 5.33792 9.49812V9.49782ZM5.41682 8.68722C5.62712 8.68722 5.80532 8.62542 5.95171 8.50152C6.10172 8.37762 6.20881 8.18802 6.27271 7.93302C6.35911 7.58022 6.42482 7.27242 6.46982 7.00992C6.48482 6.93102 6.49232 6.85032 6.49232 6.76782C6.49232 6.42642 6.31412 6.25572 5.95772 6.25572C5.74741 6.25572 5.56742 6.31752 5.41742 6.44142C5.27102 6.56532 5.16602 6.75492 5.10212 7.00992C5.03462 7.26132 4.96712 7.56912 4.89931 7.93302C4.88432 8.00802 4.87681 8.08692 4.87681 8.16942C4.87681 8.51472 5.05712 8.68722 5.41712 8.68722H5.41682Z" fill="white"/>
<path d="M7.80301 9.44166C7.76161 9.44166 7.72981 9.42846 7.70731 9.40236C7.68841 9.37236 7.68301 9.33846 7.69051 9.30096L8.46721 5.64216C8.47471 5.60076 8.49541 5.56716 8.52901 5.54076C8.56291 5.51436 8.59831 5.50146 8.63611 5.50146H10.1334C10.5501 5.50146 10.884 5.58786 11.1354 5.76036C11.3907 5.93286 11.5182 6.18247 11.5182 6.50917C11.5182 6.60307 11.5068 6.70056 11.4843 6.80196C11.3904 7.23366 11.2011 7.55257 10.9158 7.75897C10.6344 7.96537 10.2477 8.06856 9.75631 8.06856H8.99641L8.73751 9.30127C8.73001 9.34267 8.70931 9.37626 8.67571 9.40266C8.64181 9.42906 8.60611 9.44196 8.56861 9.44196H7.80301V9.44166ZM9.79561 7.29126C9.95311 7.29126 10.0902 7.24806 10.2066 7.16167C10.3266 7.07527 10.4055 6.95136 10.443 6.79026C10.4544 6.72636 10.4598 6.67026 10.4598 6.62136C10.4598 6.51246 10.428 6.42996 10.3641 6.37357C10.3002 6.31357 10.1916 6.28356 10.0377 6.28356H9.36211L9.14821 7.29126H9.79561Z" fill="white"/>
</g>
<defs>
<clipPath id="clip0_4660_29155">
<rect width="15" height="15" fill="white"/>
</clipPath>
</defs>
</svg>
