<svg xmlns="http://www.w3.org/2000/svg" fill="none" viewBox="0 0 30 31" height="31" width="30">
<circle fill="black" r="15" cy="15.5" cx="15"></circle>
<mask height="15" width="18" y="8" x="6" maskUnits="userSpaceOnUse" style="mask-type:luminance" id="mask0_9063_150136">
<path fill="white" d="M23.3714 8H6.62988V23H23.3714V8Z"></path>
</mask>
<g mask="url(#mask0_9063_150136)">
<path fill="url(#paint0_linear_9063_150136)" d="M23.2852 19.8264L20.5215 22.7957C20.4615 22.8602 20.3888 22.9116 20.308 22.9468C20.2272 22.9819 20.1401 23.0001 20.052 23H6.95073C6.88822 23 6.82706 22.9817 6.77479 22.9474C6.72251 22.913 6.68139 22.8641 6.65647 22.8067C6.63156 22.7492 6.62393 22.6858 6.63453 22.6241C6.64513 22.5623 6.6735 22.5051 6.71615 22.4593L9.48193 19.49C9.54185 19.4257 9.61431 19.3743 9.69483 19.3392C9.77534 19.304 9.8622 19.2859 9.95003 19.2857H23.0506C23.1131 19.2857 23.1742 19.304 23.2265 19.3383C23.2788 19.3727 23.3199 19.4216 23.3449 19.479C23.3698 19.5364 23.3774 19.6 23.3668 19.6616C23.3562 19.7234 23.3278 19.7806 23.2852 19.8264ZM20.5215 13.8472C20.4615 13.7826 20.3888 13.7312 20.308 13.6961C20.2272 13.6609 20.1401 13.6428 20.052 13.6428H6.95073C6.88822 13.6428 6.82706 13.6611 6.77479 13.6955C6.72251 13.7298 6.68139 13.7787 6.65647 13.8361C6.63156 13.8936 6.62393 13.9571 6.63453 14.0188C6.64513 14.0805 6.6735 14.1378 6.71615 14.1836L9.48193 17.1528C9.54185 17.2172 9.61431 17.2685 9.69483 17.3037C9.77534 17.3388 9.8622 17.357 9.95003 17.3572H23.0506C23.1131 17.3572 23.1742 17.3389 23.2265 17.3045C23.2788 17.2702 23.3199 17.2213 23.3449 17.1638C23.3698 17.1064 23.3774 17.0429 23.3668 16.9812C23.3562 16.9195 23.3278 16.8622 23.2852 16.8164L20.5215 13.8472ZM6.95073 11.7143H20.052C20.1401 11.7143 20.2272 11.6962 20.308 11.6611C20.3888 11.6259 20.4615 11.5745 20.5215 11.51L23.2852 8.54071C23.3278 8.49493 23.3562 8.43765 23.3668 8.37594C23.3774 8.31422 23.3698 8.25074 23.3449 8.19331C23.3199 8.13587 23.2788 8.08698 23.2265 8.05264C23.1742 8.0183 23.1131 8 23.0506 8H9.95003C9.8622 8.00015 9.77534 8.01836 9.69483 8.0535C9.61431 8.08864 9.54185 8.13996 9.48193 8.20429L6.71686 11.1736C6.67425 11.2193 6.6459 11.2765 6.63527 11.3382C6.62465 11.3998 6.63221 11.4632 6.65704 11.5207C6.68187 11.5781 6.72289 11.627 6.77505 11.6613C6.82722 11.6957 6.88828 11.7141 6.95073 11.7143Z"></path>
</g>
<defs>
<linearGradient gradientUnits="userSpaceOnUse" y2="7.86648" x2="21.8095" y1="23.3575" x1="8.04307" id="paint0_linear_9063_150136">
<stop stop-color="#9945FF" offset="0.08"></stop>
<stop stop-color="#8752F3" offset="0.3"></stop>
<stop stop-color="#5497D5" offset="0.5"></stop>
<stop stop-color="#43B4CA" offset="0.6"></stop>
<stop stop-color="#28E0B9" offset="0.72"></stop>
<stop stop-color="#19FB9B" offset="0.97"></stop>
</linearGradient>
</defs>
</svg>
