<svg xmlns="http://www.w3.org/2000/svg" fill="none" viewBox="0 0 30 30" height="30" width="30">
<path fill="#EB0029" d="M15 30C23.2843 30 30 23.2843 30 15C30 6.71573 23.2843 0 15 0C6.71573 0 0 6.71573 0 15C0 23.2843 6.71573 30 15 30Z"></path>
<path fill="white" d="M21.4911 8.83041L6 6L14.154 26.4L25.5 12.6394L21.4911 8.83041ZM21.249 10.08L23.6241 12.3232L17.1493 13.4976L21.249 10.08ZM15.7273 13.2567L8.90458 7.62598L20.069 9.67351L15.7273 13.2567ZM15.2432 14.2503L14.1389 23.404L8.11792 8.37875L15.2432 14.2503ZM16.2719 14.7472L23.4426 13.4524L15.213 23.4341L16.2719 14.7472Z"></path>
</svg>
