<svg xmlns="http://www.w3.org/2000/svg" fill="none" viewBox="0 0 500 320" height="320" width="500">
<rect fill="#E6E8EA" transform="matrix(-0.866025 0.5 2.20305e-08 1 295.16 43.5693)" height="129.843" width="185.192"></rect>
<rect fill="#AEB4BC" transform="matrix(0.866025 0.5 -2.20305e-08 1 123 129.649)" height="129.573" width="13.6017"></rect>
<rect fill="#CACED3" transform="matrix(0.866025 0.5 0.866025 -0.5 123.128 129.748)" height="185.497" width="13.1422"></rect>
<rect fill="#CACED3" transform="matrix(-0.866025 0.5 2.20305e-08 1 332.5 130.122)" height="97.8879" width="139.615"></rect>
<rect fill="#929AA5" transform="matrix(0.866025 0.5 -2.20305e-08 1 202.709 195.018)" height="97.6845" width="10.2542"></rect>
<rect fill="#AEB4BC" transform="matrix(0.866025 0.5 0.866025 -0.5 202.806 195.092)" height="139.845" width="9.90785"></rect>
<path fill="#D0980B" d="M351.046 75.7256L351.046 71.5883L333.535 65.6168L299.851 96.3033L317.362 106.412L351.046 75.7256Z"></path>
<path fill="#D0980B" d="M376.253 90.2703L376.202 37.8818L310.068 48.222L310.068 52.0618L331.833 64.6265L351.52 75.992L376.253 90.2703Z"></path>
<path fill="#F8D33A" d="M351.046 71.5838L333.535 61.4749L299.851 92.1614L317.361 102.27L351.046 71.5838Z"></path>
<path fill="#D0980B" d="M299.851 96.3047L317.362 102.272L317.362 106.414L285.635 111.466L268.125 101.357L299.851 96.3047Z"></path>
<path fill="#FCEA9C" d="M299.851 92.1621L317.362 102.271L285.635 107.323L268.125 97.2145L299.851 92.1621Z"></path>
<path fill="#F8D33A" d="M376.253 86.4286L376.202 34.04L310.068 48.2201L331.833 60.7847L351.52 72.1502L376.253 86.4286Z"></path>
<path fill="#D0980B" d="M236.951 119.077L236.916 115.068L299.533 105.114L317.044 102.276L317.044 106.418L236.951 119.077Z"></path>
<path fill="#D0980B" d="M236.952 119.073L236.918 115.079L235.499 116.472L164.703 185.812L166.155 188.413L236.952 119.073Z"></path>
<path fill="#A67907" d="M164.703 185.812L166.155 188.412L148.645 178.304L147.164 175.729L164.703 185.812Z"></path>
<path fill="#F8D238" d="M236.923 115.076L219.412 104.967L147.163 175.73L164.674 185.839L236.923 115.076Z"></path>
<path fill="#FCEA9C" d="M236.903 115.078L219.392 104.969L299.852 92.1667L317.363 102.276L236.903 115.078Z"></path>
<path fill="#F0B90B" d="M365.229 180.127L365.229 177.419L353.766 173.51L331.716 193.597L343.179 200.215L365.229 180.127Z"></path>
<path fill="#F0B90B" d="M381.73 189.648L381.696 155.354L338.405 162.123L338.405 164.636L352.652 172.861L365.539 180.301L381.73 189.648Z"></path>
<path fill="#FCEA9C" d="M365.229 177.416L353.767 170.798L331.717 190.886L343.179 197.503L365.229 177.416Z"></path>
<path fill="#F0B90B" d="M331.717 193.598L343.179 197.505L343.179 200.216L322.411 203.523L310.948 196.906L331.717 193.598Z"></path>
<path fill="#FCEA9C" d="M331.717 190.886L343.179 197.504L322.411 200.811L310.948 194.194L331.717 190.886Z"></path>
<path fill="#FCEA9C" d="M381.729 187.133L381.695 152.839L338.404 162.122L352.651 170.347L365.538 177.787L381.729 187.133Z"></path>
<path fill="#F0B90B" d="M290.542 208.506L290.52 205.882L331.509 199.365L342.972 197.508L342.972 200.219L290.542 208.506Z"></path>
<path fill="#F0B90B" d="M290.541 208.503L290.519 205.888L289.59 206.8L243.214 252.189L244.184 253.902L290.541 208.503Z"></path>
<path fill="#FCEA9B" d="M290.523 205.886L279.061 199.269L231.766 245.591L243.229 252.208L290.523 205.886Z"></path>
<path fill="#A67907" d="M243.24 252.183L244.184 253.901L232.736 247.277L231.762 245.585L243.24 252.183Z"></path>
<path fill="#FFF6D0" d="M290.51 205.887L279.048 199.27L331.718 190.89L343.18 197.507L290.51 205.887Z"></path>
</svg>
