<svg xmlns="http://www.w3.org/2000/svg" fill="none" viewBox="0 0 580 320" height="320" width="580">
<path fill="#E6E8EA" d="M303.242 130.589L161.336 212.511L301.529 293.444L443.434 211.522L303.242 130.589Z"></path>
<rect fill="#AEB4BC" transform="matrix(4.37114e-08 1 0.865988 -0.500065 301.509 293.524)" height="164.019" width="16.6151"></rect>
<rect fill="#CACED3" transform="matrix(-4.37114e-08 1 -0.865988 -0.500065 301.453 293.232)" height="161.706" width="17.2601"></rect>
<path fill="#929AA5" d="M394.955 151.357L394.955 213.458L413.686 202.642L413.686 140.541L394.955 151.357ZM301.097 205.61L301.094 205.89L301.094 205.889V267.786L319.825 256.97V194.795L301.097 205.61ZM221.697 160.022L203.014 149.229L202.967 149.256V211.432L221.697 200.616V160.022ZM268.611 187.124L249.886 176.307L249.88 176.31V238.485L268.611 227.669V187.124ZM348.008 240.694V178.519L366.738 167.703V229.878L348.008 240.694Z" clip-rule="evenodd" fill-rule="evenodd"></path>
<rect fill="#CACED3" transform="matrix(-4.37114e-08 1 0.865988 0.500065 330.631 167.429)" height="20.0649" width="64.1548"></rect>
<rect fill="#CACED3" transform="matrix(-4.37114e-08 1 0.865988 0.500065 283.773 193.596)" height="20.0649" width="64.1548"></rect>
<rect fill="#AEB4BC" transform="matrix(-4.37114e-08 1 0.865988 0.500065 283.773 195.87)" height="20.0649" width="8.2928"></rect>
<rect fill="#CACED3" transform="matrix(-4.37114e-08 1 0.865988 0.500065 232.644 164.099)" height="20.0649" width="64.1548"></rect>
<rect fill="#AEB4BC" transform="matrix(-4.37114e-08 1 0.865988 0.500065 232.643 166.497)" height="20.0649" width="8.2928"></rect>
<rect fill="#CACED3" transform="matrix(-4.37114e-08 1 0.865988 0.500065 185.59 137.038)" height="20.0649" width="64.1548"></rect>
<rect fill="#AEB4BC" transform="matrix(-4.37114e-08 1 0.865988 0.500065 185.591 138.766)" height="20.0649" width="8.2928"></rect>
<path fill="#CACED3" d="M376.479 162.023L376.479 202.714L394.946 213.377L394.946 151.359L376.479 162.023Z" clip-rule="evenodd" fill-rule="evenodd"></path>
<path fill="#AEB4BC" d="M301.093 181.467V205.886L422.241 136.329L422.241 111.91L301.093 181.467Z"></path>
<path fill="#E6E8EA" d="M301.048 181.604L301.093 205.886L180.231 136.259V111.838L301.048 181.604Z"></path>
<path fill="#CACED3" d="M301.149 42.0938L180.08 111.987L301.149 181.88L422.218 111.987L301.149 42.0938Z"></path>
<path fill="#929AA5" d="M422.042 111.975L357.049 10L235.875 79.7144L301.026 182.004L422.042 111.975Z"></path>
<path fill="#F5F5F5" d="M251.517 128.548C251.516 119.421 245.108 108.323 237.204 103.759C229.299 99.1958 222.892 102.895 222.893 112.022C222.894 121.149 229.302 132.248 237.206 136.811C245.11 141.375 251.517 137.675 251.517 128.548Z"></path>
<path fill="#76808F" d="M237.243 129.603L245.33 124.933L237.242 110.924L229.154 115.594L237.243 129.603Z"></path>
<path fill="#CACED3" d="M72.0001 115.231L84.4849 134.279V162.651L86.2925 163.708L86.2925 146.068L89.6094 147.983V144.153C89.6094 138.864 93.3221 136.721 97.9018 139.365C102.482 142.009 106.194 148.44 106.194 153.728V157.558L109.511 159.473L109.511 177.274L114.625 180.263L128.988 202.161L141.473 195.929L141.5 140L84.4849 109L72.0001 115.231ZM102.048 151.334V155.164L93.7556 150.376V146.546C93.7556 143.902 95.6119 142.831 97.9018 144.153C100.192 145.475 102.048 148.69 102.048 151.334ZM100.39 159.952V169.527L95.4141 166.654V157.079L100.39 159.952Z" clip-rule="evenodd" fill-rule="evenodd"></path>
<path fill="#AEB4BC" d="M72.5966 169.236L128.988 202.16V146.432L72 115V168.197C72 168.639 72.221 169.015 72.5966 169.236ZM89.6094 147.983V144.153C89.6094 138.864 93.322 136.721 97.9018 139.365C102.482 142.009 106.194 148.44 106.194 153.728V157.558L109.511 159.473L109.511 180.538L86.2925 167.133L86.2925 146.068L89.6094 147.983ZM102.048 151.334V155.164L93.7556 150.376V146.546C93.7556 143.902 95.6119 142.831 97.9018 144.153C100.192 145.475 102.048 148.69 102.048 151.334ZM100.389 159.952V169.527L95.4141 166.654V157.079L100.389 159.952Z" clip-rule="evenodd" fill-rule="evenodd"></path>
<path fill="#CACED3" d="M114.426 115.001L123.994 109.973L124.5 144L114 138.5L114.426 115.001Z"></path>
<path fill="#AEB4BC" d="M114.426 115V138.742L102.5 132.5L114.426 115Z"></path>
<path fill="#D0980B" d="M480.426 146.794L489.994 141.822V126.001L479.609 130.575L480.426 146.794Z"></path>
<path fill="#F0B90B" d="M480.427 146.795V126.002L467.964 118.113L480.427 146.795Z"></path>
<path fill="#D0980B" d="M438 52.7938L450.485 71.8414V100.214L469.799 111.499C468.473 109.641 467.609 107.351 467.609 105.328C467.609 102 469.945 100.652 472.826 102.315C475.708 103.979 478.044 108.025 478.044 111.352C478.044 113.402 477.157 114.701 475.802 115.007L480.625 117.825L494.988 139.723L507.473 133.492V77.7633L450.485 46.5625L438 52.7938ZM463.435 86.0485C463.435 89.3757 461.099 90.7243 458.217 89.0607C455.336 87.3971 453 83.3513 453 80.024C453 76.6968 455.336 75.3482 458.217 77.0118C461.099 78.6754 463.435 82.7213 463.435 86.0485ZM473.884 87.4521L476.836 92.564L457.159 103.924L454.208 98.8123L473.884 87.4521Z" clip-rule="evenodd" fill-rule="evenodd"></path>
<path fill="#F0B90B" d="M438.597 106.799L494.988 139.723V83.9945L438 52.5625V105.76C438 106.202 438.221 106.578 438.597 106.799ZM463.435 86.0485C463.435 89.3757 461.099 90.7243 458.217 89.0607C455.336 87.3971 453 83.3513 453 80.024C453 76.6968 455.336 75.3482 458.217 77.0118C461.099 78.6754 463.435 82.7213 463.435 86.0485ZM478.044 111.352C478.044 114.679 475.708 116.028 472.826 114.364C469.945 112.701 467.609 108.655 467.609 105.328C467.609 102 469.945 100.652 472.826 102.315C475.708 103.979 478.044 108.025 478.044 111.352ZM473.884 87.4521L476.836 92.564L457.159 103.924L454.208 98.8123L473.884 87.4521Z" clip-rule="evenodd" fill-rule="evenodd"></path>
<path fill="#F8D33A" d="M507.5 77.5625L495 84.0625L438 52.5625L450.5 46.5625L507.5 77.5625Z"></path>
<path fill="#929AA5" d="M129 146.6L141.5 140.187L141.5 196.187L129 202.345L129 146.6Z"></path>
</svg>
